<svg width="160" height="160" viewBox="0 0 160 160" fill="none" xmlns="http://www.w3.org/2000/svg">
<g filter="url(#filter0_b_1042_899)">
<rect width="160" height="160" rx="80" fill="#FF9B28" fill-opacity="0.5"/>
</g>
<g opacity="0.6" clip-path="url(#clip0_1042_899)">
<path d="M43.328 29.8646C42.7716 30.2811 42.2153 30.5587 41.5894 30.6975C40.9635 30.8364 40.3376 30.8364 39.7117 30.6975C39.0858 30.6281 38.5294 30.3505 37.9731 30.0728C37.4167 29.7258 36.9299 29.3093 36.5126 28.754C36.0954 28.1987 35.8172 27.574 35.6781 26.9493C35.539 26.3246 35.4695 25.6999 35.539 25.0752C35.6085 24.4505 35.8172 23.8952 36.1649 23.3399C36.5126 22.7847 36.9299 22.2988 37.4862 21.8823C38.1121 21.3964 38.738 21.1188 39.503 20.98C40.1985 20.8411 40.8939 20.9106 41.5198 21.0494L41.3807 22.0211C40.8244 21.8129 40.268 21.8129 39.7117 21.8823C39.1553 21.9517 38.599 22.2294 38.1121 22.5764C37.4862 22.9929 37.069 23.5482 36.7908 24.1729C36.5126 24.7976 36.4431 25.4223 36.5126 26.1164C36.5822 26.8105 36.8603 27.4352 37.3472 28.0599C37.7644 28.6846 38.3208 29.1011 38.9467 29.3787C39.5726 29.6564 40.1985 29.7952 40.8244 29.7258C41.4503 29.6564 42.0762 29.4481 42.6325 29.0317C43.1889 28.6152 43.6061 28.1293 43.8843 27.574C44.1625 27.0187 44.232 26.4635 44.093 25.8388C43.9539 25.214 43.7452 24.5893 43.2584 23.9646H43.9539L40.6157 26.4635L40.0594 25.6999L43.8148 22.9235V23.0623C44.5798 23.8952 44.9275 24.7976 45.0666 25.5611C45.2057 26.3246 45.0666 27.1576 44.7884 27.8517C44.5102 28.5458 43.9539 29.1705 43.2584 29.7258L43.328 29.8646Z" fill="white"/>
<path d="M47.501 26.741L46.5273 16.4682L47.2228 16.1211L55.0813 22.7846L54.1077 23.2704L47.2228 17.3705L47.5705 17.1623L48.4746 26.1857L47.501 26.6716V26.741ZM47.9878 23.6869L47.5705 22.854L52.0213 20.5634L52.4386 21.3963L47.9878 23.6869Z" fill="white"/>
<path d="M56.751 22.16L53.4824 13.2059L54.456 12.8589L57.6551 21.8129L56.6815 22.16H56.751ZM57.3769 21.9518L57.0987 21.0494L62.0364 19.2447L62.3841 20.1471L57.4465 21.9518H57.3769Z" fill="white"/>
<path d="M64.1215 19.7305L62.0352 10.4294L63.0088 10.2212L65.0951 19.5223L64.1215 19.7305ZM64.7474 19.5917L64.5388 18.6894L69.685 17.5094L69.8937 18.4117L64.7474 19.5917Z" fill="white"/>
<path d="M71.6345 18.2034L70.7305 8.69404H71.7736L72.6777 18.134H71.6345V18.2034ZM71.4955 9.52697V8.62463L76.9199 8.06934V8.97168L71.4955 9.52697ZM71.8432 13.6916V12.7893L76.9199 12.3034V13.2058L71.8432 13.6916ZM72.2604 18.134V17.2316L77.7544 16.6763V17.5787L72.2604 18.134Z" fill="white"/>
<path d="M79.9785 17.5787L80.3958 8H81.4389L81.0217 17.5787H79.9785ZM80.813 13.2753V12.4423L83.6644 12.5811C84.2903 12.5811 84.7771 12.4423 85.1248 12.1647C85.4725 11.887 85.6812 11.4706 85.6812 10.9153C85.6812 10.4294 85.5421 9.94351 85.2639 9.59646C84.9857 9.2494 84.4989 9.04117 83.8035 9.04117L81.0217 8.90235V8L83.873 8.13882C84.4989 8.13882 85.0553 8.27764 85.4725 8.55529C85.8898 8.83293 86.2375 9.11058 86.4461 9.52705C86.6548 9.94351 86.7939 10.36 86.7243 10.9153C86.7243 11.4706 86.5852 11.887 86.3071 12.3035C86.0289 12.72 85.6811 12.9976 85.2639 13.2058C84.7771 13.4141 84.2903 13.4835 83.6644 13.4835L80.8826 13.3447L80.813 13.2753ZM85.7507 17.787L82.343 13.2058L83.3166 12.9282L87.0025 17.787H85.6812H85.7507Z" fill="white"/>
<path d="M91.6626 14.5941L88.8809 8.4165L90.0631 8.62474L92.3581 13.8306H91.8713L95.8353 9.66591L96.948 9.87414L92.219 14.7329H91.6626V14.5941ZM90.7586 18.4811L91.5235 13.9L92.5667 14.1082L91.8017 18.6894L90.7586 18.5505V18.4811Z" fill="white"/>
<path d="M117.951 30.0727C117.395 29.6563 116.977 29.1704 116.63 28.6151C116.282 28.0598 116.073 27.5045 116.004 26.8798C115.934 26.2551 116.004 25.6304 116.143 25.0057C116.282 24.381 116.56 23.7563 116.977 23.201C117.395 22.6457 117.882 22.2293 118.438 21.8822C118.994 21.5352 119.551 21.3269 120.177 21.2575C120.802 21.1881 121.428 21.1881 122.054 21.3269C122.68 21.4657 123.306 21.7434 123.862 22.1599C124.488 22.6457 124.975 23.1316 125.323 23.7563C125.671 24.381 125.81 25.0751 125.81 25.7692L124.836 25.9081C124.836 25.3528 124.697 24.7975 124.419 24.2422C124.141 23.7563 123.793 23.2704 123.236 22.9234C122.611 22.5069 121.985 22.2293 121.359 22.1599C120.663 22.1599 120.037 22.1599 119.412 22.5069C118.786 22.7846 118.299 23.2704 117.812 23.8951C117.325 24.5198 117.117 25.1445 116.977 25.8386C116.838 26.5328 116.977 27.1575 117.186 27.7127C117.464 28.3375 117.882 28.8233 118.438 29.2398C118.994 29.6563 119.62 29.9339 120.177 30.0033C120.733 30.0727 121.359 30.0033 121.915 29.7257C122.471 29.448 122.958 29.0316 123.445 28.4069L123.654 29.101L120.316 26.6022L120.872 25.8386L124.627 28.6151V28.7539C123.932 29.5869 123.236 30.2116 122.471 30.628C121.706 30.9751 120.941 31.1139 120.177 31.0445C119.412 30.9751 118.647 30.628 117.951 30.0727Z" fill="white"/>
<path d="M122.191 33.1268L131.719 29.1704L132.275 29.7257L128.242 39.235L127.477 38.4715L131.093 30.1422L131.371 30.4198L122.956 33.9598L122.191 33.1963V33.1268ZM125.182 32.641L125.808 32.0163L129.354 35.5562L128.729 36.1809L125.182 32.641Z" fill="white"/>
<path d="M129.146 40.4845L136.796 34.7234L137.422 35.5563L129.772 41.3175L129.146 40.4845ZM129.564 41.0398L130.329 40.4845L133.528 44.6492L132.763 45.2045L129.564 41.0398Z" fill="white"/>
<path d="M133.736 46.7315L142.012 41.9421L142.499 42.8445L134.223 47.6339L133.736 46.7315ZM134.084 47.3562L134.919 46.8703L137.561 51.4515L136.727 51.9374L134.084 47.3562Z" fill="white"/>
<path d="M137.492 53.5338L146.324 49.855L146.742 50.7573L137.909 54.4361L137.492 53.5338ZM137.77 54.1585L138.605 53.8114L140.761 59.0173L139.926 59.3643L137.77 54.1585ZM141.873 52.4232L142.708 52.0761L144.725 56.8655L143.89 57.2126L141.873 52.4232ZM145.768 50.8267L146.602 50.4797L148.758 55.6161L147.924 55.9632L145.768 50.8267Z" fill="white"/>
<path d="M140.551 61.169L149.8 58.6702L150.078 59.6419L140.829 62.1407L140.551 61.169ZM142.081 66.7219L145.419 62.1407L145.975 63.0431L142.428 68.0407L142.081 66.7913V66.7219ZM144.863 60.6831L145.697 60.4749L146.393 63.1819C146.532 63.8066 146.81 64.2231 147.227 64.4313C147.644 64.6395 148.062 64.7089 148.618 64.5701C149.105 64.4313 149.452 64.1536 149.731 63.7372C149.939 63.3207 150.009 62.8348 149.8 62.2101L149.105 59.5031L149.939 59.2949L150.635 62.0019C150.774 62.6266 150.843 63.1125 150.704 63.5984C150.565 64.0842 150.357 64.5007 150.078 64.8478C149.731 65.1948 149.313 65.4031 148.827 65.5419C148.34 65.6807 147.853 65.6807 147.366 65.5419C146.949 65.4031 146.532 65.1948 146.184 64.7784C145.836 64.3619 145.628 63.9454 145.488 63.3207L144.793 60.6137L144.863 60.6831Z" fill="white"/>
<path d="M142.916 71.7889L147.575 71.1642L147.715 72.2054L143.055 72.8301L142.916 71.7889ZM146.81 71.5112L151.887 66.9995L152.026 68.1795L147.784 71.9277V71.4418L152.791 74.01L152.93 75.1206L146.88 72.0665V71.5112H146.81Z" fill="white"/>
<path d="M139.856 101.15C140.065 100.525 140.413 99.97 140.83 99.4841C141.247 98.9982 141.734 98.6511 142.29 98.3735C142.847 98.0959 143.473 97.957 144.099 97.957C144.725 97.957 145.42 97.957 146.046 98.2347C146.672 98.5123 147.298 98.79 147.784 99.2064C148.271 99.6229 148.619 100.109 148.967 100.664C149.245 101.219 149.384 101.844 149.454 102.469C149.454 103.093 149.454 103.788 149.175 104.412C148.897 105.106 148.549 105.731 148.063 106.286C147.576 106.772 146.95 107.119 146.324 107.397L145.907 106.495C146.463 106.356 146.95 106.078 147.367 105.662C147.784 105.245 148.063 104.759 148.271 104.135C148.549 103.441 148.549 102.746 148.41 102.122C148.271 101.497 147.993 100.872 147.506 100.386C147.019 99.9005 146.463 99.5535 145.698 99.2758C145.003 98.9982 144.307 98.9288 143.612 99.0676C142.916 99.2064 142.36 99.4147 141.873 99.8311C141.386 100.248 141.039 100.803 140.76 101.497C140.552 102.191 140.482 102.816 140.552 103.371C140.621 103.926 140.9 104.482 141.317 104.898C141.734 105.315 142.29 105.662 143.055 105.939L142.43 106.356L143.82 102.399L144.725 102.677L143.195 107.05H143.055C142.012 106.633 141.247 106.148 140.691 105.592C140.135 104.968 139.787 104.273 139.648 103.51C139.509 102.746 139.648 101.913 139.856 101.081V101.15Z" fill="white"/>
<path d="M138.256 106.009L144.863 113.921L144.515 114.616L134.223 113.574L134.709 112.603L143.75 113.574L143.542 113.921L137.63 106.98L138.117 106.009H138.256ZM139.647 108.716L140.412 109.132L138.048 113.574L137.283 113.158L139.647 108.716Z" fill="white"/>
<path d="M132.833 115.587L133.598 116.143L130.538 120.446L129.773 119.891L132.833 115.587ZM133.181 115.032L140.97 120.585L140.414 121.418L132.625 115.865L133.251 115.032H133.181Z" fill="white"/>
<path d="M128.103 121.765L128.798 122.39L125.182 126.277L124.486 125.652L128.033 121.765H128.103ZM128.52 121.279L135.544 127.734L134.848 128.498L127.824 122.043L128.52 121.279Z" fill="white"/>
<path d="M122.679 127.249L123.305 127.943L118.993 131.552L118.367 130.858L122.679 127.249ZM125.6 130.65L126.156 131.344L122.192 134.676L121.636 133.981L125.6 130.65ZM123.235 126.763L129.425 134.051L128.66 134.676L122.54 127.387L123.305 126.763H123.235ZM128.242 133.843L128.868 134.537L124.626 138.077L124 137.383L128.242 133.843Z" fill="white"/>
<path d="M111.969 135.023L117.393 136.827L116.768 137.66L110.926 135.717L112.038 135.023H111.969ZM118.576 135.925L119.062 136.619L116.698 138.077C116.142 138.424 115.863 138.771 115.724 139.257C115.585 139.673 115.724 140.159 116.003 140.575C116.281 140.992 116.628 141.27 117.115 141.408C117.602 141.478 118.089 141.408 118.576 141.061L120.94 139.604L121.427 140.367L119.062 141.825C118.506 142.172 118.019 142.38 117.532 142.38C117.046 142.38 116.559 142.38 116.142 142.103C115.724 141.894 115.377 141.547 115.098 141.131C114.82 140.714 114.681 140.228 114.681 139.743C114.681 139.257 114.82 138.84 115.029 138.424C115.238 138.007 115.655 137.66 116.211 137.313L118.576 135.856V135.925ZM116.837 131.969L121.983 140.02L121.149 140.575L116.003 132.524L116.837 131.969Z" fill="white"/>
<path d="M107.447 137.383L109.394 141.617L108.49 142.033L106.543 137.799L107.447 137.383ZM108.907 140.992L114.68 144.463L113.567 144.948L108.699 142.033L109.186 141.825L108.282 147.447L107.238 147.933L108.351 141.27L108.838 141.061L108.907 140.992Z" fill="white"/>
<path d="M78.5177 143.213C79.2131 143.213 79.839 143.352 80.3954 143.629C80.9517 143.907 81.4385 144.254 81.8558 144.74C82.2731 145.226 82.6208 145.712 82.8294 146.337C83.0381 146.961 83.1771 147.586 83.1076 148.28C83.1076 148.974 82.9685 149.599 82.6903 150.224C82.4121 150.779 82.0644 151.334 81.6472 151.751C81.2299 152.167 80.6735 152.514 80.0476 152.722C79.4217 152.931 78.7958 153.069 78.1004 153.069C77.3354 153.069 76.64 152.861 76.0141 152.584C75.3882 152.236 74.8318 151.82 74.4841 151.265L75.1795 150.571C75.5273 151.056 75.9445 151.404 76.4313 151.681C76.9181 151.959 77.544 152.098 78.1699 152.098C78.9349 152.098 79.5608 151.959 80.1867 151.681C80.8126 151.404 81.2299 150.918 81.5776 150.293C81.9253 149.738 82.0644 149.044 82.134 148.28C82.134 147.516 81.9949 146.822 81.7167 146.267C81.4385 145.642 80.9517 145.157 80.4649 144.809C79.9781 144.462 79.2827 144.254 78.5872 144.254C77.8918 144.254 77.2659 144.393 76.7095 144.601C76.1532 144.879 75.7359 145.295 75.4577 145.781C75.1795 146.267 74.9709 146.961 74.9709 147.725L74.4145 147.308L78.5872 147.447V148.349L73.9277 148.211V148.072C73.9277 147.031 74.2059 146.128 74.5536 145.365C74.9709 144.601 75.5273 144.115 76.2227 143.699C76.9181 143.352 77.6831 143.144 78.5872 143.213H78.5177Z" fill="white"/>
<path d="M73.1629 143.074L67.5994 151.751L66.8344 151.612L64.748 141.547L65.8608 141.755L67.6689 150.64H67.2516L72.1198 142.866L73.1629 143.074ZM70.9375 145.226L70.7984 146.128L65.8608 145.226L65.9998 144.324L70.9375 145.226Z" fill="white"/>
<path d="M62.5237 140.784L62.2455 141.686L57.2383 140.02L57.5165 139.118L62.5237 140.784ZM63.1496 140.992L60.1591 150.085L59.1855 149.738L62.1759 140.645L63.1496 140.992Z" fill="white"/>
<path d="M55.1502 138.077L54.7329 138.91L50.0039 136.619L50.4212 135.786L55.1502 138.077ZM55.7761 138.354L51.673 146.961L50.7689 146.545L54.872 137.938L55.7761 138.354Z" fill="white"/>
<path d="M43.6072 141.755L43.1204 142.519L38.4609 139.534L38.9477 138.771L43.6072 141.755ZM45.8326 138.285L45.3458 139.048L40.9645 136.272L41.4513 135.508L45.8326 138.285ZM48.823 134.884L43.6072 142.935L42.7727 142.38L47.9885 134.328L48.823 134.884ZM48.2667 134.537L47.7799 135.3L43.0509 132.246L43.5377 131.482L48.2667 134.537Z" fill="white"/>
<path d="M38.7393 133.148L38.183 133.773L36.0966 131.968C35.6098 131.552 35.123 131.344 34.7057 131.413C34.2189 131.413 33.8712 131.621 33.5235 132.038C33.1758 132.454 33.0367 132.871 33.1062 133.357C33.1062 133.843 33.3844 134.259 33.8712 134.675L35.9575 136.48L35.4012 137.174L33.3149 135.37C32.828 134.953 32.4803 134.537 32.3412 134.051C32.2021 133.565 32.0631 133.148 32.2021 132.663C32.2717 132.177 32.4803 131.76 32.828 131.413C33.1758 130.997 33.593 130.719 34.0103 130.58C34.4276 130.441 34.9144 130.441 35.4012 130.58C35.888 130.719 36.3748 130.997 36.8616 131.344L38.9479 133.148H38.7393ZM42.0079 130.303L35.8185 137.591L35.0535 136.897L41.2429 129.608L42.0079 130.303ZM37.6266 126.554L37.4875 132.246L36.5139 131.83L36.653 125.721L37.6266 126.554Z" fill="white"/>
<path d="M31.0193 125.513L29.4198 132.107L28.5853 131.205L29.9761 125.721L30.3239 126.068L24.6908 126.832L23.9258 125.999L30.6716 125.097L31.0889 125.513H31.0193ZM34.0793 123.014L30.602 126.138L29.9066 125.374L33.3838 122.251L34.0793 123.014Z" fill="white"/>
<path d="M20.8667 100.248C21.0753 100.872 21.1448 101.497 21.1448 102.122C21.1448 102.746 20.9362 103.371 20.658 103.926C20.3798 104.482 19.9626 104.968 19.4758 105.384C18.989 105.8 18.4326 106.148 17.7372 106.356C17.0417 106.564 16.4158 106.633 15.7899 106.633C15.164 106.633 14.5381 106.425 13.9818 106.148C13.4254 105.87 12.9386 105.523 12.5213 105.037C12.1041 104.551 11.7563 103.996 11.5477 103.302C11.2695 102.608 11.2 101.844 11.3391 101.15C11.4086 100.456 11.6868 99.8311 12.0345 99.2064L12.9386 99.6229C12.5909 100.109 12.3822 100.595 12.3127 101.15C12.2432 101.705 12.3127 102.33 12.5213 102.885C12.73 103.579 13.1472 104.204 13.634 104.62C14.1209 105.037 14.7467 105.315 15.3726 105.453C16.0681 105.592 16.7635 105.453 17.459 105.245C18.1544 105.037 18.7803 104.62 19.1976 104.135C19.6844 103.649 19.9626 103.093 20.1017 102.469C20.2408 101.844 20.1712 101.15 19.9626 100.525C19.7539 99.8311 19.4062 99.3452 18.989 98.9287C18.5717 98.5123 18.0153 98.304 17.3894 98.1652C16.7635 98.0958 16.1376 98.1652 15.3726 98.3735L15.5813 97.6793L16.9026 101.636L15.9985 101.913L14.5381 97.4711H14.6772C15.7204 97.0546 16.6244 96.9852 17.459 97.1241C18.2935 97.2629 18.989 97.6099 19.5453 98.0958C20.1017 98.5817 20.5189 99.2758 20.8667 100.178V100.248Z" fill="white"/>
<path d="M19.1273 95.2499L9.04339 92.9593L8.9043 92.1958L17.6669 86.7817L17.8755 87.8923L10.0866 92.6123V92.1958L18.9187 94.1393L19.1273 95.1805V95.2499ZM16.3455 93.9311L15.4415 94.0699L14.6069 89.1417L15.511 89.0029L16.3455 93.9311Z" fill="white"/>
<path d="M17.6674 85.1159L8.07031 85.3936V84.3524L17.5979 84.0748V85.1159H17.6674ZM17.5979 84.4912H16.6938L16.5547 79.2854H17.4588L17.5979 84.4912Z" fill="white"/>
<path d="M17.5276 77.4807L8 76.6477V75.6066L17.5971 76.4395V77.4807H17.5276ZM17.5971 76.7866H16.693L17.1799 71.4419H18.0839L17.5971 76.7866Z" fill="white"/>
<path d="M18.3619 69.6372L9.04297 67.5549L9.2516 66.5831L18.5705 68.6655L18.3619 69.6372ZM10.0861 67.1384L9.18206 66.9302L10.3643 61.5161L11.2684 61.7243L10.0861 67.1384ZM14.1893 68.0408L13.2852 67.8325L14.3979 62.7655L15.302 62.9737L14.1893 68.0408ZM18.501 69.0125L17.5969 68.8043L18.7792 63.3208L19.6833 63.529L18.501 69.0125Z" fill="white"/>
<path d="M20.3091 61.6549L11.3379 58.3232L11.6856 57.3514L20.6568 60.6831L20.3091 61.6549ZM16.5537 59.5726L15.7192 59.2949L16.6928 56.6573C16.9014 56.102 16.9014 55.5467 16.6928 55.1302C16.4842 54.7138 16.1365 54.4361 15.6496 54.2279C15.1628 54.0197 14.676 54.0891 14.2588 54.2279C13.8415 54.4361 13.4938 54.8526 13.2851 55.4079L12.3115 58.0455L11.477 57.7679L12.4506 55.1302C12.6592 54.575 12.9374 54.0891 13.2851 53.742C13.6329 53.395 14.0501 53.1867 14.5369 53.1173C15.0237 53.0479 15.441 53.1173 15.9278 53.2561C16.4146 53.4644 16.8319 53.742 17.1101 54.0891C17.3882 54.4361 17.5969 54.8526 17.5969 55.3385C17.5969 55.8244 17.5969 56.3796 17.3187 56.9349L16.3451 59.5726H16.5537ZM22.3259 56.2408L16.9014 58.0455V57.0043L22.7432 54.9914L22.2564 56.2408H22.3259Z" fill="white"/>
<path d="M21.1442 49.6466L14.3984 50.4102L14.9548 49.369L20.5879 48.8137L20.3793 49.2302L17.667 44.2326L18.2234 43.1914L21.4224 49.1608L21.1442 49.6466ZM24.5519 51.6596L20.3793 49.5078L20.8661 48.6055L25.0387 50.7572L24.5519 51.6596Z" fill="white"/>
</g>
<g clip-path="url(#clip1_1042_899)">
<path d="M117.888 82.5463C113.533 81.4947 110.181 77.804 109.553 73.2267C109.492 72.7422 109.087 72.3813 108.601 72.3813C108.56 72.3813 108.53 72.3813 108.5 72.3813C108.469 72.3813 108.439 72.3813 108.408 72.3813H106.018C105.583 72.3813 105.228 72.7422 105.228 73.1855C105.228 73.6288 105.583 73.9896 106.018 73.9896H107.74C108.469 77.4947 110.799 80.3917 113.928 81.8453H79.4527C78.9969 81.8453 78.6019 82.2061 78.5918 82.67C78.5918 83.1442 78.9564 83.5257 79.4223 83.5257H113.918C110.788 84.9793 108.449 87.8762 107.73 91.3813H106.008C105.573 91.3813 105.218 91.7422 105.218 92.1855C105.218 92.6288 105.573 92.9896 106.008 92.9896H108.398C108.398 92.9896 108.459 92.9896 108.489 92.9896C108.52 92.9896 108.56 92.9896 108.591 92.9896C109.067 92.9896 109.472 92.6288 109.543 92.1442C110.171 87.5669 113.523 83.8762 117.878 82.8246C118.02 82.7937 118.02 82.5772 117.878 82.5463H117.888Z" fill="white"/>
<path d="M42.1118 77.4536C46.4669 78.5051 49.8192 82.1958 50.4471 86.7731C50.5079 87.2577 50.913 87.6185 51.3992 87.6185C51.4397 87.6185 51.47 87.6185 51.5004 87.6185C51.5308 87.6185 51.5612 87.6185 51.5916 87.6185H53.9818C54.4173 87.6185 54.7718 87.2577 54.7718 86.8144C54.7718 86.3711 54.4173 86.0103 53.9818 86.0103H52.26C51.5308 82.5051 49.2014 79.6082 46.0719 78.1546H80.5473C81.0031 78.1546 81.3981 77.7938 81.4082 77.3298C81.4082 76.8556 81.0436 76.4742 80.5777 76.4742H46.0617C49.1913 75.0206 51.5308 72.1237 52.2499 68.6185H53.9716C54.4071 68.6185 54.7616 68.2577 54.7616 67.8144C54.7616 67.3711 54.4071 67.0103 53.9716 67.0103H51.5815C51.5815 67.0103 51.5207 67.0103 51.4903 67.0103C51.4599 67.0103 51.4194 67.0103 51.389 67.0103C50.913 67.0103 50.5079 67.3711 50.437 67.8556C49.8293 72.4226 46.477 76.1133 42.122 77.1649C41.9802 77.1958 41.9802 77.4123 42.122 77.4432L42.1118 77.4536Z" fill="white"/>
</g>
<defs>
<filter id="filter0_b_1042_899" x="-14" y="-14" width="188" height="188" filterUnits="userSpaceOnUse" color-interpolation-filters="sRGB">
<feFlood flood-opacity="0" result="BackgroundImageFix"/>
<feGaussianBlur in="BackgroundImageFix" stdDeviation="7"/>
<feComposite in2="SourceAlpha" operator="in" result="effect1_backgroundBlur_1042_899"/>
<feBlend mode="normal" in="SourceGraphic" in2="effect1_backgroundBlur_1042_899" result="shape"/>
</filter>
<clipPath id="clip0_1042_899">
<rect width="145" height="145" fill="white" transform="translate(8 8)"/>
</clipPath>
<clipPath id="clip1_1042_899">
<rect width="76" height="26" fill="white" transform="translate(42 67)"/>
</clipPath>
</defs>
</svg>
