<?xml version="1.0" encoding="utf-8"?>
<!-- Generator: Adobe Illustrator 28.3.0, SVG Export Plug-In . SVG Version: 6.00 Build 0)  -->
<svg version="1.2" baseProfile="tiny" id="Layer_1" xmlns="http://www.w3.org/2000/svg" xmlns:xlink="http://www.w3.org/1999/xlink"
	 x="0px" y="0px" viewBox="0 0 65 65" overflow="visible" xml:space="preserve">
<g>
	<linearGradient id="SVGID_1_" gradientUnits="userSpaceOnUse" x1="2.069" y1="37.8988" x2="60.8519" y2="37.8988">
		<stop  offset="0" style="stop-color:#FF9B28"/>
		<stop  offset="1" style="stop-color:#FFC100"/>
	</linearGradient>
	<path fill="url(#SVGID_1_)" d="M62.7,41.3c-0.8-2.1-1.6-4.2-2.4-6.3c-0.4-1.1-0.8-2.1-1.2-3.2c-0.8-2.2-2.3-3.4-4.5-3.6
		c-0.4,0-0.8,0-1.1,0c0.7-0.3,1.3-0.7,1.8-1.2c1-1,1.6-2.4,1.6-3.8c0-2.9-2.4-5.3-5.4-5.4c0,0,0,0,0,0c-1.4,0-2.8,0.6-3.8,1.6
		c-1,1-1.6,2.4-1.6,3.8c0,3,2.4,5.4,5.3,5.4c0,0,0,0,0,0c0.2,0,0.3,0,0.5,0c-1.1,0.4-2,1.2-2.7,2.4c-1.1,1.8-2.2,3.6-3.3,5.3
		c-0.1,0.1-0.3,0.2-0.4,0.3c-1,0.2-2,0.3-3,0.5l-0.9,0.1c-2.1,0.3-3.4,1.8-3.3,3.8c0.1,1.9,1.7,3.3,3.8,3.3l2.2,0c1.6,0,3.2,0,4.8,0
		c0,0,0,0,0.1,0c1,0,1.6-0.4,2-1.3c0.2-0.5,0.5-1,0.7-1.5l1,5.2c0-0.1-0.1-0.2-0.1-0.3L52,45c0-0.1-0.1-0.2-0.2-0.4l-0.1-0.1
		l-0.9,0.4l0.1,0.2c0,0.1,0.1,0.2,0.1,0.3l0.6,1.4c0.7,1.8,1.4,3.5,2.1,5.3c0.1,0.2,0.1,0.5,0.1,0.9c0,1.1,0,2.2,0,3.3
		c0,0.6-0.3,0.6-0.4,0.6c-1.9,0-3.8,0-5.8,0l-0.9,0l0,0l-0.2,0c-0.1,0-0.2,0-0.3,0l-0.8,0v0c-5,0-30.7,0-32.9,0
		c-0.7,0-0.8-0.1-0.8-0.8l0-0.1c-0.2-2.4,0.2-4.6,1.3-6.9c0.5-1,0.8-2,1.2-3c0.2-0.4,0.3-0.9,0.5-1.3l-0.9-0.4
		c-0.2,0.5-0.3,0.9-0.5,1.4c-0.1,0.3-0.3,0.7-0.4,1l1-5.3c0.3,0.5,0.5,1,0.8,1.6c0.3,0.7,0.9,1.1,1.7,1.1c0,0,0,0,0,0
		c1.3,0,2.6,0,3.9,0c1.2,0,2.3,0,3.5,0c1.9,0,3.5-1.4,3.6-3.3c0.1-1.9-1.2-3.5-3.1-3.8L23.6,37c-1.1-0.2-2.2-0.3-3.3-0.5
		c-0.2,0-0.3-0.1-0.5-0.3l-0.4-0.6c-1-1.6-2-3.3-3-4.9c-0.7-1-1.5-1.8-2.5-2.2c0.1,0,0.2,0,0.4,0c0,0,0,0,0,0c1.4,0,2.8-0.6,3.8-1.6
		c1-1,1.6-2.4,1.6-3.9c0-2.9-2.4-5.3-5.4-5.3c0,0,0,0,0,0c-1.4,0-2.8,0.6-3.8,1.6c-1,1-1.6,2.4-1.6,3.8c0,2.2,1.4,4.2,3.4,5
		c-0.3,0-0.7,0-1,0c-2,0.2-3.6,1.4-4.4,3.3c-0.3,0.6-0.5,1.3-0.8,1.9c-0.3,0.8-0.6,1.6-0.9,2.4c-0.8,1.9-1.5,3.9-2.2,5.9
		c-0.6,1.7-0.9,3.5-0.8,5.9l1,0c0-2.2,0.2-4,0.8-5.6c0.7-2,1.5-3.9,2.2-5.9c0.3-0.8,0.6-1.6,0.9-2.4c0.2-0.6,0.5-1.2,0.7-1.8
		c0.7-1.6,1.9-2.6,3.6-2.7c1.8-0.2,3.2,0.5,4.3,2.1c1,1.6,2,3.2,3,4.8l0.4,0.6c0.2,0.4,0.5,0.7,1.2,0.8c1.1,0.1,2.2,0.3,3.2,0.5
		l0.7,0.1c1.4,0.2,2.4,1.4,2.3,2.8c-0.1,1.4-1.2,2.4-2.6,2.4c-1.2,0-2.3,0-3.5,0c-1.3,0-2.6,0-3.9,0c0,0,0,0,0,0
		c-0.4,0-0.6-0.1-0.8-0.5c-0.5-1.1-1-2-1.6-2.8l-0.7-1.1l-1.6,8.9l0.8,0.1c-0.1,0.3-0.2,0.6-0.4,0.9c-1.2,2.4-1.6,4.8-1.4,7.4
		c0,1.2,0.6,1.8,1.8,1.8c1,0,7.5,0,14.5,0c8.5,0,17.8,0,19.1,0c0,0,0,0,0.1,0l1.3,0c0.7,0,1.4,0,2,0c1.3,0,2.5,0,3.7,0
		c0.8,0,1.4-0.6,1.4-1.6c0-1.1,0-2.2,0-3.4c0-0.5-0.1-0.9-0.2-1.2c-0.5-1.3-1-2.6-1.5-3.8l0.8-0.1l-1.4-7.6l-0.2-0.4l-0.7-0.1
		L51,40.7c-0.3,0.6-0.6,1.3-0.9,1.9c-0.2,0.5-0.5,0.7-1.1,0.7c-1.6,0-3.2,0-4.8,0l-2.2,0c-1.6,0-2.7-0.9-2.8-2.4
		c-0.1-1.5,0.8-2.6,2.4-2.8l0.9-0.1c1-0.1,2-0.3,3-0.5c0.4-0.1,0.9-0.4,1.1-0.7c1.1-1.8,2.2-3.5,3.3-5.3c1.1-1.7,2.5-2.5,4.4-2.3
		c1.8,0.2,3,1.2,3.7,3c0.4,1.1,0.8,2.1,1.2,3.2c0.8,2,1.6,4.1,2.4,6.2c0.6,1.7,0.9,3.6,0.9,6h1C63.6,45.1,63.3,43.1,62.7,41.3z
		 M51.4,27.6c-2.4,0-4.3-2-4.3-4.4c0-1.2,0.5-2.3,1.3-3.1c0.8-0.8,1.9-1.3,3.1-1.3c0,0,0,0,0,0c2.4,0,4.4,2,4.4,4.4
		c0,1.2-0.5,2.3-1.3,3.1C53.7,27.2,52.6,27.6,51.4,27.6C51.4,27.6,51.4,27.6,51.4,27.6z M9.9,23.3c0-1.2,0.4-2.3,1.3-3.1
		c0.8-0.8,1.9-1.3,3.1-1.3c0,0,0,0,0,0c2.4,0,4.4,1.9,4.4,4.3c0,1.2-0.4,2.3-1.3,3.1c-0.8,0.8-1.9,1.3-3.1,1.3c0,0,0,0,0,0
		C11.9,27.6,9.9,25.7,9.9,23.3z"/>
	
		<linearGradient id="SVGID_00000121277683046502900180000009493093617035601826_" gradientUnits="userSpaceOnUse" x1="18.2157" y1="31.209" x2="46.1523" y2="31.209">
		<stop  offset="0" style="stop-color:#FF9B28"/>
		<stop  offset="1" style="stop-color:#FFC100"/>
	</linearGradient>
	<path fill="url(#SVGID_00000121277683046502900180000009493093617035601826_)" d="M18.2,33.4l0.9,0.4l0.4-1c0.4-1,0.8-2,1.2-3
		c0.1-0.1,0.3-0.2,0.6-0.2c1.4,0,2.8,0,4.2,0l18.6,0c0.8,0,0.8,0,1,0.7l1.4,3.5l0.9-0.4l-1.4-3.5c-0.4-1.1-0.8-1.3-2-1.3l-18.6,0
		c-1.4,0-2.8,0-4.3,0c-0.5,0-1.2,0.2-1.4,0.7c-0.5,1-0.9,2-1.3,3L18.2,33.4z"/>
	
		<linearGradient id="SVGID_00000041288225643321617000000015389724284562054847_" gradientUnits="userSpaceOnUse" x1="23.5558" y1="17.6249" x2="41.3116" y2="17.6249">
		<stop  offset="0" style="stop-color:#FF9B28"/>
		<stop  offset="1" style="stop-color:#FFC100"/>
	</linearGradient>
	<path fill="url(#SVGID_00000041288225643321617000000015389724284562054847_)" d="M23.6,27.6c0,0.1,0,0.3,0,0.4l0,0.1l1-0.1l0-0.1
		c0-0.1,0-0.2,0-0.2c0-0.4,0-0.9,0-1.3c0-1,0-2,0.1-2.9c0.3-2,2.1-3.5,4.2-3.5c2.9,0,5.6,0,8,0c2.2,0,4.1,1.9,4.2,4.1
		c0,0.9,0,1.9,0,2.8c0,0.4,0,0.9,0,1.4h1c0-0.5,0-0.9,0-1.3c0-1,0-1.9,0-2.9c-0.1-2.8-2.4-5-5.2-5c-1.2,0-2.4,0-3.7,0
		c0.2,0,0.4,0,0.6-0.1c2.8-0.5,4.5-2.7,4.5-5.8h0l0-0.2c0-0.2,0-0.3,0-0.5c-0.1-2.6-2-4.8-4.7-5.2c-2.5-0.4-5.1,1.3-5.8,3.7
		c-0.2,0.8-0.3,1.7-0.3,2.9c0.1,1.5,0.8,2.9,2,3.9c0.9,0.7,1.9,1.1,3,1.2c-1.2,0-2.4,0-3.7,0c-2.6,0-4.8,1.9-5.1,4.4
		c-0.1,1-0.1,2.1-0.1,3.1C23.6,26.8,23.6,27.2,23.6,27.6z M28.5,13.8c0-1.1,0-1.9,0.2-2.6c0.5-1.8,2.2-3.1,4.1-3.1
		c0.2,0,0.4,0,0.6,0c2.2,0.3,3.8,2,3.8,4.2c0,0.1,0,0.3,0,0.4l0,0.3c0,2.6-1.3,4.4-3.7,4.8c-1.2,0.2-2.5-0.1-3.5-0.9
		C29.1,16.1,28.5,15,28.5,13.8z"/>
</g>
</svg>
