<?xml version="1.0" encoding="utf-8"?>
<!-- Generator: Adobe Illustrator 28.3.0, SVG Export Plug-In . SVG Version: 6.00 Build 0)  -->
<svg version="1.2" baseProfile="tiny" id="Layer_1" xmlns="http://www.w3.org/2000/svg" xmlns:xlink="http://www.w3.org/1999/xlink"
	 x="0px" y="0px" viewBox="0 0 65 65" overflow="visible" xml:space="preserve">
<g>
	<linearGradient id="SVGID_1_" gradientUnits="userSpaceOnUse" x1="11.9769" y1="29.0613" x2="59.906" y2="29.0613">
		<stop  offset="0" style="stop-color:#FF9B28"/>
		<stop  offset="1" style="stop-color:#FFC100"/>
	</linearGradient>
	<path fill="url(#SVGID_1_)" d="M59,28.1c-1.3-1.3-2.6-2.6-3.9-3.8c-0.6-0.6-0.9-1.3-0.9-2.2c0-0.6,0-1.2,0-1.9l0-0.9l0-0.9
		c0-0.6,0-1.2,0-1.8c0-3.6-2.4-6-6-6c-1.8,0-3.6,0-5.4,0c-0.9,0-1.6-0.3-2.3-0.9c-1.2-1.2-2.5-2.5-3.7-3.7l-0.1-0.1
		c-2.5-2.5-5.9-2.5-8.4,0l-1,1c-0.9,0.9-1.8,1.7-2.6,2.6c-0.7,0.8-1.5,1.1-2.6,1.1c0,0-0.1,0-0.1,0l-0.4,0c-1.9,0-3.9-0.1-5.8,0.1
		c-2.8,0.2-4.9,2.5-5,5.3c0,1,0.5,1.7,1.4,1.8l0.1-1c-0.4,0-0.5-0.4-0.5-0.7c0.1-2.4,1.9-4.2,4.1-4.4c1.9-0.1,3.8-0.1,5.7-0.1l0.4,0
		c1.4,0,2.5-0.4,3.4-1.4c0.8-0.9,1.7-1.7,2.6-2.6l1.1-1c2.1-2.1,4.9-2.1,7,0l0.2,0.1c1.2,1.2,2.5,2.4,3.7,3.7c0.8,0.8,1.8,1.3,3,1.2
		c1.8,0,3.6,0,5.4,0c3,0,5,2,5,5c0,0.6,0,1.2,0,1.8l0,0.9l0,0.9c0,0.6,0,1.2,0,1.9c0,1.1,0.4,2.1,1.2,2.9c1.3,1.3,2.6,2.5,3.8,3.8
		c2.1,2.2,2.1,4.9,0,7.1l-0.2,0.2c-1.2,1.2-2.4,2.4-3.6,3.6c-0.9,0.8-1.3,1.8-1.3,3c0,0.5,0,1.1,0,1.6c0,1.5,0,3-0.1,4.5
		c-0.1,1.3-0.7,2.5-1.7,3.3c-1,0.8-2.4,1.2-3.7,1.1c-0.7-0.1-0.7-0.4-0.7-0.5l-1,0c0,0.8,0.6,1.4,1.5,1.5c0.2,0,0.5,0,0.7,0
		c1.4,0,2.7-0.5,3.8-1.4c1.2-1,1.9-2.4,2-4c0.1-1.5,0.1-3.1,0.1-4.5c0-0.5,0-1.1,0-1.6c0-0.9,0.3-1.7,1-2.3c1.2-1.2,2.4-2.4,3.6-3.6
		l0.2-0.2C61.6,34.1,61.6,30.6,59,28.1z"/>
	
		<linearGradient id="SVGID_00000153669140703910488530000007925612372812105114_" gradientUnits="userSpaceOnUse" x1="16.8395" y1="32.3546" x2="48.2976" y2="32.3546">
		<stop  offset="0" style="stop-color:#FF9B28"/>
		<stop  offset="1" style="stop-color:#FFC100"/>
	</linearGradient>
	<path fill="url(#SVGID_00000153669140703910488530000007925612372812105114_)" d="M44.2,22.8c0.3-0.3,0.4-0.7,0.4-1
		c0-0.5-0.3-0.9-0.8-1.3c-3.9-3.6-8.6-5.1-13.8-4.3c-7.7,1.1-15.2,8.6-13.8,18.7c0.6,4.4,3,8.3,6.6,10.9c2.8,2,6.2,3.1,9.6,3.1
		c1,0,2-0.1,3-0.3C42.9,47.2,49,40.4,49,33.4c0-3.1-0.4-5.5-1.5-7.9c-0.4-1-1.2-1.4-2-1l0.4,0.9c0.1-0.1,0.4-0.2,0.7,0.5
		c1,2.3,1.5,4.6,1.4,7.5c0,6.5-5.7,12.8-12.7,14.1c-4.2,0.8-8.3-0.2-11.8-2.7c-3.4-2.5-5.6-6.1-6.2-10.3
		c-1.3-9.5,5.7-16.5,12.9-17.6c5-0.7,9.3,0.7,13,4.1c0.4,0.3,0.4,0.6,0.4,0.7c0,0,0,0.1-0.1,0.3L44.2,22.8z"/>
	
		<linearGradient id="SVGID_00000029744618280850893990000016726846750105281930_" gradientUnits="userSpaceOnUse" x1="5.0558" y1="40.2737" x2="43.2829" y2="40.2737">
		<stop  offset="0" style="stop-color:#FF9B28"/>
		<stop  offset="1" style="stop-color:#FFC100"/>
	</linearGradient>
	<path fill="url(#SVGID_00000029744618280850893990000016726846750105281930_)" d="M42.8,53.1c-1.6,0-2.7,1-3.6,1.9
		c-0.7,0.7-1.4,1.4-2.1,2.1l-1,1c-2.3,2.3-5,2.3-7.2,0l-1-0.9c-0.9-0.9-1.8-1.8-2.7-2.7c-0.9-0.9-2-1.4-3.2-1.3c-1.3,0-2.7,0-4,0
		l-1.2,0c-3.1,0-5.1-2-5.1-5.1l0-3.3c0-0.6,0-1.2,0-1.8c0-1.3-0.4-2.4-1.4-3.3c-1.1-1-2.1-2.1-3.1-3.1l-0.6-0.6
		c-2.2-2.2-2.1-5,0-7.1l0.6-0.6c1-1,2.1-2.1,3.1-3.1c0.9-0.9,1.4-2,1.3-3.2c0-0.2,0-0.5,0-0.7c0.1-0.3,0.2-0.4,0.5-0.4l0-1
		c-0.8,0-1.4,0.4-1.5,1.2c-0.1,0.3-0.1,0.6,0,0.9c0,1-0.3,1.7-1,2.5c-1,1-2.1,2-3.1,3.1L6,28.1c-2.6,2.6-2.6,6,0,8.5l0.6,0.6
		c1,1,2.1,2.1,3.1,3.1c0.7,0.7,1.1,1.5,1,2.5c0,0.6,0,1.2,0,1.9l0,3.3c0,3.7,2.4,6.1,6.1,6.1l1.2,0c1.3,0,2.7,0,4,0
		c1,0,1.8,0.3,2.5,1c0.9,0.9,1.8,1.8,2.7,2.7l1,0.9c1.3,1.3,2.8,1.9,4.3,1.9c1.5,0,3-0.7,4.3-2l1-1c0.7-0.7,1.4-1.4,2.1-2.1
		c0.8-0.8,1.6-1.6,2.9-1.6c0.8,0,1.3-0.6,1.3-1.4h-1C43.1,52.8,43.1,53.1,42.8,53.1z"/>
	
		<linearGradient id="SVGID_00000113342710329341864850000017646529563667991182_" gradientUnits="userSpaceOnUse" x1="24.1486" y1="33.2299" x2="40.7578" y2="33.2299">
		<stop  offset="0" style="stop-color:#FF9B28"/>
		<stop  offset="1" style="stop-color:#FFC100"/>
	</linearGradient>
	<path fill="url(#SVGID_00000113342710329341864850000017646529563667991182_)" d="M30.7,37.3c-0.6,0.6-0.7,0.6-1.3,0l-0.9-0.9
		c-1.2-1.1-2.3-2.3-3.4-3.5c-0.2-0.2-0.3-0.5-0.3-0.6l-1-0.1c0,0.5,0.3,1.1,0.6,1.4c1.1,1.2,2.3,2.3,3.5,3.5l0.9,0.9
		c0.5,0.5,0.9,0.8,1.4,0.8c0.4,0,0.9-0.3,1.4-0.8l9.2-9.2c0.2-0.2,0.3-0.3,0.5-0.6l-0.9-0.5c-0.1,0.1-0.2,0.2-0.4,0.4L30.7,37.3z"/>
</g>
</svg>
