<?xml version="1.0" encoding="utf-8"?>
<!-- Generator: Adobe Illustrator 28.3.0, SVG Export Plug-In . SVG Version: 6.00 Build 0)  -->
<svg version="1.2" baseProfile="tiny" id="Layer_1" xmlns="http://www.w3.org/2000/svg" xmlns:xlink="http://www.w3.org/1999/xlink"
	 x="0px" y="0px" viewBox="0 0 19.6 18" overflow="visible" xml:space="preserve">
<g>
	<g>
		<path fill="#07BC7D" d="M6.3,10.2c0.5-0.6,1-1.3,1.6-1.9c2.4-2.8,5-5.4,8-7.6c0.3-0.2,0.6-0.4,1-0.6C16.9,0.1,17,0,17.1,0
			c0.7,0,1.3,0,2,0c0.2,0,0.4,0.1,0.5,0.3c0.1,0.2,0,0.4-0.1,0.5c-2.7,2.5-5,5.4-7.1,8.4c-2,2.7-3.8,5.6-5.5,8.5
			c-0.1,0.1-0.1,0.2-0.2,0.3C6.4,18.1,6.2,18,6,17.7c-0.3-0.4-0.5-0.9-0.8-1.3c-1.6-2.4-3.3-4.7-4.9-7.1C0.2,9.3,0.1,9.2,0.1,9.1
			C0,9,0,8.8,0.1,8.6C0.6,8.2,1,7.7,1.5,7.3c0.2-0.2,0.4-0.2,0.6,0c0.7,0.5,1.4,1,2.2,1.5C4.9,9.3,5.6,9.8,6.3,10.2L6.3,10.2z"/>
	</g>
</g>
</svg>
