<?xml version="1.0" encoding="utf-8"?>
<!-- Generator: Adobe Illustrator 28.3.0, SVG Export Plug-In . SVG Version: 6.00 Build 0)  -->
<svg version="1.2" baseProfile="tiny" id="Layer_1" xmlns="http://www.w3.org/2000/svg" xmlns:xlink="http://www.w3.org/1999/xlink"
	 x="0px" y="0px" viewBox="0 0 65 65" overflow="visible" xml:space="preserve">
<g>
	<linearGradient id="SVGID_1_" gradientUnits="userSpaceOnUse" x1="19.8432" y1="45.7269" x2="28.5183" y2="45.7269">
		<stop  offset="0" style="stop-color:#FF9B28"/>
		<stop  offset="1" style="stop-color:#FFC100"/>
	</linearGradient>
	<path fill="url(#SVGID_1_)" d="M19.9,35.5L19.1,35v21.7h10.2V34.8l-0.8,0.6C25.3,37.8,23.6,37.8,19.9,35.5z M28.3,55.6h-8.2V36.8
		c3.2,1.9,5.4,1.9,8.2,0V55.6z"/>
	
		<linearGradient id="SVGID_00000058572894125816171960000011190188431744931203_" gradientUnits="userSpaceOnUse" x1="7.1549" y1="32.4985" x2="41.1879" y2="32.4985">
		<stop  offset="0" style="stop-color:#FF9B28"/>
		<stop  offset="1" style="stop-color:#FFC100"/>
	</linearGradient>
	<path fill="url(#SVGID_00000058572894125816171960000011190188431744931203_)" d="M37.6,32.3c-0.7-0.2-1.4-0.3-2.5-0.3
		c-1,0-2.1,0-3.1,0l-0.8,0l0-0.2c0-0.5,0-1.1,0-1.6c0-0.1,0.1-0.3,0.1-0.3c1.3-1.4,2.1-3,2.4-4.6c0.2-0.9,0.2-1.7,0.2-2.6l0-0.3
		c0-0.6,0-1.3,0-1.9l0-0.4h0.8c0.5,0,1,0,1.5,0c0.7,0,1.2-0.5,1.3-1.2c0.1-0.7-0.2-1.3-1-1.6c0,0,0-0.2-0.1-0.3
		c-0.7-4.8-3.4-8.2-8-10.1c-0.2-0.1-0.2-0.1-0.2-0.3c0-1.3-1-2.3-2.3-2.3c-1.2,0-2.5,0-3.8,0c-1.3,0-2.3,1-2.3,2.3
		c0,0.3,0,0.3-0.4,0.5c-4.5,1.9-7.2,5.3-7.9,10.2c0,0,0,0.1,0,0.1c-0.7,0.2-1.1,0.8-1,1.6c0.1,0.7,0.6,1.2,1.3,1.2c0.5,0,1,0,1.5,0
		l0.7,0c0.1,0,0.1,0,0.2,0v3.1c0,2.5,0.9,4.8,2.6,6.7l0.1,0.1c0,0,0,0,0.1,0.1c0,0.6,0,1.2,0,1.8l0,0.2l-1,0l-2.9,0
		c-5.1,0-9,3.9-9,9c0,5.4,0,10.8,0,16.3c0,0.3,0,0.6,0.1,0.9c0.3,1.3,1.1,2.1,2.5,2.6l34.6,0l0.2-0.1c1.5-0.5,2.3-1.6,2.4-3.2l0-4.8
		c0-3.9,0-7.7,0-11.6C44.1,36.8,41.5,33.4,37.6,32.3z M43.1,57.4c0,1.2-0.6,1.9-1.7,2.3c-0.1,0-0.1,0-0.2,0.1l-34.1,0
		c-1-0.3-1.6-0.9-1.8-1.8c0-0.2-0.1-0.5-0.1-0.7c0-5.4,0-10.8,0-16.3c0-4.5,3.4-8,8-8l2.9,0l2,0l0-1.2c0-0.7,0-1.3,0-1.9
		c0-0.3-0.2-0.5-0.4-0.7c-1.5-1.7-2.3-3.7-2.3-6v-4l-0.7,0c-0.2,0-0.3,0-0.5,0l-0.7,0c-0.5,0-1,0-1.4,0c-0.2,0-0.3-0.1-0.4-0.3
		c0-0.3,0.1-0.4,0.3-0.5c0.6-0.2,0.7-0.6,0.7-0.9c0.6-4.5,3.1-7.7,7.3-9.4c0.5-0.2,1-0.5,1-1.4c0-0.7,0.6-1.2,1.3-1.2
		c1.3,0,2.6,0,3.8,0c0.8,0,1.3,0.6,1.3,1.4c0,0.6,0.2,1,0.9,1.2c4.2,1.7,6.7,4.9,7.4,9.4c0,0.3,0.1,0.9,0.8,1.1
		c0.2,0.1,0.2,0.3,0.2,0.4c0,0.2-0.2,0.3-0.4,0.3c-0.5,0-1,0-1.5,0h-1.8l0,1.4c0,0.6,0,1.3,0,1.9l0,0.3c0,0.8-0.1,1.7-0.2,2.5
		c-0.3,1.5-1,2.8-2.1,4.1c-0.2,0.2-0.4,0.6-0.4,1c0,0.5,0,1.1,0,1.6l0,1.2l1.8,0c1,0,2.1,0,3.1,0c0.9,0,1.6,0.1,2.2,0.3
		c3.5,0.9,5.8,3.9,5.8,7.7c0,3.9,0,7.7,0,11.6L43.1,57.4z"/>
	
		<linearGradient id="SVGID_00000027585912934541619440000011040061423690279568_" gradientUnits="userSpaceOnUse" x1="55.6351" y1="49.1263" x2="59.8776" y2="49.1263">
		<stop  offset="0" style="stop-color:#FF9B28"/>
		<stop  offset="1" style="stop-color:#FFC100"/>
	</linearGradient>
	<path fill="url(#SVGID_00000027585912934541619440000011040061423690279568_)" d="M59.2,59.7c-0.2-0.1-0.3-0.3-0.3-0.6
		c-0.1-1.1-0.3-2.2-0.4-3.3l-1.7-14.4c-0.2-1.3-0.3-2.6-0.5-4l-1,0.1c0.2,1.3,0.3,2.6,0.5,4L57.5,56c0.1,1.1,0.3,2.2,0.4,3.3
		c0.1,0.7,0.4,1.2,0.9,1.5l0.1,0.1h1.3v-1H59.2z"/>
	
		<linearGradient id="SVGID_00000070104382679423509800000012602119408714404287_" gradientUnits="userSpaceOnUse" x1="46.3638" y1="49.055" x2="50.114" y2="49.055">
		<stop  offset="0" style="stop-color:#FF9B28"/>
		<stop  offset="1" style="stop-color:#FFC100"/>
	</linearGradient>
	<path fill="url(#SVGID_00000070104382679423509800000012602119408714404287_)" d="M48,49.6c-0.4,3.1-0.8,6.3-1.1,9.4
		c0,0.4-0.1,0.6-0.3,0.8H46v1h0.8l0.1-0.1c0.7-0.4,0.8-1.1,0.9-1.6c0.4-3.1,0.7-6.3,1.1-9.4l1.5-12.2l-1-0.1L48,49.6z"/>
	
		<linearGradient id="SVGID_00000037659636066297550380000008605358121715275155_" gradientUnits="userSpaceOnUse" x1="49.7321" y1="31.5248" x2="55.9761" y2="31.5248">
		<stop  offset="0" style="stop-color:#FF9B28"/>
		<stop  offset="1" style="stop-color:#FFC100"/>
	</linearGradient>
	<rect x="49.2" y="31" fill="url(#SVGID_00000037659636066297550380000008605358121715275155_)" width="7.3" height="1"/>
	
		<linearGradient id="SVGID_00000154396291412833813630000006572091138885042066_" gradientUnits="userSpaceOnUse" x1="47.6771" y1="19.5563" x2="58.0131" y2="19.5563">
		<stop  offset="0" style="stop-color:#FF9B28"/>
		<stop  offset="1" style="stop-color:#FFC100"/>
	</linearGradient>
	<path fill="url(#SVGID_00000154396291412833813630000006572091138885042066_)" d="M48.5,28.4c1.5,0,2.9,0,4.4,0c1.5,0,2.9,0,4.4,0
		c1.2,0,1.7-0.5,1.7-1.7v-7.7l0,0v-6.5c0-1.1-0.5-1.7-1.7-1.7c-2.9,0-5.8,0-8.8,0c-1.1,0-1.6,0.5-1.6,1.7c0,4.8,0,9.5,0,14.3
		C46.8,27.9,47.3,28.4,48.5,28.4z M47.8,12.4c0-0.6,0.1-0.7,0.6-0.7c1.5,0,2.9,0,4.4,0s2.9,0,4.4,0c0.6,0,0.7,0.1,0.7,0.7l0,14.2
		c0,0.6-0.1,0.7-0.7,0.7c-2.9,0-5.8,0-8.7,0c-0.6,0-0.7-0.1-0.7-0.7C47.8,21.9,47.8,17.2,47.8,12.4z"/>
	
		<linearGradient id="SVGID_00000034058385683473128580000015532596645986029220_" gradientUnits="userSpaceOnUse" x1="50.4959" y1="35.2513" x2="55.1797" y2="35.2513">
		<stop  offset="0" style="stop-color:#FF9B28"/>
		<stop  offset="1" style="stop-color:#FFC100"/>
	</linearGradient>
	<rect x="50.1" y="34.8" fill="url(#SVGID_00000034058385683473128580000015532596645986029220_)" width="5.5" height="1"/>
	
		<linearGradient id="SVGID_00000178926526543902546700000005284093371583024538_" gradientUnits="userSpaceOnUse" x1="50.0436" y1="15.8612" x2="55.6258" y2="15.8612">
		<stop  offset="0" style="stop-color:#FF9B28"/>
		<stop  offset="1" style="stop-color:#FFC100"/>
	</linearGradient>
	<path fill="url(#SVGID_00000178926526543902546700000005284093371583024538_)" d="M52.8,19.1C52.8,19.1,52.8,19.1,52.8,19.1
		c0.9,0,1.7-0.3,2.3-0.9c0.6-0.6,1-1.4,1-2.3v0c0-0.9-0.3-1.7-0.9-2.3c-0.6-0.6-1.4-1-2.3-1c0,0,0,0,0,0c-1.8,0-3.3,1.4-3.3,3.2
		C49.5,17.6,51,19.1,52.8,19.1z M52.9,13.6C52.9,13.6,52.9,13.6,52.9,13.6c0.6,0,1.2,0.2,1.6,0.7c0.4,0.4,0.7,1,0.6,1.6
		c0,0.6-0.3,1.2-0.7,1.6c-0.4,0.4-1,0.6-1.6,0.6c-1.2,0-2.2-1.1-2.2-2.3C50.6,14.6,51.6,13.6,52.9,13.6z"/>
	
		<linearGradient id="SVGID_00000183934520191692456170000007170070784245159074_" gradientUnits="userSpaceOnUse" x1="50.043" y1="23.2489" x2="55.6265" y2="23.2489">
		<stop  offset="0" style="stop-color:#FF9B28"/>
		<stop  offset="1" style="stop-color:#FFC100"/>
	</linearGradient>
	<path fill="url(#SVGID_00000183934520191692456170000007170070784245159074_)" d="M52.8,26.5C52.8,26.5,52.8,26.5,52.8,26.5
		c0.9,0,1.7-0.3,2.3-0.9c0.6-0.6,1-1.4,1-2.3h0c0-1.8-1.4-3.3-3.2-3.3c-0.9,0-1.7,0.3-2.3,0.9c-0.6,0.6-1,1.4-1,2.3
		C49.5,25,51,26.5,52.8,26.5z M51.3,21.6c0.4-0.4,1-0.7,1.6-0.7c0,0,0,0,0,0c1.2,0,2.2,1,2.2,2.3c0,0.6-0.2,1.2-0.7,1.6
		c-0.4,0.4-1,0.7-1.6,0.6c-1.2,0-2.2-1-2.2-2.3C50.6,22.6,50.8,22.1,51.3,21.6z"/>
</g>
</svg>
