<?xml version="1.0" encoding="utf-8"?>
<!-- Generator: Adobe Illustrator 28.3.0, SVG Export Plug-In . SVG Version: 6.00 Build 0)  -->
<svg version="1.2" baseProfile="tiny" id="Layer_1" xmlns="http://www.w3.org/2000/svg" xmlns:xlink="http://www.w3.org/1999/xlink"
	 x="0px" y="0px" viewBox="0 0 65 65" overflow="visible" xml:space="preserve">
<g>
	<linearGradient id="SVGID_1_" gradientUnits="userSpaceOnUse" x1="38.7391" y1="47.1683" x2="57.3078" y2="47.1683">
		<stop  offset="0" style="stop-color:#FF9B28"/>
		<stop  offset="1" style="stop-color:#FFC100"/>
	</linearGradient>
	<path fill="url(#SVGID_1_)" d="M39.7,46.2c-0.2,0.6-0.4,1.1-0.6,1.7c-0.1,0.2-0.1,0.5-0.2,0.7l-0.2,0.7H58l-0.7-2.4
		c-0.4-1.4-1-1.8-2.4-1.8H41.6C40.7,45.1,40,45.5,39.7,46.2z M56.3,47.2l0.3,1.1H40.1c0,0,0-0.1,0-0.1c0.2-0.6,0.3-1.1,0.5-1.6
		c0.1-0.1,0.2-0.5,1-0.5h13.2C55.8,46.1,56,46.2,56.3,47.2z"/>
	
		<linearGradient id="SVGID_00000027604992404162846370000003368901582289640361_" gradientUnits="userSpaceOnUse" x1="36.7913" y1="51.6223" x2="59.1689" y2="51.6223">
		<stop  offset="0" style="stop-color:#FF9B28"/>
		<stop  offset="1" style="stop-color:#FFC100"/>
	</linearGradient>
	<path fill="url(#SVGID_00000027604992404162846370000003368901582289640361_)" d="M59.7,50.7c-0.3-0.5-0.9-0.8-1.6-0.8
		c-2.2,0-4.3,0-6.5,0l-10.3,0c-0.9,0-1.9,0-2.8,0c-0.6,0-1.1,0.2-1.4,0.6c-0.3,0.4-0.4,0.9-0.4,1.4c0.1,0.8,0.9,1.4,1.8,1.4
		c3,0,6,0,9.1,0c3.5,0,7,0,10.4,0c0.2,0,0.5,0,0.8-0.2L59,53c0.3-0.2,0.6-0.5,0.8-0.8C60,51.7,60,51.2,59.7,50.7z M58.9,51.8
		c-0.1,0.1-0.3,0.3-0.4,0.4l-0.1,0.1c0,0-0.1,0-0.2,0c-6.5,0-13,0-19.5,0c-0.5,0-0.8-0.2-0.8-0.6c0-0.2,0-0.4,0.1-0.6
		c0.1-0.2,0.4-0.3,0.6-0.3c0.5,0,1.1,0,1.6,0c0.4,0,0.8,0,1.2,0l10.3,0c2.2,0,4.3,0,6.5,0c0.3,0,0.6,0.1,0.8,0.4
		C59,51.4,59,51.6,58.9,51.8z"/>
	
		<linearGradient id="SVGID_00000092424413722577435150000010020073909325246636_" gradientUnits="userSpaceOnUse" x1="42.9507" y1="35.6273" x2="53.3904" y2="35.6273">
		<stop  offset="0" style="stop-color:#FF9B28"/>
		<stop  offset="1" style="stop-color:#FFC100"/>
	</linearGradient>
	<path fill="url(#SVGID_00000092424413722577435150000010020073909325246636_)" d="M48.4,26.8C48.4,26.8,48.3,26.8,48.4,26.8
		c-1.6,0-3,0.7-4,1.8c-1,1.1-1.5,2.4-1.4,3.9c0.1,1.1,0.3,2.2,0.4,3.2c0.1,0.4,0.1,0.8,0.2,1.2l1.1,6.7c0,0.2,0.1,0.9,0.9,0.9
		c0,0,0,0,0,0c1.4,0,2.8,0,4.2,0l2.1,0L52,44c0.1-0.7,0.2-1.4,0.3-2.1l0.3-1.8c0-0.3,0.1-0.5,0.1-0.8l-1-0.2
		c-0.1,0.3-0.1,0.6-0.1,0.8l-0.3,1.8c-0.1,0.6-0.2,1.1-0.3,1.7l-1.3,0c-1.4,0-2.7,0-4.1,0c0,0,0,0,0,0l-1.1-6.7
		c-0.1-0.4-0.1-0.8-0.2-1.2c-0.2-1-0.4-2.1-0.4-3.1c-0.1-1.1,0.3-2.2,1.1-3.1c0.8-0.9,2-1.4,3.2-1.4c0,0,0,0,0.1,0
		c1.2,0,2.3,0.5,3.1,1.3c0.8,0.9,1.3,2,1.2,3.2c0,0.7-0.1,1.3-0.2,2c0,0.3-0.1,0.6-0.1,0.9l1,0.1c0-0.3,0.1-0.6,0.1-0.9
		c0.1-0.7,0.2-1.4,0.3-2.2c0-1.5-0.5-2.9-1.5-3.9C51.2,27.4,49.8,26.8,48.4,26.8z"/>
	
		<linearGradient id="SVGID_00000078752261057297948560000017202955760685615549_" gradientUnits="userSpaceOnUse" x1="6.7133" y1="32.7552" x2="51.8233" y2="32.7552">
		<stop  offset="0" style="stop-color:#FF9B28"/>
		<stop  offset="1" style="stop-color:#FFC100"/>
	</linearGradient>
	<path fill="url(#SVGID_00000078752261057297948560000017202955760685615549_)" d="M52.4,56.2c0,2.4-1.6,4-4,4
		c-12.2,0-24.5,0-36.8,0c-2.4,0-3.9-1.6-3.9-4c0-15.6,0-31.3,0-46.9c0-2.1,1.1-3.4,3.1-3.9c0.1,0,0.1,0,0.2-0.1h29.2
		c1.2,0.3,2,1.1,2.9,2c2.5,2.5,5.1,5.1,7.9,8c0.9,0.9,1.3,1.9,1.3,3.2c0,2.9,0,5.7,0,8.6l1,0c0-2.9,0-5.7,0-8.6
		c0-1.5-0.5-2.8-1.6-3.9c-2.9-2.8-5.5-5.4-7.9-7.9c-1-1-2-1.9-3.5-2.3l-29.7,0l-0.1,0.1c0,0-0.1,0,0,0C8.1,5.1,6.7,6.8,6.7,9.3
		c0,15.6,0,31.3,0,46.9c0,2.9,2,5,4.9,5c6.1,0,12.3,0,18.4,0c6.1,0,12.3,0,18.4,0c2.9,0,4.9-2,5-5v-1.8h-1V56.2z"/>
	
		<linearGradient id="SVGID_00000147187783259222498980000010655897959298308524_" gradientUnits="userSpaceOnUse" x1="11.6053" y1="46.3225" x2="33.5684" y2="46.3225">
		<stop  offset="0" style="stop-color:#FF9B28"/>
		<stop  offset="1" style="stop-color:#FFC100"/>
	</linearGradient>
	<path fill="url(#SVGID_00000147187783259222498980000010655897959298308524_)" d="M12.9,44.1c0-0.2,0.1-0.3,0.2-0.4
		c0,0,0.1-0.1,0.2,0l0.2-1c-0.4-0.1-0.7,0-1,0.2c-0.2,0.2-0.5,0.5-0.6,1.1c-0.1,0.5-0.1,1-0.2,1.5c0,0.3-0.1,0.6-0.1,0.9l0,0.5
		l0.1,0c0,0.3,0,0.6,0.1,0.9c0.7,5.7,5.6,10,11.3,10c0.2,0,0.4,0,0.6,0c6-0.3,10.7-5.2,10.7-11.1c0-4.7-2.1-8.3-6.3-10.4
		c-4.1-2.1-8.3-1.6-12.1,1.3c-0.6,0.5-1.2,1.1-1.7,1.7l-0.4,0.5c-0.5,0.5-0.5,1.3,0.1,1.8l0.7-0.7c-0.2-0.2-0.1-0.3,0-0.4l0.4-0.5
		c0.5-0.6,1-1.2,1.5-1.6c3.5-2.7,7.3-3.1,11.1-1.2c3.8,1.9,5.8,5.1,5.7,9.5c-0.1,5.4-4.3,9.8-9.8,10.1c-5.4,0.2-10.2-3.7-10.8-9.1
		c0-0.3-0.1-0.7-0.1-1l0-0.4c0-0.2,0.1-0.4,0.1-0.7C12.8,45.1,12.9,44.6,12.9,44.1z"/>
	
		<linearGradient id="SVGID_00000021803532083746687130000010582517823502965693_" gradientUnits="userSpaceOnUse" x1="17.0184" y1="45.9598" x2="28.5532" y2="45.9598">
		<stop  offset="0" style="stop-color:#FF9B28"/>
		<stop  offset="1" style="stop-color:#FFC100"/>
	</linearGradient>
	<path fill="url(#SVGID_00000021803532083746687130000010582517823502965693_)" d="M22.1,50.3C22.1,50.3,22.1,50.3,22.1,50.3
		c1,0,1.9-0.6,2.5-1.4c0.3-0.5,0.6-1,1-1.5l1.4-2.2c0.7-1,1.3-2.1,2-3.1l-0.8-0.5c-0.7,1-1.3,2.1-2,3.1l-1.4,2.2
		c-0.3,0.5-0.6,1-0.9,1.5c-0.4,0.6-1,1-1.6,1c-0.6,0-1.2-0.3-1.7-0.9c-0.9-1.1-1.8-2.3-2.6-3.5L17,45.6c0.9,1.2,1.7,2.3,2.6,3.5
		C20.3,49.9,21.2,50.3,22.1,50.3z"/>
	
		<linearGradient id="SVGID_00000154384512431018727190000008211808882347620539_" gradientUnits="userSpaceOnUse" x1="13.6206" y1="23.6019" x2="45.3604" y2="23.6019">
		<stop  offset="0" style="stop-color:#FF9B28"/>
		<stop  offset="1" style="stop-color:#FFC100"/>
	</linearGradient>
	<path fill="url(#SVGID_00000154384512431018727190000008211808882347620539_)" d="M15.2,23.3c-0.1,0-0.2,0-0.3,0
		c-0.3-0.1-0.3-0.2-0.3-0.3l-1,0c0,0.7,0.4,1.2,1.1,1.3c0.1,0,0.2,0,0.4,0c0,0,0.1,0,0.1,0l29.5,0v0l0.1,0c0.1,0,0.1,0,0.2,0
		c0.1,0,0.3,0,0.4,0c0.7-0.2,1.1-0.7,1-1.4l-1,0.1c0,0.2,0,0.3-0.3,0.3c-0.1,0-0.2,0-0.3,0l-0.2,0v0H15.4L15.2,23.3z"/>
	
		<linearGradient id="SVGID_00000111913995352972495090000016820459083997504185_" gradientUnits="userSpaceOnUse" x1="15.3514" y1="28.495" x2="38.5446" y2="28.495">
		<stop  offset="0" style="stop-color:#FF9B28"/>
		<stop  offset="1" style="stop-color:#FFC100"/>
	</linearGradient>
	<path fill="url(#SVGID_00000111913995352972495090000016820459083997504185_)" d="M37.8,29.2c0.1,0,0.1,0,0.2,0
		c0.2,0,0.4,0,0.6-0.2c0.5-0.4,0.8-0.7,0.8-1.1l-1-0.1c0,0-0.1,0.2-0.3,0.3c0,0-0.1,0-0.2,0c-0.1,0-0.1,0-0.2,0l-22.3,0v1l22.3,0
		L37.8,29.2z"/>
	
		<linearGradient id="SVGID_00000112617853437535197830000003505012280744621201_" gradientUnits="userSpaceOnUse" x1="24.5087" y1="18.7799" x2="36.6295" y2="18.7799">
		<stop  offset="0" style="stop-color:#FF9B28"/>
		<stop  offset="1" style="stop-color:#FFC100"/>
	</linearGradient>
	<path fill="url(#SVGID_00000112617853437535197830000003505012280744621201_)" d="M31.4,19.4c1.4,0,2.9,0,4.3,0
		c0.8,0,1.3-0.5,1.4-1.3l-1,0c0,0.2-0.2,0.3-0.4,0.3c-1.4,0-2.9,0-4.3,0l-2.9,0c-1.3,0-2.6,0-4,0l0,1c0.8,0,1.6,0,2.4,0
		c0.5,0,1.1,0,1.6,0L31.4,19.4z"/>
</g>
</svg>
