<?xml version="1.0" encoding="utf-8"?>
<!-- Generator: Adobe Illustrator 28.3.0, SVG Export Plug-In . SVG Version: 6.00 Build 0)  -->
<svg version="1.2" baseProfile="tiny" id="Layer_1" xmlns="http://www.w3.org/2000/svg" xmlns:xlink="http://www.w3.org/1999/xlink"
	 x="0px" y="0px" viewBox="0 0 18.8 18" overflow="visible" xml:space="preserve">
<g>
	<g>
		<path fill="#FA644F" d="M18.8,1.5c-0.1-0.2-0.2-0.3-0.4-0.3C17.6,1.1,17,1,16.3,0.9c-0.1,0-0.3,0-0.4,0.1
			c-0.4,0.2-0.7,0.4-1.1,0.5c-1.8,1-3.5,2.1-5.1,3.4C9.2,4.2,8.6,3.7,8,3C4.3-0.5,3.7,0,3.7,0l-2,1.1C1.3,1.4,0.8,1.6,0.3,1.8
			C0,1.9-0.1,2.1,0,2.4c0.1,0.1,0.2,0.2,0.3,0.3c2.1,1.6,4.1,3.2,6.1,5C6.1,7.8,5.9,8.1,5.7,8.3C5,8.8,4.4,9.4,3.8,10
			c-3.5,3.7-3,4.3-3,4.3l1.1,2c0.2,0.5,0.4,0.9,0.6,1.4C2.7,18,2.9,18.1,3.1,18c0.1-0.1,0.2-0.2,0.3-0.3c1.9-2.5,3.9-4.9,6-7.3
			c2.4,2.3,4.6,4.6,6.6,7.3c0.1,0.2,0.3,0.3,0.5,0.2c0.2-0.1,0.3-0.2,0.3-0.4c0.1-0.7,0.2-1.4,0.3-2.1c0-0.1,0-0.3-0.1-0.4
			c-0.2-0.4-0.4-0.7-0.5-1.1c-1.3-2.3-2.8-4.4-4.4-6.4c2-2,4.1-4,6.4-5.6C18.7,1.9,18.8,1.7,18.8,1.5L18.8,1.5z"/>
	</g>
</g>
</svg>
