<?xml version="1.0" encoding="utf-8"?>
<!-- Generator: Adobe Illustrator 28.3.0, SVG Export Plug-In . SVG Version: 6.00 Build 0)  -->
<svg version="1.2" baseProfile="tiny" id="Layer_1" xmlns="http://www.w3.org/2000/svg" xmlns:xlink="http://www.w3.org/1999/xlink"
	 x="0px" y="0px" viewBox="0 0 65 65" overflow="visible" xml:space="preserve">
<g>
	<linearGradient id="SVGID_1_" gradientUnits="userSpaceOnUse" x1="7.0304" y1="47.0448" x2="26.8083" y2="47.0448">
		<stop  offset="0" style="stop-color:#FF9B28"/>
		<stop  offset="1" style="stop-color:#FFC100"/>
	</linearGradient>
	<path fill="url(#SVGID_1_)" d="M23,52.6c-7.2-1.7-12.7-5.8-16.3-12.4c0,0-0.1-0.1-0.1-0.2l-0.1-0.2l-0.8,0.5l0.2,0.3
		c3.8,6.8,9.5,11.1,17,12.9c1.3,0.3,2.7,0.4,4.1,0.5c0.5,0,0.9,0.1,1.4,0.1l0.1-1c-0.5,0-0.9-0.1-1.4-0.1C25.6,53,24.2,52.9,23,52.6
		z"/>
	
		<linearGradient id="SVGID_00000057124274812687548710000007357420794960485804_" gradientUnits="userSpaceOnUse" x1="46.8543" y1="37.6088" x2="52.7748" y2="37.6088">
		<stop  offset="0" style="stop-color:#FF9B28"/>
		<stop  offset="1" style="stop-color:#FFC100"/>
	</linearGradient>
	<path fill="url(#SVGID_00000057124274812687548710000007357420794960485804_)" d="M46.4,19.1v35l0,0.2c0,0.2,0,0.4,0,0.5
		c0.1,0.7,0.6,1.2,1.3,1.3c0,0,0.1,0,0.1,0c0.7,0,1.3-0.5,1.4-1.3c0-0.1,0-0.2,0-0.3l0-0.1c0.1-2.1,1.9-3.8,3.9-3.9l0-1
		c-2.6,0.1-4.7,2.2-4.9,4.8l0,0.2c0,0.1,0,0.1,0,0.2c0,0.2-0.2,0.4-0.4,0.4c-0.3,0-0.4-0.1-0.4-0.4c0-0.1,0-0.3,0-0.4l0-35.1H46.4z"
		/>
	
		<linearGradient id="SVGID_00000031891076611474721860000001805115456957666209_" gradientUnits="userSpaceOnUse" x1="16.871" y1="28.1317" x2="37.8936" y2="28.1317">
		<stop  offset="0" style="stop-color:#FF9B28"/>
		<stop  offset="1" style="stop-color:#FFC100"/>
	</linearGradient>
	<path fill="url(#SVGID_00000031891076611474721860000001805115456957666209_)" d="M21.4,21.5c-1.2,4.4-2.4,8.9-3.6,13.3l-2.3,8.7
		c-0.4,1.4-0.1,2.6,1,3.5c-0.1,0.3-0.2,0.7-0.3,1l-0.1,0.4l1,0.3l0.1-0.4c0.1-0.4,0.2-0.7,0.3-1.1c0.1-0.3-0.1-0.7-0.3-0.9
		c-0.7-0.7-1-1.5-0.7-2.6l2.3-8.7c1.2-4.4,2.4-8.9,3.6-13.3c0.1-0.4,0.2-0.8-0.2-1.4c-1.5-2.5-0.9-5.7,1.4-7.6
		c0.4-0.4,0.6-0.8,0.6-1.3c0-0.9,0-1.7,0-2.5c0-1.8,1.4-3.2,3.2-3.2c0,0,0,0,0,0c1.8,0,3.2,1.4,3.2,3.2c0,0.4,0,0.7,0,1.1
		c0,0.5,0,1,0,1.6c0,0.4,0.2,0.8,0.5,1.1c2.4,2,2.9,5.1,1.4,7.8c-0.2,0.3-0.2,0.8-0.1,1.2c1.2,4.4,2.3,8.7,3.5,13l2.4,9.1
		c0.3,1,0.1,1.8-0.7,2.5c-0.3,0.3-0.4,0.7-0.3,1.1c0.1,0.5,0.2,1,0.4,1.5c0.1,0.3,0.2,0.6,0.2,0.9c0.1,0.2,0.1,0.5-0.3,0.6
		c-0.1,0-0.2,0-0.3,0c-0.1-0.1-0.2-0.2-0.3-0.4c-0.1-0.3-0.2-0.6-0.2-0.9c-0.1-0.5-0.3-1-0.4-1.5c-0.1-0.3-0.5-0.7-0.8-0.8
		c-1-0.3-1.5-0.8-1.8-1.8c-0.8-3.2-1.7-6.3-2.5-9.5L31,34.2c0-0.1-0.1-0.2-0.1-0.3l-0.2-0.5l-2.9,0.3l-0.1,0.4c0,0.2,0,0.4,0,0.6
		c0,0.3,0,0.6-0.1,0.7c0,0-0.2,0.1-0.3,0.1c-0.3,0-0.4,0-0.4-0.8c0-0.2,0-0.4,0-0.6l-0.1-0.4l-0.9-0.1c-0.4,0-0.8-0.1-1.2-0.2
		c-0.8-0.1-1,0.5-1,0.8c-0.3,1.1-0.6,2.2-0.9,3.4c-0.6,2.3-1.2,4.6-1.8,6.9c-0.4,1.5-1,2.2-2.1,2.3l-0.3,0.1l-0.2,0.6
		c-0.2,0.6-0.4,1.3-0.5,1.9l1,0.2c0.2-0.6,0.3-1.2,0.5-1.9l0-0.1c1.7-0.4,2.3-1.8,2.6-3c0.6-2.3,1.2-4.6,1.8-6.9
		c0.3-1.1,0.6-2.2,0.9-3.4c0,0,0,0,0,0c0.4,0.1,0.7,0.1,1.1,0.1l0.1,0c0,0,0,0.1,0,0.1c0,0.6,0,1.8,1.4,1.8c0.5,0,0.8-0.1,1.1-0.4
		c0.4-0.4,0.4-1,0.4-1.4c0,0,0-0.1,0-0.1l1.2-0.1c0,0,0,0,0,0l0.4,1.3c0.9,3.2,1.7,6.3,2.5,9.5c0.3,1.3,1.2,2.1,2.5,2.5
		c0,0,0.1,0.1,0.1,0.1c0.1,0.5,0.3,0.9,0.4,1.4c0.1,0.3,0.2,0.6,0.2,0.9c0.1,0.4,0.4,0.8,0.7,1c0.2,0.1,0.4,0.2,0.7,0.2
		c0.1,0,0.3,0,0.4-0.1c0.8-0.2,1.2-1,1-1.9c-0.1-0.3-0.2-0.6-0.2-0.9c-0.1-0.5-0.3-1-0.4-1.4c0,0,0-0.1,0-0.1c1-1,1.3-2.1,0.9-3.5
		l-2.4-9.1c-1.2-4.3-2.3-8.7-3.5-13c0-0.1,0-0.3,0-0.4c1.8-3.1,1.1-6.7-1.6-9c-0.1-0.1-0.2-0.2-0.2-0.3c0-0.5,0-1,0-1.5
		c0-0.4,0-0.8,0-1.2c-0.1-2.3-1.9-4.1-4.2-4.1c0,0,0,0,0,0c-2.3,0-4.2,1.8-4.2,4.2c0,0.8,0,1.7,0,2.5c0,0.2,0,0.4-0.2,0.5
		c-2.7,2.2-3.3,5.9-1.6,8.9C21.4,21.1,21.4,21.3,21.4,21.5z"/>
	
		<linearGradient id="SVGID_00000139253737887979152170000016978896391454986640_" gradientUnits="userSpaceOnUse" x1="7.3" y1="36.0303" x2="56.8344" y2="36.0303">
		<stop  offset="0" style="stop-color:#FF9B28"/>
		<stop  offset="1" style="stop-color:#FFC100"/>
	</linearGradient>
	<path fill="url(#SVGID_00000139253737887979152170000016978896391454986640_)" d="M60.4,17.2c-0.1-2.9-1.5-5-4.2-6.2
		c-2.6-1.1-5.1-0.8-7.4,1.1c-1.2,1-1.9,2.3-2.3,3.9H35.8v1h11.6l0.1-0.4c0.3-1.6,1-2.8,2-3.7c2-1.6,4.1-1.9,6.3-0.9
		c2.3,1,3.5,2.8,3.6,5.3c0.1,2,0.1,4.1,0,6.1c0,0.8,0,1.7,0,2.5l0,9.6l0,19.2c0,2.9-1.8,5.2-4.5,5.9c-0.5,0.1-1,0.2-1.5,0.2
		c-13.9,0-27.9,0-41.8,0h-7V17H19v-1H3.6v45.6h8c2.3,0,4.6,0,7,0c11.6,0,23.2,0,34.8,0c0.6,0,1.2-0.1,1.8-0.2
		c3.2-0.8,5.2-3.5,5.2-6.8l0-19.2l0-9.6c0-0.8,0-1.7,0-2.5C60.5,21.3,60.5,19.3,60.4,17.2z"/>
	
		<linearGradient id="SVGID_00000130621428753634303010000004191423592402708631_" gradientUnits="userSpaceOnUse" x1="24.5098" y1="17.4271" x2="30.2429" y2="17.4271">
		<stop  offset="0" style="stop-color:#FF9B28"/>
		<stop  offset="1" style="stop-color:#FFC100"/>
	</linearGradient>
	<path fill="url(#SVGID_00000130621428753634303010000004191423592402708631_)" d="M27.4,20.7c1.8,0,3.3-1.5,3.3-3.2
		c0-0.9-0.3-1.7-0.9-2.4c-0.6-0.6-1.4-1-2.3-1c0,0,0,0,0,0c-0.9,0-1.7,0.3-2.3,1c-0.6,0.6-1,1.5-1,2.4
		C24.1,19.2,25.6,20.7,27.4,20.7z M25.8,15.8c0.4-0.4,1-0.7,1.6-0.7c0,0,0,0,0,0c0.6,0,1.2,0.2,1.6,0.7c0.4,0.4,0.7,1,0.7,1.6
		c0,1.2-1,2.3-2.3,2.3c-1.2,0-2.3-1-2.3-2.3C25.1,16.8,25.3,16.2,25.8,15.8z"/>
</g>
</svg>
