<svg version="1.2" xmlns="http://www.w3.org/2000/svg" viewBox="0 0 13 20" width="13" height="20">
	<title>line-arrow-svg</title>
	<style>
		.s0 { fill: #000000 } 
	</style>
	<path id="Layer" class="s0" d="m8.7 10.7c-3.1 1.4-5.5 4.2-6.2 7.5h-1.7c-0.4 0-0.8 0.4-0.8 0.8 0 0.4 0.4 0.8 0.8 0.8h2.4 0.1 0.1c0.5 0 0.9-0.3 1-0.8 0.6-4.4 4-7.9 8.3-8.9 0.1 0 0.1-0.2 0-0.3-4.4-1.1-7.7-4.6-8.4-9 0-0.5-0.4-0.8-0.9-0.8h-0.1-0.1-2.4c-0.4 0-0.8 0.3-0.8 0.8 0 0.4 0.4 0.8 0.8 0.8h1.7c0.7 3.4 3.1 6.1 6.2 7.5"/>
</svg>