<?xml version="1.0" encoding="utf-8"?>
<!-- Generator: Adobe Illustrator 26.5.0, SVG Export Plug-In . SVG Version: 6.00 Build 0)  -->
<svg version="1.1" id="Layer_1" xmlns="http://www.w3.org/2000/svg" xmlns:xlink="http://www.w3.org/1999/xlink" x="0px" y="0px"
	 viewBox="0 0 125 125" style="enable-background:new 0 0 125 125;" xml:space="preserve">
<style type="text/css">
	.st0{fill:#020103;}
	.st1{fill:#010101;}
	.st2{fill:#020202;}
</style>
<path d="M14.1,90c0-16.5,0-33,0-49.5c0.6-1,0.4-2.2,0.7-3.3C17.6,27,24,20.6,34.1,17.6c1.2-0.4,2.6-0.3,3.8-0.8c16.3,0,32.6,0,49,0
	c0.1,0.3,0.3,0.2,0.5,0.2c2.6,0.3,5.1,0.9,7.4,2c10.4,4.9,15.9,13.1,16.1,24.6c0.2,14.5,0.1,28.9,0,43.4c0,5.5-1.5,10.7-4.7,15.2
	c-5.5,7.7-13,11.5-22.4,11.5c-14.2,0-28.4,0-42.6,0c-1.5,0-3.1-0.1-4.6-0.3c-10.3-1.5-19-9.3-21.6-19.4C14.6,92.6,14.7,91.2,14.1,90
	z M62.5,91.8c14.6,0,26.6-12,26.5-26.6c0-14.6-11.8-26.4-26.5-26.5C48,38.6,36,50.5,35.9,65.2C35.9,79.8,47.9,91.8,62.5,91.8z
	 M90.6,29c-4.4,0-8.1,3.7-8.1,8.1c0,4.4,3.7,8.1,8.1,8c4.4,0,8.1-3.7,8-8.1C98.6,32.6,95,29,90.6,29z"/>
<circle class="st1" cx="62.5" cy="65.2" r="19.9"/>
</svg>
