<?xml version="1.0" encoding="utf-8"?>
<!-- Generator: Adobe Illustrator 26.5.0, SVG Export Plug-In . SVG Version: 6.00 Build 0)  -->
<svg version="1.1" id="Layer_1" xmlns="http://www.w3.org/2000/svg" xmlns:xlink="http://www.w3.org/1999/xlink" x="0px" y="0px"
	 viewBox="0 0 125 125" style="enable-background:new 0 0 125 125;" xml:space="preserve">
<style type="text/css">
	.st0{fill:#020103;}
	.st1{fill:#010101;}
	.st2{fill:#020202;}
</style>
<path d="M62.2,23.6c12.3,0,24.5,0.2,36.8,1.1c2.9,0.2,5.8,0.5,8.6,1c6.9,1.4,11.2,5.9,12.5,13.1c1.8,10,2,20,1.9,30.1
	c-0.1,6.5-0.4,13-1.4,19.5c-0.3,2.2-0.6,4.4-1.3,6.4c-2.3,6.1-6.9,9.3-13.3,10.1c-11.9,1.5-23.8,1.6-35.7,1.8
	c-13.5,0.2-27-0.1-40.5-0.8c-4-0.2-7.9-0.6-11.8-1.2C11.1,103.6,6.5,99,5.1,92.1c-1.4-7-1.7-14.1-1.9-21.2c-0.3-9.4,0-18.8,1.2-28.1
	c0.3-2,0.6-4.1,1.1-6.1c1.7-6.3,6.8-10.5,13.6-11.3c11.6-1.4,23.2-1.6,34.9-1.8C56.7,23.6,59.4,23.6,62.2,23.6z M50.7,47.4
	c0,12,0,23.7,0,35.6c10.3-6,20.6-11.8,30.9-17.8C71.3,59.2,61.1,53.4,50.7,47.4z"/>
</svg>
