<?xml version="1.0" encoding="utf-8"?>
<!-- Generator: Adobe Illustrator 26.5.0, SVG Export Plug-In . SVG Version: 6.00 Build 0)  -->
<svg version="1.1" id="Layer_1" xmlns="http://www.w3.org/2000/svg" xmlns:xlink="http://www.w3.org/1999/xlink" x="0px" y="0px"
	 viewBox="0 0 125 125" style="enable-background:new 0 0 125 125;" xml:space="preserve">
<style type="text/css">
	.st0{fill:#020103;}
	.st1{fill:#010101;}
	.st2{fill:#020202;}
</style>
<g>
	<path d="M111.5,114.2c-6.4,0-12.9,0-19.3,0c-0.8,0-1-0.2-1-1c0-11.1,0-22.2,0-33.3c0-2.8-0.2-5.6-1.1-8.3c-1.4-4.2-4.1-6.3-8.5-6.6
		c-1.6-0.1-3.3,0-4.8,0.4c-4.4,1.1-6.6,4.3-7.6,8.5c-0.5,2.3-0.7,4.6-0.7,6.9c0,10.8,0,21.5,0,32.3c0,0.8-0.1,1-1,1
		c-6.1,0-12.2,0-18.4,0c-0.8,0-1-0.1-1-1c0-21.2,0-42.3,0-63.5c0-0.8,0.2-1,1-1c5.9,0,11.7,0,17.6,0c0.8,0,1,0.2,1,1
		c0,2.6,0,5.3,0,7.9c0.4,0.1,0.4-0.2,0.5-0.3c3.4-5.7,8.6-8.9,15-9.9c5.3-0.8,10.6-0.4,15.7,1.7c5.7,2.4,9,6.9,10.7,12.7
		c1,3.2,1.4,6.6,1.7,10c0,0.2-0.1,0.5,0.2,0.7C111.5,86.4,111.5,100.3,111.5,114.2z"/>
	<path d="M26.9,16.3c0.5,0.4,1.1,0.3,1.6,0.4c5.5,1.6,9.3,7.2,8.5,12.6c-0.9,6.1-5.6,10.5-11.6,10.6c-5.7,0.1-10.8-4.3-11.7-10
		c-0.9-6.1,2.8-11.7,8.8-13.2c0.3-0.1,0.7,0,0.8-0.3C24.5,16.3,25.7,16.3,26.9,16.3z"/>
	<path class="st2" d="M15.1,81.4c0-10.5,0-21,0-31.5c0-0.8,0.2-1.1,1-1.1c6.1,0,12.2,0,18.4,0c0.8,0,1,0.2,1,1c0,21.2,0,42.3,0,63.5
		c0,0.7-0.2,0.9-0.9,0.9c-6.2,0-12.4,0-18.6,0c-0.7,0-0.9-0.2-0.9-0.9C15.1,102.7,15.1,92,15.1,81.4z"/>
</g>
</svg>
