<?xml version="1.0" encoding="utf-8"?>
<!-- Generator: Adobe Illustrator 28.3.0, SVG Export Plug-In . SVG Version: 6.00 Build 0)  -->
<svg version="1.2" baseProfile="tiny" id="Layer_1" xmlns="http://www.w3.org/2000/svg" xmlns:xlink="http://www.w3.org/1999/xlink"
	 x="0px" y="0px" viewBox="0 0 34 34" overflow="visible" xml:space="preserve">
<g>
	<path fill="#1A73E8" d="M22.1,31.2c-0.2,0.1-0.4,0.1-0.6,0.2c-0.3-0.1-0.7-0.1-1-0.2c-5.7-2.8-11.4-5.6-17.1-8.4
		c-0.2-0.1-0.5-0.3-0.7-0.5c-0.4-0.5-0.3-1.1,0-1.7c2.8-5.6,5.6-11.3,8.3-16.9c0.1-0.1,0.1-0.3,0.2-0.4c0.4-0.5,1-0.8,1.6-0.6
		c0.2,0.1,0.3,0.1,0.5,0.2C19,5.6,24.5,8.3,30,11c0.4,0.2,0.9,0.4,1.2,0.8c0.1,0.2,0.1,0.4,0.2,0.6c0,0.5-0.2,0.9-0.4,1.4
		c-2.7,5.4-5.3,10.8-8,16.2C22.7,30.4,22.5,30.9,22.1,31.2z"/>
	<path fill="#2264A0" d="M19.9,32.5c-5.7-2.8-11.4-5.6-17.1-8.4c-0.5-0.2-0.9-0.6-1.2-1c-0.5-0.7-1-1.8-0.2-3.4L9.8,2.9
		c0.1-0.2,0.2-0.4,0.3-0.6c0.8-1.1,2.1-1.6,3.4-1.2c0.2,0.1,0.5,0.2,0.7,0.3l16.5,8.1c0.5,0.2,1.2,0.6,1.7,1.3l0.2,0.2l0.4,1.1
		l0,0.3c0,0.9-0.4,1.6-0.6,2.1c-2.7,5.4-5.3,10.8-8,16.2c-0.2,0.5-0.6,1.2-1.3,1.7C22,33.5,19.9,32.5,19.9,32.5z M4.2,21.3
		C4.2,21.3,4.2,21.3,4.2,21.3c5.7,2.8,11.4,5.6,17.1,8.4c0,0,0,0,0,0c0.1-0.1,0.2-0.3,0.2-0.4c2.7-5.4,5.3-10.8,8-16.2
		c0.1-0.1,0.2-0.3,0.2-0.4c-0.1-0.1-0.3-0.2-0.4-0.2L12.8,4.3c-0.1,0-0.1-0.1-0.2-0.1c0,0,0,0.1-0.1,0.1L4.3,21.2
		C4.2,21.2,4.2,21.3,4.2,21.3z"/>
</g>
<path fill="#FFFFFF" d="M21.9,31.3c-0.1,0-0.3,0-0.4,0c-0.3-0.1-0.6-0.1-0.9-0.2c-5.7-2.8-11.4-5.6-17.1-8.4
	c-0.2-0.1-0.5-0.3-0.7-0.5c-0.4-0.5-0.3-1.1,0-1.7c2.8-5.6,5.6-11.3,8.3-16.9c0.1-0.1,0.1-0.3,0.2-0.4c0.4-0.5,1-0.8,1.6-0.6
	c0.2,0.1,0.3,0.1,0.5,0.2C19,5.6,24.5,8.3,30,11c0.4,0.2,0.9,0.4,1.2,0.8c0.1,0.2,0.1,0.4,0.2,0.6c0,0.5-0.2,0.9-0.4,1.4
	c-2.7,5.4-5.3,10.8-8,16.2C22.7,30.5,22.4,31,21.9,31.3z M21.4,18.7l2.9-5.8L18.4,10c-0.3-0.1-0.6,0.1-0.5,0.4l0.9,2.7
	c-0.1,0-0.2,0.1-0.4,0.1c-2.2,0.7-4.4,1.5-6.6,2.2c-0.3,0.1-0.5,0.2-0.7,0.4c-0.5,0.4-0.6,1-0.4,1.7c0.6,1.9,1.3,3.8,1.9,5.6l2.9-1
	l-1.4-4.3l5.7-1.9l0.9,2.7C20.9,19,21.3,19,21.4,18.7z"/>
</svg>
