<?xml version="1.0" encoding="utf-8"?>
<!-- Generator: Adobe Illustrator 28.3.0, SVG Export Plug-In . SVG Version: 6.00 Build 0)  -->
<svg version="1.2" baseProfile="tiny" id="Layer_1" xmlns="http://www.w3.org/2000/svg" xmlns:xlink="http://www.w3.org/1999/xlink"
	 x="0px" y="0px" viewBox="0 0 34 34" overflow="visible" xml:space="preserve">
<g>
	<g>
		<path fill="#9C2C1D" d="M0.6,6.9c-0.1,0.7-0.1,1.4,0.3,2c0.4,0.8,1.1,1.3,1.9,1.6c1.4,0.5,2.7,0.9,4.1,1.4C7,11.9,7.1,12,7.2,12
			c-1.4,2-1.3,2.9,0.1,4.7c-1.6,1.6-1.6,2.9-0.1,4.8c-0.6,0.5-0.9,1.1-1.1,1.8c-0.3,1.2,0.4,2.8,1.6,3.3c0.3,0.2,0.7,0.3,1.1,0.4
			c3.7,1.3,7.5,2.6,11.2,3.9c1.2,0.4,2.4,0.7,3.6,0.6c3.5-0.1,6.2-1.6,8.1-4.5c1.4-2.1,1.8-4.4,1.7-6.8c-0.1-1.6-0.6-3.1-1.3-4.5
			c-1.9-4-3.9-8-5.8-11.9c-0.4-0.9-1-1.5-2-1.7c-1.5-0.4-3.2,0.5-3.6,2.3c-0.1,0.6-0.1,1.2-0.1,1.8c0.1,1.3,0.3,2.7,0.5,4
			c0,0.1,0,0.2,0,0.4c-0.2-0.1-0.3-0.1-0.4-0.1c-5.3-1.9-10.7-3.7-16-5.6c-1-0.4-2.1-0.4-3,0.3c-0.4,0.3-0.7,0.8-1,1.1
			C0.8,6.4,0.7,6.7,0.6,6.9L0.6,6.9z M12.9,9.2c2.9,1,5.8,2,8.8,3.1c0.9,0.3,1.3-0.1,1.2-1c-0.2-1.8-0.5-3.6-0.7-5.3
			c0-0.3-0.1-0.6,0-0.9c0.1-0.4,0.2-0.8,0.4-1.1c0.6-0.8,1.9-0.7,2.4,0.4c1.9,4.1,3.9,8.1,5.9,12.2c1.3,2.8,1.5,5.6,0.3,8.4
			c-0.9,2.2-2.6,3.8-4.9,4.6c-1.9,0.7-3.7,0.6-5.6,0c-3.9-1.4-7.8-2.7-11.8-4.1c-0.1,0-0.2-0.1-0.3-0.1c-0.4-0.1-0.6-0.4-0.8-0.8
			c-0.2-0.6-0.2-1.1,0.3-1.6c0.4-0.5,0.9-0.6,1.5-0.4c1.1,0.4,2.2,0.8,3.4,1.1c0.2,0.1,0.3,0.1,0.5,0.1c0.3,0,0.7-0.2,0.8-0.5
			c0.1-0.3,0-0.7-0.3-0.9c-0.1-0.1-0.3-0.2-0.5-0.2c-1.6-0.6-3.2-1.1-4.8-1.7c-0.7-0.3-1.1-1.1-0.8-1.8c0.2-0.7,1-1.2,1.8-1
			c0.1,0,0.3,0.1,0.4,0.1c1.5,0.5,3,1,4.5,1.6c0.3,0.1,0.6,0.2,0.9,0c0.2-0.2,0.4-0.4,0.3-0.7c0-0.4-0.3-0.6-0.6-0.7
			c-1-0.3-2-0.7-3-1c-1.1-0.4-2.3-0.8-3.4-1.2c-0.9-0.3-1.2-1.5-0.6-2.2c0.4-0.6,1.1-0.8,1.8-0.5c2,0.7,4,1.4,6,2.1
			c0.2,0.1,0.3,0.1,0.5,0.1c0.4,0.1,0.7-0.2,0.8-0.5c0.1-0.3,0-0.7-0.3-0.9c-0.2-0.1-0.3-0.2-0.5-0.2c-4.3-1.5-8.6-3-12.9-4.5
			C3.3,9,3.1,9,3,8.9C2.3,8.6,2,8,2.1,7.2C2.3,6.6,2.9,6,3.6,6.1c0.3,0,0.5,0.1,0.8,0.2C7.2,7.2,10.1,8.2,12.9,9.2L12.9,9.2z"/>
		<path fill="#FFFFFF" d="M12.9,9.2c-2.9-1-5.7-2-8.6-3C4.1,6.1,3.8,6.1,3.6,6.1C2.9,6,2.3,6.5,2.1,7.2C2,8,2.3,8.6,3,8.9
			C3.1,9,3.3,9,3.4,9.1c4.3,1.5,8.6,3,12.9,4.5c0.2,0.1,0.3,0.1,0.5,0.2c0.3,0.2,0.4,0.5,0.3,0.9c-0.1,0.3-0.4,0.5-0.8,0.5
			c-0.2,0-0.3-0.1-0.5-0.1c-2-0.7-4-1.4-6-2.1c-0.8-0.3-1.4-0.1-1.8,0.5c-0.6,0.8-0.3,1.9,0.6,2.2c1.1,0.4,2.3,0.8,3.4,1.2
			c1,0.3,2,0.7,3,1c0.3,0.1,0.6,0.3,0.6,0.7c0,0.3-0.1,0.5-0.3,0.7c-0.3,0.2-0.6,0.1-0.9,0c-1.5-0.5-3-1-4.5-1.6
			c-0.1,0-0.3-0.1-0.4-0.1c-0.8-0.2-1.6,0.2-1.8,1c-0.2,0.7,0.1,1.6,0.8,1.8c1.6,0.6,3.2,1.1,4.8,1.7c0.2,0.1,0.3,0.1,0.5,0.2
			c0.3,0.2,0.4,0.6,0.3,0.9c-0.1,0.3-0.4,0.5-0.8,0.5c-0.2,0-0.3-0.1-0.5-0.1c-1.1-0.4-2.2-0.8-3.4-1.1c-0.6-0.2-1.1,0-1.5,0.4
			c-0.4,0.5-0.5,1-0.3,1.6c0.2,0.4,0.4,0.6,0.8,0.8c0.1,0,0.2,0.1,0.3,0.1c3.9,1.4,7.8,2.7,11.8,4.1c1.9,0.7,3.8,0.7,5.6,0
			c2.3-0.8,4-2.3,4.9-4.6c1.2-2.8,1.1-5.7-0.3-8.4c-2-4.1-3.9-8.1-5.9-12.2c-0.5-1.1-1.8-1.2-2.4-0.4c-0.2,0.3-0.3,0.7-0.4,1.1
			c-0.1,0.3,0,0.6,0,0.9c0.2,1.8,0.5,3.6,0.7,5.3c0.1,0.9-0.3,1.3-1.2,1C18.8,11.2,15.9,10.2,12.9,9.2L12.9,9.2z"/>
	</g>
</g>
</svg>
