<?xml version="1.0" encoding="utf-8"?>
<!-- Generator: Adobe Illustrator 28.3.0, SVG Export Plug-In . SVG Version: 6.00 Build 0)  -->
<svg version="1.2" baseProfile="tiny" id="Layer_1" xmlns="http://www.w3.org/2000/svg" xmlns:xlink="http://www.w3.org/1999/xlink"
	 x="0px" y="0px" viewBox="0 0 34 34" overflow="visible" xml:space="preserve">
<g>
	<path fill="#2E9947" d="M22.7,21.3c-1.4-1.7-3.9-2-5.8-0.8c-0.4,0.3-0.8,0.6-1.2,0.9c0,0,0,0-0.2,0c-0.5,0-0.9-0.2-1.5-0.7
		c-1.2-1-2.3-2.2-3.2-3.9c-0.4-0.8-0.7-1.4-0.7-2c0-0.5,0.1-0.6,0.2-0.7c0.4-0.3,0.8-0.6,1.1-0.9c1.7-1.4,2-4,0.8-5.8
		c-0.6-0.9-1.3-1.8-2-2.7c-1.4-1.7-3.9-2-5.7-0.8C4.3,4.2,4.2,4.3,4,4.5C3.9,4.5,3.8,4.6,3.7,4.7C2.3,5.6,1.6,7,1.2,7.9
		C1,8.3,0.4,10,0.6,12.5c0.2,2.1,0.8,4.2,1.8,6.3c2,3.9,4.6,7.2,7.8,9.8c1.7,1.4,3.6,2.4,5.6,2.9c0,0,1.2,0.3,2.3,0.3
		c0.1,0,0.3,0,0.4,0c2,0,3.9-0.7,5.5-2.2c1.6-1.5,1.9-4,0.7-5.7C24,23,23.3,22.1,22.7,21.3z"/>
	<path fill="#2E9947" d="M32.2,7.3c-1.1-1.6-2.9-2.6-4.8-2.9c-0.4-0.1-0.7-0.1-1.2-0.1c-3.3,0.1-6.1,2.6-6.6,5.8
		c-0.4,2.7,0.5,5,2.6,6.7c0,0,0,0.1,0,0.1c0,0.2,0,0.4-0.1,0.6c-0.2,1,0.4,1.6,0.7,1.9c0.3,0.2,0.6,0.4,1.1,0.4
		c0.3,0,0.5-0.1,0.9-0.2c0.9-0.4,1.8-0.7,2.7-1.1l0.3-0.1c0.2-0.1,0.3-0.1,0.5-0.2c2.7-0.8,4.5-2.6,5.1-5.4
		C33.7,10.8,33.3,8.9,32.2,7.3z"/>
</g>
<g>
	<path fill="#FFFFFF" d="M27.3,5.5c3.3,0.5,5.6,3.6,4.9,6.9c-0.5,2.3-2,3.8-4.3,4.5c-0.2,0.1-0.4,0.1-0.6,0.2c-1,0.4-2,0.8-3,1.3
		c-0.3,0.1-0.5,0.2-0.8,0c-0.3-0.2-0.3-0.5-0.2-0.8c0.1-0.4,0.1-0.8,0.2-1.2c0-0.1,0-0.2-0.1-0.3c-2-1.4-2.9-3.4-2.5-5.9
		c0.4-2.7,2.8-4.7,5.5-4.8C26.6,5.5,27,5.5,27.3,5.5z"/>
</g>
<circle fill="#34A853" cx="23.5" cy="11.4" r="1"/>
<circle fill="#34A853" cx="26.7" cy="11.4" r="1"/>
<circle fill="#34A853" cx="30.1" cy="11.4" r="1"/>
<path fill="#FFFFFF" d="M2.6,8.5c0.3-1.1,1-2,1.9-2.6C4.8,5.8,5,5.6,5.3,5.4C6.5,4.6,8.1,4.8,9,5.9c0.7,0.8,1.3,1.7,1.9,2.6
	c0.8,1.2,0.6,2.8-0.5,3.8c-0.3,0.3-0.6,0.5-1,0.7c-0.7,0.5-0.9,1.2-0.9,2c0,1,0.4,1.9,0.9,2.7c0.9,1.7,2.1,3.1,3.5,4.3
	c0.7,0.5,1.4,1,2.4,1c0.5,0,0.9-0.1,1.3-0.4c0.4-0.3,0.7-0.6,1.1-0.8c1.2-0.8,2.9-0.6,3.8,0.5c0.7,0.8,1.3,1.7,1.9,2.5
	c0.8,1.2,0.6,2.8-0.5,3.8c-1.4,1.3-2.9,1.9-4.8,1.8c-1.3,0-2-0.3-2-0.3c-1.8-0.5-3.5-1.4-4.9-2.6C8,24.8,5.6,21.6,3.7,18
	c-0.9-1.8-1.5-3.7-1.7-5.7C2,12.3,2,10.5,2.6,8.5z"/>
</svg>
