<?xml version="1.0" encoding="utf-8"?>
<!-- Generator: Adobe Illustrator 28.2.0, SVG Export Plug-In . SVG Version: 6.00 Build 0)  -->
<svg version="1.2" baseProfile="tiny" id="Layer_1" xmlns="http://www.w3.org/2000/svg" xmlns:xlink="http://www.w3.org/1999/xlink"
	 x="0px" y="0px" viewBox="0 0 32.9 29.6" overflow="visible" xml:space="preserve">
<g>
	<path fill="#9C2E21" d="M0.1,5C0,5.7,0.1,6.4,0.4,7c0.4,0.8,1.1,1.3,1.9,1.6C3.7,9.1,5,9.5,6.4,10c0.1,0,0.2,0.1,0.4,0.1
		c-1.4,2-1.3,2.9,0.1,4.7c-1.6,1.6-1.6,2.9-0.1,4.8c-0.6,0.5-0.9,1.1-1.1,1.8c-0.3,1.2,0.4,2.8,1.6,3.3C7.6,24.8,8,25,8.3,25.1
		c3.7,1.3,7.5,2.6,11.2,3.9c1.2,0.4,2.4,0.7,3.6,0.6c3.5-0.1,6.2-1.6,8.1-4.5c1.4-2.1,1.8-4.4,1.7-6.8c-0.1-1.6-0.6-3.1-1.3-4.5
		c-1.9-4-3.9-8-5.8-11.9c-0.4-0.9-1-1.5-2-1.7c-1.5-0.4-3.2,0.5-3.6,2.3c-0.1,0.6-0.1,1.2-0.1,1.8c0.1,1.3,0.3,2.7,0.5,4
		c0,0.1,0,0.2,0,0.4c-0.2-0.1-0.3-0.1-0.4-0.1C15,6.6,9.7,4.8,4.4,2.9c-1-0.4-2.1-0.4-3,0.3C1,3.5,0.7,4,0.4,4.3
		C0.3,4.6,0.2,4.8,0.1,5L0.1,5z M12.4,7.3c2.9,1,5.8,2,8.8,3.1c0.9,0.3,1.3-0.1,1.2-1c-0.2-1.8-0.5-3.6-0.7-5.3c0-0.3-0.1-0.6,0-0.9
		c0.1-0.4,0.2-0.8,0.4-1.1c0.6-0.8,1.9-0.7,2.4,0.4c1.9,4.1,3.9,8.1,5.9,12.2c1.3,2.8,1.5,5.6,0.3,8.4c-0.9,2.2-2.6,3.8-4.9,4.6
		c-1.9,0.7-3.7,0.6-5.6,0c-3.9-1.4-7.8-2.7-11.8-4.1c-0.1,0-0.2-0.1-0.3-0.1c-0.4-0.1-0.6-0.4-0.8-0.8C7,22,7.1,21.5,7.5,21
		c0.4-0.5,0.9-0.6,1.5-0.4c1.1,0.4,2.2,0.8,3.4,1.1c0.2,0.1,0.3,0.1,0.5,0.1c0.3,0,0.7-0.2,0.8-0.5c0.1-0.3,0-0.7-0.3-0.9
		c-0.1-0.1-0.3-0.2-0.5-0.2c-1.6-0.6-3.2-1.1-4.8-1.7c-0.7-0.3-1.1-1.1-0.8-1.8c0.2-0.7,1-1.2,1.8-1c0.1,0,0.3,0.1,0.4,0.1
		c1.5,0.5,3,1,4.5,1.6c0.3,0.1,0.6,0.2,0.9,0c0.2-0.2,0.4-0.4,0.3-0.7c0-0.4-0.3-0.6-0.6-0.7c-1-0.3-2-0.7-3-1
		c-1.1-0.4-2.3-0.8-3.4-1.2c-0.9-0.3-1.2-1.5-0.6-2.2C8,11,8.6,10.8,9.4,11.1c2,0.7,4,1.4,6,2.1c0.2,0.1,0.3,0.1,0.5,0.1
		c0.4,0.1,0.7-0.2,0.8-0.5c0.1-0.3,0-0.7-0.3-0.9c-0.2-0.1-0.3-0.2-0.5-0.2c-4.3-1.5-8.6-3-12.9-4.5C2.8,7.2,2.6,7.1,2.5,7
		c-0.7-0.3-1-1-0.8-1.7c0.1-0.7,0.7-1.2,1.4-1.2c0.3,0,0.5,0.1,0.8,0.2C6.7,5.3,9.6,6.3,12.4,7.3L12.4,7.3z"/>
	<path fill="#FFFFFF" d="M12.4,7.3c-2.9-1-5.7-2-8.6-3C3.6,4.2,3.3,4.2,3.1,4.2c-0.7,0-1.3,0.5-1.4,1.2C1.5,6.1,1.8,6.7,2.5,7
		c0.2,0.1,0.3,0.1,0.5,0.2c4.3,1.5,8.6,3,12.9,4.5c0.2,0.1,0.3,0.1,0.5,0.2c0.3,0.2,0.4,0.5,0.3,0.9c-0.1,0.3-0.4,0.5-0.8,0.5
		c-0.2,0-0.3-0.1-0.5-0.1c-2-0.7-4-1.4-6-2.1C8.6,10.8,8,11,7.5,11.6c-0.6,0.8-0.3,1.9,0.6,2.2c1.1,0.4,2.3,0.8,3.4,1.2
		c1,0.3,2,0.7,3,1c0.3,0.1,0.6,0.3,0.6,0.7c0,0.3-0.1,0.5-0.3,0.7c-0.3,0.2-0.6,0.1-0.9,0c-1.5-0.5-3-1-4.5-1.6
		c-0.1,0-0.3-0.1-0.4-0.1c-0.8-0.2-1.6,0.2-1.8,1c-0.2,0.7,0.1,1.6,0.8,1.8c1.6,0.6,3.2,1.1,4.8,1.7c0.2,0.1,0.3,0.1,0.5,0.2
		c0.3,0.2,0.4,0.6,0.3,0.9c-0.1,0.3-0.4,0.5-0.8,0.5c-0.2,0-0.3-0.1-0.5-0.1c-1.1-0.4-2.2-0.8-3.4-1.1c-0.6-0.2-1.1,0-1.5,0.4
		c-0.4,0.5-0.5,1-0.3,1.6C7.4,23,7.7,23.2,8,23.4c0.1,0,0.2,0.1,0.3,0.1c3.9,1.4,7.8,2.7,11.8,4.1c1.9,0.7,3.8,0.7,5.6,0
		c2.3-0.8,4-2.3,4.9-4.6c1.2-2.8,1.1-5.7-0.3-8.4c-2-4.1-3.9-8.1-5.9-12.2c-0.5-1.1-1.8-1.2-2.4-0.4c-0.2,0.3-0.3,0.7-0.4,1.1
		c-0.1,0.3,0,0.6,0,0.9c0.2,1.8,0.5,3.6,0.7,5.3c0.1,0.9-0.3,1.3-1.2,1C18.3,9.3,15.4,8.3,12.4,7.3L12.4,7.3z"/>
</g>
</svg>
