<?xml version="1.0" encoding="utf-8"?>
<!-- Generator: Adobe Illustrator 28.2.0, SVG Export Plug-In . SVG Version: 6.00 Build 0)  -->
<svg version="1.2" baseProfile="tiny" id="Layer_1" xmlns="http://www.w3.org/2000/svg" xmlns:xlink="http://www.w3.org/1999/xlink"
	 x="0px" y="0px" viewBox="0 0 12.8 19.8" overflow="visible" xml:space="preserve">
<path d="M8.7,10.7c-3.1,1.4-5.5,4.2-6.2,7.5H0.8C0.4,18.2,0,18.6,0,19s0.4,0.8,0.8,0.8h2.4c0,0,0.1,0,0.1,0c0,0,0.1,0,0.1,0
	c0.5,0,0.9-0.3,1-0.8c0.6-4.4,4-7.9,8.3-8.9c0.1,0,0.1-0.2,0-0.3C8.3,8.7,5,5.2,4.3,0.8C4.3,0.3,3.9,0,3.4,0c0,0-0.1,0-0.1,0
	c0,0-0.1,0-0.1,0H0.8C0.4,0,0,0.3,0,0.8c0,0.4,0.4,0.8,0.8,0.8h1.7c0.7,3.4,3.1,6.1,6.2,7.5"/>
</svg>
