<?xml version="1.0" encoding="UTF-8"?>
<svg id="Layer_1" data-name="Layer 1" xmlns="http://www.w3.org/2000/svg" version="1.1" viewBox="0 0 38 38">
  <defs>
    <style>
      .cls-1 {
        fill: #b4b4b4;
      }

      .cls-1, .cls-2, .cls-3 {
        stroke-width: 0px;
      }

      .cls-2 {
        fill: #4a525a;
      }

      .cls-3 {
        fill: #828385;
      }
    </style>
  </defs>
  <g>
    <path class="cls-3" d="M34.4,3.6h-15.1c-1.2,0-2.1,1-2.1,2.3v26.1c0,1.3.9,2.3,2.1,2.3h15.1c1.2,0,2.1-1,2.1-2.3V5.9c0-1.3-.9-2.3-2.1-2.3Z"/>
    <path class="cls-1" d="M18.7,3.6H3.6c-1.2,0-2.1,1-2.1,2.3v26.1c0,1.3.9,2.3,2.1,2.3h15.1c1.2,0,2.1-1,2.1-2.3V5.9c0-1.3-.9-2.3-2.1-2.3Z"/>
  </g>
  <path class="cls-2" d="M26.1,1.5h-14.1c-1.1,0-1.9,1.2-1.9,2.7v29.7c0,1.5.9,2.7,1.9,2.7h14.1c1.1,0,1.9-1.2,1.9-2.7V4.2c0-1.5-.9-2.7-1.9-2.7Z"/>
</svg>