<?xml version="1.0" encoding="UTF-8"?>
<svg id="Layer_1" data-name="Layer 1" xmlns="http://www.w3.org/2000/svg" version="1.1" viewBox="0 0 38 38">
  <defs>
    <style>
      .cls-1 {
        fill: #4a525a;
        stroke-width: 0px;
      }
    </style>
  </defs>
  <path class="cls-1" d="M13.6,1.6H4.2c-1.5,0-2.7,1.1-2.7,2.5v11.2c0,1.4,1.2,2.5,2.7,2.5h9.5c1.5,0,2.7-1.1,2.7-2.5V4c0-1.3-1.2-2.4-2.7-2.4Z"/>
  <path class="cls-1" d="M13.6,20.4H4.2c-1.5,0-2.7,1.1-2.7,2.5v11.2c0,1.4,1.2,2.5,2.7,2.5h9.5c1.5,0,2.7-1.1,2.7-2.5v-11.3c0-1.3-1.2-2.4-2.7-2.4Z"/>
  <path class="cls-1" d="M33.8,1.6h-9.5c-1.5,0-2.7,1.1-2.7,2.5v11.2c0,1.4,1.2,2.5,2.7,2.5h9.5c1.5,0,2.7-1.1,2.7-2.5V4c0-1.3-1.2-2.4-2.7-2.4Z"/>
  <path class="cls-1" d="M33.8,20.4h-9.5c-1.5,0-2.7,1.1-2.7,2.5v11.2c0,1.4,1.2,2.5,2.7,2.5h9.5c1.5,0,2.7-1.1,2.7-2.5v-11.3c0-1.3-1.2-2.4-2.7-2.4Z"/>
</svg>