<?xml version="1.0" encoding="UTF-8"?>
<svg id="OBJECTS" xmlns="http://www.w3.org/2000/svg" version="1.1" viewBox="0 0 879 849">
  <defs>
    <style>
      .cls-1, .cls-2 {
        opacity: .5;
      }

      .cls-1, .cls-3, .cls-4 {
        isolation: isolate;
      }

      .cls-1, .cls-3, .cls-4, .cls-5 {
        stroke-width: 0px;
      }

      .cls-1, .cls-4 {
        fill: #545454;
      }

      .cls-6 {
        opacity: .2;
      }

      .cls-3 {
        fill: #959292;
        opacity: .8;
      }

      .cls-4 {
        opacity: .6;
      }

      .cls-5 {
        fill: #bfbfbf;
      }
    </style>
  </defs>
  <path class="cls-5" d="M704.8,166.9c-1.2-.7-2.6-1.3-3.4-1.4-2.8-.4-3.2.1-4,2-.5,1.1-1.1,2.5-2.6,3.7-1.5,1.2-3.5,1.7-5.3,2.2-1.4.4-2.7.7-3.6,1.2-1.6,1-2.4,2.2-3.3,4.1-2.5,5.5-5.4,7.6-11.3,7.8-5.1.2-8.3-2.8-11.4-5.7-1.2-1.1-2.5-2.3-4-3.3l-1.1-.7c-1.3-.9-2.6-1.7-3.8-3-.5-.6-.9-1.1-1.4-1.7-1.1-1.5-1.7-2.3-3.1-2.6-1.4-.3-2.5-.2-3.4.3-1.3.8-1.9,2.4-2.2,3.6-1,4.2-2.9,5.3-6,7.2l-.6.4c-1.5.9-3.2,1.5-4.8,2.2h-.1c-1.8.7-3.5,1.3-4.8,2.2-1.7,1.2-3.8,3.5-5.5,5.2l-.5.6c-1.4,1.5-1.4,2.6-1.2,5.3v.8c0,.4.1.9.2,1.4.1,1,.2,2.1,0,3.2-.4,2.4-1.6,3.2-2.6,3.8-.5.4-1,.6-1.4,1.2-.4.6-.6,1.5-.7,2.4-.2,1.3-.5,2.8-1.9,3.4-1.4.6-3.2-.3-4.7-1.2-.7-.4-1.2-1-1.8-1.7-.9-1-1.7-1.7-2.4-1.6h-.1c-.3.2-.8.8-1.8,2.3-.4.6-.7,1-1,1.3l-1.1,1.3-1-1.4c-1.1-1.6-1.9-3.6-2.6-5.5-1.4-3.9-2.5-6.6-5.4-6.9-1.9-.2-3.2.1-4.1,1.1-1.5,1.4-2,4.4-1.6,8.5.6,5.6.4,11.9-4.9,16.3-3.6,3.1-6.8,1.8-9.6.7-1-.4-2-.8-3.1-1-1.7-.3-3.8.2-5,1.1-.7.6-.9,1.1-1.2,1.7-.4.9-.8,1.9-2.4,2.8-1.4.7-3.1.8-4.6.9h-.1c-.7,0-1.3,0-1.9.1-.2,0-.7.1-1,.2h-.3v.4c0,.4-.1.9-.2,1.5-.4,2-1.1,2.7-1.9,3.6-.3.3-.6.6-1,1.2,0,.1-.1.1-.2.2l-2.3-2.1c-.3-.2-.5-.4-.7-.4-.2,0-.3,0-.4,0h-.2v.2c-.5.5-.9,1-1.7,1.5-1.9,1.2-4.2.9-6.5.5-2.3-.3-4.5-.6-6.3.6h-.2v.3c0,.6-.2,1.4-1.1,1.9-.5.3-1.3.5-2.2.5-1.9,0-3.8-.7-4.6-1.4-1.7-1.4-2-4-2.3-6.1,0-.5-.1-1-.2-1.5-.2-1.2-.5-2.4-.9-3.6-.6-2.2-1.2-4.4-1.2-6.4,0-.6.1-1.1.3-1.5.1-.4.2-.6.2-.8v-.3h-.3c-.4-.2-.9,0-1.9.5h-.2c-.6.4-1.3.7-2,.8-1.2.1-3,.2-4.2-.8-1.1-1-1-2.5-1-3.7,0-.5,0-1,0-1.6-.1-1-.6-1.5-1.4-2.3-.6-.6-1.2-1.2-1.7-2.2-.7-1.2-.7-2-.8-2.7,0-.3,0-.7-.2-1.2-.6-2.4-2.5-6.2-4.7-7-.3-.1-.8,0-1.3,0h-.1c-.9.1-1.9.2-2.9-.3-1.1-.5-1.8-1.4-2.4-2.1-.5-.6-1-1.2-1.6-1.5-.4-.1-.9-.1-1.6-.1-1.1,0-2.5,0-3.6-1-1-.9-1.4-2.1-1.6-3.2-.5-1.7-.7-2.2-2.1-2.2h0c-1.6,0-3,1.7-3.3,3.3l-.2,1.1h-1.1c-3.1,0-4.3-1.1-5.5-2.2-.6-.5-1.2-1.1-2.2-1.6-.4-.2-.9-.2-1.5-.3-1.2-.1-3-.2-3.8-1.9-.9-1.6-.2-3.6.3-5.4.4-1.2.8-2.5.6-3.3-.4-1.5-1.9-3.6-3-3.8l-.9-.2-.2-.8c-.6-2.5.4-3.4,1.5-4.1.3-.2.6-.4.9-.7.7-.8,1.1-2,1.6-3.2.3-.7.5-1.4.8-2,2.6-5.4,3.3-8.4-1.2-12.1-.3-.2-.7-.4-1.2-.6-.6-.3-1.5-.6-2.1-1.2-.5-.5-.6-1-.6-1.7v-.2h-.1c-1.1-1.3-2.7-2.2-4.1-2.4-1.7-.3-3,.5-4.8,1.7-2.2,1.5-4.7,3.1-8.6,1.7-1.1-.4-1.9-1-2.6-1.5-.7-.5-1.3-.9-2.1-1.1-.6-.1-1.8-.1-2.8,0-1.4.2-1.9.6-2.1.9-.4.5-.2,1.5.1,2.7.4,1.8.9,4.3-1.2,6.1-2.3,1.9-5.7-.7-7.5-2.2l-.4-.3c-2.7-2.1-3.7-4.4-4.7-6.9-.3-.7-.6-1.5-1-2.3-1.1-2.3-2.7-4.2-4.4-4.8-.7-.3-1.4-.4-2-.5-1.2-.2-2.6-.4-3.8-1.9-.7-.8-1.1-1.8-1.5-2.9-.4-1.1-.8-2.3-1.5-2.6h-.2c-.2,0-1,.1-1.4.2-.5.1-1,.2-1.4.2-4.5.2-6.1-1.5-7.6-3.2-.6-.7-1.3-1.5-2.3-2.2h-.2c0-.1-.2,0-.2,0-.2.1-.5.2-.7.3-.8.4-1.1.5-1.3.7h-.1v.2c0,.4.2.7.5,1.2.5.8,1.2,2,.6,3.8-.6,1.6-1.4,2.9-2.2,4.1-1.3,2-2.4,3.8-2.2,6.6,0,.8.2,1.6.4,2.4.6,2.8,1.2,5.9-1.5,8.3-.8.7-1.8,1.1-2.7,1.5-.9.4-1.7.7-2.2,1.3-.5.6-.7,1.6-.9,2.7-.1.6-.2,1.3-.4,1.9l-.2.8h-.8c-2.9.6-4.6-1.1-5.9-2.4-.6-.6-1.3-1.2-2-1.6-.4-.2-.8-.4-1.1-.5h-.4c0-.1-.1.3-.1.3,0,.2-.1.4-.2.6-.2.7-.5,1.5-.8,2.2-.5,1-.9,1.5-1.6,1.7-.1,0-.3.1-.6.4-.3.2-.6.5-.9.6-.6.4-.9.6-1.1,1.1-.4,1.3.3,2.5,1.1,3.8.4.7.9,1.5,1.2,2.3.7,1.9.9,2.6,0,3.3l-.2.2v.4c-.1.5-.3.9-.4,1.2-.2.6-.3.7-.1,1.6.1.7.8,1.4,1.5,2.2,1,1,2.1,2.3,2.1,4.1,0,1.1-2.1,5.2-2.6,5.8-1.1,1.5-2.9,2.5-4.7,3.6-1,.6-2,1.2-2.7,1.8-.6.5-1.2,1.4-1.7,2.2-.6,1-1.2,2-2.1,2.7-.9.6-2.1.8-3.4,1h-.6c0,.1,0,.5,0,.5l-3.5,2.8c-1.2.7-2.3,1.5-3.6,2.3l-.4.3c-3,2-5.2,2.2-7.5,2.3-1.2.1-2.6.2-4.1.6-7.3,1.8-8.6,7.5-9.8,15.4-.1.7-.2,1.3-.2,1.9-.3,2.8-.6,5.4-3.9,7-1.7.8-3.8,1-5.8,1.2-3.1.3-5.8.6-7.3,2.8-.3.5-.5,1.4-.7,2.2-.2.9-.4,1.8-.9,2.6-1,1.8-2.2,3.5-3.8,5-1.5,1.4-3.2,2.7-5.1,2.5-1.8-.2-3-1.6-4.3-3.5l-.2-.4-.6.4c-5.5,3.9-11.8,8.4-19.5,6.6-1.7-.4-3.3-1.5-5-2.6-2.2-1.5-4.5-3-6.3-2.4-.8.2-1.7.6-2,1.4-.4,1,.7,2.7,1.8,4.4.3.4.6.9,1,1.4h.1c2,2.8,5,7,2.7,11.2-1,1.9-2.6,2.8-4.1,3.7-1.1.6-2.1,1.2-2.7,2.2-.4.6-.7,1.3-1,1.9-1.2,2.4-2.6,5.1-7.1,5.8-3.3.5-6.7-.5-10.1-1.5-2.4-.7-4.7-1.4-6.9-1.5h-.4v.4c-.9,5.7-5.6,6.2-9,6.6-1.9.2-3.7.4-4.9,1.2-1.8,1.2-2.6,2.7-3.5,4.3-1.4,2.6-3,5.5-8.6,4.9-1.6-.1-3-.5-4.1-.8-2.9-.8-4.1-1.1-5.6,1.6-3.1,5.6-2.8,9.3.8,13.6,3.7,4.4,5.3,8.3,4.9,11.9-.3,3-2.1,5.7-5.2,8-.8.6-2,1.3-3.4,2h-.2c-3.8,2.2-9.7,5.3-8.5,8.7.5,1.4,2.2,2.2,4,3.1,2.3,1.1,4.8,2.3,5.5,5,.4,1.9-.3,3.2-.9,4.2-.2.4-.4.7-.6,1.2l-.4,1.1c-1,2.5-1.5,3.8-1,6.8.1,1,.4,2.1.7,3.4,1.1,4.6,2.7,11-1.8,14-1.9,1.3-4.5,1.4-7,1.5-2.4,0-3.7.2-4.7.5l-.5.2.2.5c1.2,2.3,2.9,4.1,5.1,5.8.9.7,1.7,1.2,2.4,1.7,2.4,1.6,3.7,2.5,4.6,6.2.4,1.8.6,3.5.7,5.2.1,2,.3,4.1,1,6.2.8,2.5.7,4.6.7,6.8s0,4,.5,6.3c.6,12.1,6.9,21.1,13.5,30.7.6.9,1.2,1.8,1.9,2.7,1.9,2.7,2.8,6.1,3.7,9.4.9,3.2,1.8,6.5,3.6,9.3,1.2,1.8,2.6,3.2,4,4.5,2.5,2.3,4.6,4.3,4.8,8.2,0,1.2,0,2.3-.1,3.2l-.6,4.1-.2,1.3c-.4,2.6-.6,5.5.4,8.5.6,1.6,1.6,3.1,2.5,4.5,1,1.5,2,3,2.5,4.6.3,1.1.4,2.3.4,3.5,0,1.8.2,3.6,1.3,5.3,2,3,5.3,4.2,8.6,5.3,4,1.4,7.7,2.7,8.8,7.2.9,3.5,0,5.4-1.1,7.9-.4.9-.9,1.9-1.2,3.1-1.9,5.8,2.5,9.8,6.4,13.3.9.8,1.7,1.5,2.4,2.3l.6.6c3.2,3.2,6.4,6.5,7.2,10.9.1,1,.1,2,0,3.1,0,1.3-.1,2.6.2,3.9.4,1.5,1.2,2.7,2,4,.5.8,1,1.6,1.5,2.5.9,1.9,1.4,3.8,1.9,5.8.4,1.4.8,2.9,1.3,4.4.5,1.4,1.3,2.7,2,4.1.9,1.5,1.7,3.1,2.2,4.8.7,2.2.6,4.4.6,6.8,0,1.9,0,3.8.2,5.7.5,3,2.2,5.5,3.8,7.9,1,1.4,1.9,2.9,2.7,4.4,2,4.2,2.6,8.5,3.2,13.1.2,1.9.5,3.9.9,5.9.8,4,.8,7.4.8,11.2v3.8c0,3.2,1.7,5.2,3.2,7.2,1.3,1.6,2.6,3.3,3.1,5.7.3,1.5,0,3-.1,4.4-.4,2.8-.8,5.7,2.7,7.7,2.9,1.6,5.7,1.5,8.3,1.4,3.5-.1,6.6-.3,9.4,3.8.9,1.4,1.9,2.8,2.7,4.2,2.6,4.2,5.3,8.5,9.1,11.6l2.6,1.7h0l.6.4c1.1.6,2.2,1,3.3,1.4l.7,1.3c1.6,2.1,4.2,3.5,6.2,4.6,1.6.8,2.9,1.7,4.3,2.7.4.3.9.6,1.3.9.2.1.4.3.5.5.3.3.7.7,1.2.9.4.1.9.2,1.5.2,1.1,0,2.4-.2,4.1-.8,1.8-.6,2.8-1.6,3.8-2.7.5-.5,1-1.1,1.6-1.6,2.6-2.2,6-3.2,9.2-4.2,1.4-.4,2.7-.8,4.1-1.3,3.1-1.2,4.8-2.7,6.8-5l.5-.5c2-2.2,5.7-6.4,4.8-9-.3-.9-1.2-1.5-2.7-1.7-.9-.1-1.6-.1-2.4,0-.5,0-.9,0-1.4,0-1.4,0-1.6-.2-1.7-.2,0-.1-.1-.2-.1-.3,0-.5.9-1.1,1.6-1.5.6-.3,1.4-.5,2.1-.7,1.4-.3,2.8-.6,3.6-1.8.7-1,.7-2.4.7-3.6v-1.5c.1-1.3.7-1.7,1.7-2.5.2-.2.5-.4.8-.6,1.6-1.4,2.1-3.1,2.7-4.7.5-1.6,1-3.1,2.3-4.2,1.6-1.4,4-2.3,6.4-2.4h1.6c1,0,1.9.1,3-.2,2.4-.6,5.3-1.7,8.7-3.2.6-.3,1.2-.6,1.7-1,.7-.4,1.4-.9,2-1.1,1.2-.4,2.5-.1,3.9.2,1,.2,2.1.5,3.1.5,1.8,0,3-.7,4.1-2.1.8-1.1,2.2-3,2-4.1-.2-1.2-1.7-1.5-3.3-1.8-1.4-.3-2.9-.5-3.2-1.5-.6-1.6.9-3.8,2.1-5.6.5-.7.9-1.4,1.2-2,.8-1.7,1.3-3.2,1.6-5.2.4-2.4,1.4-3.7,3.5-5.4.7-.6,1.5-1.2,2.3-1.8,1.7-1.3,3.4-2.7,4.8-4.3,1-1.2,1.4-2.7,1.8-4.1.1-.4.2-.8.3-1.2.1-.5.3-.9.4-1.4.6-1.8,1.2-3.7,1.2-5.7v-.9c0-1,0-2,.2-2.8.6-1.6,2.8-2.6,4.7-3.4.7-.3,1.4-.6,2-.9,2.7-1.5,4.4-1.4,7.2.2.2.1.5.3.7.5,1,.6,1.9,1.2,3.3,1.2s1.1-.2,1.7-.3c.7-.2,1.5-.4,2-.2.5.2.9.7,1.3,1.4.6.9,1.2,1.8,2.5,2,1.7.3,3.2-1.3,4.2-2.5l.2-.2c2.2-2.5,3.2-4.9,3.2-7.7,0-1.5.1-3.2.2-4.7.2-2.8.4-5.8,0-8.6-.2-1.2-.5-2.5-.7-3.7-.7-3.1-1.4-5.9-.7-9.1.2-.9.4-1.7.7-2.6.4-1.4.8-2.7,1-4.1.2-2.3-1.3-4.3-2.6-5.9-.3-.4-.6-.9-1-1.2-.4-.5-.8-1.1-1.2-1.6-1.5-2-3.3-4.2-3.4-6.5,0-1.8.7-3.7,1.4-5.5.4-1.1.9-2.2,1.2-3.4.7-3,.8-5.7.2-8.4-.1-.8-.4-1.5-.6-2.3-.3-1-.6-1.9-.7-2.8-.2-1.2.3-1.6,1.1-2.3.3-.2.6-.5,1-.9,1.9-2,3-3.4,3.6-6.2.1-.5.2-1.1.3-1.6.2-1.6.5-3.3,1.2-4.6.6-1.1,1.7-2,2.9-3,1-.8,2-1.6,2.7-2.6,1.2-1.6,2.2-3.4,3.1-5.4.3-.8.8-1.7,1.3-2.5.5-.9,1-1.7,1.4-2.6.6-1.4.7-2.8.8-4.2,0-.3,0-.6,0-1,0-.9,0-1.9,0-2.9,0-1.9-.2-3.9.7-5.3.5-.8,1-1.5,1.7-2.2.6-.7,1.3-1.5,1.8-2.3.9-1.6,1.1-3.5,1.1-5.1,0-1.6-.2-3.1-.5-4.5-.4-2.1-.8-4.1-.2-6.3.2-.9.6-1.9,1-2.7.4-.9.7-1.7,1-2.7.5-1.8,1-4.4.8-6.3v-.4h-.1c-.6-1.5-2.9-3.2-3.3-3.5-.6-.2-1.2-.5-1.7-.7-.7-.2-1.3-.5-1.8-.7-1.6-.9-5.6-3.2-6.5-6.8-.4-1.7.7-3,1.8-4.3.5-.6,1-1.2,1.4-1.9,1.6-2.7.6-4.6-.4-6.6-.3-.6-.7-1.3-.9-2.1-1-2.5-1-4.9,0-8.2.5-1.7,1.2-3.5,1.9-5.2.9-2.5,1.9-5,2.5-7.6.5-2.4,1.8-10.6-2-16.1-.5-.7-1.1-1.5-1.7-2.2-2-2.6-4.1-5.4-4.1-8.7,0-1.7.8-3.2,1.5-4.8.2-.5.5-1,.7-1.5,1.2-2.6,2.3-5.5,3-8.6.4-1.7.5-3.5.7-5.3.3-2.8.6-5.6,1.6-8.2,1.3-3.2,4.2-4,7.3-4.7,2.7-.7,5.5-1.4,7.2-3.7.6-.7,1.1-1.6,1.5-2.5.5-1,1.1-2,1.8-2.8,1.5-1.7,4.4-2.4,5.5-2.6,2-.4,3.1-.3,4.8.9,1.4,1.1,2.9,1.7,4.6,2,3.9.7,5.2-.5,5.6-1.5.2-.5.1-1,0-1.5,0-.5-.1-.9.1-1.3.3-.5,1.1-.9,1.8-1.2.4-.2.9-.4,1.2-.6,1.3-.9,2.3-2.4,3.2-3.7l.2-.3c.2-.4.5-.8.7-1.2.4-.8.9-1.6,1.4-2,2.1-1.6,3.1-4.6,3.6-6.9.2-.9.2-1.9.3-2.9.1-1.7.2-3.5.9-4.8.5-.8,1.4-1.6,2.2-2.3.4-.4.9-.7,1.2-1.1,1.4-1.4,3.5-3.2,5.5-2.9,1.6.2,3.2,1.1,4.8,1.9.9.5,1.9,1,2.8,1.3.9.3,1.7.7,2.6,1.2,2,1,4.1,2,6.4,2.1,1.4,0,2-.7,2.7-1.4.3-.3.5-.6.9-.9l.5-.4c1.1-.9,2.3-2,3.4-2.3h.4c2.4-.9,4.2-1.5,6.5-3,1.6-1,3-1.1,4.8-1h1.2c3.9,0,4.4-3.3,4.8-6.2.2-1.4.9-2.5,1.7-3.7.8-1.2,1.6-2.5,1.9-4.2.2-1.4.2-2.9-.7-4.3-.4-.5-.8-1-1.2-1.4-.6-.6-1.2-1.2-1.5-2-.4-1.4-.6-3.8-.4-5.1.3-2.1,2.4-3.4,4.2-4.6l.5-.3c1.2-.7,2.4-1.5,3.6-2.1,3-1.6,6-3.3,8.2-6.2.4-.5.8-1.1,1.2-1.7,1.5-2.2,3.3-4.8,5.6-5.6,1.3-.4,2.8-.5,4.3-.5.8,0,1.6,0,2.4-.1,2.9-.3,5.1-.7,7.2-2.5h.1c3-2.6,6.4-5.4,8.4-9,.5-.9,1-1.7,1.4-2.7,1.5-2.8,3-5.8,5-7.7.5-.4.9-.9,1.3-1.3,1.5-1.5,3-3,4.8-4,3-1.8,6.1-3.8,8.1-6.3.3-.4.6-.9.9-1.2.9-1.2,1.6-2.2,3-3.2,2.1-1.5,4.5-2.1,6.9-2.7,1.5-.4,3.1-.8,4.6-1.4,2.9-1.2,5.6-5,7.1-7,.8-1.1,1.2-2.3,1.7-3.6.3-.9.7-1.8,1.1-2.6,1-1.8,3.1-3.4,4.2-4.2,2-1.4,4-3,5.7-4.7,1.6-1.6,2.4-3.6,3-5.6.6-1.8,1.2-3.5,2.6-4.9,2-2.1,4.2-4.1,6.3-5.9,3-2.6,6.1-5.3,8.5-8.5l.3-.4-.4-.2.2-.4ZM353.6,201.4c1.1-.7,1.7-1.9,2.4-3,.5-.8.9-1.6,1.5-2,.7-.6,1.6-1.1,2.7-1.7,1.8-1.1,3.7-2.2,4.9-3.8.6-.8,2.7-4.9,2.7-6.3,0-2.2-1.3-3.7-2.3-4.8-.6-.6-1.1-1.2-1.2-1.7q-.1-.6,0-1c.1-.3.3-.7.4-1.3v-.2s0,0,0,0c1.4-1.1.9-2.6.2-4.3-.3-.9-.8-1.7-1.3-2.5-.9-1.5-1.3-2.3-1-3.1,0-.1.2-.2.7-.6.3-.2.7-.4,1-.7.2-.2.3-.2.4-.2,1.1-.4,1.5-1,2.1-2.2.4-.8.6-1.6.9-2.3,0,0,0-.1,0-.1.1,0,.3.2.5.3.6.4,1.2.9,1.8,1.5,1.5,1.4,3.5,3.3,6.7,2.8l1.4-.2.4-1.4c.2-.6.3-1.3.4-2,.1-.9.3-1.8.7-2.3.3-.4,1-.7,1.8-1,.9-.4,2-.8,2.9-1.6,3-2.7,2.3-6.4,1.7-9.2-.2-.8-.3-1.5-.4-2.2-.2-2.5.7-4,2.1-6.1.7-1.2,1.6-2.6,2.2-4.3.8-2.2-.1-3.7-.6-4.6-.2-.3-.2-.4-.3-.5.1,0,.4-.2.8-.4.1,0,.3-.1.4-.2.8.6,1.4,1.3,2,2,1.4,1.6,3,3.5,7.3,3.5h.9c.5,0,1-.1,1.5-.2.4,0,.9-.2,1.1-.2.4.3.7,1.4,1,2.1.4,1.1.8,2.2,1.6,3.1,1.5,1.7,3.2,2,4.4,2.1.6,0,1.2.2,1.8.4,1.5.6,2.9,2.2,3.9,4.4.4.8.7,1.6,1,2.3,1.1,2.6,2.1,5.1,5,7.3l.4.3c2,1.6,5.7,4.5,8.6,2.1,2.5-2.1,1.9-5.1,1.5-6.9-.1-.5-.4-1.8-.2-2.1,0,0,.2-.3,1.5-.5,1-.1,2.1-.1,2.5,0,.6.1,1.1.5,1.7,1,.7.5,1.6,1.1,2.8,1.6,4.3,1.5,7.1-.3,9.4-1.9,1.7-1.1,2.7-1.8,4.2-1.5,1.1.2,2.5.9,3.5,1.9,0,.9.2,1.6.9,2.2.8.7,1.7,1.2,2.4,1.5.4.1.7.3.9.5,4.1,3.3,3.5,5.7,1,11-.3.6-.5,1.3-.9,2.1-.4,1.1-.8,2.2-1.4,2.9-.2.2-.4.4-.7.5-1.4.9-2.6,2.1-1.9,5l.3,1.4,1.4.3c.5.1,1.9,1.8,2.2,3.2.1.5-.3,1.9-.6,2.8-.6,2-1.3,4.2-.2,6.1,1.1,2.1,3.3,2.2,4.6,2.3.4,0,1,0,1.2.2.9.4,1.4.9,2,1.5,1.1,1.1,2.6,2.5,6.1,2.5h1.9l.3-1.8c.2-1.2,1.4-2.6,2.5-2.6s.9,0,1.3,1.5c.3,1.1.7,2.6,1.9,3.7,1.4,1.3,3,1.2,4.3,1.2.4,0,1,0,1.1,0,.4.1.7.6,1.2,1.2.7.9,1.5,1.8,2.7,2.4,1.2.6,2.4.5,3.3.4v-.4.4c.5,0,.9,0,1.1,0,1.7.6,3.6,4.2,4.1,6.3.1.4.1.7.1,1.1,0,.8.1,1.7.9,3.1.6,1,1.3,1.8,1.9,2.4.8.9,1.1,1.2,1.2,1.8,0,.5,0,1,0,1.5,0,1.3-.1,3.1,1.2,4.3,1.4,1.3,3.5,1.2,4.9,1,.8-.1,1.5-.4,2.2-.8h.2c0-.1.5-.4.8-.5-.1.4-.3,1-.3,1.7,0,2.1.7,4.4,1.2,6.6.3,1.2.6,2.4.9,3.5,0,.4.1.9.2,1.5.3,2.2.6,5,2.6,6.7,1.1.9,3.2,1.5,5.2,1.5s2-.2,2.7-.6c.9-.5,1.4-1.3,1.5-2.4,1.5-.9,3.5-.6,5.6-.3,2.4.4,4.8.7,7.1-.7.8-.5,1.2-1,1.6-1.5,0,0,.1,0,.3.2l2.4,2.2s0,0,0,.1v.2c0,0,0,.2,0,.2.4.6.6,1.5.7,2.6.6,5.1-3.1,7.3-6.4,9.4-.9.5-1.9,1.1-2.7,1.8-1.3,1-1.4,1.5-1.5,2.8,0,.9-.1,2.1-.7,3.6-1.4,3.3-5.7,5.9-7,6.7-3,1.7-6.3,1.5-9.1,1.4-3.5-.2-6.4-.4-8.9,2.4l-1.9,2.1-.5-2.7c0-.4,0-.8,0-1.2,0-1,0-1.3-.3-1.5-.7-.6-3.8-.2-7,.9-2.2.8-2.8,1.6-3.8,3.1-.4.6-.9,1.2-1.5,2-1.5,1.8-3.6,2.5-5.5,3.2-.5.2-1,.4-1.5.6h-.3c0,.1.2,1.4.2,1.4.6,3.2,1.5,8.6-2.2,9.6-2.8.8-5.1-1.7-7.1-3.7-1.1-1.2-2.4-2.5-3.3-2.8-1.4-.4-4.1-.2-4.7.5h0c-.1.4-.1,1.1,0,2.4.1,1.3.2,2.7-.2,3.9-.4.9-1.1,1.6-1.7,2.3-.5.6-1,1.1-1.2,1.6-.1.3,0,.7,0,1.2,0,1.1.1,2.7-1.6,3.8-2.5,1.7-5.9.3-8.1-.6l-1.7-.7c-2.9-1.2-3.8-1.6-6.5-.4-.6.3-1.2.9-1.9,1.4-.7.7-1.6,1.4-2.6,1.9-1.5.6-3.1.5-4.5.4-1-.1-1.9-.2-2.7,0-.5.1-.7.5-1.2,1.1-.4.5-.9,1.1-1.6,1.6-.9.6-2,.9-3.1,1.3h-.2c-.7.3-1.4.5-2,.8-2.1,1.1-3.8,2.1-4,3,0,.3.1.7.5,1.2.4.5.8.9,1.1,1.2h.1c1.2,1.3,2.5,2.5,2.6,5.5.1,4.4-2.1,7.3-6.2,8.1h-.4c-.9.3-1.7.5-2.7.3-1-.1-2-.8-2.8-1.4-1.2-.9-1.8-1.2-2.3-.9-.5.3-.7,1.1-.9,2-.4,1.3-.7,2.8-2.2,3.7-1.4.9-2.4,1.5-3.1,1.8-1.5.7-3-.3-4-1h-.1c-.2-.2-.5-.4-.7-.6s-.5-.3-.8-.5c-.5-.3-1.1-.6-1.5-.7h-.1c-.1,0-.2,0-.6.2-.5.2-1.1.5-1.9.5-1.5,0-2.7-.8-4-1.7-.5-.4-.9-.7-1.4-.9-.8-.4-1.4-.4-2.2-.2-1.6.5-3.2,1.3-3.6,1.9-.1.4-.2.8-.2,1.3,0,.9-.1,2.2-1.5,3.4-1,.9-2.1,1.4-3,1.8-1.1.5-2.1,1-2.8,1.9-.5.7-.9,1.5-1.2,2.2-.9,1.8-1.8,3.8-5,3.8s-.9,0-1.4-.1c-2.3-.4-4.2-1.5-5.9-2.6-1.3-.8-2.5-1.5-3.8-2-2-.6-4.1-.7-6.4-.9-1.6,0-3.3-.2-5.1-.5l-1.4-3.8c-.5-2.1-1.7-3.6-2.7-5-.8-1-1.6-2-2-3.3-.5-1.4-.3-1.6.3-2.7.4-.6.8-1.4,1.2-2.5,3.1-8.3-3.3-11.7-7.9-14.3-.7-.4-1.4-.7-2-1.1.1,0,.3,0,.4-.1,3.5-1,7.5-2.2,9.4-5.7,3-5.3-.3-9.2-2.7-12.1-1.5-1.7-2.8-3.3-2.8-4.9s.5-1.9,1.2-3.1c.5-.8.9-1.6,1.3-2.4.9-2.2,1.2-4.4,1.6-6.5.3-2,.6-4,1.4-5.6.4-.9,1.2-1.7,2.1-2.7,1.6-1.8,3.5-3.8,3.6-6.7,0-4.2-3.2-5.4-5.3-5.9,1.6-1,3.4-2.4,4.1-5.9.3-1.6.6-3.2.9-4.8.6-3.3,1.1-6.8,2.1-10.1,1.5-5.4-.5-9.3-2.3-12.7-1.5-2.8-2.9-5.6-2.4-9.1h0c0-.1.1-.2.1-.2,1.3-.2,2.6-.4,3.6-1.1h0ZM216.3,476.1c-1.4-1.3-2.8-2.6-3.9-4.3-1.7-2.7-2.6-5.9-3.5-9-.9-3.3-1.9-6.8-3.8-9.6-.6-.9-1.2-1.8-1.9-2.7-6.6-9.5-12.8-18.4-13.4-30.3-.5-2.3-.5-4.2-.5-6.2,0-2.2,0-4.5-.8-7.1-.6-2-.8-4-1-6-.1-1.7-.3-3.5-.7-5.3-1-4.1-2.5-5.1-4.9-6.7-.7-.5-1.5-1-2.3-1.6-2-1.5-3.4-3.1-4.6-5.1.9-.2,2-.3,3.9-.4,2.7-.1,5.4-.2,7.5-1.6,5-3.4,3.3-10.1,2.1-15-.3-1.2-.6-2.3-.7-3.3-.4-2.8,0-3.9.9-6.4l.4-1.1c.1-.4.4-.7.6-1.1.6-1,1.5-2.6,1-4.8-.7-3.1-3.5-4.4-5.9-5.6-1.6-.8-3.2-1.5-3.6-2.5-.9-2.7,4.7-5.7,8.1-7.5h.2c1.4-.9,2.6-1.6,3.5-2.2,3.3-2.5,5.2-5.4,5.5-8.6.4-3.8-1.2-7.9-5.1-12.5-3.5-4.1-3.6-7.3-.7-12.6,1.1-2.1,1.7-1.9,4.6-1.2,1.1.3,2.6.7,4.2.9,6.2.6,8.1-2.9,9.4-5.4.8-1.5,1.6-2.9,3.2-4,1-.7,2.7-.9,4.5-1.1,3.4-.4,8.6-1,9.6-6.9,2,.1,4.1.7,6.4,1.5,3.4,1,6.9,2.1,10.4,1.5,5-.8,6.6-4,7.7-6.3.3-.6.6-1.2,1-1.8.5-.8,1.4-1.3,2.5-1.9,1.5-.9,3.2-1.9,4.4-4,2.5-4.8-.7-9.2-2.8-12.1h0c-.3-.6-.7-1-1-1.5-.5-.8-1.9-3-1.7-3.6,0-.1.4-.5,1.4-.8,1.4-.4,3.6,1,5.6,2.3,1.6,1.1,3.5,2.3,5.3,2.7,8.1,1.8,14.4-2.6,20.1-6.6,1.4,1.8,2.7,3.3,4.7,3.5,2.2.2,4.2-1.3,5.8-2.8,1.7-1.6,3-3.3,4-5.2.5-.9.7-1.9.9-2.8.2-.7.4-1.5.6-1.9,1.3-1.9,3.8-2.2,6.7-2.5,2.1-.2,4.2-.4,6.1-1.3,3.7-1.8,4.1-4.9,4.4-7.7,0-.6.1-1.2.2-1.9,1.1-7.5,2.4-13,9.1-14.6,1.5-.4,2.8-.5,4-.6,2.5-.2,4.8-.4,7.9-2.5l.5-.3c1.2-.8,2.4-1.6,3.5-2.3l2.9-2.3c-.3,3.5,1.1,6.2,2.5,9,1.7,3.3,3.7,7,2.2,12-1,3.4-1.6,6.9-2.1,10.2-.2,1.6-.5,3.2-.9,4.8-.7,3.7-2.6,4.7-4.5,5.8l-1.2.7,1.2.2c3,.6,5.8,1.6,5.8,5.3,0,2.6-1.8,4.4-3.3,6.1-.9,1-1.8,1.9-2.2,2.9-.9,1.8-1.1,3.8-1.5,5.9-.3,2.1-.6,4.2-1.5,6.3-.3.8-.8,1.5-1.2,2.3-.7,1.2-1.4,2.2-1.4,3.6,0,1.9,1.5,3.7,3,5.5,2.5,2.9,5.3,6.3,2.6,11-1.8,3.1-5.6,4.3-9,5.3-.5.1-.9.2-1.3.4l-.9.3.8.5c.9.5,1.8,1,2.9,1.6,4.8,2.6,10.3,5.6,7.5,13.2-.4,1-.8,1.7-1.1,2.3-.7,1.3-1,1.8-.4,3.5.5,1.4,1.2,2.4,2.1,3.5,1,1.3,2.1,2.7,2.6,4.7l1.2,3.4c-.6-.2-1.3-.4-1.9-.6h-.2c-1.9.2-3.8-.6-6-1.5-1.7-.7-3.5-1.5-5-1.5-2.4,0-3.6.5-5,1.1-.6.2-1.2.5-2,.8-1,.3-2.1.4-3.3.6-2.6.2-4.3.5-5.1,1.9-.7,1.3.2,2.5,2,4.4.7.7,1.4,1.5,1.8,2.2,2.1,3.4,0,5.2-1.6,6.7-.4.3-.7.6-1.1,1-.4.4-.9.8-1.3,1.2-1.8,1.5-2,1.9-1.6,2.7.4.8,1.2,1.4,2.1,2,1.4,1,2.9,2.1,3.2,4.3.3,1.9-.6,3.4-1.3,4.6-.5.9-1,1.7-.9,2.5v.3h.3c.4.3.9.6,1.2,1.1,1.9,2.7,1.3,4.9.7,7h0c-.2.7-.4,1.4-.5,2.1l-.2,1h-1c-4.2.7-8.3-.4-12.4-1.4-1.6-.4-3-.8-4.5-1.1l-1-.2.6.9c.1.2.3.5.5.7.7,1,1.5,2.2,1.7,3.6.2,1.4-.2,2.7-.6,3.8-.2.8-.5,1.5-.5,2.2,0,1.1.2,2.2.4,3.4.3,1.5.7,3.2.4,5-.2,1-.5,2.1-.9,3.2-1,3-1.5,4.9-.1,6.4.6.6,1.6.9,2.6,1.3,1.2.4,2.6.9,3.7,1.9,3.3,3.2,4.3,8.5,4.5,10.1.2,1.2-.1,2.6-.4,4-.3,1.6-.5,2.6-.3,3.1.1.4.3.6.6.7.3.2,1.7,1,3.2.6.3.3.9,1.4.5,4.5,0,.7,0,1.5-.4,2.4-.9,1.8-2.8,2-4.4,2.2-1.1.1-1.8.2-2.1.5h-.1c0,.1-.1.3-.3,1.4-.2,1.2-.1,1.5,1.4,2.7l.4.4c1.6,1.3,3.3,2.6,4.7,4.4.9,1.1,1.1,2.3,1.3,3.3l.2.8c.2,1,.4,1.2,1.1,1.3h.4v-.4c0-.1,0-.6,0-2v-2c0-1.9-.1-4.2,1.1-5.9,1.4-2,3-1.5,4.1-1.2l1.1.2c.6.1,1.2.2,1.9.6.3.2.5.4.8.7.6.5,1.8.7,2.8.9.5,0,.9.1,1.4.3,1.4.3,3,.7,4.2.4.9-.2,1-.3,1.5-1,.2-.4.5-.8.9-1.4.3-.4.4-.6.5-.9.4-.9.9-1.3,2.2-1.8,1.4-.5,3.2,0,4.9.3h.2c.6.2,1.3.4,1.8.4,3,.1,3.2,0,4.5-2.4l.7-1.2c1.3-2.1,4.3-3.9,7.6-4.6,2.7-.5,5.2-.1,6.9,1.1,2.1,1.6,4,6.5,3.5,9.2-.2.9-.6,1.6-.9,2.2-.5.9-.8,1.4-.5,2.5.2.7.9,2.8,6.1,3.2,6,.4,13.6,1.9,15.4,6.7,1.3,3.6-1.7,5.1-5.1,6.3-1.7.6-3.6,1.4-4,2.4-.2.6,0,1.5.7,2.6.6.9,1.5,1.9,2.6,3,2.7,2.6,6.3,6.2,2.5,10.7-1.3,1.5-2.7,2.4-4.2,3.4-1.8,1.2-3.3,2.2-4.5,4.2-.3.6-.5,1.1-.7,1.6-.7.6-5.2,5.2-5.5,8.9-1.6-1-3.1-2.2-4.6-3.3h-.1c-1-.9-2-1.7-3-2.3-2.8-1.9-5.2-2-9.2-.5-.9.3-1.6.7-2.3,1.2-.6.3-1.1.7-1.8,1-.7.3-1.5.5-2.3.6-1.1.2-1.8.4-2.1.6h-.2c0,.1,0,.4,0,.4v.7c0,.8,0,1.6-.5,2.5-.5,1-1.4,1.8-2.3,2.6-.9.7-1.7,1.5-2,2.2-.4,1-.4,2-.3,3.2,0,.7,0,1.5,0,2.2-.3,2.6-1.2,3.4-2.6,4.3-.5.3-1.1.7-1.7,1.3-.2.2-.4.4-.5.5l-.3.4.5.2c.9.4,2.6.7,4.4,1,1.6.2,3.1.5,4,.9,4,1.8,4.7,4,4.7,5.6,0,3.5-3.7,4.7-6.6,5.8-1.1.4-2.2.7-2.9,1.2-1.4.9-1.7,1.6-2.3,2.7-.2.6-.6,1.2-1.1,2.1-1.7,2.7-4.5,3.7-6.9,4.5-.5.2-1,.4-1.6.5-5.1,1.9-6.5,2.3-12.5.8-3.3-.9-6.8-1.6-9.7.2-.4.2-.7.5-.7.6h0v.2c0,.6-.1,1.4-.6,2.5-1.2,2.8-4.6,4.1-7.2,4.3-.5,0-1,0-1.4,0-2.6,0-5.5-.6-8.3-1.8-.4-.2-.9-.4-1.4-.7-.4-.2-.8-.4-1.1-.6l-1.7-4.4h-1.6c-3.6.1-8.2.2-10.7-2.2-1.2-1.2-1.7-2.8-2.2-4.3-.5-1.4-.9-2.7-1.8-3.5-1-.8-2.1-1.1-3.5-1.4-1.7-.4-3.7-.8-5.2-2.5-.4-.5-.7-1.2-1-1.9v-.2c-.1-.2-.2-.4-.3-.5v-.3h-.5c-.3,0-1,.1-1.4.2-.4,0-.9,0-1.2,0-2.4-.1-4.7-.5-7.8-1.2-4.8-1.2-6-4.4-7.1-7.5-.7-2-1.5-3.9-3.2-5.3-.9-.7-2.1-1.1-3.2-1.6-1.4-.5-2.8-1-4-2-1.5-1.3-1.1-3-.9-4.2.1-.7.3-1.3.2-1.9-.3-1.8-3-2.1-5.8-2.2h-1.6c-3.7-.2-5.5-.4-7.5-3.9l.8-5.2c.1-.9.2-2.1.1-3.3-.2-4.2-2.6-6.4-5.1-8.8h.1ZM311.9,695.4c-.9-1.4-1.8-2.9-2.7-4.2-3.1-4.5-6.5-4.4-10.2-4.2-2.5.1-5.1.2-7.8-1.2-3-1.6-2.7-3.9-2.3-6.7.2-1.5.4-3.1.1-4.7-.5-2.6-1.9-4.3-3.3-6-1.5-2-3-3.8-3.1-6.7v-3.8c0-3.9,0-7.3-.8-11.4-.4-2-.6-3.9-.9-5.8-.6-4.4-1.2-9-3.3-13.4-.8-1.6-1.8-3.1-2.7-4.6-1.6-2.4-3.2-4.7-3.7-7.6-.3-1.8-.3-3.7-.2-5.5,0-2.3.1-4.7-.6-7-.5-1.8-1.4-3.4-2.3-4.9-.7-1.3-1.5-2.6-2-4-.5-1.4-.9-2.9-1.3-4.3-.5-2-1.1-3.9-2-5.9-.4-.9-1-1.8-1.5-2.6-.8-1.2-1.5-2.4-1.9-3.7-.3-1.1-.2-2.3-.2-3.6,0-1.1,0-2.2-.1-3.2-.7-4.6-4.1-8-7.4-11.3l-.6-.6c-.7-.8-1.6-1.5-2.5-2.3-3.8-3.5-7.8-7.1-6.1-12.3.4-1.1.8-2.1,1.2-3,1.1-2.5,2.1-4.7,1.1-8.4-1.3-5-5.4-6.4-9.4-7.9-3.1-1.1-6.3-2.2-8.1-4.9-1-1.5-1.1-3.1-1.1-4.8,0-1.2-.1-2.5-.5-3.7-.5-1.8-1.6-3.4-2.6-4.9-.9-1.4-1.9-2.7-2.4-4.3-.8-2.3-.8-4.6-.6-6.8,2,3,4.1,3.2,7.7,3.3h1.6c1.5.1,4.7.3,4.9,1.5,0,.4,0,.9-.2,1.5-.3,1.3-.7,3.5,1.2,5.1,1.3,1.1,2.8,1.6,4.2,2.2,1.1.4,2.2.8,3,1.4,1.6,1.2,2.2,3.1,3,4.9,1.1,3,2.5,6.7,7.8,8,3.1.7,5.6,1.1,8,1.3.3,0,.7,0,1.3,0,.3,0,.7,0,1.1-.1,0,0,0,.1,0,.2v.2c.4.8.7,1.6,1.2,2.2,1.6,2,3.8,2.5,5.7,2.8,1.3.3,2.4.5,3.1,1.2.7.6,1.1,1.8,1.5,3.1.5,1.5,1.1,3.3,2.5,4.6,2.7,2.7,7.5,2.6,11.3,2.5h1l1.5,3.8c-1.4,1.2-3.3,1.7-5.3,2.2h-.1c-.6.2-1.1.3-1.6.5h-.4c0,.1.1.5.1.5.3,1.4,1.6,1.6,3.9,2,1.9.2,4.1.5,5.5,2.2.7.9.9,2.2.9,3.3v.6c.4,2.7.4,2.8,2.8,4.1.7.4,1.6.8,2.6,1.2,3.8,1.7,10.3,4.5,8.6,10.4-.7,2.2-2.5,3.4-4,4.4-.7.5-1.5,1-2.1,1.6l-.3.3.3.3c.7.7,1.5,1.4,2.3,1.9.6.4,1.7.8,2.7,1.3,2.3.9,4.7,1.8,5.5,3.5.7,1.3.5,3.6.2,6.5,0,.5,0,.9-.1,1.2-.2,3.1-1.5,5.7-2.8,8.3-1.7,3.5-3.3,6.5-1.6,10.4,1.1,2.5,2.8,3.3,5.8,2.5.9-.2,1.9-.7,2.7-1.1,1.2-.6,2.5-1.1,4-1.4,4.9-.8,8.4-.5,9.9.8,1.9,1.6,1.7,4.6,1.4,6.8l-.2,1.2c-.3,1.7-.6,3.5-.9,5.4-.2,1.6-.7,3.1-1.1,4.3-.8,2.6-1.5,4.7-.4,6.9l.4.9c.6,1.1,1.1,2.1,1.1,3.8,0,1.2-.5,2.1-.9,3l-.4.8h.5c.2.2.5.3.7.4,1.6.4,3.2.9,4.6,2.8,1.5,2.1,2.5,5.5,1.4,8.4-.7,2-2.2,3.5-3.6,4.9-1.3,1.4-2.5,2.6-3.1,4.2-.4,1.1-.1,1.8.2,2.7.3.7.6,1.7.7,3,0,2.5-1.5,3.8-2.7,4.9-.7.6-1.3,1.1-1.7,1.9-.7,1.4-.4,3.1,1.1,5.6.5.8,1,1.4,1.5,2.1,1.2,1.5,2.4,3,2.6,5.6.1,1.1-.1,2.1-.3,2.9-.1.4-.2.7-.2,1.1,0,.6.1,1.2.2,1.9.2.9.4,1.8.3,2.8-.3,3.1-3.6,4.9-6.2,6.4-1,.6-2,1.1-2.6,1.7,0,0,0,0-.1.1l-2.7-1.9c-3.6-3-6.3-7.2-8.9-11.3h0ZM486.2,464.3c-.2.9-.6,1.7-1,2.6-.4.9-.8,1.9-1.1,2.8-.7,2.4-.2,4.6.2,6.7.3,1.4.6,2.8.5,4.3,0,1.5-.2,3.3-1,4.7-.5.8-1,1.5-1.7,2.2-.6.7-1.3,1.5-1.8,2.3-1,1.7-.9,3.8-.8,5.8,0,1,.1,1.9,0,2.8,0,.3,0,.7,0,1-.1,1.4-.2,2.7-.7,3.9-.3.8-.8,1.7-1.3,2.5-.5.9-1,1.7-1.4,2.6-.8,2-1.8,3.7-3,5.2-.7.9-1.6,1.7-2.5,2.4-1.1,1-2.4,1.9-3.1,3.2-.8,1.4-1.1,3.2-1.4,4.9,0,.6-.2,1.1-.3,1.6-.5,2.5-1.5,3.7-3.3,5.7-.3.3-.6.6-.9.9-.9.8-1.6,1.4-1.4,3.1.1,1,.4,2,.7,3,.2.7.4,1.5.6,2.2.5,2.6.5,5.2-.2,8-.2,1.1-.7,2.1-1.1,3.2-.7,1.9-1.5,3.9-1.5,5.9,0,2.6,1.9,5,3.6,7.1.4.6.9,1.1,1.2,1.6.3.4.6.9,1,1.3,1.2,1.6,2.6,3.3,2.4,5.3-.1,1.3-.5,2.7-.9,4-.2.9-.5,1.8-.7,2.7-.7,3.3,0,6.4.7,9.5.3,1.2.5,2.4.7,3.6.4,2.7.2,5.6,0,8.4-.1,1.6-.2,3.2-.2,4.8,0,2.5-1,4.8-3,7.1l-.2.2c-.9,1.1-2.1,2.4-3.4,2.2-.9-.1-1.4-.9-1.9-1.6-.5-.7-.9-1.4-1.7-1.7-.8-.3-1.7,0-2.6.2-.5.1-1,.3-1.4.3-1.1,0-1.9-.5-2.8-1-.2-.1-.5-.3-.7-.5-3.1-1.8-5.2-1.9-8.1-.2-.5.3-1.2.6-1.9.9-2.1.9-4.4,1.9-5.2,3.9-.4,1-.4,2.1-.3,3.2v.9c0,1.9-.6,3.7-1.2,5.4-.1.5-.3.9-.4,1.4-.1.4-.2.8-.4,1.2-.4,1.4-.7,2.7-1.6,3.8-1.3,1.6-3,2.9-4.6,4.2-.8.6-1.6,1.2-2.3,1.9-2.1,1.9-3.3,3.3-3.7,5.9-.3,1.9-.8,3.4-1.6,5-.3.5-.7,1.2-1.1,1.9-1.3,1.9-2.8,4.3-2.1,6.3.5,1.4,2.3,1.7,3.9,2.1,1.2.2,2.5.5,2.5,1.1,0,.5-.7,1.9-1.9,3.5-1,1.3-1.9,1.7-3.4,1.8-1,0-1.9-.2-2.9-.5-1.5-.4-3-.7-4.5-.2-.8.3-1.5.7-2.2,1.2-.6.4-1.1.7-1.6.9-3.3,1.5-6.2,2.6-8.6,3.2-1,.2-1.8.2-2.8.1-.5,0-1.1,0-1.7,0-2.6,0-5.2,1.1-6.9,2.6-1.5,1.4-2,3-2.6,4.6-.5,1.6-1,3.1-2.4,4.3-.2.2-.5.4-.7.6-1,.8-1.8,1.5-2,3.1,0,.5,0,1.1,0,1.6,0,1.1,0,2.2-.5,3-.7.9-1.9,1.2-3.1,1.4-.8.2-1.7.4-2.4.7-.2.1-1.9,1-2.1,2.2,0,.4,0,.7.3,1,.3.3,1,.5,2.3.5.5,0,1,0,1.4,0,.7,0,1.5,0,2.2,0,1.1.2,1.7.6,2,1.2.7,2.1-3.1,6.3-4.7,8.1l-.5.5c-2,2.2-3.6,3.7-6.5,4.8-1.3.5-2.7.9-4,1.3-3.3,1-6.8,2-9.5,4.3-.6.5-1.2,1.1-1.7,1.7-1,1.1-1.9,2-3.4,2.5-2.4.7-4.1.9-5,.6-.4-.1-.6-.4-.9-.7-.2-.2-.4-.4-.6-.5-.4-.3-.9-.6-1.3-.9-1.4-1-2.8-2-4.4-2.8-2-1-4.5-2.4-5.9-4.2l-.9-1.5h-.2c-.9-.3-1.8-.6-2.8-1.1.6-.4,1.5-1,2.4-1.5,2.8-1.6,6.3-3.6,6.7-7.1.1-1.2-.1-2.2-.3-3.1-.1-.6-.3-1.2-.2-1.6,0-.4.1-.7.2-1.1.2-.8.4-1.8.3-3.1-.2-2.9-1.5-4.5-2.8-6.1-.5-.6-1-1.2-1.4-1.9-1.4-2.2-1.7-3.6-1.1-4.7.3-.6.9-1,1.5-1.6,1.2-1.1,3.1-2.7,3-5.6,0-1.4-.4-2.5-.7-3.2-.4-.9-.5-1.3-.2-2.2.5-1.4,1.6-2.6,2.9-3.9,1.4-1.5,2.9-3,3.7-5.2,1.2-3.2.1-7-1.5-9.3-1.6-2.2-3.5-2.7-5.1-3.2,0,0-.1,0-.1,0,.4-.8.9-1.8.9-3.2,0-1.9-.6-3.1-1.2-4.2l-.4-.8c-.9-1.8-.3-3.8.5-6.2.4-1.3.9-2.8,1.1-4.5.2-1.8.6-3.6.9-5.3l.2-1.2c.4-2.4.5-5.7-1.6-7.6-2.2-1.9-7-1.6-10.6-1-1.6.2-3,.9-4.2,1.5-.8.4-1.7.8-2.5,1-2.6.6-3.9.1-4.8-2-1.5-3.5-.2-6.1,1.6-9.7,1.3-2.6,2.7-5.3,2.9-8.6,0-.3,0-.7.1-1.1.3-3.1.5-5.5-.3-7-1-1.9-3.6-3-6-3.9-1-.4-2.1-.9-2.6-1.2-.6-.4-1.3-1-1.8-1.5.5-.4,1-.8,1.6-1.1,1.7-1.1,3.6-2.4,4.4-4.9,2-6.7-4.9-9.7-9-11.5-1-.4-1.9-.8-2.5-1.2-1.4-.8-2.1-1.9-2.3-3.4v-.6c-.1-1.2-.2-2.7-1.2-3.8-1.6-2-4.1-2.3-6.1-2.5-1.9-.2-2.7-.5-3-.9.4-.1.7-.2,1.1-.3h.1c2.1-.6,4.2-1.2,5.7-2.5.3.1.6.3.9.5.5.3,1,.5,1.4.7,2.9,1.2,5.9,1.9,8.6,1.9s1,0,1.5,0c2.9-.3,6.6-1.7,7.9-4.9.5-1.1.6-1.9.6-2.6,0,0,.2-.1.4-.3,2.5-1.6,5.8-.9,8.9-.1,6.2,1.6,7.8,1.2,13-.8.5-.2,1-.4,1.5-.5,2.6-.9,5.5-1.9,7.4-4.9.5-.9.9-1.6,1.2-2.2.5-1.1.7-1.6,2-2.3.6-.4,1.7-.7,2.7-1.1,3-1,7.1-2.5,7.2-6.5,0-1.9-.8-4.4-5.2-6.4-1.1-.5-2.6-.7-4.4-1-.9-.1-2.5-.4-3.5-.7.5-.5,1-.9,1.5-1.2,1.5-1,2.7-2,3-5,0-.8,0-1.5,0-2.3,0-1.1,0-2,.3-2.8.2-.6,1.1-1.3,1.8-1.9.9-.8,1.9-1.7,2.5-2.8.6-1,.6-2.1.6-2.9v-.5c.2,0,.7-.2,1.5-.3.8-.1,1.7-.3,2.5-.7.7-.3,1.3-.7,1.9-1,.7-.4,1.3-.8,2.1-1.1,3.8-1.4,5.8-1.3,8.4.4,1,.7,2,1.5,2.9,2.2h.1c3.3,2.8,6.8,5.6,11.8,5.7h.7c2.2.1,5.7.3,7.4-2.1,1-1.2.9-2.7.9-3.8v-1c.5-1.7,2.3-3.3,4-5,1.1-1.1,2.3-2.2,3.1-3.4,2.8-3.7,6.5-5.8,11-6.1,2-.1,4.1.6,6.3,1.3,2.6.9,5.3,1.8,8.2,1.5,5.9-.6,10.3-2.3,13.4-8.8,3-6.1,6.2-8.6,9.7-7.6.6.2,1.3.7,2,1.2,1.3.9,2.8,2,4.8,2.2,2.1.2,3.5-.7,4.6-1.4.5-.3,1-.6,1.4-.7,1-.2,2.9.1,4.7.5,3.6.8,8.6,1.8,11.2-2.3.8-1.3,1-2.3,1.1-3,.1-.6.1-.7,1.3-1.4,1.6-.9,3.6-1.2,5.5-1.2.1,1.7-.4,4-.8,5.6h.1ZM695.8,175.4c-2.2,1.9-4.4,3.9-6.4,6-1.5,1.6-2.1,3.4-2.7,5.2-.7,1.9-1.3,3.7-2.8,5.2-1.7,1.7-3.6,3.3-5.6,4.6-1.2.8-3.3,2.5-4.5,4.4-.5.9-.9,1.9-1.2,2.8-.5,1.2-.9,2.3-1.6,3.3-1.4,2-4,5.6-6.7,6.7-1.4.6-3,1-4.4,1.4-2.4.6-5,1.3-7.2,2.8-1.6,1.1-2.4,2.2-3.2,3.5-.3.4-.6.8-.9,1.2-1.9,2.5-4.9,4.4-7.8,6.1-2,1.1-3.4,2.6-5,4.2-.4.4-.9.9-1.3,1.3-2.1,2-3.6,5-5.1,7.9-.5.9-1,1.8-1.4,2.7-1.9,3.4-5.2,6.2-8.2,8.6h-.1c-2,1.7-4,2.1-6.8,2.4-.7,0-1.5.1-2.3.1-1.6,0-3.2.1-4.6.6-2.6.9-4.4,3.6-6.1,5.9-.4.6-.8,1.1-1.2,1.6-2,2.7-4.8,4.3-7.9,5.9-1.2.7-2.5,1.4-3.7,2.1l-.5.3c-1.9,1.2-4.2,2.7-4.6,5.2-.2,1.5,0,4.1.5,5.5.3,1,1,1.7,1.7,2.3.4.4.8.8,1.1,1.2.7,1.1.7,2.3.5,3.7-.2,1.4-.9,2.6-1.7,3.8-.8,1.2-1.6,2.5-1.8,4.2-.4,2.8-.7,5.3-3.9,5.3h-1.2c-1.8,0-3.5,0-5.2,1.2-2.1,1.4-3.9,2-6.3,2.7h-.4c-1.3.6-2.6,1.7-3.7,2.6l-.5.4c-.4.4-.7.7-1,1-.6.7-1,1.1-2,1.1-2.1,0-4.1-1-6-2-.9-.4-1.8-.9-2.7-1.2-.9-.4-1.7-.8-2.7-1.3-1.6-.9-3.3-1.7-5.1-2-2.4-.3-4.7,1.6-6.3,3.1-.3.3-.7.6-1.1,1-.9.8-1.9,1.6-2.4,2.5-.8,1.5-.9,3.3-1,5.2,0,1-.1,2-.3,2.8-.4,2.1-1.4,4.9-3.2,6.4-.7.5-1.1,1.4-1.6,2.3-.2.4-.5.8-.7,1.2l-.2.4c-.9,1.3-1.7,2.6-2.9,3.4-.2.2-.6.4-1,.5-.8.4-1.7.8-2.2,1.6-.4.6-.3,1.3-.2,1.9,0,.4.1.8,0,1.1-.6,1.5-3.2,1.2-4.6,1-1.6-.3-2.9-.8-4.2-1.8-1.9-1.4-3.3-1.5-5.5-1.1-1.6.3-4.4,1-6,2.9-.8.9-1.4,1.9-1.9,3-.5.8-.9,1.6-1.5,2.3-1.6,2.1-4.1,2.7-6.7,3.4-3.2.8-6.4,1.6-8,5.2-1.1,2.7-1.4,5.6-1.7,8.4-.2,1.7-.4,3.5-.7,5.2-.6,3.1-1.8,5.9-2.9,8.5-.2.5-.5,1-.7,1.5-.8,1.6-1.6,3.3-1.6,5.2,0,3.7,2.1,6.5,4.2,9.3.6.7,1.1,1.5,1.6,2.2,2.9,4.1,2.8,10.7,1.9,15.4-.5,2.6-1.5,5.1-2.4,7.5-.6,1.7-1.4,3.5-1.9,5.3-1,3.4-1,6.1,0,8.8.3.8.6,1.5,1,2.1,1,2,1.7,3.5.4,5.8-.3.6-.8,1.1-1.3,1.7-1.2,1.4-2.6,3-2,5.1,1,3.9,5.2,6.5,7,7.4.5.3,1.2.5,1.9.8.6.2,1.1.5,1.6.7.6.4,2.1,1.6,2.7,2.6-1.9,0-4,.4-5.6,1.2-1.4.7-1.6,1-1.7,2-.1.7-.3,1.6-1,2.7-2.3,3.7-6.7,2.7-10.3,1.9-1.9-.4-3.7-.8-5-.5-.5.1-1.1.4-1.6.8-1,.6-2.2,1.4-4,1.2-1.8-.1-3.2-1.1-4.3-2-.7-.5-1.5-1.1-2.3-1.3-4-1.1-7.6,1.5-10.8,8.1-3,6.1-7.1,7.7-12.7,8.3-2.7.2-5.3-.6-7.9-1.5-2.2-.7-4.5-1.5-6.6-1.4-4.8.3-8.8,2.5-11.7,6.5-.9,1.1-2,2.2-3.1,3.3-1.7,1.7-3.6,3.5-4.2,5.3,0,.3,0,.7,0,1.3,0,1,0,2.2-.7,3.2-1.5,2-4.6,1.8-6.7,1.7h-.7c-2.1-.1-4-.7-5.7-1.6,0-3.5,5.3-8.7,5.4-8.8v-.2c.3-.5.5-1,.8-1.5,1-1.8,2.5-2.7,4.2-3.9,1.5-1,3-1.9,4.3-3.5,4.3-5.1,0-9.4-2.6-11.9-1-1-2-1.9-2.5-2.8-.6-1-.7-1.6-.6-1.9.2-.6,2.2-1.4,3.5-1.9,2.6-1,7.3-2.7,5.6-7.5-2-5.3-9.9-6.9-16.2-7.3-4.5-.3-5.1-2-5.2-2.5-.2-.7-.1-.9.4-1.8.4-.6.9-1.4,1-2.5.6-3-1.4-8.3-3.8-10.1-1.9-1.4-4.6-1.9-7.6-1.3-3.5.7-6.8,2.6-8.2,5l-.7,1.2c-.8,1.4-2,2-3.7,2-.4,0-1-.1-1.6-.3h-.3c-1.7-.5-3.7-1-5.3-.4-1.6.5-2.2,1.1-2.7,2.2,0,.2-.1.4-.4.6-.5.6-.7,1.1-.9,1.5-.2.3-.5.5-.9.6-1,.2-2.5-.1-3.8-.4-.4-.1-.9-.2-1.4-.3-.8-.1-1.9-.3-2.3-.6-.2-.2-.5-.6-.9-.9-.8-.5-1.6-.6-2.1-.7l-1.1-.2c-1.2-.3-3.4-.9-5.1,1.6-1.4,2-1.3,4.5-1.3,6.5v2s0,.1,0,.1v-.2c-.2-1.1-.5-2.4-1.5-3.7-1.5-1.9-3.2-3.3-4.9-4.6l-.4-.4c-.9-.7-1.2-1.3-1.1-1.9,0-.4.1-.8.2-.9.3-.1,1.2-.2,1.5-.2,1.6-.2,4-.5,5.1-2.7.5-1,.5-2,.4-2.7.6-4.5-.9-5.3-1.1-5.4h-.2c0,0-.2,0-.2,0-1.4.5-2.7-.5-2.8-.5,0,0,0,0,0-.2,0-.2,0-1.1.4-2.7.3-1.4.6-2.9.4-4.3-.2-1.6-1.2-7.3-4.8-10.6-1.2-1.2-2.8-1.7-4-2.1-.9-.3-1.8-.6-2.2-1-1.1-1.1-.6-2.8.3-5.6.4-1.1.7-2.2.9-3.3.3-2,0-3.8-.4-5.4-.2-1.1-.5-2.1-.4-3.1,0-.6.2-1.3.5-2,.4-1.2.9-2.6.6-4.2-.2-1.5-1-2.7-1.7-3.8,1.1.2,2.2.5,3.5.9,4.1,1,8.2,2.1,12.6,1.5l1.6-.2.3-1.6c.1-.6.3-1.3.4-1.9h-.4c0-.1.5-.1.5-.1.6-2.1,1.3-4.7-.9-7.8-.4-.5-.8-.9-1.3-1.1,0-.5.4-1.1.8-1.8.7-1.2,1.7-3,1.4-5.2-.4-2.6-2.2-3.9-3.6-4.9-.8-.6-1.5-1.1-1.8-1.6,0,0,0-.2,0-.2,0-.1.5-.6,1.5-1.5.4-.4.9-.7,1.4-1.2.4-.4.7-.6,1.1-1,1.7-1.5,4.3-3.7,1.7-7.7-.5-.9-1.2-1.6-2-2.4-2-2.1-2.2-2.7-1.8-3.3.6-1,2.1-1.2,4.4-1.5,1.2-.1,2.4-.2,3.5-.6.8-.3,1.5-.6,2.1-.8,1.5-.6,2.6-1,4.6-1,1.4,0,3,.7,4.7,1.4,2.2,1,4.2,1.7,6.3,1.6,2.9,1.1,5.9,1.2,8.3,1.4,2.2.1,4.3.2,6.1.8,1.2.4,2.4,1.1,3.6,1.9,1.9,1.1,3.7,2.3,6.2,2.7.5,0,1.1.1,1.6.1,3.7,0,4.9-2.5,5.8-4.3.3-.7.7-1.4,1.1-2,.5-.7,1.4-1.1,2.5-1.6,1-.5,2.2-1,3.3-2,1.6-1.5,1.7-3.1,1.8-4,0-.4,0-.7.1-.9.1-.2,1.3-.9,3-1.4.6-.2,1-.1,1.6.1.3.1.7.5,1.2.8,1,.7,2.4,1.8,4.4,1.9,1,0,1.8-.4,2.3-.6.1,0,.2-.1.3-.1.3.1.7.4,1.2.6.3.2.5.3.8.5.2.1.4.3.7.4h.1c1.1.8,2.9,2.1,4.8,1.1.7-.4,1.8-1,3.2-1.9,1.7-1.1,2.2-3,2.6-4.3.1-.5.4-1.4.4-1.4.1,0,.4.1,1.4.8.9.6,1.9,1.4,3.2,1.5,1.2.2,2.2,0,3.1-.2h.4c4.5-1,7-4.2,6.9-9.1,0-3.3-1.6-4.8-2.8-6h-.1c-.4-.5-.7-.8-1.1-1.2-.2-.2-.3-.4-.3-.4.1-.6,2.6-1.9,3.5-2.4.5-.3,1.2-.5,1.9-.7h.2c1.1-.4,2.2-.8,3.2-1.5.8-.5,1.4-1.2,1.8-1.8.4-.5.6-.7.7-.7.6-.2,1.5-.1,2.4,0,1.5.1,3.1.3,4.8-.4,1.2-.5,2.1-1.3,2.9-2.1.6-.5,1.1-1,1.6-1.2,2.3-1.1,3-.8,5.8.4l1.7.7c2.4,1,5.9,2.6,8.9.5,2.1-1.5,2-3.5,2-4.6,0-.4,0-.7,0-.9.1-.4.5-.8,1-1.3.6-.7,1.4-1.4,1.8-2.5.6-1.4.5-3,.3-4.3,0-.4-.1-1.5,0-1.8.5-.3,2.5-.5,3.7-.2.7.2,2,1.6,3,2.6,2,2.2,4.6,4.8,7.9,3.9,4.5-1.2,3.5-7.1,2.9-10.6v-.6c.2-.1.6-.3,1.1-.4,2-.7,4.2-1.4,5.8-3.5.6-.7,1-1.4,1.5-2,1-1.4,1.4-2,3.4-2.7,3.4-1.2,5.6-1.2,6.1-1.1,0,.1,0,.4,0,.9,0,.4,0,.9.1,1.3l.8,4.5,3.1-3.4c2.2-2.5,4.9-2.3,8.2-2.1,3,.2,6.4.4,9.6-1.5,1.4-.8,5.9-3.6,7.4-7.1.7-1.6.8-3,.8-3.8,0-1.1,0-1.4,1.1-2.2.8-.6,1.7-1.2,2.6-1.7,3.3-2.1,7.5-4.6,6.8-10.2-.1-1.1-.4-2-.7-2.7,0-.1.2-.4.5-.7.3-.5.6-.8.9-1.1.8-.9,1.6-1.7,2.1-4,.1-.5.1-.9.2-1.3.2,0,.5-.1.7-.1.5,0,1.1-.1,1.7-.1h.1c1.6,0,3.4-.1,5-1,1.9-1,2.4-2.3,2.8-3.2.2-.6.4-.9.9-1.3,1-.8,2.9-1.2,4.3-1,1,.2,1.9.6,3,1,2.7,1.1,6.4,2.5,10.4-.9,5.6-4.7,5.8-11.3,5.2-17.1-.4-3.8,0-6.5,1.3-7.8.7-.7,1.9-1,3.4-.8,2.4.2,3.3,2.6,4.7,6.3.7,2,1.5,4.1,2.7,5.8l1.7,2.2,1.8-2.1c.3-.3.6-.8,1-1.4.9-1.3,1.3-1.8,1.4-1.9.4.1,1.2,1,1.5,1.4.6.6,1.2,1.3,2,1.8,1.7,1.1,3.7,2.1,5.5,1.3,1.8-.8,2.1-2.7,2.4-4.1.1-.8.3-1.6.6-2.1.3-.5.7-.7,1.2-1,1-.7,2.6-1.6,3-4.4.2-1.2,0-2.4,0-3.6,0-.4-.1-.9-.1-1.2v-.9c-.2-2.6-.2-3.4.9-4.6l.6-.6c1.5-1.6,3.6-3.9,5.2-5,1.3-.9,3-1.5,4.7-2.1h.1c1.7-.7,3.4-1.3,5-2.3l.6-.4c3.1-1.9,5.4-3.2,6.4-7.7.2-1,.7-2.4,1.7-3,.7-.4,1.6-.5,2.7-.2,1.1.2,1.6.9,2.6,2.3.4.6.9,1.2,1.4,1.8,1.2,1.4,2.6,2.2,4,3.1l1.1.7c1.4.9,2.6,2.1,3.9,3.3,3.2,3,6.6,6.1,12,5.9,6.3-.3,9.5-2.5,12.1-8.4.8-1.7,1.5-2.8,2.9-3.7.9-.5,2.1-.8,3.4-1.1,2-.5,4-1,5.7-2.4,1.6-1.4,2.3-2.9,2.8-4.1.7-1.7.8-1.9,3.1-1.5.5,0,1.6.5,2.7,1.1-2.4,2.9-5.3,5.5-8.1,7.9v.3Z"/>
  <path class="cls-3" d="M344.8,748.6h0v-.2c-3.8,0-7.2-.6-10.4-1.9-3-1.1-5.7-2.8-8.2-5l-.4-.3c-.1,0-.2-.2-.3-.2-.3-.2-.5-.4-.8-.6-2.7-1.4-6.8-3.6-10.6-7.1h0s-7.1-5-7.1-5c-5.6-4.6-9.3-9.7-12.2-14.2-4.8-.5-9.4-2-13.5-4.2-6-3.3-15.9-11.2-15.7-27.4-3.9-5.7-5.9-12-6.1-18.6v-4.2c0-3.3,0-5-.4-6.7-.4-2.1-.8-4.4-1.1-7.3h0c-.3-2.2-.7-5.1-1.1-5.9-.2-.3-.5-.7-.8-1.2h0c-2.3-3.5-6.1-9.2-7.5-17.3-.7-3.9-.7-7.3-.6-10.1-1-1.9-2.2-4.1-3.3-6.9-.8-2.1-1.3-4.1-1.8-5.7,0-.3-.2-.6-.3-.9,0-.2,0-.4-.1-.5,0-.3-.2-.7-.3-1-1.1-1.6-3.6-5.5-5-10.8-.5-2-.9-4.2-1-6.6h-.1c0-.1-.6-.8-.6-.8-.3-.3-.6-.6-.9-.9-.2-.2-.3-.3-.5-.5-4.4-4-16.2-14.7-14.9-31.2-4.3-2.7-7.8-6.1-10.5-10.1-2.9-4.3-4.6-9.3-5.2-14.8-1.2-1.9-3-4.8-4.3-8.6-2.8-8-2.4-14.2-1.7-19.3h0c-1.6-1.8-2.9-3.5-4-5.3-3.9-6-5.5-12-6.6-16-.2-.8-.5-1.8-.7-2.5v-.3c0,0-1.4-1.8-1.4-1.8-7.3-10.5-16.3-23.5-17.8-41.6-.6-3.9-.6-7.2-.6-9.4v-.8c-.6-2.3-1.1-4.7-1.3-7.1-4.1-3.5-7.4-7.4-10-12.1l-14.8-26.6h.1s24.4-7.8,24.4-7.8c0-.6,0-1.3,0-1.9-2.4-2.7-4.1-5.8-5.3-9.2-1.1-3.3-2.2-8.5-.9-14.4,1.4-6.5,5.5-12.5,12-17.7-4.4-10.1-3.6-20.8,2.4-31.8,2.5-4.6,10-15.2,24.9-14.8,1.6-1.5,3.2-2.8,4.9-3.9,1.4-.9,3-1.8,4.5-2.4l1.5-10.5,22.6.8c.3,0,.6,0,1,0-.4-3.8,0-7.7,1.4-11.4,2.8-7.9,9.4-14,18-16.6,7.3-2.2,14.9-1.3,22.5,2.7.3-.2.5-.3.7-.5.1-.1.3-.2.4-.3l20.3-14.4,1.2,1.6c1-.4,2-.8,3.2-1.3,2.7-9.3,7.2-16.4,13.5-21.1,5.1-3.8,10.1-5.1,12.8-5.8.8-.2,1.7-.4,2.6-.6l.8-5.5h0s11.2-2,11.2-2c0-1,0-2,0-3.3-.8-2.2-1.3-4.5-1.5-6.8l-.9-3.9.8-.6c.2-2.2.6-4.4,1.4-6.6,1.4-3.9,3.5-7.3,6.4-10.1l7-21h.1s11,4.2,11,4.2c0-.2.2-.4.3-.6.1-.2.2-.5.3-.7v-9.5c.1,0,.1,0,.1,0l5.3-6.7c4.2-5.3,9.2-7.4,11.1-8.2l13.5-6.1h0s11.8,8.9,11.8,8.9c0,0,0,0,.1,0h3.1s4.8,2.1,4.8,2.1c4.3,1.9,7.8,4.8,10.6,8.7,2.2,1.1,4.2,2.5,6.1,4.2,2.3-.3,6.7-.6,11.2.3h.4c.5.2,1,.4,1.5.5,4.8-1.9,9.8-2.4,14.9-1.6,6.5,1.1,12.8,4.3,17.6,9.1l3.3,3.3c1.4,1.2,2.5,2.3,3.5,3.4l1.6,1.6v.3c5.9,7.8,7.6,16.9,4.9,27.1,4.4,1.6,8.1,4.1,11,7.6,1.1.5,2.1,1.2,3.3,2h.2c.4.2.9.3,1.3.5h.4c11.8,4.3,17.1,14.8,19.3,20.7l15,4.9.2,6.6,4.5-.9c.1,0,.2-.2.3-.3l.3-.3c3.9-3.2,8.8-5.5,13.9-6.4,1.2-9,5.4-14.7,8.6-17.9,6.2-6.2,14.8-9,24.1-8,2.6.3,4.9.8,7,1.6.5-.7,1.1-1.4,1.8-2.1l.4-.5c3.1-3.3,6.2-6.6,10-9.1,3.3-2.2,6.4-3.5,8.8-4.4,2.4-4.8,6.1-8.8,10.5-11.6,6.5-4,14.3-5.2,22-3.3,6.6,1.6,12.1,5.3,16.5,10.9h.2c1.2-.9,2.5-1.8,4.1-2.8,1.8-1.1,3.8-2.1,5.9-2.8,6.3-8,15.6-11.4,26.3-9.8,5.7.9,10.6,3.6,12.4,4.7l24.2,14.6h0c0,.1-17.3,22.2-17.3,22.2-4,5.1-8.4,8.9-11.6,11.8-.9.8-1.8,1.5-2.5,2.3-1.3,3.4-3.6,8.4-8.2,13.1-2,2-4.2,3.9-6.7,5.8-1,2.2-2.1,4.3-3.5,6.2-4.1,5.7-9.4,12.1-17.8,15.5-2.3.9-4.5,1.6-6.2,2h0c-4.2,5-9,8.2-13.2,10.8,0,0-.1.1-.2.2-.1.2-.3.3-.5.5l-.7.7c-.4.6-.9,1.6-1.2,2.3-.7,1.3-1.3,2.4-1.8,3.4-4.2,7.5-10.2,12.4-14.1,15.7h0c-5.1,4.3-11,6.8-18,7.9-1.9,2.3-4,4.3-6.5,6.3.1,2.3,0,4.7-.3,7.1-.6,4.2-2.1,8.2-4.3,12-4.6,19-19.7,22.4-26.1,23-1.1.5-2.2,1-3.6,1.5-6.7,6.4-14.1,7.7-19.2,7.7h-.2c-2.1,0-4.3-.2-6.7-.7-1.2,2.2-2.7,4.3-4.4,6.1-.1.2-.3.4-.4.6-.2.3-.3.5-.5.8h0c-1.1,1.8-2.9,4.4-5.5,6.9-4.5,8.1-14.8,16-30,13.9-2.2,2-4.8,3.6-7.7,5v.6c-.2.6-.3,1.2-.5,1.8-.6,2.7-1.4,5.5-2.4,8.3,8,12.7,6.1,27.7,5,33.6-.9,4.4-2.3,8.1-3.4,11.1l-.2.5c1.4,3.8,2.1,7.6,2,11.3,4.3,4.1,7.1,8.7,8.5,13.7l.7,2.7.2,2c.8,7.1-1.1,12.8-1.9,14.9-.2.9-.5,1.6-.8,2.4v.3c.3,2.6.5,5,.4,7.3h0c0,2.4-.3,9.6-4.4,16.7-.3.5-.6,1-.8,1.4h0c0,.3,0,.6,0,1,0,.2,0,.4,0,.5v.6s0,.2,0,.2c-.2,2.3-.6,6.7-2.7,11.6-.9,2.1-1.8,3.7-2.5,5l-.4.7c-1.6,3.7-3.5,7.1-5.9,10.2-.9,1.2-1.8,2.3-3,3.4-.8,3-1.8,5.7-3.2,8.3.4,4.5,0,9-1.1,13.6,4.7,6.6,6.7,13.7,6,21.1-.2,2.6-.7,5.2-1.6,7.8,0,0,0,.2,0,.3.4,1.8.8,3.6,1.1,5.4.9,5.6.5,10.7.3,14.1v.2c0,1-.1,1.9-.1,2.9,0,6.1-1.6,15.2-9.4,24-9.5,10.9-19.8,11.8-26.7,10.7-.6-.1-1.3-.2-2-.4h0c-1.2,2.7-2.7,5.2-4.5,7.4-1.3,1.6-2.9,3.2-4.5,4.7.5,1.7.8,3.2.9,4.1,1.5,11.3-4.8,19.5-6.8,22.2-5.7,7.4-13.9,11.6-23.1,11.8-1,0-2.1,0-3,0-3.9,1.7-7.4,2.9-10.8,3.8,1.6,13.3-7.3,23.3-11.1,27.6l-.4.4c-3.3,3.8-8.3,8.7-16.7,11.8-1.6.6-3.4,1.2-5.6,1.9-.4.1-.9.3-1.3.4h0c-3.9,3.9-8.2,6.5-13.2,8.1-1.8.6-6,1.9-11.4,1.9ZM314,733.1h.1c3.8,3.6,7.8,5.8,10.6,7.2.3.2.6.4.8.6.1,0,.2.2.3.2l.4.3c2.6,2.2,5.2,3.8,8.2,4.9,3.2,1.2,6.6,1.9,10.3,1.9h0v.2c5.4,0,9.5-1.3,11.3-1.9,5-1.5,9.3-4.2,13.1-8h0s0,0,0,0c.5-.1.9-.3,1.3-.4,2.2-.7,4-1.3,5.6-1.8,8.4-3.2,13.3-8,16.6-11.8l.4-.4c3.8-4.3,12.6-14.2,11-27.5h0c0-.1.1-.1.1-.1,3.4-.9,7-2.1,10.9-3.8h0s0,0,0,0c.9,0,1.9,0,3,0,9.1-.2,17.3-4.4,22.9-11.7,2.1-2.7,8.3-10.9,6.8-22.1-.1-.9-.4-2.4-1-4.2h0c0,0,0-.1,0-.1,1.7-1.5,3.2-3.1,4.5-4.7,1.8-2.2,3.3-4.8,4.5-7.5h0c0,0,.2,0,.2,0,.7.1,1.3.3,2,.4,6.8,1.1,17,.1,26.5-10.6,7.7-8.7,9.3-17.7,9.3-23.8s0-1.9.1-2.9v-.2c.2-3.4.6-8.5-.3-14.1-.3-1.8-.7-3.5-1.1-5.3,0-.1,0-.2,0-.3h0c.8-2.7,1.3-5.2,1.6-7.8.7-7.4-1.4-14.4-6-21h0s0-.1,0-.1c1.1-4.6,1.4-9.1,1.1-13.6h0s0,0,0,0c1.4-2.5,2.5-5.3,3.2-8.3h0s0,0,0,0c1.1-1.1,2.1-2.3,3-3.4,2.3-3.1,4.2-6.4,5.8-10.1l.4-.7c.7-1.2,1.6-2.9,2.5-5,2-4.9,2.4-9.2,2.6-11.6v-.2s0-.6,0-.6c0-.2,0-.4,0-.6,0-.3,0-.7,0-1h0s0,0,0,0c.3-.4.6-.9.8-1.4,4-7.1,4.3-14.2,4.3-16.6h0c0-2.4-.1-4.8-.5-7.4h0s.1-.4.1-.4c.3-.7.5-1.5.8-2.4.7-2.1,2.7-7.8,1.9-14.8l-.2-2-.7-2.7c-1.3-5-4.2-9.6-8.4-13.6h0s0,0,0,0c0-3.7-.6-7.5-2-11.3h0s.2-.6.2-.6c1.1-3,2.5-6.6,3.4-11,1.2-5.8,3-20.8-5-33.4h0c0,0,0-.1,0-.1,1-2.8,1.8-5.5,2.4-8.3.1-.6.2-1.2.3-1.8v-.7c.1,0,.2,0,.2,0,3-1.4,5.5-3.1,7.7-5.1h0s0,0,0,0c15.1,2.1,25.3-5.7,29.8-13.8h0c2.6-2.6,4.3-5.1,5.4-6.8h0c.2-.3.3-.6.5-.8.1-.2.3-.4.4-.7,1.7-1.9,3.1-4,4.4-6.2h0c0,0,0,0,0,0,2.5.5,4.6.7,6.7.7h.2c5,0,12.4-1.3,19-7.7h0c1.3-.5,2.5-1,3.6-1.6h0c6.3-.6,21.3-4,25.9-22.9h0c2.2-3.8,3.7-7.8,4.3-11.9.3-2.4.4-4.8.3-7.1h0c0,0,0-.1,0-.1,2.6-2,4.7-4,6.6-6.3h0s0,0,0,0c7-1,12.8-3.6,17.9-7.8h0c3.9-3.3,9.9-8.2,14.1-15.7.5-1,1.1-2.1,1.8-3.4.3-.7.9-1.7,1.2-2.3h0s.7-.7.7-.7c.2-.1.3-.3.5-.5,0,0,.1-.1.2-.2,4.2-2.5,9-5.8,13.2-10.7h0s.1,0,.1,0c1.7-.5,3.8-1.1,6.1-2,8.4-3.4,13.7-9.7,17.7-15.4,1.4-1.9,2.6-4,3.5-6.2h0s0,0,0,0c2.4-1.8,4.7-3.8,6.7-5.8,4.7-4.7,6.9-9.7,8.2-13.1h0c.8-.8,1.7-1.6,2.6-2.3,3.2-2.8,7.6-6.7,11.6-11.7l17.3-22-24-14.5c-1.8-1.1-6.7-3.8-12.3-4.6-10.7-1.6-19.9,1.8-26.1,9.7h0s0,0,0,0c-2,.7-4,1.6-5.9,2.8-1.6,1-3,2-4.2,3h0c0,0-.4-.2-.4-.2-4.3-5.6-9.8-9.3-16.4-10.8-7.7-1.8-15.4-.7-21.9,3.3-4.4,2.7-8.1,6.7-10.5,11.5h0s0,0,0,0c-2.4.9-5.5,2.2-8.8,4.4-3.8,2.5-6.9,5.7-10,9.1l-.4.5c-.6.7-1.2,1.4-1.8,2.1h0c0,0,0,0,0,0-2.2-.8-4.5-1.3-7.1-1.6-9.3-1-17.8,1.9-23.9,8-3.2,3.2-7.4,8.9-8.6,17.8h0c0,0,0,.1,0,.1-5.2.9-10,3.1-13.9,6.4l-.3.3c-.1.1-.2.2-.4.3h0s-4.8,1-4.8,1l-.2-6.7-14.9-4.9h0c-2.1-5.9-7.4-16.4-19.2-20.6h-.4c-.4-.3-.8-.4-1.3-.5h-.3c-1.1-.9-2.2-1.5-3.3-2.1h0c-2.9-3.5-6.6-6.1-11-7.6h-.1s0-.1,0-.1c2.7-10.1,1-19.2-4.9-27h0v-.3l-1.5-1.5c-1-1.1-2-2.2-3.4-3.4l-3.3-3.3c-4.8-4.7-11-7.9-17.5-9-5.1-.8-10-.3-14.8,1.6h0s0,0,0,0c-.5-.1-1-.3-1.5-.4h-.4c-4.5-1-8.9-.7-11.1-.4h0s0,0,0,0c-1.9-1.7-4-3.1-6.1-4.2h0c-2.7-3.9-6.2-6.8-10.5-8.6l-4.8-2.1h-3.2c0,0-.1-.1-.1-.1l-11.7-8.8-13.4,6.1c-1.9.8-6.9,2.9-11,8.1l-5.2,6.7v9.5c-.2.2-.3.5-.5.8-.1.2-.2.5-.3.7h0c0,.1-11.1-4.1-11.1-4.1l-7,20.9c-2.9,2.8-5,6.1-6.4,10-.7,2.2-1.2,4.4-1.4,6.6h0c0,0-.8.6-.8.6l.8,3.7c.2,2.3.7,4.5,1.5,6.7h0s0,0,0,0c0,1.3-.1,2.4,0,3.4h0c0,.1-11.3,2.1-11.3,2.1l-.8,5.5h0c-1,.2-1.8.4-2.7.6-5.5,1.4-20,5-26.1,26.7h0c0,0,0,0,0,0-1.3.5-2.3.9-3.3,1.3h0s-1.2-1.5-1.2-1.5l-20.1,14.3c-.1,0-.3.2-.4.3-.3.2-.5.4-.8.6h0s0,0,0,0c-7.6-4-15.2-5-22.4-2.7-8.5,2.6-15.1,8.6-17.9,16.4-1.3,3.8-1.8,7.6-1.3,11.5v.2s-.1,0-.1,0c-.3,0-.7,0-1.1,0l-22.3-.8-1.5,10.5h0c-1.6.7-3.1,1.5-4.6,2.5-1.7,1.1-3.3,2.4-4.9,3.9h0s0,0,0,0c-.3,0-.6,0-.9,0-14.2,0-21.4,10.2-23.8,14.7-6,10.9-6.8,21.5-2.4,31.6h0c0,0,0,.1,0,.1-6.4,5.1-16.4,16-11,31.8,1.2,3.4,2.9,6.4,5.2,9.2h0s0,0,0,0c0,.7,0,1.4,0,2h0c0,0,0,.1,0,.1l-24.3,7.8,14.6,26.4c2.6,4.7,5.9,8.6,10,12.1h0s0,0,0,0c.3,2.4.7,4.8,1.3,7.1h0v.9c0,2.2,0,5.4.6,9.4,1.4,18,10.5,31,17.7,41.4l1.3,1.9v.3c.3.7.6,1.7.8,2.5,1.1,4,2.8,10,6.6,16,1.1,1.8,2.4,3.5,4,5.3h0v.2c-.8,5-1.1,11.3,1.7,19.2,1.3,3.8,3.1,6.7,4.3,8.5h0c.6,5.6,2.3,10.5,5.2,14.8,2.7,4,6.2,7.4,10.5,10.1h0s0,.1,0,.1c-1.4,16.4,10.4,27,14.8,31,.2.2.3.3.5.5.3.3.7.6,1,.9l.8.8h0c.1,2.5.5,4.6,1,6.6,1.4,5.3,3.9,9.1,4.9,10.8.1.4.2.7.3,1,0,.2,0,.4.1.5,0,.3.2.6.3.9.4,1.6,1,3.5,1.8,5.6,1,2.8,2.2,5,3.3,6.9h0s0,0,0,0c0,2.8,0,6.2.6,10.1,1.5,8,5.2,13.7,7.5,17.1h0c.4.6.7,1,.9,1.3.4.8.8,3.8,1.1,5.9h0c.4,3,.7,5.2,1.1,7.3.4,1.7.4,3.4.4,6.7v4.2c.1,6.6,2.2,12.8,6,18.5h0s0,0,0,0c-.3,16.1,9.6,24,15.5,27.2,4.1,2.3,8.7,3.7,13.5,4.2h0s0,0,0,0c2.9,4.4,6.6,9.6,12.2,14.2l7.1,4.9Z"/>
  <g class="cls-2">
    <path class="cls-1" d="M344.4,791.2h0c-8.6,0-16.9-1.5-24.7-4.6-6.2-2.4-11.8-5.5-17-9.6-4.9-2.7-9.3-5.7-13.5-9.3l-7.8-5.5c-3.7-3-7.1-6.3-10.4-10.1-3.2-1.2-6.3-2.7-9.4-4.3-9.7-5.3-17.7-12.5-23.8-21.2-6.1-8.7-10-18.5-11.6-29.3-4.4-9.3-6.7-19.2-6.8-29.5,0-1.4,0-2.7,0-4.1v-2.1c-.2-1-.3-1.9-.5-2.8,0-.4-.1-.9-.2-1.3-4.9-8.4-8.1-16.9-9.7-26-.5-2.6-.8-5.2-1-7.5-.3-.7-.6-1.5-.9-2.2l-.2-.6c-1-2.6-1.7-4.9-2.1-6.4-2.3-4.4-4.2-8.7-5.6-13.2-9.2-10.2-15.3-21.5-18.3-33.5-2.1-2.3-4-4.9-5.8-7.5-4.7-7-8.1-14.8-10.1-23.1-1.5-2.9-2.8-5.9-3.9-9.1-2.4-6.9-3.8-13.7-4.3-20.6-3.2-5.7-5.7-11.8-7.8-18.7-9.6-14.2-19.8-31.8-22.1-55.8-.2-1.5-.4-3-.6-4.7-2.4-3.2-4.7-6.6-6.8-10.3l-38.1-68.7h.1s36.4-11.8,36.4-11.8c1.1-9.7,4.2-19,9.4-27.5-.4-13.5,3-26.8,10.1-39.6,4.4-8,14.5-22.5,33-30.2l3.2-23.1,30.1,1c8.6-12.1,20.9-20.9,35.6-25.3,8.6-2.6,17.5-3.5,26.4-2.5l3.9-2.8c5.7-9.8,13.3-17.9,22.5-24l1.8-12.1,2.4-.4,8.2-6c1.8-4.2,4.1-8.3,6.8-12.1l17.7-53h.1s17,6.4,17,6.4c5.6-5.3,12.3-9.6,19.8-12.8l34.4-15.6h0s22.6,17,22.6,17l8.3,3.7c5.2,2.3,10.1,5.3,14.6,9,6.6-.9,13.4-.8,20.1.2,14.8,2.5,28.7,9.6,39.3,20.1l2.5,2.5c1.7,1.5,3.4,3.2,5,5l14,13.9h0c0,0-.6,6.8-.6,6.8,1.7,4.1,3.1,8.5,4,13,4.6,2.5,8.9,5.6,12.8,9.1,11.8-10.9,26.6-17.1,42.8-17.8,1.4-1.1,2.8-2.1,4.5-3.2,1.6-1.1,2.9-1.8,4.1-2.5,4.7-5.6,10.2-10.4,16.3-14.2,15.5-9.6,34-12.5,52.1-8.2,2.3.6,4.6,1.2,6.8,2,12.9-7,27.8-9.5,43.1-7.1,11.6,1.8,21,6.4,26.8,9.9l62.5,37.7h0c0,.1-44.9,57.4-44.9,57.4-4.9,6.2-9.7,10.8-12.9,13.8-3.4,6.3-7.6,11.9-12.7,16.9-1.4,1.4-2.5,2.4-3.5,3.3-.7,1.1-1.5,2.2-2.4,3.6-6.4,9-17,21.7-34.9,29.1-1.7,1.5-3.5,2.9-5.4,4.4-7.7,12.9-17.3,20.8-22.4,25.1-4.3,3.6-9.1,6.7-14.1,9.2-.9,2.7-2,5.4-3.4,8.3-7.4,23.1-25,39.8-48.4,45.6-7.2,4.8-15.1,8.2-23.6,9.9-6.6,9.7-15.7,17.6-26.4,22.6.6,10-.6,18.5-1.7,23.9,0,.4-.2.8-.2,1.1,0,.4-.2.7-.2,1.1,2.9,5.1,5.2,10.5,6.8,16.2l1.6,6.7.4,3.6c1,8.8.4,17.8-2,26.6v3.9c-.3,10.3-2.4,19.9-6.2,28.6-.9,6.3-2.5,12.1-4.9,17.7-1.5,3.5-2.9,6.2-3.9,8h0c-2,4.5-4.3,8.6-7,12.6,3.5,9.5,4.8,19.6,3.9,30-.2,1.7-.3,3.3-.6,4.8,1.3,9.3.8,17.4.5,21.7v1.1c-.2,12.7-3.6,31.6-19.3,49.5-8,9.1-17.9,16.1-28.7,20.2-2.4,9.3-6.8,18.2-13.1,26.5-9.1,11.9-21.4,20.4-35.6,24.5-5.1,10.5-11.6,17.8-14.4,20.9l-.4.4c-9,10.4-19.6,17.7-32.2,22.5l-1.5.5c-6.3,4.6-13.4,8.2-21,10.6-7.6,2.4-15.3,3.6-23,3.6h-.1ZM81.8,349.6l37.9,68.4c2,3.7,4.3,7.2,6.8,10.3h0s0,0,0,0c.2,1.7.3,3.2.6,4.7,2.3,23.9,12.5,41.6,22.1,55.7h0c2.1,6.9,4.6,13,7.8,18.7h0c.5,7,1.9,13.8,4.3,20.7,1.1,3.2,2.4,6.1,3.9,9.1,2,8.3,5.3,16.1,10,23.1,1.8,2.7,3.7,5.2,5.8,7.5h0c3,12.1,9.1,23.4,18.3,33.5h0c1.4,4.6,3.2,8.9,5.6,13.3.5,1.5,1.1,3.8,2.1,6.4l.2.6c.3.7.6,1.5.9,2.2h0c.2,2.4.5,4.9,1,7.5,1.6,9.1,4.8,17.6,9.7,25.9h0c0,.5.1.9.2,1.4.1.9.3,1.9.5,2.8v2.2c0,1.3,0,2.6,0,4.1.2,10.2,2.5,20.1,6.8,29.4h0c1.6,10.7,5.5,20.6,11.5,29.2,6.1,8.7,14.1,15.8,23.7,21.1,3.1,1.7,6.2,3.1,9.4,4.3h0c3.3,3.8,6.7,7.1,10.4,10.1l7.8,5.5c4.2,3.6,8.6,6.6,13.5,9.3,5.2,4.1,10.8,7.2,16.9,9.6,7.8,3,16,4.5,24.5,4.5h.1c0-.1,0-.1,0-.1,7.6,0,15.4-1.2,23-3.6,7.6-2.4,14.7-5.9,20.9-10.5h0s1.5-.6,1.5-.6c12.6-4.7,23.1-12.1,32.1-22.4l.4-.4c2.8-3.1,9.3-10.4,14.4-20.9h0s0,0,0,0c14.1-4.1,26.4-12.6,35.5-24.5,6.3-8.2,10.7-17.2,13.1-26.5h0c0,0,0,0,0,0,10.7-4.1,20.6-11.1,28.6-20.2,15.7-17.8,19.1-36.6,19.2-49.3v-1.1c.4-4.3.9-12.4-.5-21.7h0s0,0,0,0c.2-1.5.4-3,.6-4.8.9-10.4-.4-20.4-3.9-29.9h0c0,0,0-.1,0-.1,2.7-4,5-8.1,7-12.5h0c1-1.9,2.4-4.6,3.9-8.1,2.3-5.6,3.9-11.4,4.9-17.7h0c3.8-8.7,5.9-18.3,6.2-28.6v-3.9c2.4-8.9,3-17.8,2-26.6l-.4-3.6-1.6-6.7c-1.6-5.7-3.8-11.1-6.8-16.2h0s0,0,0,0c0-.4.2-.7.2-1.1,0-.4.2-.7.2-1.1,1.1-5.4,2.3-14,1.7-23.9h0c0,0,0-.1,0-.1,10.7-5.1,19.8-12.9,26.4-22.6h0s0,0,0,0c8.5-1.7,16.4-5,23.6-9.9h0c23.3-5.9,40.8-22.4,48.2-45.5,1.4-3,2.6-5.7,3.5-8.4h0s0,0,0,0c5-2.5,9.8-5.6,14.1-9.2,5.1-4.2,14.7-12.1,22.3-25.1h0c1.9-1.5,3.7-2.9,5.4-4.4h0c17.9-7.4,28.4-20.1,34.8-29,1-1.4,1.7-2.5,2.4-3.6h0c1-.9,2.1-2,3.5-3.4,5.1-5.1,9.2-10.6,12.6-16.9h0c3.2-3,8.1-7.6,12.9-13.8l44.8-57.2-62.2-37.6c-5.8-3.5-15.2-8.1-26.7-9.9-15.2-2.4-30.1,0-43,7.1h0s0,0,0,0c-2.3-.8-4.5-1.5-6.9-2-18-4.3-36.4-1.4-51.9,8.2-6.1,3.7-11.6,8.5-16.3,14.1h0c-1.2.7-2.5,1.5-4.1,2.6-1.6,1.1-3.1,2.2-4.5,3.2h0s0,0,0,0c-16.2.7-31,6.9-42.8,17.8h0c0,0,0,0,0,0-3.9-3.5-8.2-6.6-12.9-9.2h0s0,0,0,0c-.9-4.5-2.2-8.9-4-13h0s0,0,0,0l.6-6.7-13.9-13.8c-1.6-1.8-3.3-3.4-5-4.9l-2.5-2.5c-10.6-10.5-24.5-17.6-39.2-20-6.7-1.1-13.5-1.1-20.1-.2h0s0,0,0,0c-4.5-3.6-9.4-6.7-14.6-9l-8.3-3.7-22.6-16.9-34.2,15.6c-7.6,3.2-14.2,7.5-19.8,12.8h0c0,0,0,0,0,0l-17-6.4-17.6,52.8c-2.7,3.9-5,8-6.8,12.1h0s0,0,0,0l-8.3,6-2.3.4-1.8,12.1h0c-9.2,6.1-16.8,14.2-22.5,24h0s-4,2.9-4,2.9h0c-8.9-.9-17.7,0-26.3,2.5-14.6,4.4-26.9,13.2-35.5,25.3h0c0,0,0,0,0,0l-30-1-3.2,23.1h0c-18.4,7.7-28.5,22.2-32.9,30.2-7,12.7-10.4,26-10,39.5h0s0,0,0,0c-5.2,8.5-8.3,17.7-9.4,27.5h0c0,0,0,.1,0,.1l-36.4,11.8Z"/>
  </g>
  <g class="cls-6">
    <path class="cls-4" d="M341.8,848.7h-.3c-15.2,0-30-2.7-44-8.2-9.6-3.7-18.7-8.6-27.1-14.7-5.9-3.5-11.4-7.3-16.8-11.7l-9-6.5c-2.5-2-5.1-4.3-7.8-6.9-.9-.5-1.9-1-2.8-1.4-.4-.2-.7-.4-1.1-.6-15.8-8.7-29.2-20.3-39.7-34.4-10.5-14.1-17.8-30-21.4-47.3-5.2-13-8.1-26.8-8.7-40.9-4.6-10-7.7-20.2-9.7-31-.3-1.4-.5-2.8-.7-4.2-.1-.3-.2-.7-.3-1,0-.2-.2-.4-.2-.7-.9-1.9-1.8-3.9-2.9-6.5-8.4-11-15-22.9-19.5-35.4-.7-1-1.4-2-2-3-7.1-10.5-12.5-22.1-16-34.4-1.5-3.3-2.8-6.6-3.9-9.8-2.6-7.5-4.6-15.2-5.8-22.9-1.7-3.7-3.1-7.2-4.3-10.7-13.7-21.4-22.1-42.6-25.6-64.9h0c-.7-1.2-1.4-2.4-2.1-3.6L.5,322.8h.1s71.1-23,71.1-23c1.8-17.6,7.2-34.7,16.1-50.7,5.4-9.7,15-23.9,30.3-36.4l6.5-46.3,54.5,1.9c12.2-10,26.3-17.5,41.9-22.2,5.3-1.6,10.8-2.9,16.4-3.8.2-.2.4-.5.6-.7.4-.4.9-.9,1.3-1.4l4.5-30.5h0s18.5-3.2,18.5-3.2l30.6-91.7h.1s43.7,16.4,43.7,16.4c1.5-.7,3.1-1.5,4.8-2.2L404.4.4h0s43.1,32.4,43.1,32.4l2.8,1.2c2.6,1.2,5.2,2.4,7.8,3.8,4.6.2,9.1.7,13.6,1.4,25.8,4.3,50.2,16.7,68.6,35l1.7,1.7c2.2,2,4.3,4.2,6.5,6.5l11.5,11.4.8-.2c5.7-5.4,12.1-10.3,18.9-14.5,12.4-7.6,25.8-12.9,39.9-15.8,14-2.8,28.4-3.1,42.8-.9,17.8-5.6,36.6-6.9,55.6-4,20.1,3.1,36.2,10.9,46.3,17l114.1,68.9h0c0,.1-82,104.8-82,104.8-3.9,5-8.1,9.7-12.9,14.5-4.9,7.6-10.7,14.8-17.1,21.1l-.2.2c-13.2,18.5-28.2,32.1-46,41.7-10.3,13.7-20.9,22.5-26,26.8h-.1c-1.4,1.3-3.1,2.7-5,4-6.8,15.9-16.7,29.9-29.3,41.6-12.6,11.7-27.4,20.3-43.8,25.8-4.8,2.7-9.7,5.1-14.6,7-.4.5-.9.9-1.3,1.3-.2.2-.4.4-.6.6.3.9.6,1.9.8,2.9l2.7,11.1.8,6.9c1.5,13.1.9,26.2-1.7,39.1-.5,14.3-3.2,28.1-7.9,41-1.6,8.1-4.1,16-7.2,23.6-1,2.5-2.2,5-3.6,7.9,1.1,8.8,1.3,17.9.5,26.9h0c1,11.5.4,20.8,0,25.2-.5,21.3-6.5,52.8-32.5,82.3-7.8,8.9-16.7,16.6-26.3,22.8-3.6,7.2-8,14.3-13.1,21-11.3,14.7-25.2,26.4-41.4,34.8-4.3,6.1-8.2,10.6-11.1,13.9l-.2.2c-13.6,15.5-30,27.4-48.7,35.3-9.4,6-19.6,10.8-30.3,14.1-12.7,4-25.6,6-38.5,6h.1ZM.8,322.9l69.3,125.1c.7,1.2,1.4,2.4,2.1,3.6h0c3.5,22.3,11.9,43.5,25.6,64.9,1.3,3.5,2.7,7,4.4,10.7h0c1.2,7.7,3.2,15.4,5.8,22.9,1.1,3.2,2.4,6.5,3.9,9.8,3.6,12.3,8.9,23.8,16,34.3.7,1,1.4,2,2.1,3h0c4.5,12.6,11.1,24.5,19.5,35.4h0c1.1,2.6,2,4.6,2.9,6.5,0,.2.2.4.2.7.1.3.2.7.3,1,.2,1.4.4,2.8.7,4.2,1.9,10.8,5.1,20.9,9.6,31h0c.6,14.2,3.5,27.9,8.7,40.9,3.7,17.3,10.9,33.2,21.4,47.3,10.5,14.1,23.9,25.6,39.6,34.3.4.2.7.4,1.1.6.9.5,1.8,1,2.8,1.4h0c2.7,2.6,5.3,4.8,7.8,6.9l9,6.5c5.4,4.4,10.9,8.2,16.8,11.7,8.4,6.1,17.5,11,27,14.7,13.9,5.4,28.5,8.1,43.6,8.1h-.1c0-.1.3-.1.3-.1,12.9,0,26-2,38.7-6,10.7-3.3,20.9-8,30.3-14,18.8-7.9,35.1-19.7,48.7-35.2l.2-.2c2.9-3.2,6.8-7.8,11.1-13.9h0c16.1-8.4,30-20,41.3-34.7,5.1-6.7,9.5-13.7,13.1-20.9h0s0,0,0,0c9.6-6.3,18.5-14,26.3-22.8,25.9-29.5,32-61,32.5-82.2.3-4.4.9-13.7,0-25.1h0c.8-9.1.6-18.1-.5-27h0s0,0,0,0c1.4-2.8,2.6-5.4,3.6-7.9,3.2-7.5,5.6-15.4,7.2-23.5,4.8-12.9,7.4-26.6,7.9-40.9,2.6-12.9,3.2-26.1,1.7-39.1l-.8-6.9-2.7-11.1c-.2-1-.5-2-.8-2.9h0c0,0,0-.1,0-.1.2-.2.4-.4.6-.6.4-.4.9-.9,1.3-1.3h0c4.9-2,9.8-4.3,14.7-7,16.4-5.5,31.1-14.1,43.8-25.8,12.6-11.6,22.5-25.6,29.3-41.5h0s0,0,0,0c1.8-1.3,3.5-2.7,5-3.9h.1c5.1-4.4,15.7-13.2,26-26.8h0c17.7-9.6,32.8-23.2,46-41.7l.2-.2c6.4-6.4,12.1-13.5,17-21.1,4.8-4.8,9-9.5,12.9-14.5l82-104.6-113.8-68.8c-10-6-26.1-13.9-46.2-16.9-19.1-3-37.7-1.6-55.6,4h0s0,0,0,0c-14.3-2.2-28.7-1.9-42.7.9-14.1,2.8-27.5,8.1-39.8,15.7-6.8,4.3-13.2,9.1-18.9,14.5h0s-1,.3-1,.3h0s-11.5-11.5-11.5-11.5c-2.2-2.3-4.4-4.5-6.5-6.5l-1.8-1.7c-18.4-18.3-42.7-30.7-68.5-34.9-4.5-.7-9.1-1.2-13.6-1.4h0c-2.6-1.4-5.2-2.7-7.8-3.9l-2.8-1.2L404.3.6l-62.6,28.5c-1.7.7-3.3,1.5-4.8,2.2h0s0,0,0,0l-43.6-16.3-30.6,91.6-18.6,3.2-4.5,30.4h0c-.4.5-.9.9-1.3,1.4-.2.2-.5.5-.7.7h0s0,0,0,0c-5.6.9-11.1,2.1-16.4,3.8-15.5,4.7-29.6,12.2-41.9,22.2h0s0,0,0,0l-54.3-1.9-6.4,46.1h0c-15.3,12.5-24.9,26.7-30.3,36.4-8.9,16.1-14.3,33.1-16.1,50.7h0c0,0,0,.1,0,.1L.8,322.9Z"/>
  </g>
</svg>