<?xml version="1.0" encoding="UTF-8"?>
<svg id="Layer_1" data-name="Layer 1" xmlns="http://www.w3.org/2000/svg" version="1.1" viewBox="0 0 30 17">
  <defs>
    <style>
      .cls-1 {
        fill: #000;
        stroke-width: 0px;
      }
    </style>
  </defs>
  <path class="cls-1" d="M.1,8.5H.1c-.1,0-.1.2,0,.2H.1c3.8.9,6.7,3.9,7.2,7.7,0,.4.4.7.8.7h2.1c.4,0,.7-.3.7-.7s-.3-.7-.7-.7h-1.5c-.6-2.9-2.6-5.3-5.3-6.5h25.8c.4,0,.7-.3.7-.7s-.3-.7-.7-.6H3.3c2.7-1.2,4.7-3.6,5.3-6.5h1.5c.4,0,.7-.3.7-.7S10.5,0,10.1,0h-2.1s.4,0,0,0-.8.3-.8.7C6.7,4.5,3.8,7.5,0,8.4h.1Z"/>
</svg>