<?xml version="1.0" encoding="utf-8"?>
<!-- Generator: Adobe Illustrator 28.3.0, SVG Export Plug-In . SVG Version: 6.00 Build 0)  -->
<svg version="1.2" baseProfile="tiny" id="Layer_1" xmlns="http://www.w3.org/2000/svg" xmlns:xlink="http://www.w3.org/1999/xlink"
	 x="0px" y="0px" viewBox="0 0 161.6 44.8" overflow="visible" xml:space="preserve">
<g>
	<path fill="#F9A247" d="M45.7,5.1c0-1.9,1.5-3.5,3.5-3.5h9.4c7.5,0,12.1,4.5,12.1,10.9v0.1c0,7.3-5.7,11.1-12.8,11.1h-5.3V30
		c0,1.9-1.5,3.5-3.5,3.5c-1.9,0-3.5-1.5-3.5-3.5V5.1z M58.2,17.6c3.5,0,5.5-2.1,5.5-4.8v-0.1c0-3.1-2.2-4.8-5.6-4.8h-5.4v9.7H58.2z"
		/>
	<path fill="#F9A247" d="M84.6,33.8c-7.3,0-12.6-5.1-12.6-12.5v-0.1c0-6.9,4.9-12.6,12-12.6c8.1,0,11.7,6.6,11.7,11.7
		c0,2-1.4,3.3-3.2,3.3H78.8c0.7,3.1,2.8,4.7,5.9,4.7c1.9,0,3.5-0.6,4.9-1.6c0.5-0.4,0.9-0.5,1.7-0.5c1.5,0,2.7,1.2,2.7,2.7
		c0,0.9-0.4,1.6-0.9,2C90.9,32.7,88.1,33.8,84.6,33.8 M89,19.2c-0.4-3.1-2.2-5.1-5.1-5.1c-2.8,0-4.7,2-5.2,5.1H89z"/>
	<path fill="#F9A247" d="M99,12.2c0-1.9,1.5-3.4,3.4-3.4c1.9,0,3.4,1.5,3.4,3.4v1.1c1-2.3,2.6-4.5,4.7-4.5c2.1,0,3.3,1.4,3.3,3.3
		c0,1.8-1.2,2.9-2.6,3.2c-3.5,0.8-5.4,3.5-5.4,8.4v6.4c0,1.9-1.5,3.4-3.4,3.4c-1.9,0-3.4-1.5-3.4-3.4V12.2z"/>
	<path fill="#F9A247" d="M114.2,21.3L114.2,21.3c0-7,5.3-12.7,12.7-12.7c3.7,0,6.2,1,8.3,2.7c0.5,0.4,1.1,1.2,1.1,2.3
		c0,1.7-1.4,3.1-3.1,3.1c-0.9,0-1.6-0.4-2-0.7c-1.2-0.9-2.5-1.5-4.3-1.5c-3.4,0-5.9,3-5.9,6.6v0.1c0,3.7,2.4,6.7,6.1,6.7
		c1.8,0,3.2-0.6,4.5-1.7c0.4-0.3,1-0.6,1.9-0.6c1.6,0,2.9,1.3,2.9,2.9c0,0.9-0.4,1.6-1,2.2c-2,1.9-4.6,3.1-8.6,3.1
		C119.6,33.8,114.2,28.2,114.2,21.3"/>
	<path fill="#F9A247" d="M139.4,3.4c0-1.9,1.5-3.4,3.4-3.4s3.4,1.5,3.4,3.4v9c1.6-2,3.6-3.9,7.1-3.9c5.2,0,8.2,3.4,8.2,9v12.5
		c0,1.9-1.5,3.4-3.4,3.4c-1.9,0-3.4-1.5-3.4-3.4V19.7c0-3.3-1.5-4.9-4.2-4.9c-2.6,0-4.3,1.7-4.3,4.9v10.3c0,1.9-1.5,3.4-3.4,3.4
		s-3.4-1.5-3.4-3.4V3.4z"/>
	<path fill="#726658" d="M12.3,25.4c1.2,1,2.7,1.5,4.2,1.7c4.5,0.5,8.6-2.3,9.9-6.6c1.3-4.3-1-9-5.1-10.8c-0.4-0.2-0.6-0.4-0.7-0.8
		C19.8,3.9,24-0.4,29,0.2c2.1,0.3,3.7,1.3,5.2,2.7c3.9,3.8,6,8.4,5.6,13.9c-0.5,6.6-3.7,11.5-9.6,14.5c-7.6,3.9-16.3,2.2-22.1-4.1
		c-0.4-0.5-0.8-1-1.2-1.5c-0.2-0.3-0.4-0.4-0.7-0.3c-1.8,0-3.6,0-5.4,0c-0.3,0-0.7,0-0.8-0.3c-0.2-0.4,0.1-0.6,0.4-0.8
		c3.9-3.9,7.8-7.7,11.8-11.6c2.1-2,4.7-2.6,7.4-1.8c2.7,0.8,4.5,2.6,5.2,5.4c0.9,3.9-1.8,8-5.8,8.9c-1.3,0.3-2.7,0.2-4,0.2
		C14.1,25.4,13.2,25.4,12.3,25.4 M26.2,8c0.8,0,1.5-0.6,1.5-1.4c0-0.8-0.7-1.5-1.5-1.5c-0.8,0-1.5,0.7-1.5,1.5
		C24.7,7.3,25.4,8,26.2,8"/>
	<path fill="#C2B59B" d="M19.2,5.8c0,0.9-0.2,1.9,0,2.8c0.1,0.2-0.1,0.3-0.3,0.3c-0.9-0.1-1.8-0.2-2.6,0C17.3,7.9,18.2,6.9,19.2,5.8
		L19.2,5.8z"/>
	<path fill="#F9F8FC" d="M26.2,8c-0.8,0-1.5-0.6-1.5-1.5c0-0.8,0.7-1.5,1.5-1.5c0.8,0,1.5,0.7,1.5,1.5C27.7,7.3,27,8,26.2,8"/>
	<path fill="#49535A" d="M48.5,38.4h0.9l2.4,6.1h-1l-0.6-1.7h-2.5l-0.6,1.7h-1L48.5,38.4z M49.9,42.2l-1-2.7l-1,2.7H49.9z"/>
	<path fill="none" stroke="#49535A" stroke-width="0.297" stroke-miterlimit="10" d="M48.5,38.4h0.9l2.4,6.1h-1l-0.6-1.7h-2.5
		l-0.6,1.7h-1L48.5,38.4z M49.9,42.2l-1-2.7l-1,2.7H49.9z"/>
	<path fill="#49535A" d="M55.4,41.5c0-0.4,0.1-0.7,0.2-1.1c0.1-0.4,0.3-0.7,0.6-1c0.3-0.3,0.6-0.5,0.9-0.7c0.4-0.2,0.8-0.3,1.2-0.3
		c0.6,0,1,0.1,1.4,0.4c0.4,0.3,0.7,0.6,0.9,1l-0.8,0.5c-0.1-0.2-0.3-0.4-0.4-0.6c-0.2-0.1-0.4-0.2-0.6-0.3c-0.2-0.1-0.4-0.1-0.6-0.1
		c-0.3,0-0.6,0.1-0.8,0.2c-0.2,0.1-0.4,0.3-0.6,0.5c-0.2,0.2-0.3,0.5-0.4,0.7c-0.1,0.3-0.1,0.5-0.1,0.8c0,0.3,0,0.6,0.1,0.9
		c0.1,0.3,0.2,0.5,0.4,0.7c0.2,0.2,0.4,0.4,0.6,0.5c0.2,0.1,0.5,0.2,0.8,0.2c0.2,0,0.4,0,0.6-0.1c0.2-0.1,0.4-0.2,0.6-0.3
		c0.2-0.1,0.3-0.3,0.4-0.6l0.8,0.4c-0.1,0.3-0.3,0.6-0.6,0.8c-0.3,0.2-0.6,0.4-0.9,0.5c-0.3,0.1-0.7,0.2-1,0.2
		c-0.4,0-0.8-0.1-1.2-0.3c-0.4-0.2-0.7-0.4-0.9-0.7c-0.3-0.3-0.5-0.6-0.6-1C55.4,42.2,55.4,41.8,55.4,41.5"/>
	<path fill="none" stroke="#49535A" stroke-width="0.297" stroke-miterlimit="10" d="M55.4,41.5c0-0.4,0.1-0.7,0.2-1.1
		c0.1-0.4,0.3-0.7,0.6-1c0.3-0.3,0.6-0.5,0.9-0.7c0.4-0.2,0.8-0.3,1.2-0.3c0.6,0,1,0.1,1.4,0.4c0.4,0.3,0.7,0.6,0.9,1l-0.8,0.5
		c-0.1-0.2-0.3-0.4-0.4-0.6c-0.2-0.1-0.4-0.2-0.6-0.3c-0.2-0.1-0.4-0.1-0.6-0.1c-0.3,0-0.6,0.1-0.8,0.2c-0.2,0.1-0.4,0.3-0.6,0.5
		c-0.2,0.2-0.3,0.5-0.4,0.7c-0.1,0.3-0.1,0.5-0.1,0.8c0,0.3,0,0.6,0.1,0.9c0.1,0.3,0.2,0.5,0.4,0.7c0.2,0.2,0.4,0.4,0.6,0.5
		c0.2,0.1,0.5,0.2,0.8,0.2c0.2,0,0.4,0,0.6-0.1c0.2-0.1,0.4-0.2,0.6-0.3c0.2-0.1,0.3-0.3,0.4-0.6l0.8,0.4c-0.1,0.3-0.3,0.6-0.6,0.8
		c-0.3,0.2-0.6,0.4-0.9,0.5c-0.3,0.1-0.7,0.2-1,0.2c-0.4,0-0.8-0.1-1.2-0.3c-0.4-0.2-0.7-0.4-0.9-0.7c-0.3-0.3-0.5-0.6-0.6-1
		C55.4,42.2,55.4,41.8,55.4,41.5z"/>
	<path fill="#49535A" d="M64,38.4H65l2.4,6.1h-1l-0.6-1.7h-2.5l-0.6,1.7h-1L64,38.4z M65.5,42.2l-1-2.7l-1,2.7H65.5z"/>
	<path fill="none" stroke="#49535A" stroke-width="0.297" stroke-miterlimit="10" d="M64,38.4H65l2.4,6.1h-1l-0.6-1.7h-2.5l-0.6,1.7
		h-1L64,38.4z M65.5,42.2l-1-2.7l-1,2.7H65.5z"/>
	<path fill="#49535A" d="M72.3,39.9c-0.1-0.1-0.1-0.1-0.2-0.2c-0.1-0.1-0.2-0.1-0.4-0.2c-0.1-0.1-0.3-0.1-0.5-0.2
		c-0.2,0-0.4-0.1-0.5-0.1c-0.4,0-0.7,0.1-0.9,0.2c-0.2,0.1-0.3,0.4-0.3,0.6c0,0.2,0.1,0.3,0.2,0.5c0.1,0.1,0.3,0.2,0.5,0.3
		c0.2,0.1,0.5,0.1,0.8,0.2c0.4,0.1,0.8,0.2,1.1,0.4c0.3,0.1,0.5,0.3,0.7,0.5c0.2,0.2,0.2,0.5,0.2,0.9c0,0.3-0.1,0.6-0.2,0.8
		c-0.1,0.2-0.3,0.4-0.5,0.5c-0.2,0.1-0.4,0.2-0.7,0.3c-0.3,0.1-0.6,0.1-0.9,0.1c-0.3,0-0.6,0-0.9-0.1c-0.3-0.1-0.6-0.2-0.9-0.3
		c-0.3-0.1-0.5-0.3-0.8-0.5l0.4-0.8c0.1,0.1,0.2,0.2,0.3,0.2c0.1,0.1,0.3,0.2,0.5,0.3c0.2,0.1,0.4,0.1,0.6,0.2
		c0.2,0.1,0.4,0.1,0.7,0.1c0.4,0,0.7-0.1,0.9-0.2c0.2-0.1,0.3-0.3,0.3-0.6c0-0.2-0.1-0.4-0.2-0.5c-0.1-0.1-0.3-0.2-0.6-0.3
		c-0.3-0.1-0.6-0.2-0.9-0.3c-0.4-0.1-0.7-0.2-1-0.4c-0.3-0.1-0.5-0.3-0.6-0.5c-0.1-0.2-0.2-0.5-0.2-0.8c0-0.4,0.1-0.7,0.3-1
		c0.2-0.3,0.5-0.5,0.8-0.6c0.3-0.1,0.7-0.2,1.1-0.2c0.3,0,0.5,0,0.8,0.1c0.2,0.1,0.5,0.1,0.7,0.2c0.2,0.1,0.4,0.2,0.6,0.4L72.3,39.9
		z"/>
	<path fill="none" stroke="#49535A" stroke-width="0.297" stroke-miterlimit="10" d="M72.3,39.9c-0.1-0.1-0.1-0.1-0.2-0.2
		c-0.1-0.1-0.2-0.1-0.4-0.2c-0.1-0.1-0.3-0.1-0.5-0.2c-0.2,0-0.4-0.1-0.5-0.1c-0.4,0-0.7,0.1-0.9,0.2c-0.2,0.1-0.3,0.4-0.3,0.6
		c0,0.2,0.1,0.3,0.2,0.5c0.1,0.1,0.3,0.2,0.5,0.3c0.2,0.1,0.5,0.1,0.8,0.2c0.4,0.1,0.8,0.2,1.1,0.4c0.3,0.1,0.5,0.3,0.7,0.5
		c0.2,0.2,0.2,0.5,0.2,0.9c0,0.3-0.1,0.6-0.2,0.8c-0.1,0.2-0.3,0.4-0.5,0.5c-0.2,0.1-0.4,0.2-0.7,0.3c-0.3,0.1-0.6,0.1-0.9,0.1
		c-0.3,0-0.6,0-0.9-0.1c-0.3-0.1-0.6-0.2-0.9-0.3c-0.3-0.1-0.5-0.3-0.8-0.5l0.4-0.8c0.1,0.1,0.2,0.2,0.3,0.2
		c0.1,0.1,0.3,0.2,0.5,0.3c0.2,0.1,0.4,0.1,0.6,0.2c0.2,0.1,0.4,0.1,0.7,0.1c0.4,0,0.7-0.1,0.9-0.2c0.2-0.1,0.3-0.3,0.3-0.6
		c0-0.2-0.1-0.4-0.2-0.5c-0.1-0.1-0.3-0.2-0.6-0.3c-0.3-0.1-0.6-0.2-0.9-0.3c-0.4-0.1-0.7-0.2-1-0.4c-0.3-0.1-0.5-0.3-0.6-0.5
		c-0.1-0.2-0.2-0.5-0.2-0.8c0-0.4,0.1-0.7,0.3-1c0.2-0.3,0.5-0.5,0.8-0.6c0.3-0.1,0.7-0.2,1.1-0.2c0.3,0,0.5,0,0.8,0.1
		c0.2,0.1,0.5,0.1,0.7,0.2c0.2,0.1,0.4,0.2,0.6,0.4L72.3,39.9z"/>
	<path fill="#49535A" d="M76.3,38.4h0.9l2.4,6.1h-1L78,42.9h-2.5l-0.6,1.7h-1L76.3,38.4z M77.7,42.2l-1-2.7l-1,2.7H77.7z"/>
	<path fill="none" stroke="#49535A" stroke-width="0.297" stroke-miterlimit="10" d="M76.3,38.4h0.9l2.4,6.1h-1L78,42.9h-2.5
		l-0.6,1.7h-1L76.3,38.4z M77.7,42.2l-1-2.7l-1,2.7H77.7z"/>
	<path fill="#49535A" d="M83.3,44.6c-0.4,0-0.8-0.1-1.1-0.2c-0.4-0.2-0.7-0.4-0.9-0.7c-0.3-0.3-0.5-0.6-0.6-1
		c-0.1-0.4-0.2-0.8-0.2-1.2c0-0.4,0.1-0.8,0.2-1.2c0.1-0.4,0.4-0.7,0.6-1c0.3-0.3,0.6-0.5,0.9-0.7c0.4-0.2,0.7-0.2,1.2-0.2
		c0.6,0,1.1,0.1,1.5,0.4c0.4,0.2,0.7,0.6,0.9,1L85,40.3c-0.2-0.3-0.4-0.6-0.7-0.8c-0.3-0.2-0.6-0.2-1-0.2c-0.3,0-0.6,0.1-0.8,0.2
		c-0.2,0.1-0.4,0.3-0.6,0.5c-0.2,0.2-0.3,0.4-0.4,0.7c-0.1,0.3-0.1,0.5-0.1,0.8c0,0.3,0,0.6,0.1,0.9c0.1,0.3,0.2,0.5,0.4,0.7
		c0.2,0.2,0.4,0.4,0.6,0.5c0.2,0.1,0.5,0.2,0.8,0.2c0.3,0,0.7-0.1,1-0.3c0.3-0.2,0.6-0.4,0.8-0.8v1C84.7,44.3,84,44.6,83.3,44.6
		 M85.1,42.2h-1.3v-0.7h2.1v3.1h-0.8V42.2z"/>
	<path fill="none" stroke="#49535A" stroke-width="0.297" stroke-miterlimit="10" d="M83.3,44.6c-0.4,0-0.8-0.1-1.1-0.2
		c-0.4-0.2-0.7-0.4-0.9-0.7c-0.3-0.3-0.5-0.6-0.6-1c-0.1-0.4-0.2-0.8-0.2-1.2c0-0.4,0.1-0.8,0.2-1.2c0.1-0.4,0.4-0.7,0.6-1
		c0.3-0.3,0.6-0.5,0.9-0.7c0.4-0.2,0.7-0.2,1.2-0.2c0.6,0,1.1,0.1,1.5,0.4c0.4,0.2,0.7,0.6,0.9,1L85,40.3c-0.2-0.3-0.4-0.6-0.7-0.8
		c-0.3-0.2-0.6-0.2-1-0.2c-0.3,0-0.6,0.1-0.8,0.2c-0.2,0.1-0.4,0.3-0.6,0.5c-0.2,0.2-0.3,0.4-0.4,0.7c-0.1,0.3-0.1,0.5-0.1,0.8
		c0,0.3,0,0.6,0.1,0.9c0.1,0.3,0.2,0.5,0.4,0.7c0.2,0.2,0.4,0.4,0.6,0.5c0.2,0.1,0.5,0.2,0.8,0.2c0.3,0,0.7-0.1,1-0.3
		c0.3-0.2,0.6-0.4,0.8-0.8v1C84.7,44.3,84,44.6,83.3,44.6z M85.1,42.2h-1.3v-0.7h2.1v3.1h-0.8V42.2z"/>
	<path fill="#49535A" d="M87.7,44.6v-6.1h2.7c0.3,0,0.5,0.1,0.8,0.2c0.2,0.1,0.4,0.3,0.6,0.5c0.2,0.2,0.3,0.4,0.4,0.6
		c0.1,0.2,0.1,0.5,0.1,0.7c0,0.3,0,0.5-0.1,0.8c-0.1,0.2-0.2,0.5-0.4,0.6c-0.2,0.2-0.4,0.3-0.6,0.4l1.4,2.3h-1.1l-1.3-2.1h-1.4v2.1
		H87.7z M88.7,41.6h1.7c0.2,0,0.3-0.1,0.5-0.2c0.1-0.1,0.2-0.2,0.3-0.4c0.1-0.2,0.1-0.4,0.1-0.6c0-0.2,0-0.4-0.1-0.6
		c-0.1-0.2-0.2-0.3-0.4-0.4c-0.1-0.1-0.3-0.2-0.5-0.2h-1.6V41.6z"/>
	<path fill="none" stroke="#49535A" stroke-width="0.297" stroke-miterlimit="10" d="M87.7,44.6v-6.1h2.7c0.3,0,0.5,0.1,0.8,0.2
		c0.2,0.1,0.4,0.3,0.6,0.5c0.2,0.2,0.3,0.4,0.4,0.6c0.1,0.2,0.1,0.5,0.1,0.7c0,0.3,0,0.5-0.1,0.8c-0.1,0.2-0.2,0.5-0.4,0.6
		c-0.2,0.2-0.4,0.3-0.6,0.4l1.4,2.3h-1.1l-1.3-2.1h-1.4v2.1H87.7z M88.7,41.6h1.7c0.2,0,0.3-0.1,0.5-0.2c0.1-0.1,0.2-0.2,0.3-0.4
		c0.1-0.2,0.1-0.4,0.1-0.6c0-0.2,0-0.4-0.1-0.6c-0.1-0.2-0.2-0.3-0.4-0.4c-0.1-0.1-0.3-0.2-0.5-0.2h-1.6V41.6z"/>
	<path fill="#49535A" d="M95.9,38.4h0.9l2.4,6.1h-1l-0.6-1.7h-2.5l-0.6,1.7h-1L95.9,38.4z M97.3,42.2l-1-2.7l-1,2.7H97.3z"/>
	<path fill="none" stroke="#49535A" stroke-width="0.297" stroke-miterlimit="10" d="M95.9,38.4h0.9l2.4,6.1h-1l-0.6-1.7h-2.5
		l-0.6,1.7h-1L95.9,38.4z M97.3,42.2l-1-2.7l-1,2.7H97.3z"/>
	<polygon fill="#49535A" points="101.6,40.2 101.6,44.6 100.6,44.6 100.6,38.4 101.4,38.4 104.9,42.9 104.9,38.4 105.8,38.4 
		105.8,44.6 105,44.6 	"/>
	<polygon fill="none" stroke="#49535A" stroke-width="0.297" stroke-miterlimit="10" points="101.6,40.2 101.6,44.6 100.6,44.6 
		100.6,38.4 101.4,38.4 104.9,42.9 104.9,38.4 105.8,38.4 105.8,44.6 105,44.6 	"/>
	<path fill="#49535A" d="M107.9,44.6v-6.1h2.2c0.7,0,1.2,0.1,1.7,0.4c0.4,0.3,0.8,0.6,1,1.1c0.2,0.5,0.3,1,0.3,1.5
		c0,0.6-0.1,1.2-0.4,1.6c-0.2,0.5-0.6,0.8-1,1.1c-0.4,0.3-1,0.4-1.6,0.4H107.9z M112.1,41.5c0-0.4-0.1-0.8-0.2-1.1
		c-0.2-0.3-0.4-0.6-0.7-0.8c-0.3-0.2-0.7-0.3-1.1-0.3h-1.2v4.4h1.2c0.4,0,0.8-0.1,1.1-0.3c0.3-0.2,0.5-0.5,0.7-0.8
		C112,42.3,112.1,41.9,112.1,41.5"/>
	<path fill="none" stroke="#49535A" stroke-width="0.297" stroke-miterlimit="10" d="M107.9,44.6v-6.1h2.2c0.7,0,1.2,0.1,1.7,0.4
		c0.4,0.3,0.8,0.6,1,1.1c0.2,0.5,0.3,1,0.3,1.5c0,0.6-0.1,1.2-0.4,1.6c-0.2,0.5-0.6,0.8-1,1.1c-0.4,0.3-1,0.4-1.6,0.4H107.9z
		 M112.1,41.5c0-0.4-0.1-0.8-0.2-1.1c-0.2-0.3-0.4-0.6-0.7-0.8c-0.3-0.2-0.7-0.3-1.1-0.3h-1.2v4.4h1.2c0.4,0,0.8-0.1,1.1-0.3
		c0.3-0.2,0.5-0.5,0.7-0.8C112,42.3,112.1,41.9,112.1,41.5z"/>
	<polygon fill="#49535A" points="117.7,38.4 119.6,43.4 121.4,38.4 122.4,38.4 120,44.6 119.1,44.6 116.7,38.4 	"/>
	<polygon fill="none" stroke="#49535A" stroke-width="0.297" stroke-miterlimit="10" points="117.7,38.4 119.6,43.4 121.4,38.4 
		122.4,38.4 120,44.6 119.1,44.6 116.7,38.4 	"/>
	<polygon fill="#49535A" points="128.1,43.7 128.1,44.6 123.9,44.6 123.9,38.4 128,38.4 128,39.3 124.8,39.3 124.8,41 127.6,41 
		127.6,41.8 124.8,41.8 124.8,43.7 	"/>
	<polygon fill="none" stroke="#49535A" stroke-width="0.297" stroke-miterlimit="10" points="128.1,43.7 128.1,44.6 123.9,44.6 
		123.9,38.4 128,38.4 128,39.3 124.8,39.3 124.8,41 127.6,41 127.6,41.8 124.8,41.8 124.8,43.7 	"/>
	<polygon fill="#49535A" points="130.7,40.2 130.7,44.6 129.8,44.6 129.8,38.4 130.6,38.4 134,42.9 134,38.4 135,38.4 135,44.6 
		134.1,44.6 	"/>
	<polygon fill="none" stroke="#49535A" stroke-width="0.297" stroke-miterlimit="10" points="130.7,40.2 130.7,44.6 129.8,44.6 
		129.8,38.4 130.6,38.4 134,42.9 134,38.4 135,38.4 135,44.6 134.1,44.6 	"/>
	<polygon fill="#49535A" points="141.6,39.3 139.5,39.3 139.5,44.6 138.6,44.6 138.6,39.3 136.5,39.3 136.5,38.4 141.6,38.4 	"/>
	<polygon fill="none" stroke="#49535A" stroke-width="0.297" stroke-miterlimit="10" points="141.6,39.3 139.5,39.3 139.5,44.6 
		138.6,44.6 138.6,39.3 136.5,39.3 136.5,38.4 141.6,38.4 	"/>
	<path fill="#49535A" d="M145.6,44.6c-0.5,0-0.9-0.1-1.2-0.3c-0.3-0.2-0.6-0.4-0.8-0.7c-0.2-0.3-0.4-0.6-0.4-1
		c-0.1-0.4-0.1-0.8-0.1-1.1v-3.1h1v3.1c0,0.3,0,0.6,0.1,0.8c0.1,0.3,0.1,0.5,0.3,0.7c0.1,0.2,0.3,0.4,0.5,0.5
		c0.2,0.1,0.5,0.2,0.8,0.2c0.3,0,0.6-0.1,0.8-0.2c0.2-0.1,0.4-0.3,0.5-0.5c0.1-0.2,0.2-0.4,0.3-0.7c0.1-0.3,0.1-0.5,0.1-0.8v-3.1h1
		v3.1c0,0.4-0.1,0.8-0.2,1.2c-0.1,0.4-0.3,0.7-0.5,1c-0.2,0.3-0.5,0.5-0.8,0.7C146.5,44.5,146.1,44.6,145.6,44.6"/>
	<path fill="none" stroke="#49535A" stroke-width="0.297" stroke-miterlimit="10" d="M145.6,44.6c-0.5,0-0.9-0.1-1.2-0.3
		c-0.3-0.2-0.6-0.4-0.8-0.7c-0.2-0.3-0.4-0.6-0.4-1c-0.1-0.4-0.1-0.8-0.1-1.1v-3.1h1v3.1c0,0.3,0,0.6,0.1,0.8
		c0.1,0.3,0.1,0.5,0.3,0.7c0.1,0.2,0.3,0.4,0.5,0.5c0.2,0.1,0.5,0.2,0.8,0.2c0.3,0,0.6-0.1,0.8-0.2c0.2-0.1,0.4-0.3,0.5-0.5
		c0.1-0.2,0.2-0.4,0.3-0.7c0.1-0.3,0.1-0.5,0.1-0.8v-3.1h1v3.1c0,0.4-0.1,0.8-0.2,1.2c-0.1,0.4-0.3,0.7-0.5,1
		c-0.2,0.3-0.5,0.5-0.8,0.7C146.5,44.5,146.1,44.6,145.6,44.6z"/>
	<path fill="#49535A" d="M150.3,44.6v-6.1h2.7c0.3,0,0.5,0.1,0.8,0.2c0.2,0.1,0.4,0.3,0.6,0.5c0.2,0.2,0.3,0.4,0.4,0.6
		c0.1,0.2,0.1,0.5,0.1,0.7c0,0.3,0,0.5-0.1,0.8c-0.1,0.2-0.2,0.5-0.4,0.6c-0.2,0.2-0.4,0.3-0.6,0.4l1.4,2.3H154l-1.3-2.1h-1.4v2.1
		H150.3z M151.2,41.6h1.7c0.2,0,0.3-0.1,0.5-0.2c0.1-0.1,0.2-0.2,0.3-0.4c0.1-0.2,0.1-0.4,0.1-0.6c0-0.2,0-0.4-0.1-0.6
		c-0.1-0.2-0.2-0.3-0.4-0.4c-0.1-0.1-0.3-0.2-0.5-0.2h-1.6V41.6z"/>
	<path fill="none" stroke="#49535A" stroke-width="0.297" stroke-miterlimit="10" d="M150.3,44.6v-6.1h2.7c0.3,0,0.5,0.1,0.8,0.2
		c0.2,0.1,0.4,0.3,0.6,0.5c0.2,0.2,0.3,0.4,0.4,0.6c0.1,0.2,0.1,0.5,0.1,0.7c0,0.3,0,0.5-0.1,0.8c-0.1,0.2-0.2,0.5-0.4,0.6
		c-0.2,0.2-0.4,0.3-0.6,0.4l1.4,2.3H154l-1.3-2.1h-1.4v2.1H150.3z M151.2,41.6h1.7c0.2,0,0.3-0.1,0.5-0.2c0.1-0.1,0.2-0.2,0.3-0.4
		c0.1-0.2,0.1-0.4,0.1-0.6c0-0.2,0-0.4-0.1-0.6c-0.1-0.2-0.2-0.3-0.4-0.4c-0.1-0.1-0.3-0.2-0.5-0.2h-1.6V41.6z"/>
	<polygon fill="#49535A" points="160.8,43.7 160.8,44.6 156.6,44.6 156.6,38.4 160.8,38.4 160.8,39.3 157.6,39.3 157.6,41 160.4,41 
		160.4,41.8 157.6,41.8 157.6,43.7 	"/>
	<polygon fill="none" stroke="#49535A" stroke-width="0.297" stroke-miterlimit="10" points="160.8,43.7 160.8,44.6 156.6,44.6 
		156.6,38.4 160.8,38.4 160.8,39.3 157.6,39.3 157.6,41 160.4,41 160.4,41.8 157.6,41.8 157.6,43.7 	"/>
</g>
</svg>
