<?xml version="1.0" encoding="utf-8"?>
<!-- Generator: Adobe Illustrator 28.3.0, SVG Export Plug-In . SVG Version: 6.00 Build 0)  -->
<svg version="1.2" baseProfile="tiny" xmlns="http://www.w3.org/2000/svg" xmlns:xlink="http://www.w3.org/1999/xlink" x="0px"
	 y="0px" viewBox="0 0 32.4 37.5" overflow="visible" xml:space="preserve">
<g id="Layer_2">
	<g>
		<g>
			<g>
				<path fill="#FFFFFF" d="M12.5,1.2H5.7c-1.4,0-2.5,1.1-2.5,2.5v11.2c0,1.4,1.1,2.5,2.5,2.5h6.8c1.4,0,2.5-1.1,2.5-2.5V3.6
					C15,2.3,13.9,1.2,12.5,1.2z"/>
				<path fill="#FFFFFF" d="M26.7,1.2h-6.8c-1.4,0-2.5,1.1-2.5,2.5v11.2c0,1.4,1.1,2.5,2.5,2.5h6.8c1.4,0,2.5-1.1,2.5-2.5V3.6
					C29.2,2.3,28.1,1.2,26.7,1.2z"/>
				<path fill="#FFFFFF" d="M12.5,20H5.7c-1.4,0-2.5,1.1-2.5,2.5v11.2c0,1.4,1.1,2.5,2.5,2.5h6.8c1.4,0,2.5-1.1,2.5-2.5V22.4
					C15,21.1,13.9,20,12.5,20z"/>
				<path fill="#FFFFFF" d="M26.7,20h-6.8c-1.4,0-2.5,1.1-2.5,2.5v11.2c0,1.4,1.1,2.5,2.5,2.5h6.8c1.4,0,2.5-1.1,2.5-2.5V22.4
					C29.2,21.1,28.1,20,26.7,20z"/>
			</g>
		</g>
	</g>
</g>
<g id="Layer_3">
</g>
</svg>
