<?xml version="1.0" encoding="utf-8"?>
<!-- Generator: Adobe Illustrator 28.3.0, SVG Export Plug-In . SVG Version: 6.00 Build 0)  -->
<svg version="1.2" baseProfile="tiny" xmlns="http://www.w3.org/2000/svg" xmlns:xlink="http://www.w3.org/1999/xlink" x="0px"
	 y="0px" viewBox="0 0 32.4 37.5" overflow="visible" xml:space="preserve">
<g id="Layer_2">
	<g>
		<path fill="#B4B4B4" d="M30.8,6.8L14,0.2c-1.3-0.5-2.8,0.1-3.3,1.4L0.2,27.5c-0.5,1.3,0.1,2.7,1.4,3.3l16.8,6.6
			c1.3,0.5,2.8-0.1,3.3-1.4l10.5-25.9C32.8,8.8,32.1,7.3,30.8,6.8z"/>
		<path fill="#828385" d="M28.4,4.4L10.6,0.9c-1.4-0.3-2.7,0.6-3,2L2.1,30.2c-0.3,1.4,0.6,2.7,2,2.9l17.8,3.5c1.4,0.3,2.7-0.6,3-2
			l5.5-27.4C30.6,6,29.7,4.6,28.4,4.4z"/>
		<path fill="#4A525A" d="M25.3,2.3H7.2c-1.4,0-2.5,1.1-2.5,2.5v27.9c0,1.4,1.1,2.5,2.5,2.5h18.1c1.4,0,2.5-1.1,2.5-2.5V4.8
			C27.8,3.4,26.7,2.3,25.3,2.3z"/>
	</g>
</g>
<g id="Layer_3">
</g>
</svg>
