<?xml version="1.0" encoding="UTF-8"?>
<svg id="Layer_1" data-name="Layer 1" xmlns="http://www.w3.org/2000/svg" version="1.1" viewBox="0 0 22 22">
  <defs>
    <style>
      .cls-1 {
        fill: #000;
        stroke-width: 0px;
      }
    </style>
  </defs>
  <path class="cls-1" d="M20.3,19.3h-.7c-.7-3.4-3.1-6.1-6.2-7.5v-1.6c3.1-1.4,5.5-4.2,6.2-7.5h.7c.4,0,.8-.4.8-.8s-.4-.8-.8-.8h-1.6c-.5,0-.9.3-1,.8-.5,3.9-3.2,7.1-6.8,8.4-3.6-1.5-6.1-4.6-6.7-8.4,0-.5-.4-.8-.9-.8h-1.6c-.4,0-.8.3-.8.8s.4.8.8.8h.7c.7,3.4,3.1,6.1,6.2,7.5v1.6c-3.1,1.4-5.5,4.2-6.2,7.5h-.7c-.4,0-.8.4-.8.8s.4.8.8.8h1.6c.5,0,.9-.3,1-.8.5-3.9,3.2-7.1,6.8-8.4,3.6,1.5,6.1,4.6,6.7,8.4,0,.5.4.8.9.8h1.6c.4,0,.8-.3.8-.8s-.4-.8-.8-.8Z"/>
</svg>