<svg version="1.2" xmlns="http://www.w3.org/2000/svg" viewBox="0 0 20 13" width="20" height="13">
	<title>down-arrow-svg</title>
	<style>
		.s0 { fill: #000000 } 
	</style>
	<path id="Layer" class="s0" d="m9.3 8.7c-1.4-3.1-4.2-5.5-7.5-6.2v-1.7c0-0.4-0.4-0.8-0.8-0.8-0.4 0-0.8 0.4-0.8 0.8v2.4 0.1 0.1c0 0.5 0.3 0.9 0.8 1 4.4 0.6 7.9 4 8.9 8.3 0 0.1 0.2 0.1 0.3 0 1.1-4.4 4.6-7.7 9-8.4 0.5 0 0.8-0.4 0.8-0.9v-0.1-0.1-2.4c0-0.4-0.3-0.8-0.8-0.8-0.4 0-0.8 0.4-0.8 0.8v1.7c-3.4 0.7-6.1 3.1-7.5 6.2"/>
</svg>