<?xml version="1.0" encoding="utf-8"?>
<!-- Generator: Adobe Illustrator 28.2.0, SVG Export Plug-In . SVG Version: 6.00 Build 0)  -->
<svg version="1.2" baseProfile="tiny" id="Layer_1" xmlns="http://www.w3.org/2000/svg" xmlns:xlink="http://www.w3.org/1999/xlink"
	 x="0px" y="0px" viewBox="0 0 136.7 131.9" overflow="visible" xml:space="preserve">
<g>
	<path fill="none" d="M79.1,105.9L79.1,105.9c13.3-4.2,22.1-10.1,28.2-18.6c0.9-1.2,1.6-2.4,2.4-3.6c-0.7,1.2-1.5,2.4-2.4,3.6
		C101.2,95.9,92.5,101.8,79.1,105.9z"/>
	<path fill="none" d="M46.1,120.2c-7.8-2-13.9-6.6-19.3-12.1C17.8,98.9,12,88,10,75.2c-2-12.9,0.9-25,7.5-36.4c0,0,0,0,0,0
		C10.8,50.2,8,62.3,10,75.2c2,12.7,7.8,23.7,16.8,32.9C32.2,113.7,38.2,118.3,46.1,120.2c5.7,1.4,11.3,2.9,17.3,2.4
		c8.3-0.7,16.4-2.8,24.4-5.2l0,0c-8,2.4-16,4.5-24.4,5.2C57.4,123.1,51.7,121.7,46.1,120.2z"/>
	<path fill="none" d="M55,107.8c-11-1.7-18.7-8-24-17.3c-1-1.8-1.7-3.8-2.5-5.7c-0.7-1.9-0.5-3.5,0.3-4.7c-0.8,1.2-1,2.8-0.3,4.7
		c0.7,1.9,1.5,3.9,2.5,5.7C36.3,99.9,44,106.2,55,107.8c8.9,1.4,17.6,0,24.1-1.9l0,0C72.6,107.8,63.9,109.2,55,107.8z"/>
	<path fill="none" d="M82.7,41.6c3.7-1.1,7.3,0.8,8.4,4.5c0.9,3-0.9,6.4-3.8,7.7c3-1.3,4.7-4.7,3.8-7.7
		C90.1,42.4,86.5,40.5,82.7,41.6L82.7,41.6c-0.4,0.1-0.8,0.3-1.2,0.5C81.9,42,82.3,41.8,82.7,41.6L82.7,41.6z"/>
	<path fill="none" d="M104.6,110.8c-5.3,2.9-11.1,4.7-16.8,6.6l0,0C93.5,115.5,99.2,113.7,104.6,110.8c11.5-6.2,18.7-15,21.4-26.6
		C123.3,95.8,116.1,104.6,104.6,110.8z"/>
	<path fill="none" d="M52.8,58.1c0.9,3.2-1.2,6.9-4.5,7.9c-2.3,0.7-4.6,0.2-6.3-1.2c1.7,1.4,4,1.9,6.3,1.2
		C51.6,65,53.8,61.3,52.8,58.1c-0.8-2.8-3-4.5-5.7-4.8C49.8,53.6,52,55.4,52.8,58.1z"/>
	<path fill="none" d="M105.5,60.8c-0.1-0.9-0.4-1.9-0.6-2.8c-0.2-1.1-0.1-2.1,0.2-2.9c-0.3,0.9-0.4,1.9-0.2,2.9
		C105.1,58.9,105.4,59.9,105.5,60.8c0.8,8.1-1.1,15.1-5.5,21.1C104.3,75.9,106.3,68.9,105.5,60.8z"/>
	<path fill="#020201" d="M136.2,61.8c-1.2-10.3-3.3-20.3-8-29.7C121,17.7,109.5,7.6,93.7,3.1C75.9-2,58-0.6,40.6,6
		c-1.3,0.5-3,0.8-3.6,2.1c-0.8,1.7-2.2,2.3-3.7,3c-1.8,0.9-3.5,1.9-5.2,3.1C17.5,21.6,9.9,31.3,5.1,43.1
		c-5.5,13.2-6.6,26.7-2.9,40.4c3.1,11.6,8.9,21.8,17.3,30.5c6.4,6.6,13.5,12.1,22.7,14.7c6.8,1.9,13.7,3.6,21,3.1
		c9.3-0.7,18.3-2.9,24.4-4.7c11.9-3.7,18.8-6.5,24-9.7c12-7.3,20.2-17.2,23.5-30.7C137,78.4,137.1,70.1,136.2,61.8z M127.2,76.6
		c-0.2,2.7-0.6,5.2-1.1,7.6c-2.7,11.6-10,20.4-21.4,26.6c-5.3,2.9-11.1,4.7-16.8,6.6l0,0c-8,2.4-16,4.5-24.4,5.2
		c-6,0.5-11.7-0.9-17.3-2.4c-7.8-2-13.9-6.6-19.3-12.1C17.8,98.9,12,88,10,75.2c-2-12.9,0.9-25,7.5-36.4c0,0,0,0,0,0c0,0,0,0,0,0
		c5.4-9.2,12.9-16.3,22.6-20.9c1.9-0.9,4-1.7,6-2.3c1.3-0.4,2.4-1.1,2.9-2.3c0.3-0.7,0.8-1,1.6-1.2c9.1-2.4,18.4-3.2,27.7-2.6
		c13.7,0.9,25.3,6.2,34.4,16.2c4.1,4.6,7.2,9.9,9.2,15.6C125.9,52.7,128,64.4,127.2,76.6z"/>
	<path fill="#FDDD00" d="M122,41.4c-2-5.8-5.1-11.1-9.2-15.6c-9.1-10-20.6-15.3-34.4-16.2C69,8.9,59.8,9.7,50.7,12.1
		c-0.7,0.2-1.2,0.5-1.6,1.2c-0.6,1.2-1.6,2-2.9,2.3c-2.1,0.6-4.1,1.3-6,2.3c-9.8,4.7-17.3,11.7-22.6,20.9C10.8,50.2,8,62.3,10,75.2
		c2,12.7,7.8,23.7,16.8,32.9c5.4,5.5,11.5,10.2,19.3,12.1c5.7,1.4,11.3,2.9,17.3,2.4c8.3-0.7,16.4-2.8,24.4-5.2l0,0
		c5.7-1.9,11.4-3.7,16.8-6.6c11.5-6.2,18.7-15,21.4-26.6c0.6-2.4,1-5,1.1-7.6C128,64.5,125.9,52.7,122,41.4z M81.5,42.2
		c0.4-0.2,0.8-0.4,1.2-0.5l0,0c3.7-1.1,7.3,0.8,8.4,4.5c0.9,3-0.9,6.4-3.8,7.7c-0.2,0.1-0.4,0.2-0.6,0.2c-3.6,1.1-7.4-0.8-8.5-4.4
		C77.3,46.8,78.8,43.6,81.5,42.2z M44.4,53.6L44.4,53.6c0.9-0.3,1.9-0.4,2.7-0.3c2.6,0.3,4.9,2,5.7,4.8c0.9,3.2-1.2,6.9-4.5,7.9
		c-2.3,0.7-4.6,0.2-6.3-1.2c-1-0.8-1.8-1.9-2.2-3.3C38.9,58.4,41,54.6,44.4,53.6z M109.7,83.7c-0.7,1.2-1.5,2.4-2.4,3.6
		c-6.1,8.5-14.9,14.5-28.2,18.6l0,0c0,0,0,0,0,0l0,0c-6.6,1.9-15.3,3.2-24.1,1.9c-11-1.7-18.7-8-24-17.3c-1-1.8-1.7-3.8-2.5-5.7
		c-0.7-1.9-0.5-3.5,0.3-4.7c0.6-0.9,1.5-1.6,2.6-1.9c2.7-0.9,5.1,0.5,6.1,3.7c1.3,4,3.4,7.5,6.4,10.5c4.6,4.6,10.3,6.8,17,6.9
		c11.6,0,22.5-2.6,31.8-9.8c2.9-2.3,5.4-4.8,7.4-7.5c4.3-6,6.3-13,5.5-21.1c-0.1-0.9-0.4-1.9-0.6-2.8c-0.2-1.1-0.1-2.1,0.2-2.9
		c0,0,0,0,0-0.1c0.1-0.3,0.2-0.5,0.4-0.7c0.6-1,1.7-1.7,3.1-2c2.5-0.6,4.8,1,5.5,3.7C116.4,65.9,114.7,75.1,109.7,83.7z"/>
	<path fill="#FDDD00" d="M112.8,25.7c-9.1-10-20.6-15.3-34.4-16.2c-9.3-0.6-18.6,0.1-27.7,2.6c-0.7,0.2-1.2,0.5-1.6,1.2
		c-0.6,1.2-1.6,2-2.9,2.3c-2.1,0.6-4.1,1.3-6,2.3c-9.8,4.7-17.3,11.7-22.6,20.9c0,0,0,0,0,0c5.4-9.2,12.9-16.3,22.6-20.9
		c1.9-0.9,4-1.7,6-2.3c1.3-0.4,2.4-1.1,2.9-2.3c0.3-0.7,0.8-1,1.6-1.2C59.8,9.7,69,8.9,78.4,9.5C92.1,10.4,103.7,15.7,112.8,25.7
		c4.1,4.6,7.2,9.9,9.2,15.6c4,11.4,6,23.1,5.2,35.2c-0.2,2.7-0.6,5.2-1.1,7.6c0.6-2.4,1-5,1.1-7.6c0.8-12.1-1.2-23.8-5.2-35.2
		C119.9,35.6,116.9,30.3,112.8,25.7z"/>
	<path fill="#020200" d="M114,55.9c-0.7-2.7-3-4.3-5.5-3.7c-1.4,0.3-2.4,1-3.1,2c-0.1,0.2-0.3,0.5-0.4,0.7c0,0,0,0,0,0.1
		c-0.3,0.9-0.4,1.9-0.2,2.9c0.2,0.9,0.5,1.9,0.6,2.8c0.8,8.1-1.1,15.1-5.5,21.1c-2,2.7-4.4,5.2-7.4,7.5c-9.3,7.2-20.2,9.8-31.8,9.8
		c-6.7,0-12.3-2.2-17-6.9c-3-3-5.1-6.5-6.4-10.5c-1-3.1-3.4-4.5-6.1-3.7c-1,0.3-2,1-2.6,1.9c-0.8,1.2-1,2.8-0.3,4.7
		c0.7,1.9,1.4,3.9,2.5,5.7c5.3,9.3,12.9,15.6,24,17.3c8.9,1.4,17.6,0,24.1-1.9l0,0c0,0,0,0,0,0l0,0c13.3-4.2,22.1-10.1,28.2-18.6
		c0.8-1.2,1.6-2.4,2.4-3.6C114.7,75.1,116.4,65.9,114,55.9z"/>
	<path fill="#020200" d="M31.4,78.2c2.7-0.9,5.1,0.5,6.1,3.7c1.3,4,3.4,7.5,6.4,10.5c4.6,4.6,10.3,6.8,17,6.9
		c11.6,0,22.5-2.6,31.8-9.8c2.9-2.3,5.4-4.8,7.4-7.5c-2,2.7-4.4,5.2-7.4,7.5c-9.3,7.2-20.2,9.8-31.8,9.8c-6.7,0-12.3-2.2-17-6.9
		c-3-3-5.1-6.5-6.4-10.5C36.5,78.7,34.1,77.3,31.4,78.2c-1,0.3-2,1-2.6,1.9C29.4,79.2,30.4,78.5,31.4,78.2z"/>
	<polygon fill="#020200" points="79.1,105.9 79.1,105.9 79.1,105.9 79.1,105.9 	"/>
	<path fill="none" stroke="#020200" stroke-width="0" stroke-linecap="round" stroke-linejoin="round" d="M105.1,55.1
		C105.1,55,105.1,55,105.1,55.1"/>
	<path fill="#020200" d="M108.5,52.2c-1.4,0.3-2.4,1-3.1,2C106.1,53.2,107.1,52.5,108.5,52.2c2.5-0.6,4.8,1,5.5,3.7
		c2.4,10,0.7,19.2-4.3,27.8c5-8.6,6.8-17.8,4.3-27.8C113.3,53.2,111,51.6,108.5,52.2z"/>
	<path fill="#020200" d="M44.4,53.6L44.4,53.6c-3.4,1-5.6,4.7-4.6,8c0.4,1.4,1.2,2.5,2.2,3.3c1.7,1.4,4,1.9,6.3,1.2
		c3.3-1,5.4-4.7,4.5-7.9c-0.8-2.8-3-4.5-5.7-4.8C46.3,53.2,45.3,53.3,44.4,53.6z"/>
	<path fill="#020200" d="M42.1,64.9c-1-0.8-1.8-1.9-2.2-3.3c-1-3.2,1.1-6.9,4.6-8l0,0c0.9-0.3,1.9-0.4,2.7-0.3
		c-0.9-0.1-1.8,0-2.7,0.3l0,0c-3.4,1-5.6,4.7-4.6,8C40.3,62.9,41.1,64.1,42.1,64.9z"/>
	<path fill="#030200" d="M78.2,49.6c1.1,3.6,4.9,5.6,8.5,4.4c0.2-0.1,0.4-0.1,0.6-0.2c3-1.3,4.7-4.7,3.8-7.7
		c-1.1-3.7-4.7-5.6-8.4-4.5l0,0c-0.4,0.1-0.8,0.3-1.2,0.5C78.8,43.6,77.3,46.8,78.2,49.6z"/>
	<path fill="#030200" d="M86.7,54.1c0.2-0.1,0.4-0.1,0.6-0.2C87.1,53.9,86.9,54,86.7,54.1c-3.6,1.1-7.4-0.8-8.5-4.4
		c-0.9-2.8,0.6-6,3.3-7.5c-2.7,1.5-4.2,4.7-3.3,7.5C79.4,53.2,83.1,55.2,86.7,54.1z"/>
</g>
</svg>
