<?xml version="1.0" encoding="utf-8"?>
<!-- Generator: Adobe Illustrator 28.2.0, SVG Export Plug-In . SVG Version: 6.00 Build 0)  -->
<svg version="1.2" baseProfile="tiny" id="Layer_1" xmlns="http://www.w3.org/2000/svg" xmlns:xlink="http://www.w3.org/1999/xlink"
	 x="0px" y="0px" viewBox="0 0 28 28" overflow="visible" xml:space="preserve">
<path fill="#828282" d="M28,13.1c0-0.1-0.1-0.2-0.1-0.2c-0.1-0.1-0.2-0.1-0.2-0.2c-0.1,0-0.1,0-0.2-0.1c0,0-0.1,0-0.1,0c0,0,0,0,0,0
	c-0.2,0-0.4,0.1-0.5,0.2c0,0,0,0,0,0l-0.7,0.7l-0.5,0.5c0,0,0,0,0,0v0c-0.3-0.2-0.7-0.4-1-0.6c-0.1,0-0.2-0.1-0.3-0.1
	c-0.3-0.1-0.5-0.2-0.8-0.3c-0.1,0-0.2-0.1-0.3-0.1c-0.3-0.1-0.5-0.2-0.8-0.2c-0.1,0-0.2,0-0.3-0.1c-0.3-0.1-0.5-0.1-0.8-0.1
	c-0.1,0-0.2,0-0.4,0c-0.3,0-0.5,0-0.8,0c-0.1,0-0.3,0-0.4,0c-0.2,0-0.5,0-0.7,0c-0.2,0-0.3,0-0.5,0.1c-0.2,0-0.4,0.1-0.7,0.1
	c-0.2,0-0.3,0.1-0.5,0.1c-0.1,0-0.2,0-0.3,0.1l0,0c-0.2,0-0.3,0.1-0.5,0.1c-0.1,0-0.3,0-0.4-0.1c0,0,0,0,0,0l-0.2-0.2l-0.2-0.2
	l-0.4-0.4c0,0,0,0,0,0c-0.1-0.1-0.1-0.2-0.1-0.3l0,0c0.1-0.2,0.1-0.3,0.1-0.5l0,0c0-0.1,0.1-0.2,0.1-0.3c0-0.2,0.1-0.3,0.1-0.5
	c0-0.2,0.1-0.4,0.1-0.6c0-0.2,0-0.3,0.1-0.5c0-0.2,0-0.5,0-0.7c0-0.1,0-0.3,0-0.4c0-0.3,0-0.5,0-0.8c0-0.1,0-0.3,0-0.4
	c0-0.3-0.1-0.5-0.1-0.8c0-0.1,0-0.2-0.1-0.4c-0.1-0.3-0.1-0.5-0.2-0.8c0-0.1-0.1-0.2-0.1-0.3C15,4.3,14.9,4,14.8,3.8
	c0-0.1-0.1-0.2-0.1-0.3c-0.2-0.3-0.3-0.6-0.5-0.9c0,0,0-0.1,0-0.1l1.1-1.1c0.1-0.1,0.1-0.1,0.2-0.2c0,0,0,0,0,0c0-0.1,0-0.1,0.1-0.2
	c0,0,0,0,0-0.1c0-0.1,0-0.1,0-0.2c0-0.1-0.1-0.2-0.1-0.2c-0.1-0.1-0.2-0.1-0.2-0.2C15,0,14.9,0,14.8,0c0,0,0,0,0,0c0,0,0,0,0,0
	c-0.1,0-0.1,0-0.2,0c-0.1,0-0.3,0.1-0.4,0.2L12.4,2c-0.1,0.1-0.1,0.1-0.2,0.2c0,0,0,0,0,0c-0.1,0.3-0.1,0.5,0,0.8c0,0,0,0.1,0.1,0.1
	c0.3,0.4,0.6,0.8,0.8,1.2c0,0.1,0.1,0.2,0.1,0.2c0.5,0.9,0.8,1.8,1,2.7c0,0.1,0,0.1,0,0.2c0.1,0.5,0.1,1,0.2,1.4c0,0,0,0.1,0,0.1
	c0,0.4,0,0.8,0,1.3c0,0.1,0,0.2,0,0.3c-0.1,0.4-0.1,0.9-0.2,1.3c0,0.1-0.1,0.2-0.1,0.3c-0.1,0.4-0.2,0.7-0.4,1.1
	c0,0.1-0.1,0.2-0.1,0.3c-0.1,0-0.2,0.1-0.3,0.1c-0.3,0.1-0.7,0.2-1,0.3c-0.1,0-0.2,0.1-0.4,0.1c-0.4,0.1-0.8,0.2-1.3,0.2
	c-0.1,0-0.2,0-0.3,0c-0.4,0-0.8,0.1-1.3,0c0,0-0.1,0-0.1,0c-0.5,0-1-0.1-1.4-0.2c-0.1,0-0.1,0-0.2,0c-0.9-0.2-1.9-0.5-2.7-1
	c-0.1,0-0.2-0.1-0.2-0.1c-0.4-0.2-0.8-0.5-1.2-0.8c-0.3-0.2-0.6-0.2-0.9-0.1c0,0-0.1,0-0.1,0.1c-0.1,0-0.1,0.1-0.2,0.1c0,0,0,0,0,0
	l-0.1,0.1c0,0,0,0,0,0l-1.6,1.6C0,14.4,0,14.7,0,14.9c0,0.1,0.1,0.2,0.1,0.2c0.1,0.1,0.2,0.1,0.2,0.2c0.1,0,0.1,0,0.2,0.1
	c0,0,0.1,0,0.1,0c0,0,0.1,0,0.1,0l0.1,0.1l0.3-0.3c0,0,0,0,0,0L2,14.5l0.4-0.4c0,0,0,0,0,0v0c0,0,0,0,0,0c0.4,0.2,0.8,0.5,1.2,0.7
	c0.1,0.1,0.3,0.1,0.4,0.2c0.3,0.1,0.6,0.2,0.9,0.3c0.2,0.1,0.3,0.1,0.5,0.1c0.3,0.1,0.6,0.1,0.9,0.2c0.2,0,0.3,0.1,0.5,0.1
	c0.4,0.1,0.9,0.1,1.3,0.1c0,0,0,0,0.1,0c0.1,0,0.2,0,0.3,0c0.3,0,0.7,0,1-0.1c0.2,0,0.3,0,0.5-0.1c0.3-0.1,0.6-0.1,0.9-0.2
	c0.1,0,0.2,0,0.3-0.1l0,0c0.1,0,0.3-0.1,0.4-0.1c0.1,0,0.2,0,0.3,0c0.1,0,0.2,0.1,0.3,0.1l0.6,0.6c0,0,0,0,0,0
	c0.1,0.1,0.1,0.2,0.1,0.3c0,0.1,0,0.2,0,0.3l0,0c0,0.1-0.1,0.3-0.1,0.4l0,0c0,0.1-0.1,0.3-0.1,0.4c0,0.2-0.1,0.3-0.1,0.5
	c0,0.2-0.1,0.4-0.1,0.6c0,0.2,0,0.3-0.1,0.5c0,0.2,0,0.5,0,0.7c0,0.1,0,0.3,0,0.4c0,0.3,0,0.5,0.1,0.8c0,0.1,0,0.2,0,0.4
	c0,0.3,0.1,0.5,0.1,0.8c0,0.1,0,0.2,0.1,0.3c0.1,0.3,0.2,0.5,0.2,0.8c0,0.1,0.1,0.2,0.1,0.3c0.1,0.3,0.2,0.5,0.3,0.8
	c0,0.1,0.1,0.2,0.1,0.3c0.2,0.3,0.4,0.7,0.6,1h0c0,0,0,0,0,0l-1.1,1.1c-0.1,0.1-0.1,0.1-0.2,0.2c0,0,0,0,0,0c0,0.1-0.1,0.2-0.1,0.2
	c0,0,0,0,0,0c0,0.1,0,0.2,0,0.2c0,0.1,0.1,0.2,0.1,0.2c0.1,0.1,0.2,0.1,0.2,0.2c0.1,0,0.2,0.1,0.2,0.1c0,0,0,0,0.1,0c0,0,0,0,0,0
	c0.1,0,0.1,0,0.2,0c0,0,0.1,0,0.1,0c0.1,0,0.2-0.1,0.3-0.2l0.1-0.1l1.5-1.5c0,0,0,0,0.1-0.1l0,0l0.1-0.1c0,0,0,0,0,0c0,0,0,0,0,0
	l0,0c0,0,0.1-0.1,0.1-0.1c0.2-0.3,0.2-0.7,0-1c-0.3-0.4-0.6-0.8-0.8-1.2c0-0.1-0.1-0.2-0.1-0.2c-0.5-0.9-0.8-1.8-1-2.7
	c0-0.1,0-0.1,0-0.2c-0.1-0.5-0.1-1-0.2-1.4c0,0,0-0.1,0-0.1c0-0.4,0-0.9,0-1.3c0-0.1,0-0.2,0-0.3c0-0.4,0.1-0.8,0.2-1.3
	c0-0.1,0.1-0.2,0.1-0.4c0.1-0.3,0.2-0.7,0.3-1c0-0.1,0.1-0.2,0.1-0.3c0.1,0,0.2-0.1,0.3-0.1c0.3-0.1,0.7-0.3,1-0.3
	c0.1,0,0.2-0.1,0.3-0.1c0.4-0.1,0.9-0.2,1.3-0.2c0.1,0,0.2,0,0.3,0c0.4,0,0.8-0.1,1.3,0c0,0,0.1,0,0.1,0c0.5,0,1,0.1,1.4,0.2
	c0.1,0,0.1,0,0.2,0c0.9,0.2,1.8,0.5,2.7,1c0.1,0,0.2,0.1,0.2,0.1c0.4,0.2,0.8,0.5,1.2,0.8c0,0,0,0,0,0c0.1,0.1,0.2,0.1,0.3,0.1
	c0,0,0.1,0,0.1,0c0.1,0,0.1,0,0.2,0c0,0,0,0,0,0c0.1,0,0.2,0,0.2,0c0,0,0.1,0,0.1,0c0.1,0,0.2-0.1,0.3-0.2c0,0,0,0,0,0l0.1-0.1
	c0,0,0,0,0,0l1.6-1.6C28,13.6,28,13.3,28,13.1z"/>
</svg>
