<?xml version="1.0" encoding="utf-8"?>
<!-- Generator: Adobe Illustrator 28.2.0, SVG Export Plug-In . SVG Version: 6.00 Build 0)  -->
<svg version="1.2" baseProfile="tiny" id="Layer_1" xmlns="http://www.w3.org/2000/svg" xmlns:xlink="http://www.w3.org/1999/xlink"
	 x="0px" y="0px" viewBox="0 0 120 120" overflow="visible" xml:space="preserve">
<g>
	<linearGradient id="SVGID_1_" gradientUnits="userSpaceOnUse" x1="13.4618" y1="64.1864" x2="109.7771" y2="55.5988">
		<stop  offset="0" style="stop-color:#FF9B28"/>
		<stop  offset="1" style="stop-color:#FFC100"/>
	</linearGradient>
	<path fill="url(#SVGID_1_)" d="M103.7,20.7c-10.3-4.4-20.9-9-33.2-14.3L62.6,3c-1.8-0.7-3.5-0.7-5.2,0
		c-9.9,4.4-23.7,10.3-40.8,17.6c-2.5,1-3.6,2.8-3.6,5.6c0.1,2.7,0,5.4,0,8c0,1.3,0,2.6,0,3.9v10c0,0.9,0,1.8,0,2.7
		c0,2.8,0,5.6,0.1,8.5c0.5,13.5,5.7,24.7,15.4,33.3c6.3,5.5,12.6,10.7,19.7,16.6c1.4,1.1,2.7,2.3,4.1,3.4c1.3,1.1,2.7,2.2,4,3.4
		c1.5,1.3,2.7,1.9,3.8,1.9c1.2,0,2.3-0.6,3.8-1.8l2.5-2.2c3.9-3.2,7.8-6.5,11.6-9.7c4-3.3,7.9-6.6,11.9-9.9
		c11.2-9.4,17-21.6,17.2-36V25.9C107.1,23.4,106,21.7,103.7,20.7z M57.5,114.3c-1.4-1.1-2.7-2.2-4.1-3.4c-1.3-1.1-2.7-2.3-4.1-3.4
		c-1.4-1.2-2.8-2.4-4.3-3.6c-5.1-4.2-10.3-8.5-15.3-13c-9.3-8.3-14.3-19-14.8-31.8c-0.1-3.7-0.1-7.5-0.1-11.1V26.1
		c0-1.9,0.7-3,2.4-3.7C34.5,15.1,48.2,9.2,58.1,4.9c0.6-0.3,1.2-0.4,1.8-0.4c0.6,0,1.2,0.1,1.9,0.4c7.2,3.1,13.8,5.9,20.1,8.6
		c7.4,3.2,14.2,6.1,20.9,9c1.6,0.7,2.2,1.7,2.2,3.5v12c0,6.6,0,13.4-0.1,20.1v0c-0.2,14-5.7,25.6-16.5,34.6
		c-3.9,3.3-7.9,6.6-11.8,9.8c-3.9,3.2-7.8,6.5-11.7,9.7l-2.5,2.2C60.4,116.1,59.7,116.1,57.5,114.3z"/>
	
		<linearGradient id="SVGID_00000114060653305355477400000009688348526351331465_" gradientUnits="userSpaceOnUse" x1="34.6328" y1="58.6788" x2="89.1064" y2="53.8219">
		<stop  offset="0" style="stop-color:#FF9B28"/>
		<stop  offset="1" style="stop-color:#FFC100"/>
	</linearGradient>
	<path fill="url(#SVGID_00000114060653305355477400000009688348526351331465_)" d="M87.5,40l0.3-0.5l-1.8-1L85.8,39
		c-0.4,0.6-0.9,1.1-1.4,1.6L56.9,68.1c-3.3,3.3-4.8,3.3-8.1,0l-1.5-1.6L35.8,55l-1.4,1.4l13.1,13.1c2.2,2.2,3.8,3.1,5.4,3.1
		s3.3-0.9,5.4-3.1l27.1-27.1C86.2,41.6,86.9,40.9,87.5,40z"/>
</g>
</svg>
