<?xml version="1.0" encoding="utf-8"?>
<!-- Generator: Adobe Illustrator 28.2.0, SVG Export Plug-In . SVG Version: 6.00 Build 0)  -->
<svg version="1.2" baseProfile="tiny" id="Layer_1" xmlns="http://www.w3.org/2000/svg" xmlns:xlink="http://www.w3.org/1999/xlink"
	 x="0px" y="0px" viewBox="0 0 698 358.9" overflow="visible" xml:space="preserve">
<path d="M696,177c0,0-0.1,0-0.1,0c-77.2-18.3-136.6-82.5-147.6-162.3C547.1,6.3,540,0,531.5,0c-0.6,0-1.3,0-1.9,0.1
	C529.1,0,528.5,0,528,0h-42.3c-7.7,0-14,6.3-14,14c0,7.7,6.3,14,14,14h30.6c12.8,61,48.3,111.5,103.7,136.8H15.2
	c-8.1,0-15,6.3-15.2,14.4c-0.2,8.2,6.5,15,14.7,15H620c-55.4,25.3-90.8,75.7-103.7,136.8h-30.6c-7.7,0-14,6.3-14,14
	c0,7.7,6.3,14,14,14H528c0.6,0,1.1,0,1.6-0.1c0.6,0.1,1.2,0.1,1.9,0.1c8.5,0,15.6-6.3,16.8-14.7c11-79.7,70.4-144,147.6-162.3
	c0,0,0.1,0,0.1,0C698.6,181.3,698.6,177.6,696,177L696,177z"/>
</svg>
