<?xml version="1.0" encoding="utf-8"?>
<!-- Generator: Adobe Illustrator 28.2.0, SVG Export Plug-In . SVG Version: 6.00 Build 0)  -->
<svg version="1.2" baseProfile="tiny" id="Layer_1" xmlns="http://www.w3.org/2000/svg" xmlns:xlink="http://www.w3.org/1999/xlink"
	 x="0px" y="0px" viewBox="0 0 452.5 405" overflow="visible" xml:space="preserve">
<g>
	<g>
		<path fill="#4A525A" d="M452.5,242.9c-3.6,7.6-9.7,9.8-17.9,9.8c-139.3-0.2-278.6-0.1-417.9-0.2c-2.6,0-5.4-0.1-7.8-0.9
			c-5.8-1.8-9.5-7.9-8.7-13.8c0.7-6.2,5.7-11.2,11.9-11.7c1.9-0.2,3.8-0.1,5.8-0.1c124.3,0,248.6,0,372.9,0h5.9
			c0.1-1.2,0.2-2.1,0.2-2.9c0-54.2,0.1-108.4,0-162.6c0-19.7-15.9-34.9-35.2-34.1c-9.5,0.4-18.4,4.9-26.5,13.5
			c6.6,14,7.5,28.3,0.7,42.5c-2.4,5-5.7,9.6-9.4,13.7c-6.2,6.9-12.9,13.3-19.6,19.8c-6.2,6.1-13.8,6.2-20,0.1
			c-16.3-16.2-32.6-32.4-48.7-48.7c-6.2-6.2-6.2-13.8-0.1-19.9c6.5-6.6,13-13.2,19.7-19.7c15.5-14.8,36.6-18.2,55.9-8.7
			c2.6,1.3,4,0.6,5.7-1c9.1-8,19.1-14.2,31.1-16.8c37.1-8.1,72.6,20.1,72.8,58.3c0.2,48.9,0.1,97.8,0.1,146.7c0,6.3,0,12.7,0,19.7
			c4.1,0,8,0.3,11.9-0.1c8.1-0.7,13.9,2.3,17.3,9.8V242.9L452.5,242.9z"/>
		<path fill="#4A525A" d="M152,405c-18.6,0.2-37.1-4.2-53.2-13.6c-0.7-0.4-1.4-0.8-2.1-1.2c-32.1-19.8-50.2-49.2-56.1-86.3
			c-1.3-8.1-2.9-16.2-4.4-24.6h379.9c-4.4,23.4-6.7,47.1-19,68.1c-4.5,7.7-9.6,14.8-15.3,21.1c-19.5,21.8-47.4,34.1-76.7,34.5
			L152,405z"/>
		<path fill="#4A525A" d="M184.2,139.5c-5.7-0.4-9.6-2.6-12-7.1c-2.4-4.5-2.6-9.3,0.6-13.3c3-3.9,6.6-7.5,10.5-10.6
			c4.7-3.8,11.3-3.3,15.9,0.3c4.4,3.5,7,10.4,3.8,15c-3.8,5.5-9.3,9.9-14.2,14.6C187.6,139.4,185.4,139.3,184.2,139.5L184.2,139.5z"
			/>
		<path fill="#4A525A" d="M260.7,126.6c-0.2,0.9-0.2,2.1-0.7,3.1c-3.3,7.4-8.6,12.9-16,16.1c-5.1,2.1-10.8,0-14.1-4.4
			c-3.4-4.4-4.1-10.5-0.8-14.8c3.2-4.1,7-8,11.1-11.3c4.1-3.2,9-3.2,13.7-0.6C258.4,117.2,260.4,121.2,260.7,126.6L260.7,126.6z"/>
		<path fill="#4A525A" d="M184.2,196.1c-5.7-0.4-9.6-2.6-12-7.2c-2.5-4.7-2.5-9.5,0.9-13.7c2.9-3.6,6.3-7,9.9-10
			c4.8-3.9,11.5-3.6,16.3,0.2c4.4,3.5,6.9,10.4,3.7,15c-3.8,5.5-9.3,9.9-14.3,14.5C187.6,195.9,185.3,195.8,184.2,196.1L184.2,196.1
			z"/>
	</g>
</g>
</svg>
