<?xml version="1.0" encoding="utf-8"?>
<!-- Generator: Adobe Illustrator 28.2.0, SVG Export Plug-In . SVG Version: 6.00 Build 0)  -->
<svg version="1.2" baseProfile="tiny" id="Layer_1" xmlns="http://www.w3.org/2000/svg" xmlns:xlink="http://www.w3.org/1999/xlink"
	 x="0px" y="0px" viewBox="0 0 120 120" overflow="visible" xml:space="preserve">
<g>
	<linearGradient id="SVGID_1_" gradientUnits="userSpaceOnUse" x1="51.8551" y1="9.3822" x2="82.1389" y2="9.3822">
		<stop  offset="0" style="stop-color:#FF9B28"/>
		<stop  offset="1" style="stop-color:#FFC100"/>
	</linearGradient>
	<path fill="url(#SVGID_1_)" d="M51.9,3.8c0.1,0.8,0.2,1.5,0.5,2.1c0.9,2,2,3.9,2.9,5.9c0.6,1.2,1.2,2.3,1.8,3.5
		c0.5,1.1,1.4,1.4,2.3,1.6c2.3,0.5,4.6,0.7,6.9,0.7c3,0,6-0.4,9.1-1.2c0.5-0.1,0.9-0.5,1.1-0.8l0.8-1.5c1.3-2.3,2.6-4.6,3.8-7
		c0.4-0.9,0.7-1.9,0.9-2.8c0.1-0.4,0.2-0.8,0.3-1.2L82,2.9l0.3-0.4L81.7,2l0,0.1l0,0l-0.3,0.2c-2.3,1.2-4.5,1-7-0.6
		c-1.4-0.9-2.9-0.2-3.8,0.4C68.2,3.4,66,3.4,63.8,2c-1.7-1.1-3.3-1.1-4.9,0c-1.4,1-3,1.2-4.7,0.7c-0.3-0.1-0.7-0.2-1.1-0.4l-1.6-0.5
		l0.2,0.8C51.8,3.1,51.9,3.5,51.9,3.8z M54,3.7c1.9,0.6,3.8,0.3,5.5-0.8c1.3-0.9,2.4-0.9,3.8,0c2.5,1.6,5.2,1.5,7.7-0.1
		c1.2-0.8,2-0.9,2.7-0.4c2.6,1.7,5.1,2,7.6,0.9c-0.1,0.3-0.1,0.5-0.2,0.8c-0.2,0.9-0.4,1.8-0.8,2.6c-1.2,2.4-2.5,4.7-3.7,6.9
		l-0.9,1.5c-0.1,0.1-0.3,0.3-0.5,0.3c-5.4,1.4-10.5,1.5-15.6,0.4c-0.8-0.2-1.3-0.4-1.6-1.1c-0.6-1.2-1.2-2.3-1.8-3.5
		c-1-1.9-2-3.9-2.9-5.8C53.1,5,53,4.4,52.9,3.7c0-0.1,0-0.2,0-0.3C53.3,3.5,53.6,3.6,54,3.7z"/>
	
		<linearGradient id="SVGID_00000075852086759312163200000013565919760243688083_" gradientUnits="userSpaceOnUse" x1="4.5443" y1="94.3629" x2="116.4307" y2="94.3629">
		<stop  offset="0" style="stop-color:#FF9B28"/>
		<stop  offset="1" style="stop-color:#FFC100"/>
	</linearGradient>
	<path fill="url(#SVGID_00000075852086759312163200000013565919760243688083_)" d="M117.1,89.3c-0.9-2.1-2.9-3.1-5.1-2.6
		c-0.9,0.2-1.7,0.5-2.4,0.8l-11,4.8c-6.9,3.1-13.9,6.1-20.8,9.1c-0.7,0.3-1.5,0.5-2.2,0.5c-5.7,0-11.4,0-17,0l-1.7,0
		c-0.4,0-0.9,0-1.3-0.1c-0.6-0.2-0.9-0.6-0.8-1.3c0.1-0.6,0.4-1,1-1.1c0.3,0,0.6,0,0.9,0l0.2,0l16.5,0c0.3,0,0.6,0,0.9,0l1-0.1v-3
		c0-4.2-3-7.7-7.1-8.2C63,87.4,58,86.8,53,86.4c-6.3-0.5-10.8-1.9-14.7-4.3c-1.2-0.7-2.4-1.4-3.6-2l-0.6-0.3
		c-4.6-2.4-9.5-3.5-14.8-3.5l-1.8,0l1.3,0.8l0,1.3l0,2.8c0,2-1,2-1.3,2c-0.3,0-0.6-0.1-0.8-0.3c-0.3-0.3-0.5-0.9-0.5-1.7
		c0-1.1,0-2.2,0-3.3c0-1.9,0-3.7,0-5.6c0-1.7-0.8-2.5-2.5-2.5c-2.5,0-5.1,0-7.6,0c-1.6,0-2.5,0.8-2.5,2.4c0,13.9,0,27.8,0,41.8
		c0,1.6,0.8,2.4,2.4,2.4c2.5,0,5,0,7.5,0c1.9,0,2.7-0.8,2.7-2.7c0-2.5,0-5,0-7.5l0-6.5c0-3,0-6,0-9c0-0.5,0.1-1.6,1.3-1.7
		c0.3,0,0.6,0.1,0.9,0.3c0.3,0.3,0.5,0.8,0.5,1.4c0,0.2,0,0.4,0,0.6l0,0.3l0,4.1c0,4.4,0,8.7,0,13.1c0,1,0.4,1.5,1.3,1.9
		c2.1,0.8,4.2,1.6,6.3,2.3c3.9,1.5,8,3,12,4.4c2.3,0.8,4.7,1.2,6.9,1.3c4,0.1,8,0.1,12,0.1c2.1,0,4.3,0,6.4,0c2.1,0,4.3,0,6.4,0
		c0.6,0,1.2,0,1.9,0c3.8,0,7.2-1,10.2-2.9c11.1-7,22.2-14.1,33.3-21.1C117.2,93.7,117.9,91.4,117.1,89.3z M114.8,94
		c-11.1,7-22.2,14.1-33.3,21.1c-2.9,1.8-6.1,2.7-9.7,2.7c0,0,0,0,0,0c-2.8,0-5.5,0-8.3,0c-6,0-12.2,0-18.3-0.1
		c-2.1,0-4.4-0.4-6.6-1.2c-4-1.4-8-2.9-11.9-4.4c-2.1-0.8-4.2-1.6-6.3-2.4c-0.5-0.2-0.6-0.4-0.6-0.9c0-4.4,0-8.7,0-13.1l0-4.1l0-0.3
		c0-0.2,0-0.4,0-0.7c0-0.9-0.3-1.6-0.8-2.1c-0.4-0.4-0.9-0.6-1.5-0.6c0,0,0,0-0.1,0c-1.3,0-2.2,1.1-2.2,2.7c0,3,0,6,0,9l0,6.5
		c0,2.5,0,5,0,7.5c0,1.4-0.3,1.7-1.7,1.7c-2.5,0-5,0-7.5,0c-1.1,0-1.4-0.3-1.4-1.4c0-13.9,0-27.8,0-41.8c0-1,0.4-1.4,1.5-1.4
		c2.5,0,5.1,0,7.6,0c1.1,0,1.5,0.4,1.5,1.5c0,1.8,0,3.7,0,5.5c0,1.1,0,2.2,0,3.3c0,1.1,0.3,1.9,0.8,2.4c0.4,0.4,0.9,0.6,1.6,0.6
		c0.8,0,2.3-0.4,2.3-3l0-2.8l0-1c5,0,9.5,1.1,13.8,3.4l0.6,0.3c1.2,0.6,2.4,1.2,3.5,1.9c4,2.5,8.7,3.9,15.1,4.4
		c5,0.4,10,1.1,15.1,1.7c3.6,0.5,6.2,3.5,6.2,7.2v2l-0.1,0c-0.3,0-0.6,0-0.8,0l-16.5,0l-0.2,0c-0.3,0-0.7,0-1.1,0.1
		c-1.1,0.2-1.7,0.9-1.9,2c-0.1,1.2,0.4,2.1,1.5,2.4c0.5,0.2,1.1,0.2,1.6,0.2l1.7,0c5.6,0,11.3,0,17,0c0.9,0,1.8-0.2,2.6-0.6
		c7-3,13.9-6.1,20.8-9.2l11-4.8c0.6-0.3,1.4-0.6,2.2-0.8c1.8-0.4,3.2,0.4,3.9,2C116.8,91.3,116.3,93.1,114.8,94z"/>
	
		<linearGradient id="SVGID_00000160150746047105370360000000210241582788506038_" gradientUnits="userSpaceOnUse" x1="54.4508" y1="22.9481" x2="78.2758" y2="22.9481">
		<stop  offset="0" style="stop-color:#FF9B28"/>
		<stop  offset="1" style="stop-color:#FFC100"/>
	</linearGradient>
	<path fill="url(#SVGID_00000160150746047105370360000000210241582788506038_)" d="M74.9,19.2c-0.6,0.1-1.3,0.2-1.9,0.3
		c-1.8,0.3-3.6,0.6-5.4,0.6c-2.5,0-5.1-0.4-7.5-0.7c-0.8-0.1-1.6-0.2-2.5-0.3c-1.6-0.2-2.7,0.5-3.1,1.9c-0.3,1-0.3,2,0.2,2.8
		c0.4,0.7,1.2,1.2,2.2,1.4c2.2,0.4,4.4,0.7,6.7,1c0.9,0.1,1.9,0.3,2.9,0.4l0.1,0l0.1,0c0.9-0.1,1.8-0.3,2.7-0.4
		c2.3-0.3,4.6-0.7,7-1.1C77,25,77.6,24.6,78,24c0.5-0.7,0.6-1.7,0.3-2.7C78,20.1,77.2,18.9,74.9,19.2z M77.2,23.4
		c-0.2,0.4-0.6,0.7-1.1,0.8c-2.3,0.4-4.6,0.8-6.9,1.1c-0.9,0.1-1.8,0.3-2.7,0.4c-0.9-0.1-1.9-0.3-2.8-0.4c-2.3-0.3-4.5-0.6-6.6-1
		c-0.7-0.1-1.2-0.4-1.5-0.9c-0.3-0.5-0.4-1.2-0.1-2c0.3-0.8,0.8-1.2,1.7-1.2c0.1,0,0.2,0,0.4,0c0.8,0.1,1.6,0.2,2.4,0.3
		c2.5,0.3,5.1,0.7,7.7,0.7c1.9,0,3.8-0.3,5.6-0.6c0.6-0.1,1.3-0.2,1.9-0.3c1.3-0.2,2,0.2,2.3,1.3C77.6,22.2,77.5,22.9,77.2,23.4z"/>
	
		<linearGradient id="SVGID_00000071558510883320176860000011166601128084919462_" gradientUnits="userSpaceOnUse" x1="28.2216" y1="62.3856" x2="105.8759" y2="62.3856">
		<stop  offset="0" style="stop-color:#FF9B28"/>
		<stop  offset="1" style="stop-color:#FFC100"/>
	</linearGradient>
	<path fill="url(#SVGID_00000071558510883320176860000011166601128084919462_)" d="M27.8,73.8c0.1,0.4,0.5,1,1,1.1
		c3.6,0.9,7.2,2.5,11.7,5.3c3.8,2.4,7.8,2.9,12.7,3.5l2.6,0.3c4.3,0.4,8.7,0.9,13,1.6c5.5,0.9,9.1,5.3,9.1,11v1.9l1.1-0.4
		c0.3-0.1,0.5-0.2,0.7-0.2l3.1-1.4c5.8-2.6,11.6-5.1,17.4-7.7c0.7-0.3,1.3-0.9,1.7-1.5c3.8-6,5.3-12.9,4.5-20.6
		c-1.1-10.1-5.5-19.2-13.9-28.8c-0.1-0.1-0.2-0.2-0.3-0.3c-0.2-0.2-0.3-0.4-0.5-0.6l-0.8,0.6c0.2,0.2,0.4,0.5,0.6,0.7
		c0.1,0.1,0.2,0.2,0.3,0.3c8.2,9.4,12.6,18.3,13.6,28.2c0.8,7.5-0.7,14.2-4.4,20c-0.3,0.4-0.8,0.9-1.3,1.1
		c-5.8,2.6-11.6,5.1-17.4,7.7L79.2,97c-0.1,0.1-0.2,0.1-0.4,0.1v-0.6c0-6.2-4-11-10-12c-4.3-0.7-8.7-1.1-13-1.6l-2.6-0.3
		c-4.7-0.5-8.7-1.1-12.3-3.3c-4.5-2.8-8.2-4.5-12-5.4c-0.1,0-0.2-0.2-0.3-0.3c-0.1-0.6-0.2-1.2-0.2-1.8c-0.3-6.9,1.4-13.6,4.9-20.6
		c4.1-7.9,9.9-14.8,18.5-21.9c1.3-1.1,2.1-1.6,3.3-0.7c0.3,0.2,0.6,0.3,0.9,0.3c1.1,0.1,2.1,0.2,3.2,0.4c2.5,0.3,5,0.6,7.5,0.7
		c4,0.1,8.6-0.1,12.8-2.4c0.4,0.3,0.8,0.7,1.2,1c1.3,1.1,2.6,2.2,4,3.3c0.6,0.5,1.6,0.8,2.4,0.7l-0.2-1c-0.4,0.1-1.1-0.1-1.5-0.5
		c-1.4-1-2.7-2.2-4-3.2c-0.5-0.4-1-0.8-1.5-1.2l-0.3-0.2l-0.3,0.2c-4.1,2.4-8.5,2.6-12.6,2.5c-2.5-0.1-5-0.4-7.5-0.7
		c-1.1-0.1-2.1-0.3-3.2-0.4c-0.1,0-0.4,0-0.5-0.1c-1.9-1.4-3.3-0.3-4.6,0.8c-8.6,7.2-14.6,14.2-18.7,22.2c-3.7,7.1-5.3,14-5,21.1
		C27.6,72.5,27.6,73.2,27.8,73.8z"/>
</g>
</svg>
