<?xml version="1.0" encoding="utf-8"?>
<!-- Generator: Adobe Illustrator 28.2.0, SVG Export Plug-In . SVG Version: 6.00 Build 0)  -->
<svg version="1.2" baseProfile="tiny" id="Layer_1" xmlns="http://www.w3.org/2000/svg" xmlns:xlink="http://www.w3.org/1999/xlink"
	 x="0px" y="0px" viewBox="0 0 452.5 389.2" overflow="visible" xml:space="preserve">
<g>
	<g>
		<path fill="#4A525A" d="M452.5,223.3c0-31.7-20.3-52-52-52H203c-51.3,0-102.6-0.1-154,0c-27,0.1-48.7,20.9-48.9,47.5
			C-0.1,256.7,0,334.5,0.1,372.4c0,9.5,7.1,16.6,16.1,16.6c9,0,16-7.1,16.2-16.5c0.1-5,0-10.1,0-15.4h387.8c0,5.4-0.7,10.6,0.2,15.4
			c0.8,4.2,2.4,8.9,5.2,12c4.5,5.1,10.9,6,17.1,3.1c6.6-3,9.8-8.4,9.7-15.7C452.4,335.7,452.4,259.5,452.5,223.3L452.5,223.3z"/>
		<path fill="#4A525A" d="M97,97.9c0.2-19.5,14-33.2,33.5-33.3c15.3-0.1,30.6-0.1,45.9,0c19.8,0.1,33.5,13.8,33.6,33.7
			c0,4.8,0,9.6,0,14.3h32.3c0-5.3,0-10.2,0-15c0.2-18.9,14-32.9,32.8-33c15.8-0.1,31.6-0.1,47.4,0c18.8,0.1,32.6,14.1,32.8,33
			c0.1,5,0,10,0,15.1H404V18.7C404,6.3,397.7,0,385.4,0H66.8c-12,0-18.4,6.3-18.4,18.4c0,30,0,59.9,0,89.9v4.6H97
			C97,107.7,96.9,102.8,97,97.9L97,97.9L97,97.9z"/>
	</g>
</g>
</svg>
