<?xml version="1.0" encoding="utf-8"?>
<!-- Generator: Adobe Illustrator 28.2.0, SVG Export Plug-In . SVG Version: 6.00 Build 0)  -->
<svg version="1.2" baseProfile="tiny" id="Layer_1" xmlns="http://www.w3.org/2000/svg" xmlns:xlink="http://www.w3.org/1999/xlink"
	 x="0px" y="0px" viewBox="0 0 120 120" overflow="visible" xml:space="preserve">
<g>
	<linearGradient id="SVGID_1_" gradientUnits="userSpaceOnUse" x1="51.1108" y1="11.1377" x2="82.2334" y2="11.1377">
		<stop  offset="0" style="stop-color:#FF9B28"/>
		<stop  offset="1" style="stop-color:#FFC100"/>
	</linearGradient>
	<path fill="url(#SVGID_1_)" d="M51.7,5.7L51.7,5.7c0.1,0.9,0.2,1.6,0.5,2.2c0.4,1,0.9,1.9,1.4,2.9c0.5,0.9,1,1.9,1.4,2.8
		c0.3,0.6,0.6,1.1,0.9,1.7c0.3,0.6,0.6,1.1,0.9,1.7c0.6,1.2,1.6,1.6,2.6,1.8c2.1,0.5,4.3,0.7,6.8,0.7c2.9,0,5.8-0.4,8.9-1.2
		c0.8-0.2,1.3-0.8,1.4-1l0.8-1.4c1.2-2.2,2.5-4.5,3.7-6.8c0.5-1,0.7-2.1,0.9-2.8l0.4-1.5L82,4.7l0.3-0.3l-0.9-0.8L80.5,3v0.8l0,0
		c-2.1,1.1-4,0.9-6.3-0.6C73,2.5,71.5,2.7,70,3.7c-2.2,1.2-4.1,1.2-6.1-0.1c-1.8-1.2-3.6-1.2-5.3,0c-1.2,0.9-2.6,1.1-4.1,0.6
		l-0.2-0.1c-0.2-0.1-0.5-0.2-0.8-0.3l-2.4-0.7L51.6,5C51.6,5.3,51.7,5.6,51.7,5.7z M59.8,5.3c1.1-0.8,1.9-0.8,3.1,0
		c2.5,1.6,5.4,1.6,8-0.1c1.2-0.8,1.7-0.7,2.1-0.4c2.4,1.5,4.6,2,6.9,1.2c-0.2,0.8-0.4,1.6-0.7,2.3c-0.9,1.8-1.8,3.5-2.8,5.2
		l-0.8,1.4l-0.8,1.4c0,0-0.1,0.1-0.1,0.1l-0.1,0c-5.1,1.3-9.9,1.4-14.8,0.4c-0.7-0.2-1-0.3-1.2-0.8c-0.3-0.6-0.6-1.1-0.9-1.7
		c-0.3-0.6-0.6-1.1-0.9-1.7c-1-1.8-1.9-3.8-2.8-5.6c-0.1-0.2-0.2-0.6-0.3-1c0.1,0,0.2,0.1,0.4,0.1C56,6.7,58,6.4,59.8,5.3z"/>
	
		<linearGradient id="SVGID_00000031194384137164803940000009243558129481403573_" gradientUnits="userSpaceOnUse" x1="5.0659" y1="93.1147" x2="115.9641" y2="93.1147">
		<stop  offset="0" style="stop-color:#FF9B28"/>
		<stop  offset="1" style="stop-color:#FFC100"/>
	</linearGradient>
	<path fill="url(#SVGID_00000031194384137164803940000009243558129481403573_)" d="M115.6,88.1c-1-2.2-3.1-3.3-5.5-2.8
		c-1,0.2-1.9,0.6-2.4,0.8l-10.6,4.6C92,93,86.8,95.3,81.7,97.5l-4.7,2c-0.7,0.3-1.4,0.4-1.9,0.4H57c-0.4,0-0.8,0-1.1-0.1
		c-0.4-0.1-0.5-0.3-0.4-0.7c0.1-0.5,0.3-0.6,0.5-0.6h17l0.9,0l1.4-0.1V95c0-4.3-3.1-7.9-7.3-8.4c-5.9-0.8-10.5-1.3-14.7-1.6
		c-5.8-0.5-10.1-1.7-14-4.1c-1.1-0.7-2.3-1.4-3.5-1.9l-0.6-0.3c-4.4-2.3-9.2-3.4-14.4-3.4c0,0,0,0,0,0l-1-0.2l0,5.4
		c0,1.4-0.5,1.4-0.8,1.4c-0.2,0-0.3-0.1-0.4-0.1c-0.2-0.2-0.3-0.6-0.3-1.3v-8.6c0-1.9-1-2.9-2.9-2.9H8c-1.9,0-2.9,1-2.9,2.8v40.4
		c0,1.8,1,2.8,2.8,2.8h7.2c2.1,0,3.1-1,3.1-3.1V89.6c0-1.1,0.6-1.1,0.8-1.1c0.2,0,0.4,0.1,0.5,0.1c0.2,0.2,0.3,0.6,0.3,1v17.5
		c0,1.1,0.5,1.8,1.6,2.3c2,0.8,4.1,1.5,6.1,2.2c3.7,1.4,7.6,2.9,11.6,4.3c2.1,0.7,4.5,1.2,6.8,1.3c3.9,0.1,7.8,0.1,11.6,0.1h14.2
		c3.7,0,7.1-1,10.1-2.9c5.4-3.4,10.7-6.8,16.1-10.2c5.4-3.4,10.7-6.8,16.1-10.2C115.8,92.8,116.4,90.3,115.6,88.1z M20.8,87.2
		c-0.5-0.5-1.1-0.7-1.9-0.7c-1.5,0-2.6,1.3-2.6,3.1v22.2c0,1.1-0.1,1.1-1.1,1.1H7.9c-0.8,0-0.9-0.1-0.9-0.9V71.7
		C7,71,7.2,70.8,8,70.8h7.3c0.8,0,0.9,0.2,0.9,0.9v8.5c0,1.1,0.3,2.1,0.9,2.7c0.5,0.5,1.1,0.7,1.9,0.7c1.3,0,2.7-0.9,2.7-3.4v-3.2
		c4.6,0.1,8.7,1.1,12.6,3.2l0.6,0.3c1.1,0.6,2.3,1.1,3.3,1.8c3.9,2.5,8.7,3.8,14.8,4.3c3.5,0.3,7.1,0.7,10.5,1.2
		c1.3,0.2,2.7,0.3,4,0.5c3.2,0.4,5.6,3.2,5.6,6.5v1.4H56.7c-0.3,0-0.7,0-1.2,0.1c-1.2,0.2-2,1-2.2,2.4c-0.1,1.4,0.6,2.5,1.8,2.8
		c0.6,0.2,1.2,0.2,1.7,0.2h18.1c1,0,1.9-0.2,2.7-0.6c6.8-2.9,13.5-5.9,20.1-8.9l10.6-4.6c0.6-0.3,1.3-0.6,2-0.7
		c1.5-0.3,2.6,0.3,3.2,1.7c0.7,1.6,0.4,3-0.9,3.8l0,0c-5.3,3.4-10.6,6.7-15.9,10.1c-5.4,3.4-10.8,6.9-16.2,10.3
		c-2.7,1.7-5.7,2.5-9.1,2.5h-8c-5.8,0-11.8,0-17.7-0.1c-2,0-4.2-0.4-6.2-1.1c-3.4-1.2-7-2.5-11.5-4.2l-6.1-2.3
		c-0.3-0.1-0.3-0.1-0.3-0.4V89.5C21.7,88.6,21.4,87.8,20.8,87.2z"/>
	
		<linearGradient id="SVGID_00000131339375684466710100000017046547767924924319_" gradientUnits="userSpaceOnUse" x1="54.0093" y1="24.1167" x2="78.3518" y2="24.1167">
		<stop  offset="0" style="stop-color:#FF9B28"/>
		<stop  offset="1" style="stop-color:#FFC100"/>
	</linearGradient>
	<path fill="url(#SVGID_00000131339375684466710100000017046547767924924319_)" d="M74.3,20.1L74.3,20.1c-0.3,0-0.6,0.1-0.9,0.1
		c-0.3,0-0.6,0.1-0.9,0.1c-1.7,0.3-3.4,0.6-5.1,0.6c-2,0-4.1-0.3-6-0.5l-1.1-0.1c-0.8-0.1-1.5-0.2-2.4-0.3c-1.8-0.2-3.1,0.6-3.5,2.2
		c-0.4,1.2-0.3,2.3,0.2,3.1c0.5,0.8,1.3,1.4,2.5,1.6c2.2,0.4,4.4,0.7,6.5,1c0.4,0,0.8,0.1,1.2,0.2c0.5,0.1,1,0.2,1.6,0.2l0.3,0l0,0
		c0.4,0,0.9-0.1,1.3-0.2c0.4-0.1,0.8-0.1,1.3-0.2c1.9-0.2,3.8-0.6,5.8-0.9l1-0.2c0.7-0.1,1.4-0.6,1.9-1.3c0.6-0.8,0.7-1.9,0.4-3
		C77.7,20.7,76.4,19.8,74.3,20.1z M56.1,22.9c0.2-0.6,0.5-0.8,1.2-0.8l0.3,0l3.6,0.5c2,0.3,4.1,0.5,6.2,0.5c1.8,0,3.6-0.3,5.5-0.6
		c0.3,0,0.6-0.1,0.9-0.1c0.3,0,0.6-0.1,0.9-0.1c1.1-0.2,1.5,0.2,1.7,0.8c0.1,0.5,0,1-0.2,1.4l0,0c-0.1,0.3-0.4,0.4-0.7,0.5
		c-2.2,0.4-4.4,0.8-6.6,1.1c-0.4,0-0.9,0.1-1.3,0.2c-0.4,0.1-0.8,0.1-1.2,0.2c-0.4,0-0.8-0.1-1.3-0.2c-0.5-0.1-0.9-0.1-1.4-0.2
		c-2.1-0.3-4.3-0.6-6.4-1c-0.5-0.1-0.9-0.3-1.1-0.6C56,24,55.9,23.5,56.1,22.9z"/>
	
		<linearGradient id="SVGID_00000027597039136546875390000016283663451404402324_" gradientUnits="userSpaceOnUse" x1="27.8164" y1="62.47" x2="105.5158" y2="62.47">
		<stop  offset="0" style="stop-color:#FF9B28"/>
		<stop  offset="1" style="stop-color:#FFC100"/>
	</linearGradient>
	<path fill="url(#SVGID_00000027597039136546875390000016283663451404402324_)" d="M27.9,71.9L28,72c0.2,0.2,0.2,0.5,0.3,0.8
		c0,0.2,0.1,0.4,0.2,0.6c0.1,0.5,0.6,1.3,1.3,1.4c3.5,0.9,6.9,2.4,11.1,5.1c3.8,2.4,7.8,2.9,12.5,3.5l2.5,0.3
		c4.8,0.4,8.9,0.9,12.5,1.5c5.1,0.8,8.4,4.8,8.4,10.1v2.5l2-0.7c0.1,0,0.2-0.1,0.3-0.1l3.2-1.4c2.8-1.3,5.6-2.5,8.4-3.7
		c2.8-1.2,5.6-2.5,8.4-3.7c0.7-0.3,1.4-0.9,1.9-1.6c3.7-5.9,5.2-12.7,4.4-20.2c-1.1-9.8-5.4-18.7-13.6-28.1L91.5,38
		c-0.1-0.1-0.1-0.2-0.2-0.2c-0.1-0.1-0.2-0.2-0.3-0.3l-0.3-0.3l-1.6,1.2l0.4,0.4c0.1,0.1,0.2,0.2,0.3,0.3c0.1,0.1,0.2,0.3,0.3,0.4
		l0.3,0.3c7.9,9.1,12.1,17.7,13,26.9c0.8,7.1-0.6,13.5-4.2,19c-0.3,0.3-0.7,0.8-1.1,0.9c-2.8,1.3-5.6,2.5-8.4,3.7
		c-2.8,1.2-5.6,2.5-8.4,3.7l-2.7,1.2c-0.1-6.2-4.1-11-10.1-12c-3.1-0.5-6.2-0.8-9.3-1.2c-1.1-0.1-2.2-0.2-3.3-0.4l-2.5-0.3
		c-4.4-0.5-8.2-1-11.7-3.1c-4.4-2.8-8-4.4-11.6-5.3c0,0,0,0,0,0c0,0,0,0,0,0c-0.1-0.5-0.2-1-0.2-1.5c-0.3-6.4,1.3-12.8,4.7-19.6
		c3.9-7.6,9.6-14.2,17.7-21c1.3-1.1,1.7-1.3,2.6-0.6c0.4,0.2,0.8,0.4,1.1,0.4c0,0,0,0,0,0c1,0.1,2,0.2,3.1,0.4
		c2.4,0.3,4.8,0.6,7.3,0.7c3.8,0.1,8.2-0.1,12.3-2.2c0.1,0.1,0.2,0.2,0.3,0.3c0.2,0.2,0.4,0.4,0.6,0.5c1.2,1,2.5,2.1,3.9,3.2
		c0.7,0.6,1.8,0.9,2.7,0.8l0.5-0.1l-0.4-2l-0.5,0.1c-0.2,0.1-0.7-0.1-1-0.4c-0.8-0.6-1.5-1.2-2.3-1.8C82,29.5,81.5,29,81,28.6
		l-1.5-1.2l-0.6-0.4l-0.5,0.4c-3.8,2.2-8,2.4-11.9,2.3c-2.4-0.1-4.8-0.4-7.2-0.7c-0.5,0-1-0.1-1.5-0.2c-0.5-0.1-1-0.1-1.6-0.2
		c-0.1,0-0.2,0-0.2,0c-2.2-1.6-3.9-0.2-5,0.8c-8.5,7.1-14.3,14-18.2,21.6c-3.6,6.9-5.2,13.6-4.9,20.6L27.9,71.9z"/>
</g>
</svg>
