<?xml version="1.0" encoding="utf-8"?>
<!-- Generator: Adobe Illustrator 28.2.0, SVG Export Plug-In . SVG Version: 6.00 Build 0)  -->
<svg version="1.2" baseProfile="tiny" id="Layer_1" xmlns="http://www.w3.org/2000/svg" xmlns:xlink="http://www.w3.org/1999/xlink"
	 x="0px" y="0px" viewBox="0 0 120 120" overflow="visible" xml:space="preserve">
<g>
	<linearGradient id="SVGID_1_" gradientUnits="userSpaceOnUse" x1="12.3446" y1="64.2388" x2="113.7705" y2="55.1956">
		<stop  offset="0" style="stop-color:#FF9B28"/>
		<stop  offset="1" style="stop-color:#FFC100"/>
	</linearGradient>
	<path fill="url(#SVGID_1_)" d="M107.6,37.5c0-4.1,0-8.2,0-12.3c0-2.4-1-3.9-3.2-4.9c-12.7-5.4-26-11.2-41.9-18.1
		c-1.7-0.7-3.3-0.7-4.9,0c-11.4,5-26.5,11.5-41.7,18c-2.4,1-3.4,2.6-3.4,5.2c0.1,4.1,0,8.2,0,12.2c0,1.7,0,3.3,0,5l0,0.5
		c0,1.6,0,3.1,0,4.7c0,3.7-0.1,7.6,0.1,11.4c0.5,13.7,5.8,25,15.6,33.6c6.6,5.8,13.4,11.4,20.1,16.9c2.8,2.3,5.5,4.6,8.3,6.9
		c1.4,1.2,2.5,1.8,3.5,1.8c1.1,0,2.1-0.6,3.5-1.7l2.6-2.2c8-6.7,16-13.3,24-20c11.3-9.5,17.2-21.8,17.4-36.4
		C107.6,51.2,107.6,44.2,107.6,37.5z M106.5,58c-0.2,14.4-5.9,26.4-17,35.7c-8,6.7-16,13.3-24,20l-2.6,2.2c-2.4,2-3.3,2-5.8,0
		c-2.8-2.3-5.5-4.6-8.3-6.9c-6.6-5.5-13.5-11.1-20-16.9C19.2,83.6,14,72.5,13.5,59.2c-0.1-3.8-0.1-7.6-0.1-11.4c0-1.7,0-3.5,0-5.2
		l0-0.5h0c0-1.5,0-3,0-4.5c0-4,0-8.2,0-12.2c0-2.1,0.8-3.4,2.8-4.2c15.2-6.5,30.3-13,41.7-18c1.4-0.6,2.7-0.6,4.2,0
		C78,10,91.3,15.8,104,21.2c1.8,0.8,2.6,2,2.6,4c0,4.1,0,8.2,0,12.3C106.6,44.2,106.6,51.2,106.5,58z"/>
	
		<linearGradient id="SVGID_00000032636352056954286390000005718738929340866469_" gradientUnits="userSpaceOnUse" x1="34.4745" y1="58.6973" x2="90.8142" y2="53.674">
		<stop  offset="0" style="stop-color:#FF9B28"/>
		<stop  offset="1" style="stop-color:#FFC100"/>
	</linearGradient>
	<path fill="url(#SVGID_00000032636352056954286390000005718738929340866469_)" d="M84.9,40.9L84.9,40.9
		c-9.3,9.3-18.5,18.5-27.7,27.7c-3.6,3.6-5.4,3.6-9,0L46.7,67c-3.8-3.8-7.6-7.6-11.4-11.4l-0.7,0.7c3.8,3.8,7.6,7.6,11.4,11.4
		l1.6,1.6c2,2,3.6,3,5.2,3c1.6,0,3.2-1,5.2-3c9.2-9.2,18.4-18.4,27.6-27.6l0.1-0.1c0.7-0.7,1.4-1.4,2-2.3l-0.9-0.5
		C86.3,39.6,85.6,40.2,84.9,40.9z"/>
</g>
</svg>
