<?xml version="1.0" encoding="utf-8"?>
<!-- Generator: Adobe Illustrator 28.2.0, SVG Export Plug-In . SVG Version: 6.00 Build 0)  -->
<svg version="1.2" baseProfile="tiny" id="Layer_1" xmlns="http://www.w3.org/2000/svg" xmlns:xlink="http://www.w3.org/1999/xlink"
	 x="0px" y="0px" viewBox="0 0 120 120" overflow="visible" xml:space="preserve">
<g>
	<linearGradient id="SVGID_1_" gradientUnits="userSpaceOnUse" x1="49.2384" y1="57.9984" x2="104.2404" y2="57.9984">
		<stop  offset="0" style="stop-color:#FF9B28"/>
		<stop  offset="1" style="stop-color:#FFC100"/>
	</linearGradient>
	<path fill="url(#SVGID_1_)" d="M49.4,90.8L49.4,90.8c0,0.1,0,0.2-0.1,0.3c0,0.2-0.1,0.3-0.1,0.4l0,7.3c0,4.9,0,9.9,0,14.8
		c0,0.5,0.1,0.9,0.4,1.2c0.3,0.4,0.8,0.4,1.3,0.4c2.9,0,5.9,0,8.7,0h1.1c1.4,0,2.8,0,4.2,0c0.3,0,0.5,0,0.9-0.1c0.1,0,0.3,0,0.4,0
		l0.5,0V95.2c0-1.9,0.3-2.2,2.2-2.2c7.2,0,14.5,0,21.7,0c1.9,0,2.2,0.3,2.2,2.3c0,5.9,0,11.9,0,17.8c0,0.3,0,0.7,0,1.1l0.1,1h0.5
		c0.9,0,1.7,0,2.6,0c2.1,0,4.2,0,6.2,0l0.1,0c0.6,0,1-0.1,1.3-0.4c0.4-0.4,0.4-0.9,0.4-1.5c0-18.2,0-63.1,0-81.3
		c0-1-0.4-1.7-1.2-2.2c-9.8-6-19.8-12.2-29.5-18.1L57.7,2c-0.3-0.2-0.5-0.3-0.9-0.5c-0.2-0.1-0.3-0.2-0.5-0.3l-0.8-0.4v87.2
		c0,2-0.3,2.3-2.3,2.3h-3.7L49.4,90.8z M103.2,113.3c0,0.4,0,0.6-0.1,0.7c0,0-0.2,0.1-0.6,0.1c-1.1,0-2.3,0-3.8,0
		c-0.8,0-1.6,0-2.5,0l-2.1,0l0-0.1c0-0.3,0-0.6,0-0.9c0-5.9,0-11.9,0-17.8c0-2.5-0.8-3.3-3.3-3.3c-7.2,0-14.5,0-21.7,0
		c-2.5,0-3.3,0.8-3.3,3.3V114c-0.3,0-0.5,0.1-0.7,0.1c-1.4,0-2.8,0-4.2,0h-1.1c-2.9,0-5.8,0-8.7,0c-0.4,0-0.6-0.1-0.6-0.1
		c0,0-0.1-0.1-0.1-0.4c0-4.9,0-10,0-14.8l0-7.3c0,0,0,0,0-0.1h2.9c2.6,0,3.4-0.8,3.4-3.3V2.6c0.2,0.1,0.4,0.2,0.6,0.3l13.9,8.5
		c10.3,6.3,20.9,12.8,31.4,19.2c0.6,0.3,0.7,0.6,0.7,1.3C103.2,50.2,103.2,95,103.2,113.3z M50.1,91.2L50.1,91.2L50.1,91.2
		L50.1,91.2L50.1,91.2z"/>
	
		<linearGradient id="SVGID_00000123406616149518366690000005580689608923363512_" gradientUnits="userSpaceOnUse" x1="-2.580322e-02" y1="116.538" x2="120.0256" y2="116.538">
		<stop  offset="0" style="stop-color:#FF9B28"/>
		<stop  offset="1" style="stop-color:#FFC100"/>
	</linearGradient>
	<path fill="url(#SVGID_00000123406616149518366690000005580689608923363512_)" d="M117.5,114.1L117.5,114.1c-0.4,0-0.8,0-1.2,0
		l-9,0v1.1h8.5l0.5,0c0.4,0,0.8,0,1.2,0c0.9,0,1.5,0.6,1.5,1.4c0,0.7-0.6,1.3-1.5,1.4c-0.2,0-0.5,0-0.8,0l-113.1,0
		c-0.1,0-0.2,0-0.4,0c-0.3,0-0.6,0-0.9,0c-0.8-0.1-1.4-0.7-1.3-1.4c0.1-0.9,0.5-1.3,1.4-1.3l1.2,0c1.6,0,3.3-0.1,4.9,0l0.2,0
		l0.1-1.1l-0.2,0c-1.7-0.1-3.4-0.1-5.1,0l-1.1,0c-1.4,0-2.2,0.8-2.4,2.2c-0.2,1.3,0.8,2.4,2.2,2.6c0.2,0,0.4,0,0.7,0l113.5,0l0.3,0
		c0.3,0,0.6,0,0.9,0c1.4-0.1,2.4-1.2,2.4-2.4C120,115.2,119,114.2,117.5,114.1z"/>
	
		<linearGradient id="SVGID_00000064330249706673178140000016079144708030885546_" gradientUnits="userSpaceOnUse" x1="13.3741" y1="66.3358" x2="52.6437" y2="66.3358">
		<stop  offset="0" style="stop-color:#FF9B28"/>
		<stop  offset="1" style="stop-color:#FFC100"/>
	</linearGradient>
	<path fill="url(#SVGID_00000064330249706673178140000016079144708030885546_)" d="M13.4,104.3l0,8.7c0,0.1,0,0.2,0,0.4
		c-0.1,0.6,0.1,1,0.3,1.3c0.3,0.3,0.7,0.4,1.3,0.4c1.6,0,3.2-0.1,4.9,0c0.1,0,0.2,0,0.3,0c0.6,0,1-0.1,1.3-0.4
		c0.3-0.3,0.5-0.8,0.5-1.6c0-5,0-10.1,0-15.1l0-5.9c0-0.3,0-0.6,0-0.9c0-0.1,0-0.3,0-0.5l0-0.5h-0.5c-0.2,0-0.4,0-0.6,0
		c-0.4,0-0.8,0-1.1,0c-0.9-0.1-1.4-0.6-1.3-1.4c0-1,0.8-1.3,1.4-1.3c0.3,0,0.5,0,0.8,0l32.1,0V17.5l-0.8,0.4
		c-0.1,0.1-0.3,0.1-0.4,0.2c-0.3,0.1-0.5,0.3-0.7,0.4l-9.2,5.9c-8.2,5.2-17.4,11.2-26.5,17c-1.2,0.7-1.6,1.6-1.6,2.9
		C13.4,57,13.4,102.4,13.4,104.3z M17.2,88.9c0,1.4,0.9,2.4,2.3,2.5c0.4,0,0.8,0,1.2,0l0.1,0c0,0.3,0,0.6,0,0.8c0,2,0,3.9,0,5.9v0.3
		c0,4.8,0,9.9,0,14.8c0,0.5-0.1,0.7-0.2,0.8c-0.1,0.1-0.3,0.1-0.8,0.1c-0.7,0-1.5-0.1-2.3-0.1c-0.9,0-1.8,0-2.6,0
		c-0.4,0-0.5-0.1-0.5-0.1c0,0-0.1-0.1-0.1-0.5c0-0.2,0-0.3,0-0.5c0-0.1,0-0.1,0-0.2l0-8.5c0-7.9,0-48.2,0-60c0-1,0.3-1.5,1.1-2
		c8.6-5.5,17.3-11,25.7-16.4l10-6.4c0.1-0.1,0.2-0.1,0.3-0.2v67.2H20.9l-0.4,0c-0.3,0-0.6,0-0.8,0C18.2,86.6,17.3,87.5,17.2,88.9z"
		/>
	
		<linearGradient id="SVGID_00000026868448399013751850000013276913048364792254_" gradientUnits="userSpaceOnUse" x1="61.3563" y1="53.5171" x2="87.9435" y2="53.5171">
		<stop  offset="0" style="stop-color:#FF9B28"/>
		<stop  offset="1" style="stop-color:#FFC100"/>
	</linearGradient>
	<path fill="url(#SVGID_00000026868448399013751850000013276913048364792254_)" d="M85.1,40.2c-1.1,0-2.2,0-3.3,0l-1.8,0l-2,0
		c-1.3,0-12.5,0-13.8,0c-1.9,0-2.9,1-2.9,2.8c0,3.5,0,17,0,20.9c0,1.9,1,2.8,2.8,2.8c1.8,0,13.6,0,15.5,0c1.8,0,3.6,0,5.5,0
		c1.8,0,2.8-0.9,2.8-2.7c0-3.4,0-17,0-21.1C87.9,41.1,87,40.3,85.1,40.2z M86.9,64.1c0,1.2-0.5,1.7-1.7,1.7c-3.6,0-17.3,0-20.9,0
		c-1.3,0-1.8-0.5-1.8-1.8c0-3.9,0-17.4,0-20.9c0-1.3,0.5-1.7,1.9-1.7c0.7,0,11.1,0,12.1,0l3.4,0l1.8,0c1.2,0,2.4,0,3.5,0
		c1.4,0,1.8,0.4,1.8,1.7C86.9,47.1,86.9,60.6,86.9,64.1z"/>
	
		<linearGradient id="SVGID_00000157990574405674251700000010570482874525635737_" gradientUnits="userSpaceOnUse" x1="25.5854" y1="48.5192" x2="42.1725" y2="48.5192">
		<stop  offset="0" style="stop-color:#FF9B28"/>
		<stop  offset="1" style="stop-color:#FFC100"/>
	</linearGradient>
	<path fill="url(#SVGID_00000157990574405674251700000010570482874525635737_)" d="M25.6,54c0,1.9,0.9,2.8,2.8,2.8c2,0,3.9,0,5.7,0
		c1.8,0,3.5,0,5.2,0c1.8,0,2.8-0.9,2.8-2.6c0-3.8,0-7.6,0-11.3c0-1.6-1-2.6-2.7-2.6c-3.5,0-7.2,0-11.2,0c-1.7,0-2.7,0.9-2.7,2.7
		c0,1.3,0,2.6,0,3.9l0,1.6l0,1.7C25.6,51.4,25.6,52.7,25.6,54z M26.7,43c0-1.2,0.5-1.6,1.6-1.6c2,0,3.9,0,5.8,0s3.6,0,5.4,0
		c1.1,0,1.6,0.5,1.6,1.6c0,3.7,0,7.5,0,11.3c0,1.1-0.5,1.6-1.7,1.6c-3.3,0-6.9,0-10.9,0c-1.3,0-1.8-0.4-1.8-1.8c0-1.2,0-2.4,0-3.5
		l0-3.7C26.6,45.5,26.6,44.2,26.7,43z"/>
</g>
</svg>
