<?xml version="1.0" encoding="utf-8"?>
<!-- Generator: Adobe Illustrator 28.2.0, SVG Export Plug-In . SVG Version: 6.00 Build 0)  -->
<svg version="1.2" baseProfile="tiny" id="Layer_1" xmlns="http://www.w3.org/2000/svg" xmlns:xlink="http://www.w3.org/1999/xlink"
	 x="0px" y="0px" viewBox="0 0 698 358.9" overflow="visible" xml:space="preserve">
<path d="M1.9,181.9c0,0,0.1,0,0.1,0c77.2,18.3,136.6,82.5,147.6,162.3c1.2,8.4,8.3,14.7,16.8,14.7c0.6,0,1.3,0,1.9-0.1
	c0.5,0.1,1.1,0.1,1.6,0.1h42.3c7.7,0,14-6.3,14-14c0-7.7-6.3-14-14-14h-30.6c-12.8-61-48.3-111.5-103.7-136.8h604.8
	c8.1,0,15-6.3,15.2-14.4c0.2-8.2-6.5-15-14.7-15H78C133.4,139.5,168.8,89,181.7,28h30.6c7.7,0,14-6.3,14-14c0-7.7-6.3-14-14-14H170
	c-0.6,0-1.1,0-1.6,0.1C167.7,0,167.1,0,166.5,0c-8.5,0-15.6,6.3-16.8,14.7c-11,79.7-70.4,144-147.6,162.3c0,0-0.1,0-0.1,0
	C-0.6,177.6-0.6,181.3,1.9,181.9L1.9,181.9z"/>
</svg>
