<?xml version="1.0" encoding="utf-8"?>
<!-- Generator: Adobe Illustrator 28.2.0, SVG Export Plug-In . SVG Version: 6.00 Build 0)  -->
<svg version="1.2" baseProfile="tiny" id="Layer_1" xmlns="http://www.w3.org/2000/svg" xmlns:xlink="http://www.w3.org/1999/xlink"
	 x="0px" y="0px" viewBox="0 0 120 120" overflow="visible" xml:space="preserve">
<g>
	<linearGradient id="SVGID_1_" gradientUnits="userSpaceOnUse" x1="49.7588" y1="58.032" x2="100.1807" y2="58.032">
		<stop  offset="0" style="stop-color:#FF9B28"/>
		<stop  offset="1" style="stop-color:#FFC100"/>
	</linearGradient>
	<path fill="url(#SVGID_1_)" d="M49.9,87.7l-0.1,0.2v0.2c0,0.1-0.1,0.2-0.1,0.3v19.9c0,0.4,0.1,1,0.5,1.4c0.4,0.6,1.1,0.6,1.6,0.6
		h12.6c0.3,0,0.5,0,0.9-0.1h1.3V91.7c0-1.4,0-1.5,1.5-1.5h19.6c1.4,0,1.5,0,1.5,1.6l0,17.1l0.1,1.4h8.9c0.5,0,1.1-0.1,1.5-0.5
		c0.5-0.5,0.5-1.1,0.5-1.7V34.7c0-1.1-0.4-1.9-1.3-2.4c-3.5-2.2-7.1-4.3-10.6-6.5c-5.4-3.3-10.7-6.6-16-9.8L58.2,7.3
		c-0.3-0.2-0.5-0.3-0.9-0.5c-0.1,0-0.1-0.1-0.2-0.1c-0.1-0.1-0.2-0.1-0.3-0.2l-1.4-0.7v79.5c0,1.5,0,1.6-1.6,1.6h-3.7L49.9,87.7z
		 M98.5,108.1c0,0.1,0,0.1,0,0.2c0,0-0.1,0-0.1,0h-7.1V91.8c0-2.5-0.9-3.5-3.5-3.5H68.2c-2.5,0-3.5,0.9-3.5,3.5v16.4
		c-0.1,0-0.1,0-0.1,0H52c0,0-0.1,0-0.1,0V88.8H54c2.6,0,3.6-0.9,3.6-3.5V9.1l20.6,12.6c6.6,4.1,13.4,8.2,20.1,12.3
		c0.3,0.2,0.4,0.2,0.4,0.7C98.5,51.2,98.5,91,98.5,108.1z"/>
	
		<linearGradient id="SVGID_00000029014678449901588960000002281516955061453992_" gradientUnits="userSpaceOnUse" x1="5.3642" y1="110.9907" x2="114.6104" y2="110.9907">
		<stop  offset="0" style="stop-color:#FF9B28"/>
		<stop  offset="1" style="stop-color:#FFC100"/>
	</linearGradient>
	<path fill="url(#SVGID_00000029014678449901588960000002281516955061453992_)" d="M111.9,108.3l-9.7,0v2h9.7c0.5,0,0.9,0.3,0.9,0.8
		c0,0.4-0.4,0.7-0.9,0.8H9.1l-1.1,0c-0.3,0-0.5-0.2-0.6-0.3c-0.1-0.1-0.1-0.2-0.1-0.4c0.1-0.6,0.2-0.7,0.8-0.7h1.1c0.5,0,1,0,1.5,0
		c1,0,2,0,3,0h0.6l0.2-2l-0.7,0c-1.5-0.1-3.1-0.1-4.6,0h-1c-1.5,0-2.4,0.9-2.7,2.4c-0.1,0.6,0.1,1.3,0.4,1.8c0.4,0.6,1.2,1,2,1.1
		h103.3l0.8,0c1.5-0.1,2.6-1.3,2.6-2.7C114.6,109.5,113.5,108.4,111.9,108.3z"/>
	
		<linearGradient id="SVGID_00000066491793802417781750000002473129265023618444_" gradientUnits="userSpaceOnUse" x1="17.4483" y1="65.9688" x2="52.5361" y2="65.9688">
		<stop  offset="0" style="stop-color:#FF9B28"/>
		<stop  offset="1" style="stop-color:#FFC100"/>
	</linearGradient>
	<path fill="url(#SVGID_00000066491793802417781750000002473129265023618444_)" d="M17.9,109.7c0.4,0.4,1,0.5,1.5,0.5H20l-0.2-2
		h-0.5c0,0,0,0,0,0c0,0,0,0,0,0V45.7c0-0.7,0.2-1,0.8-1.4c3.2-2,6.4-4.1,9.6-6.1c4.6-2.9,9.1-5.8,13.6-8.7l9.3-6l-0.4-1.9l-8.9,5.7
		c-4,2.5-8.2,5.2-12.5,8c-3.8,2.4-7.6,4.9-11.4,7.3c-1.2,0.7-1.7,1.6-1.7,3c-0.2,11.1-0.2,49.8-0.2,54.1v7.8l0,0.3
		C17.4,108.8,17.6,109.3,17.9,109.7z"/>
	
		<linearGradient id="SVGID_00000028309276582967374340000006106888899457895828_" gradientUnits="userSpaceOnUse" x1="60.6709" y1="54.0828" x2="85.6611" y2="54.0828">
		<stop  offset="0" style="stop-color:#FF9B28"/>
		<stop  offset="1" style="stop-color:#FFC100"/>
	</linearGradient>
	<path fill="url(#SVGID_00000028309276582967374340000006106888899457895828_)" d="M82.7,41.6l-18.9,0c-2,0-3.1,1.1-3.1,3v18.8
		c0,2,1.1,3,3,3h18.9c1.9,0,3-1.1,3-2.9v-19C85.7,42.7,84.7,41.7,82.7,41.6z M62.8,44.7c0-0.8,0.1-1,1.2-1h18.8c1,0,1.1,0.2,1.1,1
		c0,1.6-0.1,6.3-0.1,19c0,0.8-0.2,1-1,1H63.9c-0.9,0-1.1-0.2-1.1-1.1V44.7z"/>
	
		<linearGradient id="SVGID_00000172399517847486950500000007073369311679168431_" gradientUnits="userSpaceOnUse" x1="28.3843" y1="49.6638" x2="44.3555" y2="49.6638">
		<stop  offset="0" style="stop-color:#FF9B28"/>
		<stop  offset="1" style="stop-color:#FFC100"/>
	</linearGradient>
	<path fill="url(#SVGID_00000172399517847486950500000007073369311679168431_)" d="M31.3,41.7c-1.9,0-2.9,1.1-2.9,2.9l0,6.5
		c0.1,1.1,0.1,2.2,0.1,3.4c0,2,1,3,3,3h9.8c1.9,0,3-1,3-2.8V44.6c0-1.7-1.2-2.8-2.9-2.8H31.3z M41.4,55.8h-9.8
		c-0.9,0-1.1-0.2-1.1-1.1l0-6.5c-0.1-1.2-0.1-2.4,0-3.4l0,0c0-0.8,0.2-0.9,0.9-0.9h10.1c0.7,0,0.9,0.2,0.9,0.9v10.2
		C42.5,55.5,42.3,55.8,41.4,55.8z"/>
</g>
</svg>
