<?xml version="1.0" encoding="utf-8"?>
<!-- Generator: Adobe Illustrator 28.2.0, SVG Export Plug-In . SVG Version: 6.00 Build 0)  -->
<svg version="1.2" baseProfile="tiny" id="Layer_1" xmlns="http://www.w3.org/2000/svg" xmlns:xlink="http://www.w3.org/1999/xlink"
	 x="0px" y="0px" viewBox="0 0 452.5 452.6" overflow="visible" xml:space="preserve">
<g>
	<g>
		<path fill="#4A525A" d="M226.4,0.2c33.2,0,66.5-0.1,99.7,0c22.4,0.1,44,4.4,64,14.7c35.5,18.3,53.8,48.8,60.1,87.2
			c1.4,8.9,2.1,17.9,2.2,26.9c0.2,65.9,0.3,131.9,0,197.9c-0.1,23.3-5,45.7-16.3,66.2c-18.3,33.3-47.7,50.7-84.2,57
			c-9.4,1.6-19,2.4-28.5,2.4c-66,0.2-131.9,0.2-197.9-0.1c-25.7-0.1-50.1-6-72.1-19.9c-27.9-17.7-43.6-43.8-49.7-75.8
			c-2.3-12.2-3.4-24.9-3.4-37.4C-0.1,257.3,0.1,195.2,0,133.2c0-21.8,2.7-43,11.4-63.2C27.5,32.8,56.5,11.5,95.6,3.8
			c12.6-2.5,25.6-3.3,38.4-3.5C164.8-0.2,195.6,0.1,226.4,0.2L226.4,0.2z M107.5,319.5c0-15.4,0.1-31.1,0-46.8
			c-0.1-10.4-7.3-17.9-17-17.9c-9.7,0-16.9,7.5-16.9,17.8c-0.1,29.5-0.1,59.1,0,88.6c0,10.8,7.1,17.9,18,17.9
			c29.3,0.1,58.7,0.1,88.1,0c10.7,0,18.3-7.2,18.2-17.1c-0.1-9.8-7.6-16.8-18.5-16.8c-14.3,0-28.6,0-43,0c-1.3,0-2.5-0.3-2.4-0.3
			c70.3-70.3,140.8-140.8,211.2-211.2c0,1,0,2.7,0,4.5c0,14.1-0.1,28.3,0.1,42.4c0.1,9.9,7.5,17.3,17,17.3c9.3,0,16.8-7.3,16.9-16.8
			c0.1-30.2,0.1-60.5,0-90.7c0-9.3-7.2-16.7-16.5-16.7c-30.6-0.2-61.2-0.2-91.8,0c-9.2,0.1-16.2,7.9-16.1,17.1
			c0,9.1,7.2,16.6,16.4,16.7c14.5,0.2,29,0.1,43.5,0.1c1.7,0,3.4,0,4.7,0C248.8,178.2,178.2,248.7,107.5,319.5L107.5,319.5z"/>
	</g>
</g>
</svg>
