<svg width="160" height="160" viewBox="0 0 160 160" fill="none" xmlns="http://www.w3.org/2000/svg">
<g filter="url(#filter0_b_0_1)">
<rect width="160" height="160" rx="80" fill="#FF9B28" fill-opacity="0.5"/>
</g>
<g clip-path="url(#clip0_0_1)">
<path d="M36.3066 21.8012L37.4542 20.9995L42.9823 28.8935L46.7705 26.2416L47.4368 27.2037L42.5134 30.6573L36.3066 21.8012Z" fill="white"/>
<path d="M51.0528 19.4825L47.351 21.4683L49.1895 24.8973L53.3109 22.6771L53.8662 23.7132L48.5109 26.5871L43.4023 17.0773L48.5479 14.3145L49.1032 15.3505L45.1916 17.4474L46.808 20.4569L50.5099 18.4711L51.0528 19.4825Z" fill="white"/>
<path d="M53.9263 13.3028L50.8538 14.4869L50.4219 13.3768L57.8873 10.5029L58.3068 11.613L55.2219 12.7971L58.677 21.7765L57.3567 22.2822L53.9016 13.3028H53.9263Z" fill="white"/>
<path d="M62.0084 9.23242C62.0084 10.6262 61.8109 12.464 61.5765 13.3027L60.7374 13.6481C60.8238 12.6367 60.7744 10.9222 60.6387 9.7628L62.0084 9.23242Z" fill="white"/>
<path d="M65.6256 17.8418C66.3167 18.1009 67.2668 18.2489 68.2169 18.0762C69.6236 17.8172 70.3023 16.9168 70.0925 15.8437C69.9074 14.857 69.2288 14.3882 67.6863 14.1046C65.8354 13.8209 64.6015 13.1178 64.3177 11.6254C64.0092 9.97258 65.1444 8.48013 67.2051 8.09776C68.291 7.88808 69.1301 7.99909 69.6483 8.17177L69.4879 9.35586C69.1054 9.23252 68.3403 9.0475 67.3779 9.23252C65.9341 9.50387 65.5393 10.4783 65.675 11.206C65.8601 12.1927 66.6005 12.5628 68.1799 12.8588C70.1049 13.2165 71.1784 13.9072 71.4746 15.4613C71.783 17.1018 70.8329 18.7423 68.328 19.2233C67.3038 19.4206 66.1316 19.322 65.4899 19.0629L65.6133 17.8418H65.6256Z" fill="white"/>
<path d="M76.6686 7.27124C77.2732 7.13556 78.2357 7.02456 79.2105 6.99989C80.6049 6.97522 81.5057 7.19724 82.1967 7.73994C82.7643 8.14698 83.1098 8.78836 83.1221 9.63942C83.1345 10.6878 82.4681 11.6129 81.3329 12.0446V12.0816C82.3694 12.316 83.5787 13.1547 83.6034 14.7582C83.6157 15.6832 83.2579 16.3986 82.7273 16.9413C81.9869 17.6444 80.7776 17.9897 79.0007 18.0144C78.0383 18.0267 77.2979 17.9774 76.829 17.9281L76.6562 7.29591L76.6686 7.27124ZM78.137 11.6746L79.4079 11.6499C80.8887 11.6252 81.7401 10.8359 81.7154 9.79977C81.6907 8.52934 80.7283 8.0483 79.3092 8.07297C78.6676 8.07297 78.2974 8.13464 78.0753 8.18398L78.137 11.6622V11.6746ZM78.2234 16.855C78.4948 16.9043 78.902 16.9043 79.3956 16.9043C80.8393 16.8796 82.1596 16.3246 82.135 14.7582C82.1103 13.278 80.827 12.6983 79.3092 12.723L78.1493 12.7477L78.211 16.8673L78.2234 16.855Z" fill="white"/>
<path d="M88.0095 7.40731L87.1458 13.7471C86.8126 16.14 87.7504 17.3117 89.1694 17.4968C90.7612 17.7188 91.9211 16.806 92.242 14.4379L93.1057 8.09803L94.5001 8.28304L93.6487 14.5242C93.2044 17.8174 91.2795 18.9275 88.9597 18.6068C86.7632 18.3108 85.2825 16.8307 85.7391 13.5128L86.6028 7.20996L87.9972 7.39498L88.0095 7.40731Z" fill="white"/>
<path d="M99.0638 9.41763L96.4355 19.9018L95.0781 19.5687L97.7064 9.07227L99.0638 9.40529V9.41763Z" fill="white"/>
<path d="M102.113 10.2441L103.433 10.7005L100.287 19.8032L104.655 21.308L104.272 22.4181L98.584 20.4569L102.113 10.2441Z" fill="white"/>
<path d="M110.232 13.3647C111.046 13.6361 111.984 14.0061 112.971 14.5118C114.76 15.4246 115.809 16.4853 116.253 17.7064C116.71 18.9275 116.636 20.2966 115.846 21.8507C115.044 23.4172 113.896 24.4533 112.551 24.885C111.194 25.329 109.454 25.0453 107.591 24.0956C106.703 23.6392 105.987 23.2198 105.395 22.8251L110.244 13.3647H110.232ZM107.122 22.5045C107.406 22.7265 107.85 22.9732 108.344 23.2198C110.997 24.5766 113.193 23.8366 114.526 21.234C115.698 18.9768 115.155 16.88 112.527 15.5356C111.885 15.2026 111.367 15.0175 111.009 14.9189L107.122 22.5045Z" fill="white"/>
<path d="M137.601 34.1969L138.44 35.307L130.74 41.1164L133.528 44.8044L132.591 45.5074L128.963 40.7094L137.588 34.1846L137.601 34.1969Z" fill="white"/>
<path d="M140.464 48.8625L138.342 45.2362L134.973 47.1974L137.342 51.243L136.33 51.8351L133.258 46.5807L142.599 41.1289L145.548 46.1736L144.536 46.7657L142.29 42.9297L139.341 44.6565L141.464 48.2828L140.464 48.8625Z" fill="white"/>
<path d="M146.745 51.5145L145.461 48.4926L146.547 48.0239L149.681 55.3875L148.595 55.8562L147.3 52.822L138.44 56.5963L137.885 55.3012L146.745 51.5269V51.5145Z" fill="white"/>
<path d="M151.1 59.4084C149.705 59.4701 147.854 59.3221 147.015 59.1247L146.633 58.2983C147.645 58.3477 149.36 58.2366 150.507 58.064L151.087 59.4084H151.1Z" fill="white"/>
<path d="M142.623 63.3307C142.388 64.0214 142.277 64.9835 142.487 65.9209C142.808 67.3147 143.721 67.956 144.782 67.7217C145.769 67.4997 146.201 66.8089 146.423 65.2548C146.645 63.3923 147.287 62.1342 148.78 61.7889C150.421 61.4189 151.951 62.5043 152.42 64.5518C152.667 65.6372 152.593 66.4636 152.433 66.994L151.236 66.8706C151.347 66.4883 151.495 65.7112 151.285 64.7491C150.952 63.306 149.977 62.9606 149.249 63.121C148.262 63.343 147.929 64.0954 147.694 65.6742C147.411 67.6107 146.757 68.7208 145.214 69.0661C143.585 69.4361 141.907 68.5481 141.34 66.0689C141.105 65.0575 141.154 63.8734 141.401 63.232L142.623 63.3183V63.3307Z" fill="white"/>
<path d="M153.618 74.0615C153.766 74.6659 153.914 75.6156 153.951 76.6024C154.012 77.9962 153.815 78.9089 153.297 79.5996C152.902 80.1793 152.285 80.5494 151.434 80.5864C150.397 80.6357 149.447 79.982 148.978 78.8719H148.941C148.731 79.908 147.929 81.1537 146.337 81.2154C145.412 81.2524 144.684 80.9194 144.129 80.4013C143.401 79.6736 143.03 78.4772 142.956 76.7134C142.907 75.7513 142.956 75.0113 142.993 74.5426L153.618 74.0739V74.0615ZM144.079 75.887C144.042 76.1584 144.042 76.5654 144.079 77.0588C144.141 78.5019 144.733 79.8093 146.3 79.7353C147.769 79.6736 148.324 78.3785 148.262 76.8614L148.213 75.702L144.092 75.887H144.079ZM149.262 75.6526L149.323 76.9231C149.385 78.3909 150.2 79.2296 151.236 79.1803C152.507 79.1186 152.951 78.1442 152.89 76.7257C152.865 76.0843 152.791 75.7143 152.742 75.4923L149.262 75.6526Z" fill="white"/>
<path d="M153.864 85.3103L147.497 84.6689C145.091 84.4223 143.956 85.3967 143.808 86.8274C143.647 88.4186 144.598 89.5533 146.979 89.7877L153.346 90.429L153.21 91.8352L146.942 91.2061C143.635 90.8731 142.45 88.9983 142.685 86.6671C142.907 84.4592 144.338 82.9298 147.67 83.2628L154.013 83.9042L153.877 85.3103H153.864Z" fill="white"/>
<path d="M152.223 96.4606L141.648 94.2158L141.945 92.8467L152.52 95.0915L152.236 96.4606H152.223Z" fill="white"/>
<path d="M151.532 99.5072L151.125 100.839L141.907 98.0271L140.562 102.443L139.439 102.097L141.192 96.3496L151.532 99.5072Z" fill="white"/>
<path d="M148.719 107.709C148.473 108.536 148.139 109.486 147.671 110.497C146.819 112.31 145.795 113.408 144.598 113.889C143.389 114.382 142.019 114.37 140.44 113.63C138.835 112.89 137.762 111.78 137.293 110.448C136.799 109.103 137.022 107.364 137.898 105.465C138.317 104.564 138.712 103.824 139.082 103.22L148.719 107.709ZM139.465 104.934C139.255 105.23 139.021 105.687 138.798 106.18C137.54 108.881 138.367 111.052 141.007 112.285C143.315 113.383 145.388 112.754 146.634 110.078C146.943 109.424 147.115 108.906 147.202 108.536L139.465 104.934Z" fill="white"/>
<path d="M128.865 135.832L127.779 136.708L121.696 129.233L118.117 132.144L117.377 131.231L122.041 127.432L128.865 135.819V135.832Z" fill="white"/>
<path d="M114.292 139.224L117.846 136.979L115.76 133.685L111.799 136.189L111.17 135.203L116.303 131.946L122.09 141.074L117.155 144.194L116.525 143.207L120.276 140.827L118.45 137.941L114.896 140.186L114.279 139.211L114.292 139.224Z" fill="white"/>
<path d="M111.885 145.576L114.859 144.182L115.365 145.255L108.122 148.659L107.616 147.586L110.602 146.18L106.518 137.472L107.801 136.868L111.885 145.576Z" fill="white"/>
<path d="M104.148 150.213C104.037 148.82 104.111 146.969 104.284 146.131L105.098 145.724C105.086 146.735 105.259 148.437 105.481 149.584L104.161 150.213H104.148Z" fill="white"/>
<path d="M99.9169 141.888C99.2136 141.678 98.2511 141.604 97.3133 141.851C95.9313 142.221 95.3266 143.158 95.5981 144.219C95.8572 145.193 96.5606 145.6 98.1153 145.773C99.9786 145.921 101.274 146.525 101.657 147.993C102.089 149.621 101.064 151.188 99.0285 151.73C97.9549 152.014 97.1159 151.977 96.5853 151.829L96.6593 150.633C97.0542 150.731 97.8315 150.855 98.7693 150.596C100.201 150.213 100.509 149.227 100.324 148.511C100.065 147.537 99.2999 147.228 97.7082 147.043C95.7585 146.834 94.6356 146.217 94.2284 144.687C93.7965 143.072 94.6233 141.37 97.0912 140.704C98.103 140.432 99.2753 140.432 99.9293 140.667L99.8922 141.888H99.9169Z" fill="white"/>
<path d="M89.563 153.26C88.9707 153.432 88.0206 153.605 87.0458 153.692C85.6514 153.803 84.7383 153.63 84.0226 153.149C83.4303 152.779 83.0478 152.162 82.9738 151.323C82.8874 150.287 83.5044 149.325 84.6026 148.807V148.77C83.5537 148.597 82.2828 147.845 82.1594 146.254C82.0853 145.329 82.3938 144.589 82.8997 144.021C83.5907 143.269 84.7877 142.862 86.5399 142.714C87.5023 142.64 88.2427 142.64 88.7116 142.665L89.563 153.26ZM87.416 143.799C87.1445 143.775 86.7373 143.799 86.2437 143.824C84.8 143.935 83.5167 144.576 83.6401 146.143C83.7635 147.611 85.0715 148.116 86.5892 147.993L87.7368 147.907L87.4036 143.799H87.416ZM87.8232 148.967L86.5646 149.066C85.0962 149.189 84.2941 150.016 84.3805 151.064C84.4792 152.322 85.4787 152.742 86.8854 152.631C87.527 152.581 87.8849 152.507 88.107 152.433L87.8232 148.967Z" fill="white"/>
<path d="M78.3335 153.901L78.7407 147.524C78.9011 145.107 77.8893 144.009 76.4456 143.923C74.8414 143.824 73.7556 144.811 73.5952 147.191L73.1879 153.568L71.7812 153.482L72.1885 147.191C72.3982 143.873 74.2368 142.628 76.569 142.788C78.7777 142.936 80.3572 144.305 80.1474 147.648L79.7402 154L78.3335 153.914V153.901Z" fill="white"/>
<path d="M67.168 152.68L69.0189 142.036L70.3886 142.27L68.5376 152.914L67.168 152.68Z" fill="white"/>
<path d="M64.0699 152.088L62.7249 151.73L65.2052 142.418L60.7383 141.234L61.0344 140.099L66.8463 141.641L64.0699 152.076V152.088Z" fill="white"/>
<path d="M55.7405 149.572C54.9137 149.362 53.9389 149.054 52.9271 148.622C51.0762 147.845 49.9533 146.859 49.4227 145.674C48.8797 144.49 48.8551 143.121 49.5337 141.505C50.2247 139.877 51.2859 138.767 52.6063 138.249C53.9266 137.719 55.6788 137.867 57.6161 138.681C58.5292 139.063 59.2819 139.433 59.8989 139.791L55.7528 149.572H55.7405ZM58.1837 140.235C57.8875 140.038 57.4187 139.828 56.9127 139.606C54.1734 138.447 52.0263 139.347 50.8911 142.036C49.8792 144.379 50.5826 146.427 53.2973 147.574C53.9636 147.858 54.4942 148.006 54.8644 148.08L58.1837 140.235Z" fill="white"/>
<path d="M26.9405 130.75L26.0273 129.701L33.2829 123.362L30.2474 119.883L31.1235 119.119L35.0845 123.645L26.9528 130.762L26.9405 130.75Z" fill="white"/>
<path d="M23.0284 116.331L25.4099 119.797L28.6305 117.589L25.9775 113.729L26.94 113.062L30.3827 118.083L21.4613 124.2L18.1543 119.39L19.1168 118.724L21.634 122.387L24.4474 120.451L22.0659 116.985L23.016 116.331H23.0284Z" fill="white"/>
<path d="M16.5872 114.148L18.0926 117.071L17.0437 117.614L13.3789 110.51L14.4278 109.967L15.9455 112.902L24.4968 108.499L25.1384 109.757L16.5872 114.16V114.148Z" fill="white"/>
<path d="M11.6647 106.587C13.0467 106.427 14.8976 106.439 15.749 106.587L16.1809 107.376C15.1691 107.401 13.4662 107.635 12.331 107.894L11.6523 106.587H11.6647Z" fill="white"/>
<path d="M19.8445 102.073C20.0295 101.357 20.0666 100.395 19.7951 99.47C19.3756 98.1009 18.4131 97.5335 17.3642 97.8419C16.4017 98.1379 16.0192 98.8533 15.9082 100.42C15.8218 102.295 15.2665 103.602 13.8105 104.046C12.194 104.539 10.5899 103.565 9.98522 101.554C9.6644 100.494 9.67674 99.655 9.78779 99.1123L10.9847 99.1493C10.8983 99.544 10.812 100.321 11.0958 101.258C11.5277 102.665 12.5395 102.948 13.2428 102.739C14.2053 102.443 14.4891 101.665 14.6125 100.074C14.7483 98.1256 15.3282 96.9661 16.846 96.5098C18.4378 96.0164 20.19 96.7811 20.9303 99.2233C21.2388 100.222 21.2758 101.394 21.0784 102.06H19.8568L19.8445 102.073Z" fill="white"/>
<path d="M8.09857 92.1682C7.90114 91.5762 7.69137 90.6387 7.58031 89.6643C7.4199 88.2829 7.55563 87.3578 8.01219 86.6301C8.3577 86.0257 8.96233 85.6187 9.80141 85.52C10.8379 85.3967 11.8251 85.9764 12.368 87.0618H12.405C12.5408 86.0134 13.2441 84.7183 14.8359 84.5333C15.7614 84.4223 16.5017 84.706 17.094 85.187C17.8714 85.853 18.328 87.0248 18.5378 88.7763C18.6488 89.726 18.6735 90.4661 18.6611 90.9348L8.09857 92.1682ZM12.331 90.2687L12.1829 89.0106C12.0102 87.5428 11.1464 86.7781 10.1099 86.9015C8.85128 87.0495 8.46875 88.0609 8.62916 89.467C8.7032 90.1084 8.78958 90.4661 8.86361 90.6757L12.3187 90.2687H12.331ZM17.4766 89.6643C17.4889 89.393 17.4642 88.9859 17.4025 88.4926C17.2298 87.0618 16.5511 85.8037 14.9963 85.9764C13.5279 86.1491 13.0714 87.4812 13.2441 88.986L13.3799 90.133L17.4766 89.652V89.6643Z" fill="white"/>
<path d="M7.03702 80.9562L13.4412 81.1413C15.8597 81.2153 16.9209 80.1668 16.9579 78.7237C17.0073 77.1203 15.9708 76.0595 13.5893 75.9979L7.18509 75.8128L7.22211 74.4067L13.5276 74.5794C16.8469 74.6781 18.1672 76.4542 18.0932 78.7977C18.0315 81.0056 16.7112 82.646 13.3672 82.5474L7 82.3623L7.03702 80.9562Z" fill="white"/>
<path d="M7.86283 69.7324L18.5735 71.2002L18.3884 72.5816L7.67773 71.1139L7.86283 69.7324Z" fill="white"/>
<path d="M8.3457 66.6361L8.65419 65.2793L18.0569 67.4131L19.081 62.9111L20.2286 63.1702L18.8959 69.0289L8.3457 66.6361Z" fill="white"/>
<path d="M10.5664 58.1998C10.7515 57.3611 11.023 56.3867 11.4178 55.3506C12.1335 53.4758 13.0713 52.3163 14.2436 51.7366C15.4158 51.1569 16.7855 51.0706 18.4143 51.6996C20.0678 52.3287 21.2154 53.3524 21.783 54.6475C22.3629 55.955 22.2766 57.7064 21.5362 59.6676C21.1783 60.5927 20.8328 61.3574 20.512 61.9864L10.5787 58.1875L10.5664 58.1998ZM19.9938 60.309C20.1788 60.0006 20.3763 59.5319 20.5737 59.0139C21.6349 56.2263 20.6601 54.1172 17.9331 53.0811C15.5515 52.156 13.5279 52.9331 12.479 55.6836C12.2199 56.362 12.0842 56.8924 12.0348 57.2624L20.0061 60.309H19.9938Z" fill="white"/>
<path d="M127.803 30.9777C125.582 29.1522 125.175 25.9823 126.878 23.9102C125.163 25.9823 121.979 26.1797 119.758 24.3419C121.979 26.1797 122.386 29.3372 120.683 31.4094C122.398 29.3372 125.582 29.1399 127.803 30.9777Z" fill="white"/>
<path d="M138.268 125.138C136.047 123.312 135.64 120.142 137.343 118.07C135.627 120.142 132.444 120.34 130.223 118.502C132.444 120.34 132.851 123.497 131.148 125.57C132.863 123.497 136.047 123.3 138.268 125.138Z" fill="white"/>
<path d="M30.0863 43.3122C27.8652 41.4867 27.458 38.3168 29.1609 36.2446C27.4457 38.3168 24.2621 38.5141 22.041 36.6763C24.2621 38.5141 24.6693 41.6717 22.9665 43.7439C24.6817 41.6717 27.8652 41.4744 30.0863 43.3122Z" fill="white"/>
<path d="M45.4985 138.706C43.2774 136.88 42.8701 133.71 44.573 131.638C42.8578 133.71 39.6742 133.908 37.4531 132.07C39.6742 133.908 40.0814 137.065 38.3786 139.137C40.0938 137.065 43.2774 136.868 45.4985 138.706Z" fill="white"/>
</g>
<g clip-path="url(#clip1_0_1)">
<path d="M96.1296 64.3221C96.1296 64.3221 96.1249 64.3255 96.1221 64.3269C91.4062 67.2409 85.3031 67.0075 80.827 63.6233C80.3545 63.2656 79.6905 63.3095 79.2709 63.7291C79.2395 63.7605 79.2108 63.7933 79.1841 63.8268C79.1541 63.85 79.1254 63.8746 79.098 63.902L77.0085 65.9915C76.6279 66.3721 76.6277 66.9938 77.0066 67.3727C77.3855 67.7516 78.0079 67.7508 78.3878 67.3709L79.9 65.8587C83.5436 68.2327 88.0803 68.6736 92.0635 67.1807L61.8718 97.3723C61.4727 97.7714 61.4418 98.4265 61.833 98.8327C62.2316 99.2464 62.8908 99.2496 63.296 98.8444L93.511 68.6295C92.018 72.6127 92.4589 77.1494 94.8329 80.793L93.3207 82.3052C92.9401 82.6858 92.94 83.3074 93.3189 83.6864C93.6978 84.0653 94.3202 84.0644 94.7001 83.6845L96.7897 81.5949C96.817 81.5676 96.8416 81.5389 96.8648 81.5089C96.8983 81.4822 96.9311 81.4535 96.9625 81.4221C97.3828 81.0018 97.426 80.3385 97.0683 79.866C93.6841 75.3899 93.4514 69.2861 96.3647 64.5709C96.3668 64.5688 96.3681 64.5661 96.3695 64.5634C96.468 64.4049 96.2874 64.2243 96.1283 64.3221L96.1296 64.3221Z" fill="white"/>
</g>
<defs>
<filter id="filter0_b_0_1" x="-14" y="-14" width="188" height="188" filterUnits="userSpaceOnUse" color-interpolation-filters="sRGB">
<feFlood flood-opacity="0" result="BackgroundImageFix"/>
<feGaussianBlur in="BackgroundImageFix" stdDeviation="7"/>
<feComposite in2="SourceAlpha" operator="in" result="effect1_backgroundBlur_0_1"/>
<feBlend mode="normal" in="SourceGraphic" in2="effect1_backgroundBlur_0_1" result="shape"/>
</filter>
<clipPath id="clip0_0_1">
<rect width="147" height="147" fill="white" transform="translate(7 7)"/>
</clipPath>
<clipPath id="clip1_0_1">
<rect width="48.7903" height="25.0207" fill="white" transform="translate(53 90) rotate(-45)"/>
</clipPath>
</defs>
</svg>
