<?xml version="1.0" encoding="utf-8"?>
<!-- Generator: Adobe Illustrator 28.2.0, SVG Export Plug-In . SVG Version: 6.00 Build 0)  -->
<svg version="1.2" baseProfile="tiny" xmlns="http://www.w3.org/2000/svg" xmlns:xlink="http://www.w3.org/1999/xlink" x="0px"
	 y="0px" viewBox="0 0 24.3 16.8" overflow="visible" xml:space="preserve">
<g id="Background_Complete">
</g>
<g id="Background_Simple" display="none">
	<g display="inline">
		<path fill="#407BFF" d="M-983-802.2c35.6-13.7,80.9-27.9,119.6,20c31.4,38.9,12.6,86.3-11.4,109.3c-27.7,26.5-74,12.7-111.5,24.9
			c-38.2,12.5-24,68.6-62.5,78.3c-37.4,9.4-92.8-34.4-115.6-66.2c-28-39-27.2-81.3-20-115.9c7.6-36.8,27.3-70.9,77.2-70
			C-1061.2-820.8-1025.2-785.9-983-802.2z"/>
		<image width="1426" height="1057" xlink:href="CFC21CEA13536F1B.png"  transform="matrix(0.24 0 0 0.24 -1188.9611 -821.9244)">
		</image>
	</g>
</g>
<g id="Shadow_1_">
</g>
<g id="Assembly_line">
	<path fill="#FFFFFF" d="M-733-795.7c0,0,3.2-0.9,4.6-0.9c3.7,0,10.3,5.3,14.4,7.9c6.2,4,8.4,5.4,12.5,5.4c5.7,0,7.5-3.2,7.5-3.2
		s-1,1.1-4.2,1.1c-4.4,0-7.7-2.7-12.6-6.1c-4.8-3.4-10.4-6.9-14.9-6.9C-731-798.3-733-795.7-733-795.7z"/>
	<image width="164" height="63" xlink:href="CFC21CEA13536F19.png"  transform="matrix(0.24 0 0 0.24 -733.201 -798.4044)">
	</image>
	<image width="29" height="39" xlink:href="CFC21CEA13536F1F.png"  transform="matrix(0.24 0 0 0.24 -714.961 -794.3244)">
	</image>
	<path fill="#FFFFFF" d="M-713.3-789v11.5c0,4,4,3.4,4,3.4s0-7.2,0-11.5s0.2-8.7,7-11.8c0.6-0.3,1.2-0.3,1.8-0.2c0.2,0,0.5,0,0.7,0
		c2.8-0.1,5.1,1,5.1,1s-2.9-3.3-8.1-3.3C-708-799.7-713.3-795.4-713.3-789z"/>
	<image width="79" height="110" xlink:href="CFC21CEA13536F18.png"  transform="matrix(0.24 0 0 0.24 -713.521 -799.8444)">
	</image>
	<path fill="#FFFFFF" d="M-726.6-804.4c0,0,7.2,4.2,7.8,5.4c0.3,0.7,0.6,1.7,0.6,3.3c0,7.2-6.5,10.6-10.3,10.6
		c-3.1,0-4.9-1.9-4.9-1.9s3.4,3.7,8.6,3.7c6.6,0,10.6-5.7,10.6-9.9c0-3.3-1.6-5.6-3-7.3c-2.9-3.6-7.4-3.9-9-3.9
		C-726.3-804.4-726.6-804.4-726.6-804.4z"/>
	<image width="81" height="88" xlink:href="CFC21CEA13536F16.png"  transform="matrix(0.24 0 0 0.24 -733.441 -804.4044)">
	</image>
	<path fill="#FFFFFF" d="M-733.4-802.6c0,0,0,0.6,0.5,1.8c0.5,1.3,0.9,1.6,1.2,1.6s2-1.5,5.6-1.5c3.7,0,7.3,1.9,7.3,1.9
		c0,0-0.8-2.1-2.8-3.6c-1.5-1.1-3.7-1.8-5-1.8C-730.3-804.4-733.4-802.6-733.4-802.6z"/>
	<image width="75" height="58" xlink:href="CFC21CEA13536F17.png"  transform="matrix(0.24 0 0 0.24 -735.121 -808.7244)">
	</image>
	<path fill="#FFFFFF" d="M-733-795.8c-0.8,0.4-2,2.7-2,4.5c0,1.5,0.8,4.9,4.4,5.8c3,0.8,4.8-0.2,4.8-0.2s-4.2-0.6-4.2-5.6
		c0-3.2,2.9-5.2,2.9-5.2s-0.5-0.2-2.3-0.2C-730.5-796.6-731.8-796.4-733-795.8z"/>
	<image width="39" height="51" xlink:href="CFC21CEA13536F27.png"  transform="matrix(0.24 0 0 0.24 -735.121 -796.7244)">
	</image>
	<path fill="#FFFFFF" d="M-735-791.3c0-1.8,1.2-4.1,2-4.5c1.2-0.6,2.5-0.9,3.6-0.9c1.7,0,2.2,0.2,2.2,0.2s-2.9,2-2.9,5.2
		c0,5,4.2,5.6,4.2,5.6s-0.9,0.5-2.5,0.5c-0.6,0-1.4-0.1-2.3-0.3C-734.2-786.3-735-789.7-735-791.3c0,1.5,0.8,4.9,4.4,5.8
		c0.9,0.2,1.6,0.3,2.3,0.3c1.6,0,2.5-0.5,2.5-0.5s-4.2-0.6-4.2-5.6c0-3.2,2.9-5.2,2.9-5.2s-0.5-0.2-2.2-0.2c-1.1,0-2.4,0.2-3.6,0.9
		C-733.7-795.3-735-793.1-735-791.3z"/>
	<path fill="#FFFFFF" d="M-702.3-797.2c0,0,5.1,0.8,5.1,5.7c0,4.5-3.5,5.9-3.5,5.9s2.8,0.8,5.7-0.1c1.5-0.5,2.7-2.8,2.7-5.4
		c0-1.4-0.8-4-2.1-5.1c-1.1-0.9-2.7-1.4-4.1-1.4C-701.5-797.7-702.3-797.2-702.3-797.2z"/>
	<image width="42" height="55" xlink:href="CFC21CEA13536F29.png"  transform="matrix(0.24 0 0 0.24 -702.481 -797.9244)">
	</image>
	<path fill-rule="evenodd" fill="#FFFFFF" d="M-674-786h-3.1c-0.8-0.2-1.2-0.8-1.2-1.7c-0.4,0.5-0.8,0.9-1.3,1.2
		c-1.4,0.8-3.9,0.9-5.4,0.2c-1.6-0.8-2.6-2.5-2-4.3c0.5-1.7,2.1-2.5,3.8-2.8c1.3-0.2,2.9-0.2,4.8-0.2c0-0.9-0.2-1.5-0.6-1.9
		c-0.9-1-2.8-0.9-4-0.6c-1,0.2-1.9,0.6-2.4,1.1l-0.1-2.8c1.3-0.5,2.8-0.8,4.3-0.8c1.7,0,3.9,0.3,5,1.8c0.6,0.6,0.7,1.5,0.8,2.5
		c0.1,1.3,0.1,2.6,0.1,3.9v2.5c0,0.1,0,0.1,0,0.2C-675.2-786.6-674.7-786.1-674-786z M-678.4-791.5c0,1.3-0.5,2.5-1.4,3.1
		c-1.2,0.8-3.5,0.8-3.8-0.9c-0.1-0.5,0.1-1.1,0.6-1.5C-681.9-791.6-679.7-791.6-678.4-791.5z"/>
	<path fill-rule="evenodd" fill="#FFFFFF" d="M-645-786h-3.1c-0.8-0.2-1.2-0.8-1.2-1.7c-0.4,0.5-0.8,0.9-1.3,1.2
		c-1.4,0.8-3.9,0.9-5.4,0.2c-1.6-0.8-2.6-2.5-2-4.3c0.5-1.7,2.1-2.5,3.8-2.8c1.3-0.2,2.9-0.2,4.8-0.2c0-0.9-0.2-1.5-0.6-1.9
		c-0.9-1-2.8-0.9-4-0.6c-1,0.2-1.9,0.6-2.4,1.1l-0.1-2.8c1.3-0.5,2.8-0.8,4.3-0.8c1.7,0,3.9,0.3,5,1.8c0.6,0.6,0.7,1.5,0.8,2.5
		c0.1,1.3,0.1,2.6,0.1,3.9v2.5c0,0.1,0,0.1,0,0.2C-646.2-786.6-645.7-786.1-645-786z M-649.4-791.5c0,1.3-0.5,2.5-1.4,3.1
		c-1.2,0.8-3.5,0.8-3.8-0.9c-0.1-0.5,0.1-1.1,0.6-1.5C-652.9-791.6-650.7-791.6-649.4-791.5z"/>
	<path fill-rule="evenodd" fill="#FFFFFF" d="M-662.9-798.3h3.4v12.3c-2.1,0.1-3.5-0.9-3.4-2.5V-798.3z"/>
	<path fill-rule="evenodd" fill="#FFFFFF" d="M-662.7-803.5c-0.1-0.1-0.3-0.1-0.3,0c-0.1,0.1-0.1,0.1-0.2,0.2c-0.1,0,0.1,0.6,0,0.9
		c0,0.1,0.1,0.1,0.1,0.1c0.1,0.1,0.1,0.1,0,0.2c0.1,0.1,0.1,0.1,0,0.1c-0.1,0.1,0,0.1,0,0.2c0,0.1,0.1,0.2,0.2,0.3
		c0.2,0.1,0.3,0.1,0.5,0.2c0.1,0.1,0.1,0.2,0.2,0.4c-0.1,0.5,0.5,0.4,0.7,0.4c0.1,0-0.1-0.1,0-0.2c0,0,0.1,0,0.2-0.1
		c0.3-0.1,0.3-0.1,0.3-0.3c0-0.1,0-0.1,0.1-0.1c0.1,0,0-0.1,0.2-0.1c0.1,0.1,0.1,0,0.1-0.1c0-0.1,0.1-0.1,0.3-0.1
		c0.3,0.1,0.1-0.1,0.2-0.1c0.3,0,0.3,0,0.5-0.4c0.1-0.1,0.1-0.2,0.1-0.3c0-0.2,0.1-0.1,0.1-0.3c0-0.1,0-0.3-0.1-0.4
		c-0.1-0.2-0.1-0.1-0.2-0.3c-0.1-0.2-0.1-0.3-0.3-0.5c-0.1-0.2-0.4-0.4-0.5-0.5c-0.2-0.1-0.1-0.1-0.3-0.3c0,0-0.1-0.1-0.1-0.1
		c-0.1-0.1-0.3-0.1-0.4-0.1c-0.1,0-0.1,0-0.2,0c-0.1,0.1,0,0.1-0.2,0.1c-0.1,0-0.1,0.1-0.2,0.1c0,0-0.1,0-0.1,0.1
		c-0.1,0.1-0.1,0.2-0.2,0.2c-0.1,0-0.1,0-0.2,0.1c0,0.1-0.1,0.2-0.2,0.2c-0.2,0-0.1,0-0.1,0.1c0,0-0.1,0-0.1,0
		C-662.6-803.6-662.6-803.5-662.7-803.5z"/>
	<path fill-rule="evenodd" fill="#FFFFFF" d="M-673.5-786.3c0-0.9,0.5-1.7,1.3-2c0.5-0.1,0.9,0,1.4,0.1c0.9,0.1,1.8,0,2.4-0.3
		c1-0.4,0.9-1.4,0.1-2c-1-0.6-3-0.8-4.3-1.8c-0.8-0.7-1.1-1.6-1-2.5c0.1-1.6,1.2-2.6,2.6-3.1c1.6-0.6,3.8-0.6,6.2,0l-0.2,2.4
		c-1.7-0.6-3.9-0.7-4.8,0.1c-0.6,0.5-0.5,1.1,0.1,1.5c1.5,0.8,3.3,0.6,4.6,2c1.2,1.3,1.1,3.5-0.2,4.8c-0.8,0.9-2.1,1.3-3.5,1.4
		C-670.2-785.7-671.8-785.8-673.5-786.3z"/>
	<path fill-rule="evenodd" fill="#FFFFFF" d="M-632.9-797.5c1.3,0.9,1.5,2.1,1.5,3.6c0,2.7,0,5.3,0,8c-2.5,0.2-3.2-0.8-3.3-1.7
		l0-4.3c0-0.9,0-1.9-0.4-2.7c-0.5-0.9-1.3-1.2-2.2-1.1c-1.4,0.1-2.3,1-2.7,2.3c-0.1,0.6-0.2,1.1-0.2,1.7l-0.1,5.7h-3.4v-12.2h3.2
		v1.9c0.6-0.9,1.5-1.5,2.6-1.8C-636.2-798.6-634.2-798.5-632.9-797.5z"/>
	<path fill-rule="evenodd" fill="#FFFFFF" d="M-602.6-786h-3.1c-0.8-0.2-1.2-0.8-1.2-1.7c-0.4,0.5-0.8,0.9-1.3,1.2
		c-1.4,0.8-3.9,0.9-5.4,0.2c-1.6-0.8-2.6-2.5-2-4.3c0.5-1.7,2.1-2.5,3.8-2.8c1.3-0.2,2.9-0.2,4.8-0.2c0-0.9-0.2-1.5-0.6-1.9
		c-0.9-1-2.8-0.9-4-0.6c-1,0.2-1.9,0.6-2.4,1.1l-0.1-2.8c1.3-0.5,2.8-0.8,4.3-0.8c1.7,0,3.9,0.3,5,1.8c0.6,0.6,0.7,1.5,0.8,2.5
		c0.1,1.3,0.1,2.6,0.1,3.9v2.5c0,0.1,0,0.1,0,0.2C-603.8-786.6-603.3-786.1-602.6-786z M-607-791.5c0,1.3-0.5,2.5-1.4,3.1
		c-1.2,0.8-3.5,0.8-3.8-0.9c-0.1-0.5,0.1-1.1,0.6-1.5C-610.6-791.6-608.3-791.6-607-791.5z"/>
	<path fill-rule="evenodd" fill="#FFFFFF" d="M-602.3-798.3h3.4v12.3c-2.1,0.1-3.5-0.9-3.4-2.5V-798.3z"/>
	<path fill-rule="evenodd" fill="#FFFFFF" d="M-602.1-803.5c-0.1-0.1-0.3-0.1-0.3,0c-0.1,0.1-0.1,0.1-0.2,0.2c-0.1,0,0.1,0.6,0,0.9
		c0,0.1,0.1,0.1,0.1,0.1c0.1,0.1,0.1,0.1,0,0.2c0.1,0.1,0.1,0.1,0,0.1c-0.1,0.1,0,0.1,0,0.2c0,0.1,0.1,0.2,0.2,0.3
		c0.2,0.1,0.3,0.1,0.5,0.2c0.1,0.1,0.1,0.2,0.2,0.4c-0.1,0.5,0.5,0.4,0.7,0.4c0.1,0-0.1-0.1,0-0.2c0,0,0.1,0,0.2-0.1
		c0.3-0.1,0.3-0.1,0.3-0.3c0-0.1,0-0.1,0.1-0.1c0.1,0,0-0.1,0.2-0.1c0.1,0,0.1,0,0.1-0.1c0-0.1,0.1-0.1,0.3-0.1
		c0.3,0.1,0.1-0.1,0.2-0.1c0.3,0,0.3,0,0.5-0.4c0.1-0.1,0.1-0.2,0.1-0.3c0-0.2,0.1-0.1,0.1-0.3c0-0.1,0-0.3-0.1-0.4
		c-0.1-0.2-0.1-0.1-0.2-0.3c-0.1-0.2-0.1-0.3-0.3-0.5c-0.1-0.2-0.4-0.4-0.5-0.5c-0.2-0.1-0.1-0.1-0.3-0.3c0,0-0.1-0.1-0.1-0.1
		c-0.1-0.1-0.3-0.1-0.4-0.1c-0.1,0-0.1,0-0.2,0c-0.1,0.1,0,0.1-0.2,0.1c-0.1,0-0.1,0.1-0.2,0.1c0,0-0.1,0-0.1,0.1
		c-0.1,0.1-0.1,0.2-0.2,0.2c-0.1,0-0.1,0-0.2,0.1c0,0.1-0.1,0.2-0.2,0.2c-0.2,0-0.1,0-0.1,0.1c-0.1,0-0.1,0-0.1,0
		C-602-803.6-602-803.5-602.1-803.5z"/>
	<path fill-rule="evenodd" fill="#FFFFFF" d="M-575.2-786.3c0-0.9,0.5-1.7,1.3-2c0.5-0.1,0.9,0,1.4,0.1c0.9,0.1,1.8,0,2.4-0.3
		c1-0.4,0.9-1.4,0.1-2c-1-0.6-3-0.8-4.3-1.8c-0.8-0.7-1.1-1.6-1-2.5c0.1-1.6,1.2-2.6,2.6-3.1c1.6-0.6,3.8-0.6,6.2,0l-0.2,2.4
		c-1.7-0.6-3.9-0.7-4.8,0.1c-0.6,0.5-0.5,1.1,0.1,1.5c1.5,0.8,3.3,0.6,4.6,2c1.2,1.3,1.1,3.5-0.2,4.8c-0.8,0.9-2.1,1.3-3.5,1.4
		C-571.9-785.7-573.5-785.8-575.2-786.3z"/>
	<path fill-rule="evenodd" fill="#FFFFFF" d="M-586-797.7c1.3,0.9,1.5,2.1,1.5,3.6l0.1,5.8c0,0.7,0.3,1.7,1.9,2.2h-3.4
		c-1.4-0.2-1.8-1-1.9-1.7l0-4.3c0-0.9,0-1.9-0.4-2.7c-0.5-0.9-1.3-1.2-2.2-1.1c-1.4,0.1-2.3,1-2.7,2.3c-0.1,0.6-0.2,1.1-0.2,1.7
		l-0.1,5.7h-3.4v-12.2h3.2v1.9c0.6-0.9,1.5-1.5,2.6-1.8C-589.4-798.7-587.4-798.7-586-797.7z"/>
	<path fill-rule="evenodd" fill="#FFFFFF" d="M-579.8-801.8c-1.9-0.1-3.3,0.9-3.3,2.4l-0.1,8.9c0,2.6,0.9,3.9,2.6,4.4
		c1.1,0.3,2.5,0.3,4.1-0.1l-0.1-2.5c-1.9,0.5-3.2,0-3.2-1.8v-5.4h3v-2.4h-3L-579.8-801.8L-579.8-801.8z"/>
	<path fill-rule="evenodd" fill="#FFFFFF" d="M-620.8-794.6c0.8,1.4,0.7,3.8-0.2,5c-1,1.4-3.1,1.6-4.3,0.4c-1.2-1.2-1.2-3.7-0.4-5.2
		C-624.7-796.2-621.9-796.5-620.8-794.6z M-626.1-787.4c0,1.8-0.1,3.8-0.1,5.6v0.3c-0.1,0.3-0.1,0.2-0.3,0.3
		c-0.1,0.1-0.2,0.3-0.2,0.4c0.1,1.3-0.1,2-0.1,3.3c0,0.5-0.3,0.4-0.4,0.7c0,0.2-0.1,0.4-0.1,0.4v-1.3c-0.1,0-0.1,0.3-0.1,0.5
		c0,0.1,0,0.3,0,0.5c-0.1,0.2-0.1,0.5-0.1,0.7c0,0.1-0.1,0.1-0.2,0v-0.5c-0.1-0.1-0.1-0.2-0.2-0.4v-1.3c-0.2-0.1-0.2-0.3-0.1-1
		c0.1-0.8,0.1-1.7,0.1-2.5c0-0.1-0.1-0.2-0.1-0.2c-0.1,0.7-0.3,1.2-0.3,2c0.1,0.1,0.1,0.2,0.1,0.4c0,0.1-0.1,0.2-0.1,0.4
		c0,0.2-0.1,0.3-0.2,0.3c-0.1-0.3,0-1.3,0.1-1.8v-2.5c-0.2-0.1-0.1,0.3-0.2,0.5c0,0.3,0,0.4-0.1,0.5c-0.1-1.3,0.1-2.1,0-4.3
		c0-0.1,0-0.2-0.2-0.2c-0.1,1.8,0.1,3.4-0.1,5c0,0.3,0,0.5,0,0.8c0,0.1,0.1,0.4-0.1,0.4c-0.1-0.1-0.1-0.1-0.1-0.2
		c0.1-0.1,0.1,0,0.1-0.3c0-0.2,0.1-0.3-0.1-0.4c-0.1-0.1-0.1-0.3,0-0.4c0.1-0.2,0.1-0.4,0-0.5c-0.1-0.1,0.1-0.1,0.1-0.3
		c0.1-1-0.3-0.4-0.2-1.4c0-0.2,0-0.4,0-0.7c0-1.2,0-2.5,0-3.7c0-0.1-0.1-0.2-0.1-0.1c-0.3,0.4-0.2-0.6-0.2-0.8c0-1.9,0-3.8,0.1-4.1
		c0-1,0-2,0-3c-0.1-0.1-0.2,0.2-0.2,0.3v0.1c0,0.1-0.2,0.1-0.2,0c0-0.1,0-0.1,0-0.1c0-0.5,0-1.3,0.1-1.2c0-0.8,0.1-1.4,0.3-1.6
		c0.1-0.1,0.4-0.1,0.5,0.1c0.1,0.1,0,0.2,0.1,0.2c0.1,0,0.2,0,0.2,0c0.1,0,0.1-0.1,0.2-0.1c0.2,0,0,0.4,0.4,0.4
		c0.4,0,0.3-0.3,0.4-0.4c0-0.1,0.3-0.1,0.3-0.1c0.1,0.2-0.1,0.2,0.3,0.2c0.8,0,0.9,0.4,0.9,0.8v1c2-2.5,6.5-2.6,8.5,0.3
		c1.5,2.2,1.4,6.3-0.3,8.4C-619.8-785.4-624.2-784.9-626.1-787.4z"/>
	<g>
		<image width="405" height="121" xlink:href="CFC21CEA13536F2B.png"  transform="matrix(0.24 0 0 0.24 -582.721 -1018.4844)">
		</image>
	</g>
	<g>
		<g>
			<path fill="#FFFFFF" d="M-517.3-953.7c0,0.2,0,0.3,0,0.4c-0.3,1.3-0.7,2.7-1,4c-0.1,0.3-0.2,0.5-0.6,0.4c-0.6,0-1.2,0-1.8,0
				c-2.9-0.1-4.8-1.7-5.2-4.5c-0.7-4.7,2.3-9.8,6.8-11.6c2.2-0.9,4.4-1,6.5,0.3c1.4,0.9,2.1,2.2,2.2,3.7c0.1,1.9-0.3,3.7-0.8,5.5
				c-0.9,3.4-1.9,6.8-2.8,10.2c-0.2,0.9-0.6,1.5-1.5,1.9c-1.2,0.6-2.4,1.3-3.7,2.1c0.1-0.3,0.1-0.5,0.2-0.7c1-3.7,2.1-7.4,3.1-11.1
				c0.4-1.7,0.9-3.3,1.1-5c0.3-2.2-1.7-3.6-3.8-2.7c-2.4,1.1-3.3,3.5-2.8,5.6c0.3,1.2,1.5,1.8,2.9,1.6
				C-518.1-953.6-517.7-953.7-517.3-953.7L-517.3-953.7z"/>
			<path fill="#FFFFFF" d="M-534.1-953.8c-0.3,1.4-0.7,2.7-1,4c-0.2,0.9-0.2,1-1.2,0.9c-1-0.1-2.1-0.1-3-0.4c-2-0.6-3.1-2.1-3.4-4.1
				c-0.7-5,2.5-10.6,8-12.1c2.6-0.7,5,0,6.5,1.9c0.9,1.2,1.2,2.7,1,4.1c-0.3,1.8-0.7,3.6-1.1,5.5c-0.4,1.7-0.8,3.3-1.2,5h-4.1
				c0.3-1.1,0.5-2.2,0.7-3.2c0.4-1.8,0.9-3.6,1.3-5.3c0.1-0.4,0.1-0.9,0.1-1.4c-0.1-1.4-1.2-2.2-2.6-2.1c-2.2,0.2-4,2-4.2,4.3
				c0,0.2,0,0.4,0,0.6c0,1.8,1.3,2.8,3.2,2.5C-534.9-953.6-534.5-953.7-534.1-953.8L-534.1-953.8z"/>
			<path fill="#FFFFFF" d="M-484.6-948.9c0.3-1.3,0.6-2.6,0.9-3.8c0.4-1.7,0.8-3.3,1.2-5c0.1-0.4,0.1-0.9,0-1.4
				c-0.2-1.3-1.2-2-2.5-1.9c-2.1,0.2-3.8,1.8-4.1,3.9c0,0.3-0.1,0.7-0.1,1c0,1.8,1.4,2.8,3.2,2.5c0.3-0.1,0.6-0.1,1-0.2
				c-0.1,0.3-0.1,0.6-0.2,0.8c-0.3,1.2-0.6,2.4-0.9,3.7c-0.1,0.2-0.1,0.4-0.4,0.4c-1-0.1-2.1,0-3.1-0.2c-2.2-0.4-3.6-2-4-4.2
				c-0.7-4.8,2.3-10.7,8-12.2c1.4-0.4,2.8-0.4,4.1,0.2c2.1,0.9,3.2,2.4,3.4,4.6c0.1,1.4-0.2,2.7-0.5,4c-0.6,2.4-1.2,4.8-1.8,7.3
				c-0.1,0.3-0.2,0.4-0.6,0.4C-482.2-948.9-483.4-948.9-484.6-948.9L-484.6-948.9z"/>
			<path fill="#FFFFFF" d="M-506.9-965.5h4.1c-0.2,0.9-0.4,1.7-0.6,2.5c-0.6,2.4-1.1,4.7-1.7,7.1c-0.2,0.8-0.1,1.6,0.7,2.2
				c0.7,0.6,1.5,0.6,2.4,0.3c1.3-0.5,2-1.4,2.3-2.6c0.7-2.9,1.4-5.8,2.2-8.8c0.2-0.9,0-0.7,0.9-0.7c0.9,0,1.9,0,2.8,0
				c0.2,0,0.4,0,0.6,0c-0.4,1.5-0.7,2.9-1.1,4.4c-0.6,2.2-1.1,4.4-1.9,6.5c-1.2,3.1-3.5,5.1-6.9,5.7c-3.3,0.7-6.1-1.5-6.2-4.7
				c-0.1-1.3,0.2-2.5,0.5-3.7c0.6-2.6,1.3-5.2,1.9-7.8C-507-965.2-506.9-965.3-506.9-965.5L-506.9-965.5z"/>
			<path fill="#FFFFFF" d="M-541.7-968.5c-0.3,1.3-0.6,2.5-0.9,3.7c-1.4,5.3-2.8,10.6-4.2,15.9c-0.3,1-0.6,2-1,3
				c-1,3-3.1,4.8-6.4,5.3c-2.1,0.3-4.2,0.3-6.4,0.2c0.2-0.2,0.4-0.3,0.6-0.5c1-1,1.9-2,2.9-3c0.2-0.3,0.5-0.4,0.8-0.4
				c0.5,0,1.1-0.1,1.6-0.2c1.7-0.3,2.8-1.3,3.2-2.9c1.4-5.3,2.8-10.6,4.3-15.9c0.2-0.9,0.5-1.8,0.7-2.8c0-0.2,0.2-0.4,0.3-0.4
				C-544.7-967.2-543.3-967.8-541.7-968.5L-541.7-968.5z"/>
			<path fill="#FFFFFF" d="M-474.2-948.9h-4.3c0.1-0.4,0.1-0.7,0.2-1.1c0.9-3.3,1.7-6.6,2.7-9.8c1-3.6,3.6-5.5,7.4-5.8
				c1.4-0.1,2.9-0.1,4.4-0.1c0.1,0,0.2,0,0.3,0c-0.2,0.2-0.3,0.3-0.4,0.4c-1.1,1.2-2.3,2.3-3.4,3.5c-0.2,0.2-0.4,0.3-0.6,0.3
				c-0.3,0.1-0.6,0.1-0.8,0.1c-1.6,0.3-2.6,1.2-3,2.7c-0.8,3-1.5,6.1-2.3,9.2C-474.1-949.2-474.2-949.1-474.2-948.9L-474.2-948.9z"
				/>
			<path fill="#FFFFFF" d="M-504.6-944.2c-0.6,0.1-1,0.1-1.3-0.5c-0.5-0.8-1.4-0.9-2.3-0.8c-0.9,0.1-1.7,0.5-2,1.4
				c-0.4,0.8-0.4,1.6-0.1,2.4c0.4,1,1.3,1.4,2.4,1.4c1.2,0,2.1-0.5,2.5-1.3c0.1-0.2,0.1-0.4,0.2-0.7h-2.2v-0.8h3v3.4h-0.6
				c-0.1-0.3-0.1-0.5-0.2-0.8c-1.3,1.2-2.8,1.3-4.4,0.7c-0.8-0.3-1.4-1-1.6-1.8c-0.7-2,0.3-4,2.3-4.6
				C-506.9-946.8-504.9-945.9-504.6-944.2z"/>
			<path fill="#FFFFFF" d="M-501.9-939.7h-1v-6.5c0.1,0,0.1,0,0.2,0c1.3,0,2.7,0,4,0c0.7,0,1.2,0.2,1.6,0.8c0.3,0.6,0.3,1.3-0.1,1.9
				c-0.2,0.3-0.5,0.4-0.7,0.7c0.7,0.2,0.8,0.8,0.9,1.4c0,0.6,0.1,1.1,0.2,1.7c-1,0.1-1,0.1-1.1-0.9c0-0.4-0.1-0.8-0.2-1.2
				c-0.1-0.4-0.4-0.6-0.8-0.7c-1,0-2,0-3,0L-501.9-939.7L-501.9-939.7z M-501.9-943.3c1.1,0,2.1,0,3.1,0c0.6,0,1-0.4,1-1
				c0-0.6-0.3-1-0.9-1.1c-1-0.1-2.1,0-3.2,0V-943.3L-501.9-943.3z"/>
			<path fill="#FFFFFF" d="M-492.2-939.5c-1.5,0-2.8-0.5-3.5-1.9c-0.6-1.4-0.5-2.8,0.6-3.9c1.1-1.1,2.4-1.2,3.9-0.9
				c1.8,0.3,2.9,1.7,2.8,3.6c-0.1,1.8-1.3,3-3.2,3.2C-491.8-939.6-492-939.6-492.2-939.5L-492.2-939.5z M-489.4-942.9
				c0-1.6-1.1-2.6-2.8-2.6c-1.7,0-2.8,1-2.8,2.6c0,1.6,1.1,2.7,2.8,2.7C-490.5-940.3-489.4-941.4-489.4-942.9z"/>
			<path fill="#FFFFFF" d="M-478.6-939.7h-0.9v-6.5c0,0,0.1,0,0.2,0c1.2,0,2.3,0,3.5,0c1.6,0,2.3,1,2,2.4c-0.2,0.9-0.9,1.4-1.9,1.4
				c-0.8,0-1.6,0-2.4,0c-0.4,0-0.5,0.1-0.5,0.5C-478.6-941.2-478.6-940.5-478.6-939.7L-478.6-939.7z M-478.6-943.2c1,0,1.9,0,2.8,0
				c0.6,0,1-0.5,1-1.1c0-0.5-0.3-1-0.8-1c-1-0.1-2,0-3,0V-943.2z"/>
			<path fill="#FFFFFF" d="M-487.3-946.2h1c0,0.2,0,0.3,0,0.5c0,1.2,0,2.4,0,3.6c0,1,0.5,1.6,1.5,1.7c0.4,0.1,0.9,0,1.3,0
				c0.9-0.2,1.4-0.7,1.4-1.6c0-1.4,0-2.8,0-4.2h1c0,0.1,0,0.3,0,0.4c0,1.2,0,2.4,0,3.6c0,1.7-0.9,2.6-2.6,2.6c-0.6,0-1.3,0-1.9-0.2
				c-0.9-0.2-1.4-0.9-1.6-1.8c0-0.3,0-0.6,0-0.9C-487.3-943.7-487.3-944.9-487.3-946.2L-487.3-946.2z"/>
		</g>
	</g>
	<g>
		<g>
			<path fill="#FFFFFF" d="M-487.8-1035.6c-0.6,0-1.1,0-1.7,0c-1.5,0-2.9,0-4.4,0c-0.2,0-0.4-0.1-0.4-0.3c-0.6-1.7-1.1-3.3-1.8-5
				c-0.3-0.6-0.6-1.3-1-1.8c-0.6-0.8-1.4-1.1-2.3-1.1c-0.5,0-1,0-1.5,0c-0.3,0-0.3,0.1-0.3,0.3c0,1.7,0,3.4,0,5.1c0,0.8,0,1.7,0,2.5
				c0,0.2,0,0.3-0.3,0.3c-1.8,0-3.7,0-5.5,0c-0.2,0-0.3-0.1-0.3-0.3c0-6.7,0-13.4,0-20.1c0-0.2,0-0.3,0.3-0.3c3.6,0,7.1,0,10.7,0
				c1.6,0,3.1,0.2,4.5,0.9c1.5,0.7,2.6,1.9,2.8,3.5c0.3,2.6-0.6,5-3.8,5.8c-0.2,0-0.4,0.1-0.6,0.2c0,0,0.1,0.1,0.1,0.1
				c0.9,0.2,1.5,0.8,1.9,1.6c0.6,1.3,1.2,2.7,1.7,4.1c0.6,1.4,1.1,2.8,1.7,4.2c0,0.1,0,0.2,0.1,0.2L-487.8-1035.6L-487.8-1035.6z
				 M-501.1-1050.1c0,0.7,0,1.4,0,2.1c0,0.2,0,0.3,0.3,0.3c0.8,0,1.6,0,2.4,0c0.7,0,1.4-0.1,2.1-0.4c0.9-0.4,1.2-1.1,1.2-2
				c0-0.9-0.4-1.5-1.2-1.8c-0.3-0.1-0.6-0.2-0.9-0.3c-1.2-0.3-2.5-0.2-3.8-0.2c-0.2,0-0.2,0.1-0.2,0.3
				C-501.1-1051.5-501.1-1050.8-501.1-1050.1L-501.1-1050.1z"/>
			<path fill="#FFFFFF" d="M-644-1034.5c-3.8,0-7.6,0-11.4,0c-0.3,0-0.4,0-0.4-0.4c0-7.4,0-14.9,0-22.3c0-0.3,0.1-0.4,0.4-0.4
				c7.6,0,15.2,0,22.9,0c0.3,0,0.4,0.1,0.4,0.4c0,7.4,0,14.8,0,22.2c0,0.3-0.1,0.4-0.4,0.4C-636.4-1034.5-640.2-1034.5-644-1034.5
				L-644-1034.5z M-638.9-1041.5c-0.7,0.8-2.1,1.5-3.3,1.6c-0.3,0-0.3-0.1-0.3-0.3c-0.1-2.4-0.3-4.7-0.4-7.1c0-0.2,0.1-0.3,0.3-0.3
				c0.9,0,1.8,0,2.6,0c0.2,0,0.3,0,0.3-0.3c0-0.4,0-0.7,0-1.1c0-0.2-0.1-0.3-0.3-0.3c-0.9,0-1.8,0-2.8,0c-0.1,0-0.2,0.1-0.2-0.1
				c-0.1-0.3,0-0.5,0.3-0.7c1-0.5,1.6-1.6,1.4-2.7c-0.2-1.1-1-2-2.1-2.2c-1.1-0.2-2.2,0.3-2.8,1.2c-0.8,1.3-0.3,3,1.2,3.7
				c0.3,0.2,0.2,0.4,0.2,0.6c0,0.3-0.3,0.1-0.4,0.1c-0.9,0-1.8,0-2.7,0c-0.2,0-0.3,0-0.3,0.3c0,0.4,0,0.8,0,1.1
				c0,0.2,0.1,0.3,0.3,0.3c0.9,0,1.8,0,2.6,0c0.3,0,0.3,0.1,0.3,0.3c-0.1,0.7-0.1,1.3-0.1,2c-0.1,1.7-0.2,3.4-0.3,5.1
				c0,0.2,0,0.2-0.2,0.2c-1.3-0.1-2.3-0.6-3.3-1.5c-0.1-0.1-0.1-0.2,0-0.3c0.3-0.2,0.6-0.4,1-0.6c-1.2-0.6-2.4-1.2-3.6-1.8
				c-0.1,1.4-0.2,2.7-0.3,4c0.2-0.1,0.4-0.2,0.6-0.4c0.5-0.3,0.5-0.3,0.9,0.1c1.4,1.4,3.2,2.3,5.1,2.9c0.8,0.2,1.6,0.3,2.4,0
				c2.1-0.6,4-1.6,5.4-3.2c0.1-0.1,0.2-0.1,0.3,0c0.3,0.2,0.6,0.3,1,0.6c-0.1-1.3-0.2-2.6-0.2-3.8c0-0.2-0.1-0.2-0.2-0.1
				c-0.8,0.4-1.5,0.7-2.3,1.1c-0.4,0.2-0.7,0.4-1.1,0.6C-639.7-1042-639.3-1041.8-638.9-1041.5L-638.9-1041.5z"/>
			<path fill="#FFFFFF" d="M-593.6-1049.8c0,1,0,2,0,2.9c0,3.7,0.1,7.3,0.2,11c0,0.2-0.1,0.3-0.3,0.3c-1.7,0-3.4,0-5,0
				c-0.2,0-0.3-0.1-0.3-0.3c0-6.7,0-13.5,0-20.2c0-0.2,0.1-0.3,0.3-0.3c2.4,0,4.8,0,7.2,0c0.3,0,0.3,0.1,0.4,0.3
				c2.2,4.5,4.5,8.9,6.7,13.4c0,0.1,0.1,0.2,0.2,0.3c0.1-0.1,0.1-0.3,0.1-0.4c0-4.4,0-8.9-0.1-13.3c0-0.3,0.1-0.4,0.4-0.4
				c1.6,0,3.2,0,4.8,0c0.3,0,0.3,0.1,0.3,0.3c0,6.7,0,13.4,0,20.1c0,0.2,0,0.3-0.3,0.3c-2.3,0-4.7,0-7,0c-0.3,0-0.3-0.1-0.4-0.3
				c-2.3-4.5-4.7-9-7-13.5C-593.5-1049.6-593.5-1049.7-593.6-1049.8L-593.6-1049.8z"/>
			<path fill="#FFFFFF" d="M-521-1035.3c-2,0-4.1-0.3-5.9-1.2c-2.6-1.2-4.3-3.2-5-5.9c-0.7-2.6-0.7-5.1,0.1-7.7c0.9-3,2.9-5,5.9-6
				c3.4-1.1,6.8-1.1,10.1,0c3.4,1.1,5.3,3.6,6,7c0.5,2.3,0.4,4.6-0.3,6.9c-1.1,3.3-3.4,5.3-6.7,6.2c-0.5,0.1-1,0.2-1.5,0.3
				C-519.2-1035.3-520.1-1035.3-521-1035.3L-521-1035.3z M-515.8-1046c0-0.8-0.1-1.6-0.3-2.4c-0.5-2-1.7-4-4.4-4.2
				c-2.1-0.2-3.9,0.6-4.9,2.7c-0.4,0.9-0.6,1.9-0.7,2.9c-0.1,1.6,0,3.2,0.7,4.7c0.9,1.9,2.3,2.8,4.4,2.8c2.1,0,3.5-0.9,4.4-2.8
				C-516-1043.4-515.8-1044.7-515.8-1046L-515.8-1046z"/>
			<path fill="#FFFFFF" d="M-554.2-1046c0-3.3,0-6.7,0-10c0-0.3,0.1-0.4,0.4-0.4c1.8,0,3.6,0,5.4,0c0.3,0,0.4,0,0.4,0.4
				c0,2.4,0,4.8,0,7.2c0,0.2,0,0.3,0.3,0.3c2.2,0,4.4,0,6.6,0c0.3,0,0.3-0.1,0.3-0.3c0-2.4,0-4.8,0-7.2c0-0.3,0.1-0.4,0.3-0.3
				c1.8,0,3.6,0,5.4,0c0.2,0,0.3,0,0.3,0.3c0,6.7,0,13.4,0,20.1c0,0.3-0.1,0.3-0.3,0.3c-1.8,0-3.6,0-5.4,0c-0.3,0-0.3-0.1-0.3-0.3
				c0-2.7,0-5.4,0-8.1c0-0.3-0.1-0.4-0.4-0.4c-2.2,0-4.3,0-6.5,0c-0.3,0-0.3,0.1-0.3,0.3c0,2.7,0,5.4,0,8.2c0,0.3-0.1,0.4-0.4,0.4
				c-1.8,0-3.6,0-5.4,0c-0.3,0-0.3-0.1-0.3-0.3C-554.2-1039.3-554.2-1042.6-554.2-1046L-554.2-1046z"/>
			<path fill="#FFFFFF" d="M-600.6-1035.6c-2.2,0-4.3,0-6.5,0c-0.2,0-0.3-0.1-0.3-0.3c-0.5-1.3-1-2.6-1.5-3.9
				c-0.1-0.2-0.2-0.3-0.4-0.3c-2.5,0-5,0-7.5,0c-0.2,0-0.4,0.1-0.5,0.3c-0.5,1.3-1.1,2.6-1.6,3.9c-0.1,0.2-0.2,0.3-0.4,0.3
				c-1.9,0-3.7,0-5.6,0c-0.2,0-0.3,0-0.2-0.3c2.8-6.7,5.7-13.5,8.5-20.2c0.1-0.2,0.2-0.2,0.4-0.2c2.1,0,4.3,0,6.4,0
				c0.2,0,0.3,0,0.4,0.2c2.9,6.7,5.7,13.5,8.6,20.2C-600.6-1035.8-600.6-1035.7-600.6-1035.6L-600.6-1035.6z M-612.9-1052.1
				c-0.1,0.1-0.1,0.2-0.1,0.2c-0.9,2.6-1.7,5.1-2.6,7.7c-0.1,0.2,0,0.2,0.2,0.2c1.5,0,3.1,0,4.6,0c0.3,0,0.3,0,0.3-0.3
				c-0.5-1.7-1.1-3.4-1.6-5.1C-612.3-1050.3-612.6-1051.1-612.9-1052.1z"/>
			<path fill="#FFFFFF" d="M-557-1051.1c-1.2-0.6-2.3-1-3.6-1.2c-1.7-0.3-3.4-0.4-5.1,0.2c-2.8,1-4.5,3.4-4.4,6.4
				c0.1,3.2,2.1,5.5,5.3,6.2c2.2,0.5,4.3,0.2,6.5-0.4c0.4-0.1,0.9-0.3,1.3-0.4c0.2-0.1,0.2,0,0.2,0.2c0.1,1.3,0.2,2.6,0.3,3.9
				c0,0.2-0.1,0.3-0.2,0.3c-2.7,0.6-5.4,0.9-8.2,0.7c-2.7-0.2-5.3-0.9-7.5-2.5c-2.4-1.7-3.7-4-4-6.9c-0.2-2,0.1-4,1-5.8
				c1-2.1,2.7-3.6,4.8-4.6c2.4-1.1,4.9-1.5,7.5-1.5c2.2,0,4.3,0.5,6.4,1c0.1,0,0.2,0.1,0.2,0.3C-556.7-1054-556.8-1052.6-557-1051.1
				L-557-1051.1z"/>
			<path fill="#FFFFFF" d="M-643-1052.3c0,0.6-0.5,1-1,1c-0.6,0-1-0.5-1-1c0-0.6,0.5-1,1-1C-643.4-1053.4-643-1052.9-643-1052.3
				L-643-1052.3z"/>
		</g>
	</g>
	<g>
		<g>
			<path fill-rule="evenodd" fill="#FFFFFF" d="M78.3-832.9v4.1c-2.2-0.8-4.1-1.2-5.8-1.2c-1,0-1.8,0.2-2.4,0.5
				c-0.6,0.4-0.9,0.8-0.9,1.3c0,0.7,0.7,1.3,2,1.8l3.9,1.9c3.2,1.5,4.7,3.5,4.7,6c0,2.1-0.8,3.7-2.5,4.9c-1.7,1.2-3.9,1.8-6.7,1.8
				c-1.3,0-2.5-0.1-3.5-0.2c-1-0.1-2.2-0.3-3.5-0.7v-4.3c2.4,0.8,4.6,1.2,6.6,1.2c2.4,0,3.5-0.7,3.5-2c0-0.7-0.5-1.2-1.5-1.7
				l-4.4-1.8c-1.6-0.7-2.8-1.6-3.6-2.6c-0.8-1-1.2-2.2-1.2-3.6c0-1.9,0.8-3.4,2.4-4.6c1.6-1.2,3.8-1.7,6.4-1.7c0.9,0,1.9,0.1,3,0.2
				C76.2-833.3,77.2-833.1,78.3-832.9L78.3-832.9z"/>
			<path fill-rule="evenodd" fill="#FFFFFF" d="M-45-832.9v4.1c-2.2-0.8-4.1-1.2-5.8-1.2c-1,0-1.8,0.2-2.4,0.5
				c-0.6,0.4-0.9,0.8-0.9,1.3c0,0.7,0.7,1.3,2,1.8l3.9,1.9c3.2,1.5,4.7,3.5,4.7,6c0,2.1-0.8,3.7-2.5,4.9c-1.7,1.2-3.9,1.8-6.7,1.8
				c-1.3,0-2.5-0.1-3.5-0.2c-1-0.1-2.2-0.3-3.5-0.7v-4.3c2.4,0.8,4.6,1.2,6.6,1.2c2.4,0,3.5-0.7,3.5-2c0-0.7-0.5-1.2-1.4-1.7
				l-4.4-1.8c-1.6-0.7-2.8-1.6-3.6-2.6c-0.8-1-1.2-2.2-1.2-3.6c0-1.9,0.8-3.4,2.4-4.6c1.6-1.2,3.8-1.7,6.4-1.7c0.9,0,1.9,0.1,3,0.2
				C-47.1-833.3-46.1-833.1-45-832.9z"/>
			<path fill-rule="evenodd" fill="#FFFFFF" d="M-40.6-833.3h6.4v21.2h-6.4V-833.3z"/>
			<path fill-rule="evenodd" fill="#FFFFFF" d="M-13.6-833.3v3.9h-9.5v4.7h8.2v3.5h-8.2v4.9h9.7v4.1h-15.8v-21.2H-13.6z"/>
			<path fill-rule="evenodd" fill="#FFFFFF" d="M16.2-833.3v21.2h-6v-14l-6.2,14.2H0.4l-5.9-14.2v14h-4.3v-21.2h7.8l5.3,13l5.6-13
				H16.2z"/>
			<path fill-rule="evenodd" fill="#FFFFFF" d="M36.8-833.3v3.9h-9.4v4.7h8.2v3.5h-8.2v4.9H37v4.1H21.1v-21.2H36.8z"/>
			<path fill-rule="evenodd" fill="#FFFFFF" d="M59.2-833.3v21.2h-6.8l-7.6-13.6v13.6h-4.3v-21.2h7l7.4,13.4v-13.4H59.2z"/>
		</g>
	</g>
	<g>
		<g>
			<path fill="#FFFFFF" d="M-327.6-692.7c-0.1-0.1-0.2-0.3-0.3-0.3c-9.4-2-10.7-15.5-5.1-21.5c3.5-3.8,10.5-5.1,15.1,0.1
				c0-4.1,0-8,0-11.9c0-0.7-0.6-1.9,0.5-2.2c1.2-0.3,2.5-0.1,3.7,0c0.5,0,0.3,0.7,0.3,1.1c0,11,0,21.9,0,32.9c0,0.8-0.2,1.3-1.1,1.1
				c-1.1-0.2-2.5,0.6-3.1-0.4c-0.5-0.7-0.1-2-0.3-3.2c-1.6,2.6-4.1,3.6-6.8,4.3H-327.6L-327.6-692.7z M-318-705.2c0-1.1,0-1.8,0-2.6
				c-0.1-3.3-2-5.8-5-6.5c-3-0.7-6,0.5-7.5,3.3c-1.9,3.6-1.9,7.3-0.2,10.9c1.2,2.5,3.9,4,6.5,3.7c2.9-0.3,5.2-2.2,6-5
				C-317.8-702.7-318-704.1-318-705.2L-318-705.2z"/>
			<path fill="#FFFFFF" d="M-223.4-704.8c-0.6,0.3-1.2,0.2-1.7,0.2c-4.6,0-9.2,0.1-13.8,0c-1.6,0-1.7,0.5-1.5,1.8
				c0.5,3.2,2.9,5.4,6.3,5.8c2.6,0.3,5.2,0.2,7.7-0.7c0.5-0.2,1.2-0.6,1.3,0.5c0,0.9,1.3,2.1-0.2,2.6c-5,1.6-9.9,2.1-14.7-0.7
				c-2.7-1.6-4.2-4.2-4.5-7.3c-0.1-1.7-0.7-2.1-2.2-2c-0.5,0-1.5,0.6-1.7-0.5c-0.2-1.2,0.9-2.6,1.9-2.5c1.5,0.1,2.1-0.3,2.5-1.9
				c1.7-6.2,7.3-9.5,13.5-8.1c3.8,0.9,5.8,3.5,6.9,7.1c0.2,0.7,0,1.5,0.7,2.1v0.7C-223.9-706.8-223.3-705.7-223.4-704.8
				L-223.4-704.8z M-234.2-707.7c1.8,0,3.6,0,5.5,0c0.6,0,1.1,0.1,1.1-0.9c0.1-2.6-1.7-5.2-4.2-5.9c-4-1.2-8.1,1.6-8.6,5.8
				c-0.1,0.8,0.2,1,0.9,1C-237.7-707.7-236-707.7-234.2-707.7z"/>
			<path fill="#FFFFFF" d="M-223.4-704.8c0.1-1-0.5-2,0.3-2.9v2.9l-0.1,0.1L-223.4-704.8z"/>
			<path fill="#FFFFFF" d="M-294.9-712.7c-1.1,4.2-2.2,7.8-3.5,11.4c-0.8,2.2-1.5,4.3-2.2,6.6c-0.3,1-0.8,1.3-1.9,1.3
				c-2.7-0.1-2.6,0-3.5-2.7c-2-6.6-4-13.2-6.1-19.8c-0.4-1.2-0.2-1.5,1.1-1.5c3,0,3,0,3.8,2.9c1.5,5.5,3.1,11,4.3,16.8
				c1.6-5,3.2-9.9,4.7-14.8c0.3-1,0.7-2,1-3c0.3-1.3,0.9-1.9,2.4-1.9c1.6,0,2.2,0.5,2.6,2c1.7,5.9,3.8,11.6,5.2,17.6
				c0.7-1.2,0.7-2.6,1-3.8c1.4-4.8,2.8-9.7,4.1-14.5c0.5-1.8,1.8-1.1,2.8-1.2c1.6-0.2,2,0.2,1.5,1.9c-2.3,6.9-4.6,13.8-6.8,20.7
				c-0.4,1.4-1.2,1.5-2.4,1.4c-1.1-0.1-2.2,0.3-2.7-1.4C-291.2-700.6-293.3-706.3-294.9-712.7L-294.9-712.7z"/>
			<path fill="#FFFFFF" d="M-386.7-713.5c2.2-3.1,4.8-4.4,8.1-4.4c4.4,0.1,7.9,3.4,8.1,8c0.3,5.2,0.1,10.3,0.1,15.5
				c0,0.6-0.1,0.9-0.9,1c-3.5,0.4-3.5,0.3-3.5-3.1c0-3.7,0-7.4,0-11c-0.1-3.8-1.6-6.1-4.4-6.6c-3.9-0.7-7.5,2.2-7.5,6.2
				c0,4.3-0.1,8.7,0,13c0,1.2-0.3,1.6-1.5,1.6c-2.9-0.1-2.9,0-2.9-2.9c0-10.1,0-20.3,0-30.4c0-1.5,0.3-2.1,1.9-2
				c2.5,0.2,2.5,0,2.5,2.6C-386.7-722.1-386.7-718.1-386.7-713.5z"/>
			<path fill="#FFFFFF" d="M-354.4-713.6c2.2-3.3,5.1-4.7,8.6-4.2c4.6,0.6,7.3,3.7,7.5,8.9c0.2,4.9,0.1,9.7,0.1,14.6
				c0,0.8-0.3,0.9-1,1c-3.5,0.2-3.5,0.2-3.5-3.3c0-4,0-8-0.1-11.9c-0.1-2.9-1.6-4.9-3.9-5.5c-3.8-1-7.7,1.8-7.8,5.8
				c-0.1,4.4-0.1,8.9,0,13.4c0,1.3-0.4,1.6-1.6,1.6c-3-0.1-3,0-3-3c0-6.5,0-13.1,0-19.6c0-1.2,0.3-1.5,1.5-1.5
				C-354.7-717.4-354.7-717.4-354.4-713.6L-354.4-713.6z"/>
			<path fill="#FFFFFF" d="M-265.8-697.5c-0.8,3.5-1.4,4-4.7,4.1c-4.9,0.1-8-3.2-7.6-7.9c0.2-2.7,1.8-4.4,4.3-5.3
				c2.8-1,5.8-1.2,8.7-1.1c1.3,0,1.6-0.4,1.5-1.6c-0.1-3.8-2.3-5.8-6.3-5.4c-1.8,0.2-3.6,0.7-5.3,1.4c0-2.9,0.8-3.9,3.3-4.3
				c1.8-0.3,3.6-0.5,5.4-0.2c4.1,0.7,6.7,3.3,7,7.5c0.4,5.3,0.1,10.6,0.2,15.8c0,0.7-0.2,1-1,1.1c-3.5,0.2-3.4,0.3-3.4-3.2
				c0-2.3,0-4.5,0-6.8c0-1-0.3-1.3-1.3-1.3c-2,0.1-4-0.1-6,0.4c-2.2,0.6-3.1,2.2-2.7,4.9c0.2,1.8,1.3,2.6,3.5,2.7
				C-268.5-696.5-267.3-697.1-265.8-697.5L-265.8-697.5z"/>
			<path fill="#FFFFFF" d="M-251.4-713.3c1.4-2.3,3-4.2,5.8-4.5c0.7-0.1,1.8-0.6,1.9,0.7c0.2,2.1-0.4,3.3-1.6,3.4
				c-3.2,0.3-5.3,2.2-5.7,5.5c-0.6,4.2-0.1,8.5-0.3,12.8c0,0.7,0.5,1.8-0.4,2c-1.2,0.3-2.5,0.1-3.7,0c-0.4,0-0.2-0.6-0.2-0.9
				c0-7.3,0-14.6,0-21.9c0-0.7,0.2-1,1-1.1c3.3-0.2,3.3-0.3,3.3,3.1C-251.4-713.9-251.4-713.6-251.4-713.3L-251.4-713.3z"/>
			<path fill="#FFFFFF" d="M-362.6-705.2c0,3.4,0,6.9,0,10.3c0,1-0.1,1.5-1.3,1.5c-3.1,0-3.1,0.1-3.1-3c0-6.5,0-12.9,0-19.4
				c0-1.3,0.4-1.7,1.6-1.5c0.1,0,0.1,0,0.2,0c1.8,0,2.6,0.9,2.6,2.6C-362.6-711.6-362.6-708.4-362.6-705.2L-362.6-705.2z"/>
		</g>
	</g>
	<g>
		<g>
			<path fill="#FFFFFF" d="M-43.2-683.5l-4.9-65.2H66.8l-6.3,65.2l-52.1,9.8L-43.2-683.5z M-49.1-749.7l0.1,1.1l4.8,65.2l0.1,0.8
				l0.7,0.1l51.6,9.8l0.2,0l0.2,0l52.1-9.8l0.7-0.1l0.1-0.7l6.3-65.2l0.1-1.1H-49.1z"/>
			<path fill="#FFFFFF" d="M-6.3-732.6c0,0,2.1,2.5,2.1,5.5c0,3.4-2,6.2-2,6.2s-2.6-1.9-2.6-5.9C-8.8-729.8-6.3-732.6-6.3-732.6z"/>
			<path fill="#FFFFFF" d="M4.2-719.4c0,0,2.2-1.3,11.5-5.1c9.3-3.8,14.3-5.1,14.3-5.1s0,0.4-0.4,1.5c-0.3,1-1,2-1,2
				s-6.9,1.3-11.7,3.3c-8.2,3.4-10.6,6.3-10.6,6.3L4.2-719.4z"/>
			<path fill="#FFFFFF" d="M13.1-719.7c0,0,0.4,0.4,0.9,1.1c0.5,0.7,0.8,1.1,0.8,1.1s0.8-2.2,4.9-2.2c0.4,0,1.1,0.1,1.9-0.2
				c0.7-0.4,2-1.1,2.7-1.6c1.2-0.9,2.4-2.1,2.4-2.1s-3.5,0.2-7.6,1.3C14.9-721.3,13.1-719.7,13.1-719.7z"/>
			<path fill="#CCCCCC" d="M26.9-734c-1.8-2.7-6.9-4.6-13-4.6c-3.2,0-6.3,0.6-8.7,1.6l0.4,4.1l17.6,2.1L26.9-734z"/>
			<path fill="#BABABA" d="M5.5-734.5c2-0.7,4.4-1.2,7-1.2c5.1,0,9.5,1.7,11.1,4l-4.7,2.8l-14.3-2.6L5.5-734.5z"/>
			<path fill="#DBDBDB" d="M20-729.4c-1.7-2.1-5.4-3.5-9.6-3.5c-1.8,0-3.5,0.3-5,0.7l-3.6,3.9l11.4,2.5L20-729.4z"/>
			<path fill="#EDEDED" d="M4.5-729.4c1.2-0.4,2.6-0.6,4.1-0.6c3.5,0,6.5,1.2,8.1,3.1l-19.5,6.4l-0.4-0.5L4.5-729.4z"/>
			<path fill="#FFFFFF" d="M-9.2-698.3c2.2,0,5.4-3.8,5.4-3.8l1,1.1c0,0-3.3,5.5-8.1,5.5c-5.4,0-5.7-5.3-5.7-6.2
				c0-9.2,5.7-12.4,10.9-12.4c3.1,0,3.5,2.4,3.5,3.1c0,5.2-9.9,8.5-9.9,8.5S-12-698.3-9.2-698.3z M-11.7-704.5c0,0,5.1-1.5,5.1-4.6
				c0-1-0.8-2.1-1.9-2.1C-11.1-711.3-11.7-704.5-11.7-704.5z"/>
			<path fill="#FFFFFF" d="M3-696.1c0,0,2-13.3,7.1-13.3c0.5,0,1.3,0.2,1.3,0.2l0.6-4.9c0,0-0.4-0.2-0.9-0.2c-4.4,0-6.4,7.1-6.4,7.1
				l1.1-7.4c0,0-0.9,0.4-2.7,1c-1.8,0.6-3.1,1.1-3.1,1.1s1,0.9,0.7,2.9c-0.3,2-1.8,14.1-1.8,14.1L3-696.1z"/>
			<path fill="#FFFFFF" d="M33.6-698.3c2.2,0,5.4-3.8,5.4-3.8l1,1.1c0,0-3.3,5.5-8.1,5.5c-5.4,0-5.7-5.3-5.7-6.2
				c0-9.2,5.7-12.4,10.9-12.4c3.1,0,3.5,2.4,3.5,3.1c0,5.2-9.9,8.5-9.9,8.5S30.8-698.3,33.6-698.3z M31-704.5c0,0,5.1-1.5,5.1-4.6
				c0-1-0.8-2.1-1.9-2.1C31.7-711.3,31-704.5,31-704.5z"/>
			<path fill="#FFFFFF" d="M41.6-695.5c0,0,1.5-12,1.8-14.1c0.3-2-0.7-2.9-0.7-2.9s1.3-0.5,3.1-1.1c1.8-0.6,2.7-1,2.7-1l-1.1,7.4
				c0,0,2-7.1,6.4-7.1c0.5,0,0.9,0.2,0.9,0.2l-0.6,4.9c0,0-0.7-0.2-1.3-0.2c-5.1,0-7.1,13.3-7.1,13.3L41.6-695.5z"/>
			<path fill="#FFFFFF" d="M25.4-713c-0.2,1.3-0.1,0.5-1.9,14.6c-1.3,9.9-8.3,11.1-10.4,11.1c-2.1,0-4.1-0.9-4.1-0.9l0.8-6
				c0,0,1.9,3.9,5,3.9c3.7,0,4.5-8.9,4.5-8.9s-1.1,3.9-4.9,3.9c-2.9,0-4.2-3.6-4-6.3c0.9-10.4,6.8-12.3,11.5-12.5
				c2.8-0.1,4.1-0.3,4.1-0.3S25.5-714.3,25.4-713z M21-711.8c0,0-1.9-0.5-3,0.8c-1.2,1.3-3,7.6-3,10.1c0,1.9,0.5,2.2,0.9,2.2
				c0.5,0,2.5-1.8,3.6-6.2C20.6-709.4,21.2-711.4,21-711.8z"/>
			<path fill="#FFFFFF" d="M38.6-725.7c0,0-0.1-1.2-1.2-1.2c-1.2,0-1.3,1.1-1.3,1.5c0,0.7,0.6,2,2.9,2c2.3,0,4-2.2,4-3.8
				c0-1.6-1.9-3.3-4-3.3c-2.1,0-5.2,1.7-6,5.9c-0.3,1.7-0.3,3.7-0.8,5.1c-0.6,1.6-2.4,3.2-4.9,3.2c-1,0-1.6-1,0.2-1
				c3.4,0,4.2,0.3,9,1.7c3.7,1.1,4.5,1.6,5.9,1.6c1.8,0,1.9-1.3,1.9-1.3s-0.9,0.3-1.7,0.3c-0.8,0-4.3-1.2-7.1-1.9
				c-2.8-0.7-3.5-1-6.9-1c-5.1,0-3.9,2.3-2,2.3c1.6,0,6.2-0.9,7.4-5.5c0.6-2.2,0.2-8.2,4.7-8.2c2.5,0,2.9,2,2.9,2.6
				s-0.7,2.5-2.5,2.5c-1.1,0-1.7-0.7-1.7-1.1c0-0.4,0.4-0.6,0.6-0.6C38.2-725.9,38.6-725.7,38.6-725.7z"/>
			<path fill="#FFFFFF" d="M40.3-721.6c0,1.6-3.7,2.3-3.7,2.3s-0.3,1.2,0.8,1.2c0.5,0,0.9,0.1,2.3-1.3c1.4-1.3,2.1-2.7,2.1-2.7H43
				c0,0-1.6,2.2-2.2,2.9c-0.6,0.7-0.5,1,0,1c0.4,0,1.3-0.3,2.1-1.3c0.8-1,1.9-2.6,1.9-2.6l1.2,0c0,0-1.1,1.5-1.9,2.6
				c-0.4,0.5-0.6,1.5,0.2,1.5c1,0,3.5-2,3.5-3.1c0-0.3-0.2-0.5-0.5-0.5c-0.6,0-0.6,0.8-0.6,0.8s-0.5-0.2-0.5-0.8c0-0.6,0.7-1,1.1-1
				c0.7,0,1.2,0.5,1.2,1.1c0,1.6-3.2,4-4.7,4c-1.2,0-1.1-1.2-1.1-1.2s-1.5,1.2-2.6,1.2c-1,0-0.8-1.1-0.8-1.1s-1.1,1-2.4,1
				c-0.3,0-1.3-0.2-1.3-1.2C35.6-721.6,40.3-723.6,40.3-721.6z M36.9-719.9c0,0,0.5,0.1,1.7-0.6c1.3-0.9,1-1.6,0.1-1.1
				C37.7-721.1,36.8-720,36.9-719.9z"/>
			<path fill="#FFFFFF" d="M45.9-717.7c0,0,1.4-0.2,2.7-2c1.3-1.7,1.8-2.6,1.8-2.6h1.1c0,0-1.1,1.7-1.9,2.6
				c-1.2,1.3-0.5,1.8,0.4,1.2c0.8-0.7,2.6-2.4,3.6-3.4c0.5-0.6,0.5-0.8,0.7-0.8c0.2,0,0.2,0.1,0.2,0.2c0,0.1-0.3,0.2-0.3,0.9
				c0,0.7,0.3,0.8,0.3,2c0,1.2-0.8,2-1.7,2c-1.5,0-1.4-1.5-1.4-1.5c0,0-1.8,1.6-2.8,1.6c-0.7,0-0.7-0.8-0.7-0.8s-1,0.6-1.5,0.6
				C46.2-717.7,45.9-717.7,45.9-717.7z M52.7-719.6c0.2,0.3,0,0.5,0,0.5s0-0.1-0.4-0.1c-0.3,0-0.5,0.3-0.5,0.5s0.2,0.5,0.6,0.5
				c0.6,0,1.4-0.9,1-2.2c-0.1-0.2-0.2-0.6-0.2-0.6l-1.2,1.2C52.1-719.9,52.5-719.9,52.7-719.6z"/>
			<path fill="#FFFFFF" d="M52.4-723.5c0,0.3-0.2,0.5-0.5,0.5c-0.3,0-0.5-0.3-0.5-0.5s0.2-0.5,0.5-0.5
				C52.2-724,52.4-723.7,52.4-723.5z"/>
			<path fill="#FFFFFF" d="M-24.2-687.7c0.3-0.1,0.8-0.1,1.3-0.2c0.4,0,0.9,0,1.3,0.3c0.3,0.2,0.5,0.5,0.5,1c0,0.6-0.2,1.1-0.6,1.4
				c-0.4,0.3-0.9,0.5-1.5,0.5c-0.2,0-0.3,0-0.4,0l-0.3,1.8l-1,0L-24.2-687.7z M-23.5-685.5c0.1,0,0.2,0,0.4,0c0.6,0,1-0.4,1-0.9
				c0-0.5-0.4-0.6-0.8-0.6c-0.2,0-0.3,0-0.4,0L-23.5-685.5z"/>
			<path fill="#FFFFFF" d="M-18.9-683c0-0.2,0-0.5,0-0.7h0c-0.3,0.6-0.8,0.8-1.2,0.8c-0.6,0-1.1-0.5-1.1-1.2c0-1.2,0.8-2.5,2.5-2.5
				c0.4,0,0.9,0.1,1.2,0.2l-0.4,1.9c-0.1,0.5-0.1,1.2-0.1,1.6L-18.9-683z M-18.6-685.8c-0.1,0-0.2,0-0.3,0c-0.7,0-1.2,0.8-1.1,1.5
				c0,0.3,0.1,0.6,0.4,0.6c0.3,0,0.7-0.4,0.8-1.2L-18.6-685.8z"/>
			<path fill="#FFFFFF" d="M-17.3-683l0.7-3.6h1l-0.7,3.6H-17.3z M-16.5-687.5c0-0.4,0.3-0.6,0.6-0.6c0.3,0,0.5,0.2,0.5,0.5
				c0,0.4-0.3,0.6-0.6,0.6C-16.2-687-16.5-687.2-16.5-687.5z"/>
			<path fill="#FFFFFF" d="M-15.4-683l0.5-2.4c0.1-0.5,0.2-0.8,0.2-1.2l0.9,0l-0.1,0.6h0c0.3-0.5,0.8-0.7,1.3-0.7
				c0.6,0,0.9,0.4,0.9,1c0,0.2,0,0.4-0.1,0.6l-0.5,2.1l-1,0l0.4-2c0-0.1,0-0.3,0-0.4c0-0.2-0.1-0.4-0.3-0.4c-0.3,0-0.7,0.4-0.9,1.2
				l-0.3,1.6L-15.4-683z"/>
			<path fill="#FFFFFF" d="M-9.3-687.4l-0.2,1l0.7,0l-0.2,0.8l-0.7,0l-0.3,1.2c0,0.1-0.1,0.3-0.1,0.5c0,0.2,0.1,0.3,0.3,0.3h0.3
				l-0.2,0.8c-0.1,0-0.4,0.1-0.6,0.1c-0.6,0-0.9-0.3-0.9-0.8c0-0.2,0-0.4,0.1-0.7l0.3-1.4l-0.4,0l0.2-0.8l0.4,0l0.2-0.8L-9.3-687.4z
				"/>
			<path fill="#FFFFFF" d="M-6.2-686.3l0.1,1.6c0,0.4,0,0.6,0,0.8h0c0.1-0.2,0.2-0.4,0.4-0.8l0.8-1.5l1.1,0.1l-1.5,2.4
				c-0.5,0.9-1,1.5-1.5,1.9c-0.4,0.4-0.9,0.5-1.2,0.5l-0.2-0.9c0.2,0,0.4-0.1,0.6-0.2c0.2-0.1,0.5-0.3,0.6-0.6c0,0,0-0.1,0-0.2
				l-0.4-3.3L-6.2-686.3z"/>
			<path fill="#FFFFFF" d="M-0.4-683.9c-0.3,1.3-1.3,2-2.5,1.8c-0.9-0.2-1.3-0.9-1.2-1.8c0.2-1.2,1.3-2,2.5-1.8
				C-0.7-685.5-0.3-684.7-0.4-683.9z M-3.1-683.7c-0.1,0.4,0.1,0.7,0.4,0.8c0.6,0.1,1-0.6,1.2-1.2c0.1-0.3,0-0.7-0.4-0.8
				C-2.5-685.1-3-684.3-3.1-683.7z"/>
			<path fill="#FFFFFF" d="M3.8-684.4l-0.9,2.3c-0.2,0.4-0.3,0.8-0.4,1.1l-0.9-0.2l0.2-0.5h0c-0.4,0.4-0.9,0.5-1.3,0.4
				c-0.5-0.1-0.8-0.5-0.7-1.2c0-0.2,0.1-0.4,0.2-0.6l0.8-1.9l1,0.2l-0.7,1.8c-0.1,0.1-0.1,0.3-0.2,0.4c0,0.2,0,0.4,0.3,0.5
				c0.3,0.1,0.8-0.3,1.1-0.9l0.7-1.6L3.8-684.4z"/>
			<path fill="#FFFFFF" d="M3.3-680.9l0.8-2c0.2-0.5,0.3-1.1,0.4-1.4l0.9,0.2c-0.1,0.2-0.1,0.5-0.2,0.7h0c0.3-0.4,0.8-0.7,1.3-0.6
				c0.1,0,0.1,0,0.2,0l-0.4,1c0,0-0.1,0-0.2,0c-0.7-0.1-1.1,0.4-1.3,1.1l-0.5,1.3L3.3-680.9z"/>
			<path fill="#FFFFFF" d="M7.3-680.2l1.1-3.5l1,0.1l-1.1,3.5L7.3-680.2z M8.7-684.6c0-0.4,0.4-0.6,0.7-0.5c0.3,0,0.5,0.3,0.4,0.6
				c0,0.4-0.4,0.5-0.7,0.5C8.8-684,8.6-684.3,8.7-684.6z"/>
			<path fill="#FFFFFF" d="M9.4-679.9l0.6-2.4c0.1-0.5,0.2-0.8,0.2-1.1l0.9,0l-0.1,0.6h0c0.3-0.4,0.8-0.6,1.2-0.6
				c0.6,0,0.8,0.4,0.8,0.7c0.3-0.4,0.8-0.6,1.2-0.6c0.5,0,0.9,0.4,0.8,1c0,0.2,0,0.4-0.1,0.6l-0.5,2.1l-1,0l0.4-1.9
				c0-0.1,0.1-0.3,0.1-0.4c0-0.3-0.1-0.4-0.3-0.4c-0.3,0-0.7,0.4-0.9,1.1l-0.4,1.6l-1,0l0.4-1.9c0-0.1,0.1-0.3,0.1-0.4
				c0-0.2-0.1-0.4-0.3-0.5c-0.4,0-0.7,0.5-0.9,1.2l-0.4,1.6L9.4-679.9z"/>
			<path fill="#FFFFFF" d="M17.9-679.7c0-0.2,0-0.5,0-0.7h0c-0.3,0.6-0.7,0.8-1.1,0.8c-0.6,0-1.1-0.4-1.1-1.2
				c-0.1-1.2,0.7-2.5,2.4-2.6c0.4,0,0.9,0,1.2,0.1l-0.3,1.9c-0.1,0.5-0.1,1.2,0,1.6L17.9-679.7z M18.1-682.6c-0.1,0-0.2,0-0.3,0
				c-0.7,0-1.1,0.9-1.1,1.6c0,0.3,0.2,0.6,0.5,0.6c0.3,0,0.7-0.4,0.8-1.3L18.1-682.6z"/>
			<path fill="#FFFFFF" d="M19.9-679.4c0.2,0.1,0.7,0.1,0.9,0.1c0.5,0,0.9-0.3,0.9-1.1l0-0.3h0c-0.2,0.4-0.5,0.6-0.9,0.6
				c-0.7,0.1-1.2-0.5-1.3-1.1c-0.1-1.2,0.6-2.4,2.1-2.6c0.5,0,0.9,0,1.3,0.1l-0.2,3c-0.1,0.7-0.2,1.3-0.6,1.6
				c-0.4,0.3-0.9,0.5-1.3,0.5c-0.5,0-0.9,0-1.2-0.1L19.9-679.4z M22-682.9c-0.1,0-0.2,0-0.4,0c-0.6,0.1-1,0.8-0.9,1.5
				c0,0.4,0.2,0.6,0.5,0.6c0.3,0,0.7-0.5,0.7-1.1L22-682.9z"/>
			<path fill="#FFFFFF" d="M23.7-680.3l0.2-3.6l1-0.1l-0.2,3.6L23.7-680.3z M23.9-684.9c0-0.4,0.2-0.6,0.5-0.7
				c0.3,0,0.5,0.1,0.6,0.4c0,0.4-0.2,0.6-0.5,0.7C24.2-684.4,23.9-684.6,23.9-684.9z"/>
			<path fill="#FFFFFF" d="M25.6-680.5l0.1-2.4c0-0.5,0-0.9,0-1.2l0.9-0.1l0,0.6h0c0.2-0.5,0.7-0.8,1.1-0.9c0.6-0.1,0.9,0.2,1,0.8
				c0,0.2,0,0.4,0,0.6l-0.1,2.1l-1,0.2l0.1-2c0-0.1,0-0.3,0-0.4c0-0.3-0.2-0.4-0.4-0.4c-0.3,0-0.7,0.5-0.7,1.3l0,1.6L25.6-680.5z"/>
			<path fill="#FFFFFF" d="M31.9-681.6c0-0.2-0.1-0.5-0.1-0.7h0c-0.2,0.6-0.6,0.9-1,1c-0.6,0.1-1.1-0.3-1.3-1
				c-0.2-1.2,0.3-2.6,2-2.9c0.4-0.1,0.9-0.1,1.2,0l0,1.9c0,0.5,0.1,1.2,0.2,1.6L31.9-681.6z M31.7-684.5c-0.1,0-0.2,0-0.3,0
				c-0.7,0.1-1,1-0.9,1.7c0.1,0.3,0.2,0.5,0.5,0.5c0.3-0.1,0.6-0.5,0.6-1.4L31.7-684.5z"/>
			<path fill="#FFFFFF" d="M34.6-686.9l0,1l0.7-0.2l0,0.8l-0.7,0.2l0,1.2c0,0.1,0,0.3,0,0.5c0,0.2,0.1,0.3,0.4,0.2
				c0.1,0,0.2,0,0.3-0.1l0.1,0.8c-0.1,0.1-0.4,0.2-0.6,0.2c-0.6,0.1-1-0.1-1.1-0.5c0-0.2-0.1-0.4-0.1-0.7l0-1.4l-0.4,0.1l0-0.8
				l0.4-0.1l0-0.8L34.6-686.9z"/>
			<path fill="#FFFFFF" d="M35.7-687.1c-0.1-0.3,0.1-0.6,0.5-0.7c0.3-0.1,0.6,0.1,0.6,0.4c0.1,0.4-0.1,0.6-0.5,0.7
				C36.1-686.7,35.8-686.8,35.7-687.1z M36-682.5l-0.2-3.6l1-0.3l0.2,3.6L36-682.5z"/>
			<path fill="#FFFFFF" d="M40.9-686c0.3,1.3-0.3,2.4-1.5,2.7c-0.9,0.2-1.6-0.2-1.8-1c-0.3-1.2,0.2-2.4,1.5-2.7
				C40-687.3,40.7-686.8,40.9-686z M38.7-684.6c0.1,0.4,0.4,0.6,0.7,0.5c0.6-0.1,0.7-1,0.5-1.6c-0.1-0.3-0.3-0.6-0.7-0.5
				C38.6-686.1,38.5-685.2,38.7-684.6z"/>
			<path fill="#FFFFFF" d="M41.8-684l-0.3-2.4c0-0.5-0.1-0.8-0.2-1.2l0.9-0.3l0.1,0.6h0c0.2-0.5,0.5-0.9,1-1c0.6-0.2,1,0.1,1.1,0.7
				c0,0.2,0.1,0.4,0.1,0.6l0.2,2.1l-1,0.3l-0.2-2c0-0.1,0-0.3-0.1-0.4c-0.1-0.2-0.2-0.4-0.4-0.3c-0.3,0.1-0.6,0.6-0.5,1.4l0.2,1.6
				L41.8-684z"/>
			<path fill="#FFFFFF" d="M-3.2-743.6c0.2,0.1,0.6,0.2,0.9,0.2c0.5,0,0.9-0.2,0.9-0.5c0-0.3-0.2-0.4-0.8-0.6
				c-0.7-0.2-1.1-0.4-1.1-0.8c0-0.5,0.5-0.8,1.3-0.8c0.4,0,0.7,0.1,0.9,0.1l-0.1,0.3c-0.1,0-0.4-0.1-0.8-0.1c-0.6,0-0.8,0.3-0.8,0.5
				c0,0.3,0.2,0.4,0.8,0.6c0.7,0.2,1.1,0.4,1.1,0.9c0,0.5-0.5,0.9-1.4,0.9c-0.4,0-0.8-0.1-1.1-0.2L-3.2-743.6z"/>
			<path fill="#FFFFFF" d="M0.4-745.9c0,0.1-0.1,0.2-0.3,0.2c-0.2,0-0.3-0.1-0.3-0.2c0-0.1,0.1-0.3,0.3-0.3
				C0.2-746.1,0.4-746,0.4-745.9z M-0.2-745.3h0.5v2.2h-0.5V-745.3z"/>
			<path fill="#FFFFFF" d="M1.1-744.7c0-0.2,0-0.4,0-0.6h0.5l0,0.4h0c0.1-0.2,0.5-0.4,1-0.4c0.4,0,1,0.2,1,0.9v1.3H3.1v-1.2
				c0-0.3-0.2-0.6-0.7-0.6c-0.4,0-0.6,0.2-0.7,0.4c0,0,0,0.1,0,0.2v1.3H1.1V-744.7z"/>
			<path fill="#FFFFFF" d="M6.5-743.2c-0.1,0-0.4,0.1-0.8,0.1c-0.9,0-1.5-0.4-1.5-1.1c0-0.7,0.6-1.1,1.6-1.1c0.3,0,0.6,0.1,0.7,0.1
				l-0.1,0.3c-0.1,0-0.3-0.1-0.6-0.1c-0.7,0-1,0.4-1,0.8c0,0.5,0.4,0.8,1,0.8c0.3,0,0.5-0.1,0.7-0.1L6.5-743.2z"/>
			<path fill="#FFFFFF" d="M7.3-744.1c0,0.5,0.5,0.8,1,0.8c0.4,0,0.6,0,0.8-0.1l0.1,0.3c-0.2,0.1-0.5,0.1-1,0.1
				c-0.9,0-1.5-0.4-1.5-1.1c0-0.6,0.5-1.2,1.4-1.2c1,0,1.2,0.6,1.2,1c0,0.1,0,0.1,0,0.2L7.3-744.1L7.3-744.1z M8.9-744.4
				c0-0.3-0.1-0.6-0.7-0.6c-0.5,0-0.8,0.4-0.8,0.6H8.9z"/>
			<path fill="#FFFFFF" d="M12.3-745.6L12.3-745.6l-0.7,0.3l-0.1-0.3l0.9-0.3h0.4v2.9h-0.5V-745.6z"/>
			<path fill="#FFFFFF" d="M16.3-746v0.3l-1.7,2.7H14l1.7-2.6v0h-1.9v-0.3H16.3z"/>
			<path fill="#FFFFFF" d="M18.7-745.7c-0.1,0-0.2,0-0.4,0c-0.8,0.1-1.3,0.5-1.4,1h0c0.2-0.2,0.5-0.3,1-0.3c0.7,0,1.2,0.4,1.2,0.9
				c0,0.5-0.5,1-1.3,1c-0.8,0-1.4-0.5-1.4-1.2c0-0.6,0.3-1,0.7-1.3c0.3-0.2,0.8-0.4,1.3-0.4c0.2,0,0.3,0,0.4,0L18.7-745.7
				L18.7-745.7z M18.6-744c0-0.4-0.3-0.7-0.8-0.7c-0.3,0-0.6,0.1-0.8,0.4c0,0-0.1,0.1-0.1,0.2c0,0.5,0.3,0.8,0.9,0.8
				C18.3-743.4,18.6-743.6,18.6-744z"/>
			<path fill="#FFFFFF" d="M22.2-744.6c0,1-0.5,1.5-1.4,1.5c-0.8,0-1.3-0.5-1.3-1.5c0-1,0.6-1.5,1.4-1.5
				C21.7-746,22.2-745.5,22.2-744.6z M20-744.5c0,0.8,0.3,1.2,0.8,1.2c0.5,0,0.8-0.5,0.8-1.2c0-0.7-0.2-1.2-0.8-1.2
				C20.4-745.7,20-745.3,20-744.5z"/>
			<path fill="#FFFFFF" d="M6.3-739.5c0,0,1.5,6.7-1.1,11.3c-3.9,7-10.4,8.1-10.4,8.1s3.5-3.9,3.5-9.7c0-3.9-1.2-5.9-1.2-5.9
				s1.2-1,4.3-2.2C4.5-739.1,6.3-739.5,6.3-739.5z"/>
			<path fill="#FFFFFF" d="M-3.2-720.7c0,0,5.3-1.4,15.2-5.8c9.9-4.4,14.9-10.1,14.9-10.1s0.7,0.4,1.5,1.5c0.8,1.2,1.1,2.1,1.1,2.1
				s-5,2.9-17.1,8.6C0.8-718.9-1.4-718-1.4-718L-3.2-720.7z"/>
			<path fill="#FFFFFF" d="M-28.9-716.8h3.2c1.5,0,3.1,0.9,3.1,2.5c0,1.6-1.1,4.6-4.1,4.6h-3.1L-28.9-716.8z M-33.8-717.8
				c-0.2,1.5-0.9,6.6-2.5,19.3c-0.2,1.9-1.3,2.4-1.3,2.4h11.7c1.2,0,3.9-0.3,5.9-2.1c1.9-1.7,2.2-5,2.2-5.8c0-4.5-5.3-4.5-5.3-4.5
				s4-1.1,4.9-4.1c0.2-0.6,0.3-1.6,0.3-2.4c0-3.3-2.4-4.7-5.4-4.7h-11.1C-34.4-719.8-33.5-719.3-33.8-717.8z M-30.2-706.8h3.7
				c1.5,0,3.5,0.8,3.5,3.1s-1.4,4.5-4.5,4.5h-3.8L-30.2-706.8z"/>
		</g>
	</g>
	<g>
		<g>
			<path fill="#FFFFFF" d="M-252.2-582.2c1.2-1.3,3.1-2.9,3.1-7.9c0,0,0.2-3.6-2.1-6.5c-3-3.6-6.1-0.1-11.1-4.1
				c-1.6-1.3-2.3-2.6-3.2-3.8c0,0-1.9-2.5-6.3-3.8c-4.7-1.3-11.4-1.4-15.1,1.2c-0.5,0.3-1.5,1.2-1.6,1.7c0,0.4,0.4,0.4,1.2,0.6
				c0.8,0.2,1.1,0.3,1.1,0.5c0,0.1-0.1,0.2-0.3,0.4c-0.2,0.2-0.6,0.3-0.7,0.4c-2.8,1.5-4.4,2.4-7.3,4.7c-1.5,1.2-7.1,6-15.5,9.7
				l-0.7-1.9c3.4-0.7,5.9-2.1,7.3-3.2c1.9-1.5,3.3-2.7,5.1-4.7c1.8-2.1,2.9-3.3,5.3-5.8c2.4-2.4,4.4-4.2,7.7-6
				c4.3-2.3,13.2-4.6,26.1,1.1c9.1,4.3,12.2,10.6,12.2,16.7c0,0,0.3,4.8-2.8,9.5L-252.2-582.2z"/>
			<path fill="#FFFFFF" d="M-309.6-589.2c-5.6,2.6-12.6,4.6-20.3,4.6c-18.1,0-26-10-30.9-19.4c-0.6-1.1-1.5-3.1-2-4.4
				c-0.7-1.7-1.4-2.9-3-4.2c-0.3-0.3-0.6-0.4-0.6-0.6c-0.1-0.2,0.1-0.5,0.6-0.4c0.5,0.1,1.1,0.3,1.6,0.6c0.3,0.2,0.5,0.5,0.7,0.7
				c0.3,0.4,0.7,1.1,1.1,2.1c0.7,1.6,1.2,1.5,1.2,1.1c0-0.6-0.7-2.1-1.7-4.4c-0.2-0.3-0.4-0.8-1.2-1c-0.8-0.2-1-0.6-1.2-0.8
				c-0.2-0.2-0.4-0.6-0.8-0.6c0,0-0.4,0-0.3-0.4c0.1-0.4,0.2-0.6,0.5-0.5c0.3,0.1,0.9,0.4,1.3,0.8c0.5,0.3,0.8,0.6,1,0.6
				c0.2,0,0.2-0.2,0.2-0.4c0-0.2,0-0.4,0.2-0.4c0.3,0,1.6,1.2,1.9,1.6c1,1.1,1.1,1.4,2.5,1.9c0.5,0.2,0.8,0.4,1,0.6
				c0.5,0.5,1.2,1.8,1.6,1.8c0.3,0,0.1-0.6,0.2-1c0.1-0.3,0.4-0.2,0.5-0.1c1.1,1.1,2.5,3.6,4,3.6c0.5,0,0.9-0.2,1-0.5
				c0.6-0.8-0.1-1.4-0.1-2.2c0-0.6,0.7-0.5,1.4,0.2c0.5,0.5,1.2,1.1,2,0.6c0.9-0.6,1.4-1.3,2.4-0.5c1,0.8,1.5,1.9,1.8,2.5
				c0,0,2.4,4.2,6.4,7.9c0,0,6.2,6.2,13.8,8.4c4.8,1.4,8.8,1.2,12.1,0.5L-309.6-589.2z"/>
			<path fill="#FFFFFF" d="M-298.3-598.8c1.8-2.1,2.9-3.3,5.3-5.8c0.5-0.5,0.9-0.9,1.3-1.3c-25.1,10.7-47.2,2.1-48.9,1.3
				c1.1,1.4,2.5,3.2,4.3,4.7c0,0,6.2,6.2,13.8,8.4c9.5,2.7,16.4-0.5,19.1-2.6C-301.5-595.5-300.2-596.8-298.3-598.8z"/>
			<image width="314" height="79" xlink:href="70E2DD4CB0F0EF8.png"  transform="matrix(0.24 0 0 0.24 -340.801 -609.2844)">
			</image>
			<path fill="#FFFFFF" d="M-309.8-593.5c-0.4,0.7-1.6,1-2.9,1.4c-1.4,0.5-3.1,1.2-3.8,1.7c6.4,0.3,11-2,13.1-3.6
				c1.9-1.5,3.3-2.7,5.1-4.7c1.7-1.9,2.7-3.1,4.7-5.2c0,0-1.7,1.2-3.1,2.3c0,0-0.7,0.6-1.4,1c-1.9,1.3-3.1,0.5-6.9,0.7
				c-2.2,0.1-4.3,0.5-6.1,0.9c-1.5,0.4-3.5,0.8-3.5,1.3c0,0.3,0.8,0.4,2.1,0.6c0.6,0.1,1,0.2,1,0.4s-0.4,0.4-0.8,0.6
				c-1.6,0.6-3.7,0.9-5.5,1.3c2.2,0.2,4.5,0.2,7,0.1c0.4,0,0.7,0.1,0.9,0.3C-309.7-594.3-309.6-593.9-309.8-593.5z"/>
			<path fill="#FFFFFF" d="M-336.3-599.8c0,0,3.2,3.2,7.9,5.8c12.3,1.8,22.9-1.4,22.9-1.4c-18,2.8-30.8-4.4-30.9-4.5
				C-336.4-599.9-336.4-599.8-336.3-599.8z"/>
			<path fill="#FFFFFF" d="M-298.3-598.8c-1.8,2.1-3.2,3.3-5.1,4.7c-1.4,1.1-3.8,2.4-7.2,3.2c-3.2,0.7-7.3,0.8-11.9-0.5
				c-7.6-2.2-13.8-8.4-13.8-8.4c-4-3.6-6.4-7.9-6.4-7.9c-0.3-0.6-0.9-1.7-1.8-2.5c-1-0.8-1.6-0.1-2.4,0.5c-0.9,0.6-1.5-0.1-2-0.6
				c-0.7-0.7-1.4-0.7-1.4-0.2c0,0.7,0.6,1.3,0.1,2.2c-0.2,0.3-0.5,0.5-1,0.5c-1.6,0-2.9-2.5-4-3.6c-0.2-0.2-0.5-0.2-0.5,0.1
				c-0.1,0.5,0,1-0.2,1c-0.4,0.1-1.1-1.3-1.6-1.8c-0.3-0.3-0.6-0.5-1-0.6c-1.4-0.5-1.5-0.7-2.5-1.9c-0.3-0.4-1.6-1.6-1.9-1.6
				c-0.2,0-0.2,0.2-0.2,0.4c0,0.2,0,0.4-0.2,0.4c-0.2,0-0.5-0.2-1-0.6c-0.5-0.3-1-0.7-1.3-0.8s-0.4,0.1-0.5,0.5s0.3,0.4,0.3,0.4
				c0.4,0,0.6,0.4,0.8,0.6c0.2,0.2,0.4,0.6,1.2,0.8c0.8,0.2,1.1,0.6,1.2,1c1,2.2,1.7,3.8,1.7,4.4c0,0.4-0.5,0.5-1.2-1.1
				c-0.4-0.9-0.9-1.7-1.1-2.1c-0.2-0.3-0.4-0.6-0.7-0.7c-0.4-0.3-1.1-0.5-1.6-0.6c-0.5-0.1-0.6,0.2-0.6,0.4c0.1,0.2,0.3,0.3,0.6,0.6
				c1.5,1.3,2.3,2.5,3,4.2c0.5,1.3,1.4,3.3,2,4.4c5,9.3,12.8,19.4,30.9,19.4c7.6,0,14.4-2,19.9-4.4c0,0,0.1,0,0.1,0
				c0.1-0.1,0.2-0.1,0.3-0.2c8.1-3.7,13.6-8.4,15-9.6H-298.3z"/>
			<image width="291" height="231" xlink:href="70E2DD4CB0F0EFF.png"  transform="matrix(0.24 0 0 0.24 -369.121 -638.8044)">
			</image>
			<path fill="#FFFFFF" d="M-298.3-598.8c-1.8,2.1-3.2,3.3-5.1,4.7c-1.4,1.1-3.8,2.4-7.2,3.2c-3.2,0.7-7.3,0.8-11.9-0.5
				c-7.6-2.2-13.8-8.4-13.8-8.4c-4-3.6-6.4-7.9-6.4-7.9c-0.3-0.6-0.9-1.7-1.8-2.5c-1-0.8-1.6-0.1-2.4,0.5c-0.9,0.6-1.5-0.1-2-0.6
				c-0.7-0.7-1.4-0.7-1.4-0.2c0,0.7,0.6,1.3,0.1,2.2c-0.2,0.3-0.5,0.5-1,0.5c-1.6,0-2.9-2.5-4-3.6c-0.2-0.2-0.5-0.2-0.5,0.1
				c-0.1,0.5,0,1-0.2,1c-0.4,0.1-1.1-1.3-1.6-1.8c-0.3-0.3-0.6-0.5-1-0.6c-1.4-0.5-1.5-0.7-2.5-1.9c-0.3-0.4-1.6-1.6-1.9-1.6
				c-0.2,0-0.2,0.2-0.2,0.4c0,0.2,0,0.4-0.2,0.4c-0.2,0-0.5-0.2-1-0.6c-0.5-0.3-1-0.7-1.3-0.8s-0.4,0.1-0.5,0.5s0.3,0.4,0.3,0.4
				c0.4,0,0.6,0.4,0.8,0.6c0.2,0.2,0.4,0.6,1.2,0.8c0.8,0.2,1.1,0.6,1.2,1c1,2.2,1.7,3.8,1.7,4.4c0,0.4-0.5,0.5-1.2-1.1
				c-0.4-0.9-0.9-1.7-1.1-2.1c-0.2-0.3-0.4-0.6-0.7-0.7c-0.4-0.3-1.1-0.5-1.6-0.6c-0.5-0.1-0.6,0.2-0.6,0.4c0.1,0.2,0.3,0.3,0.6,0.6
				c1.5,1.3,2.3,2.5,3,4.2c0.5,1.3,1.4,3.3,2,4.4c5,9.3,12.8,19.4,30.9,19.4c7.6,0,14.4-2,19.9-4.4c0,0,0.1,0,0.1,0
				c0.1-0.1,0.2-0.1,0.3-0.2c8.1-3.7,13.6-8.4,15-9.6H-298.3z"/>
			<image width="296" height="231" xlink:href="70E2DD4CB0F0EF9.png"  transform="matrix(0.24 0 0 0.24 -369.121 -638.8044)">
			</image>
			<path fill="#FFFFFF" d="M-310.8-590.9c3.4-0.7,5.9-2.1,7.3-3.2c1.9-1.5,3.3-2.7,5.1-4.7c1.8-2.1,2.9-3.3,5.3-5.8
				c2.4-2.4,4.4-4.2,7.7-6c4.3-2.3,13.2-4.6,26.1,1.1c9.1,4.3,12.2,10.6,12.2,16.7c0,0,0.3,4.8-2.8,9.5l-2.3,1.1
				c1.2-1.3,3.1-2.9,3.1-7.9c0,0,0.2-3.6-2.1-6.5c-3-3.6-6.1-0.1-11.1-4.1c-1.6-1.3-2.3-2.6-3.2-3.8c0,0-1.9-2.5-6.3-3.8
				c-4.7-1.3-11.4-1.4-15.1,1.2c-0.5,0.3-1.5,1.2-1.6,1.7c0,0.4,0.4,0.4,1.2,0.6c0.8,0.2,1.1,0.3,1.1,0.5c0,0.1-0.1,0.2-0.3,0.4
				c-0.2,0.2-0.6,0.3-0.7,0.4c-2.8,1.5-4.4,2.4-7.3,4.7c-1.5,1.2-7.1,6-15.5,9.7L-310.8-590.9z"/>
			<image width="105" height="122" xlink:href="70E2DD4CB0F0EFB.png"  transform="matrix(0.24 0 0 0.24 -272.161 -611.4444)">
			</image>
			<path fill="#FFFFFF" d="M-265.5-604.3c-0.1-0.1-0.1-0.2-0.2-0.2c0,0-1.9-2.5-6.3-3.8c-4.7-1.3-11.4-1.4-15.1,1.2
				c-0.5,0.3-1.5,1.2-1.6,1.7c0,0.4,0.4,0.4,1.2,0.6c0.8,0.2,1.1,0.3,1.1,0.5c0,0.1-0.1,0.2-0.3,0.4c-0.2,0.2-0.6,0.3-0.7,0.4
				c-2.8,1.5-4.4,2.4-7.3,4.7c-1.1,0.9-4.6,3.9-9.8,6.9c16.1-8.7,21-12.3,29.7-13C-270.2-605.3-266.3-604.7-265.5-604.3z"/>
			<image width="314" height="79" xlink:href="70E2DD4CB0F0EE6.png"  transform="matrix(0.24 0 0 0.24 -340.801 -609.2844)">
			</image>
			<image width="163" height="57" xlink:href="70E2DD4CB0F0EE7.png"  transform="matrix(0.24 0 0 0.24 -304.561 -605.4444)">
			</image>
			<path fill="#FFFFFF" d="M-265.6-604.5c0,0-1.9-2.5-6.3-3.8c-4.7-1.3-11.4-1.4-15.1,1.2c-0.5,0.3-1.5,1.2-1.6,1.7
				c0,0.4,0.4,0.4,1.2,0.6c0.8,0.2,1.1,0.3,1.1,0.5c0,0.1-0.1,0.2-0.3,0.4c-0.2,0.2-0.6,0.3-0.7,0.4c-2.8,1.5-4.4,2.4-7.3,4.7
				c-1.1,0.9-4.6,3.9-9.8,6.9c16.1-8.7,21-12.3,29.7-13c4.6-0.4,8.4,0.2,9.3,0.6C-265.5-604.4-265.6-604.5-265.6-604.5z"/>
			<image width="193" height="89" xlink:href="70E2DD4CB0F0EE8.png"  transform="matrix(0.24 0 0 0.24 -308.401 -611.4444)">
			</image>
			<image width="102" height="58" xlink:href="70E2DD4CB0F0EEB.png"  transform="matrix(0.24 0 0 0.24 -318.001 -604.2444)">
			</image>
			<path fill="#FFFFFF" d="M-259.3-609.5c9.1,4.3,12.2,10.6,12.2,16.7c0,0,0.3,4.8-2.8,9.5c-1.6,2.2-2.7,3.4-2.8,5.8
				c-0.1,1.1,0.1,1.4,0.2,2.3c0.2,3.3-1.2,5.5-1.7,6.2c-0.9,1.3-1.6,2.1-2.3,3.5c-0.1,0.1-0.2,0.5-0.2,0.6c-0.3,0.8-0.4,1-0.6,1.2
				c-0.3,0.3-0.7,0.4-1,0.4c-0.5,0-0.6-0.4-0.4-0.9c0-0.1,0.1-0.2,0.2-0.3c0.3-0.4,0.6-0.6,1.1-1.3c0.2-0.3,0.6-0.8,0.8-1.3
				c0.7-1.3,1-1.9,1.4-2.6s0.6-1.9,0.6-2.8s-0.2-1.2-0.6-1.2s-0.9,0.4-1,0.5c-0.2,0.2-0.3,0.3-0.7,0.6c-0.3,0.2-0.6,0.4-0.9,0.7
				c-0.2,0.2-0.4,0.4-0.6,0.6c-0.2,0.2-0.4,0.5-0.6,0.8c-0.3,0.4-0.5,0.7-0.6,0.9c-0.1,0.2-0.6,0.9-1.1,0.9c-0.5,0-0.5-0.4-0.2-0.9
				c0.4-0.8,0.5-0.8,0.7-0.9c0.3-0.2,0.6-0.3,0.8-0.7c0.2-0.4,1.1-1.9,1.5-2.5c1.3-1.7,1.8-1.5,1.8-2.8c0-0.7,0-1.2-0.5-1.6
				c-0.6-0.5-1.1-0.5-1.5-0.5c-0.2,0-1.3,0.1-2.4-0.9c-1.1-1-1.4-2-1.4-2.1c0,0-0.1-0.6,0.7-0.6c0,0,0.5,0,0.3,0.5
				c-0.2,0.5-0.2,0.9,0.3,1.4c0.6,0.5,2.2,0.7,3.2,0.5c1.2-0.3,2.7-0.8,3.4-1c0.5-0.2,1.2-0.4,2-1.3c1.2-1.3,3.1-2.9,3.1-7.9
				c0,0,0.2-3.6-2.1-6.5c-3-3.6-6.1-0.1-11.1-4.1L-259.3-609.5z"/>
			<path fill="#FFFFFF" d="M-294.6-598.9c2.9-2.3,4.4-3.3,7.3-4.9c0.2-0.1,0.5-0.3,0.7-0.4c-1.2-0.5-2.3-0.3-2.3-1.2
				c0-0.7,1.6-1.8,1.6-1.8c2-1.4,5.1-2.2,8.6-2.2c2.3,0,4.6,0.3,6.7,0.9c4.5,1.3,6.5,3.9,6.5,4c0.3,0.3,0.6,0.7,0.8,1
				c0.6,0.9,1.3,1.8,2.4,2.7l-0.2,0.2c-1.6-1.3-2.3-2.6-3.2-3.8c0,0-1.9-2.5-6.3-3.8c-4.7-1.3-11.4-1.4-15.1,1.2
				c-0.5,0.3-1.5,1.2-1.6,1.7c0,0.4,0.4,0.4,1.2,0.6c0.8,0.2,1.1,0.3,1.1,0.5c0,0.1-0.1,0.2-0.3,0.4c-0.2,0.2-0.6,0.3-0.7,0.4
				c-2.8,1.5-4.4,2.4-7.3,4.7L-294.6-598.9z"/>
			<path fill="#FFFFFF" d="M-309.6-589.2c-5.6,2.6-12.6,4.6-20.3,4.6c-18.1,0-26-10-30.9-19.4c-0.6-1.1-1.5-3.1-2-4.4
				c-0.7-1.7-1.4-2.9-3-4.2c-0.3-0.3-0.6-0.4-0.6-0.6c-0.1-0.2,0.1-0.5,0.6-0.4c0.5,0.1,1.1,0.3,1.6,0.6c0.3,0.2,0.5,0.5,0.7,0.7
				c0.3,0.4,0.7,1.1,1.1,2.1c0.7,1.6,1.2,1.5,1.2,1.1c0-0.6-0.7-2.1-1.7-4.4c-0.2-0.3-0.4-0.8-1.2-1c-0.8-0.2-1-0.6-1.2-0.8
				c-0.2-0.2-0.4-0.6-0.8-0.6c0,0-0.4,0-0.3-0.4c0.1-0.4,0.2-0.6,0.5-0.5c0.3,0.1,0.9,0.4,1.3,0.8c0.5,0.3,0.8,0.6,1,0.6
				c0.2,0,0.2-0.2,0.2-0.4c0-0.2,0-0.4,0.2-0.4c0.3,0,1.6,1.2,1.9,1.6c1,1.1,1.1,1.4,2.5,1.9c0.5,0.2,0.8,0.4,1,0.6
				c0.5,0.5,1.2,1.8,1.6,1.8c0.3,0,0.1-0.6,0.2-1c0.1-0.3,0.4-0.2,0.5-0.1c1.1,1.1,2.5,3.6,4,3.6c0.5,0,0.9-0.2,1-0.5
				c0.6-0.8-0.1-1.4-0.1-2.2c0-0.6,0.7-0.5,1.4,0.2c0.5,0.5,1.2,1.1,2,0.6c0.9-0.6,1.4-1.3,2.4-0.5c1,0.8,1.5,1.9,1.8,2.5
				c0,0,2.4,4.2,6.4,7.9c0,0,6.2,6.2,13.8,8.4c4.8,1.4,8.8,1.2,12.1,0.5L-309.6-589.2z"/>
			<image width="259" height="173" xlink:href="70E2DD4CB0F0EE9.png"  transform="matrix(0.24 0 0 0.24 -370.321 -617.4444)">
			</image>
			<path fill="#FFFFFF" d="M-355.5-607.7l-4.4,0.6c0,0,9.3,21.8,28.8,21.2C-349-588.9-355.5-607.7-355.5-607.7z"/>
			<image width="175" height="57" xlink:href="70E2DD4CB0F0EEF.png"  transform="matrix(0.24 0 0 0.24 -357.361 -598.0044)">
			</image>
			<image width="146" height="31" xlink:href="70E2DD4CB0F0F03.png"  transform="matrix(0.24 0 0 0.24 -345.361 -592.7244)">
			</image>
			<path fill="#FFFFFF" d="M-348.7-590.2c-7.3-4.9-12.6-14.3-14.2-18.1c0.5,1.3,1.4,3.3,2,4.4c5,9.3,12.8,19.4,30.9,19.4
				c7.4,0,14-1.9,19.5-4.2C-321.7-584.2-337.4-582.6-348.7-590.2z"/>
			<path fill="#FFFFFF" d="M-364.9-612.9c0,0,0.8,0,1.5,1.3c0.3,0.5,1.2,2.6,1.8,3c0,0-0.6-0.1-1.5-1.6
				C-363.9-611.5-363.8-612.5-364.9-612.9z"/>
			<path fill="#FFFFFF" d="M-361.4-613.5c-0.9-0.9-0.9-1.5-0.9-1.5s0.8,0.8,1,1c0.2,0.3,0.8,1,1.6,1.3
				C-359.7-612.6-360.5-612.7-361.4-613.5z"/>
			<path fill="#FFFFFF" d="M-355.8-611.2c0,0,0.3,0,1,0.9c1.7,2.5,2.7,3,3.8,2.8c0,0-1.4,0.6-2.6-0.5
				C-354.7-609.1-354.6-610.4-355.8-611.2z"/>
			<path fill="#FFFFFF" d="M-347.8-609.1c0,0-0.6,0-1-0.3c-0.3-0.2-0.3-0.3-0.5-0.6c0.5,0.3,0.5,0.5,0.7,0.6
				C-348.5-609.4-348.2-609.2-347.8-609.1z"/>
			<path fill="#FFFFFF" d="M-255.4-581.4c0.4-0.4,0.4-2.2,0.4-2.2s-0.7-1.2-1.5-0.9c-0.7,0.2-0.7,1.5-0.6,2.6
				C-257-580.9-255.8-581-255.4-581.4z"/>
			<image width="111" height="95" xlink:href="70E2DD4CB0F0F0D.png"  transform="matrix(0.24 0 0 0.24 -355.681 -615.7644)">
			</image>
			<path fill="#FFFFFF" d="M-318.9-579.2h-4.3v13c0,2.1-1.5,3.2-3.2,3.2s-3.2-1.1-3.2-3.2v-11c0-1.1-0.9-2-2-2h-5.2
				c0.6,0.8,1,1.7,1,2.8v9.8c0,5,3.5,6.8,8.9,6.8c3.6,0,5.9-1.4,8-1.4c0.6,0,1.3,0.1,2.1,0.2v-16.4
				C-316.9-578.3-317.8-579.2-318.9-579.2z"/>
			<path fill="#FFFFFF" d="M-287.5-579.2h-4.3v13c0,2.1-1.5,3.2-3.2,3.2s-3.2-1.1-3.2-3.2v-11c0-1.1-0.9-2-2-2h-5.3
				c0.6,0.8,1,1.7,1,2.8v9.8c0,5,3.5,6.8,8.9,6.8c3.6,0,5.9-1.4,8-1.4c0.6,0,1.3,0.1,2.1,0.2v-16.4
				C-285.4-578.3-286.3-579.2-287.5-579.2z"/>
			<path fill="#FFFFFF" d="M-309.6-584.7h-5.3c0.6,0.8,1,1.7,1,2.8v20.6c0,0.4,0.3,0.7,0.7,0.7h5.6v-22.2
				C-307.5-583.8-308.4-584.7-309.6-584.7z"/>
			<path fill="#FFFFFF" d="M-351-586.6h-13.3c0.6,0.8,1,1.7,1,2.8v22.5c0,0.4,0.3,0.7,0.7,0.7h11.4c3.3,0,12.6-1.9,12.6-13.4
				C-338.6-585.6-347.8-586.6-351-586.6z M-353.3-564.1h-3V-583h3c5.3,0,7.3,2.7,7.3,9C-346.1-567.7-348.4-564.1-353.3-564.1z"/>
			<path fill="#FFFFFF" d="M-264.1-578.4c0.3-0.3,0.2-0.8-0.3-0.8h-4.5l-3.9,4.9l-2.4-3.2c-0.7-0.9-1.5-1.6-3-1.6h-6.1
				c1.2,0.7,1.9,1.6,2.9,2.8l4.9,6.7l-6.6,8.3c-0.3,0.3-0.2,0.8,0.3,0.8h4.5l4.4-5.5l2.8,3.8c0.7,0.9,1.5,1.6,3,1.6h5.4l-7.4-10.2
				L-264.1-578.4z"/>
			<image width="118" height="48" xlink:href="70E2DD4CB0F0F0F.png"  transform="matrix(0.24 0 0 0.24 -282.481 -610.2444)">
			</image>
			<path fill="#FFFFFF" d="M-250.3-583.7c0.9-1.3,1.7-3.1,1.7-6.4c0-0.3,0.1-3.8-2.3-6.8c-1.6-1.9-3.2-2-4.9-2
				c-1.8-0.1-3.7-0.2-6.2-2.1c-1.1-0.9-1.8-1.8-2.4-2.7c-0.2-0.3-0.5-0.7-0.8-1c0,0-0.3-0.3-0.7-0.8l0,0c-4.4-4.1-12.9-3.7-12.9-3.7
				c2.4,0,4.9,0.3,7,0.9c4.4,1.3,6.3,3.8,6.3,3.8c1,1.2,1.6,2.5,3.2,3.8c5.1,4,8.1,0.5,11.1,4.1c2.3,2.9,2.1,6.5,2.1,6.5
				c0,5-1.9,6.6-3.1,7.9L-250.3-583.7z"/>
			<path fill="#FFFFFF" d="M-249.9-583.4c-1.6,2.2-2.7,3.4-2.8,5.8c-0.1,1.1,0.1,1.4,0.2,2.3c0.2,3.3-1.2,5.5-1.7,6.2
				c-0.9,1.3-1.6,2.1-2.3,3.5c-0.1,0.1-0.2,0.5-0.2,0.6c-0.3,0.8-0.4,1-0.6,1.2c-0.3,0.3-0.7,0.4-1,0.4c-0.5,0-0.6-0.4-0.4-0.9
				c0-0.1,0.1-0.2,0.2-0.3c0.3-0.4,0.6-0.6,1.1-1.3c0.2-0.3,0.6-0.8,0.8-1.3c0.7-1.3,1.1-1.9,1.4-2.6c0.3-0.7,0.6-1.9,0.6-2.8
				s-0.2-1.2-0.6-1.2c-0.4,0-0.9,0.4-1,0.5c-0.2,0.2-0.3,0.3-0.7,0.6c-0.3,0.2-0.6,0.4-0.9,0.7c-0.2,0.2-0.4,0.4-0.6,0.6
				c-0.2,0.2-0.4,0.5-0.6,0.8c-0.3,0.4-0.5,0.7-0.6,0.9c-0.1,0.2-0.6,1-1.1,1c-0.5,0-0.5-0.4-0.2-0.9c0.4-0.8,0.5-0.8,0.7-0.9
				c0.3-0.2,0.6-0.3,0.8-0.7c0.2-0.4,1.1-1.9,1.5-2.5c1.3-1.7,1.8-1.5,1.8-2.8c0-0.7,0-1.2-0.5-1.6c-0.6-0.5-1.1-0.5-1.5-0.5
				c-0.2,0-1.3,0.1-2.4-0.9c-1.1-0.9-1.4-2-1.4-2.1c0,0-0.1-0.6,0.7-0.6c0,0,0.5,0,0.3,0.5c-0.2,0.5-0.2,0.9,0.3,1.4
				s2.2,0.7,3.2,0.5c1.2-0.3,2.7-0.8,3.4-1c0.5-0.2,1.2-0.4,2-1.3L-249.9-583.4z"/>
			<path fill="#FFFFFF" d="M-262.8-610.5c2.7,0.9,6.3,2.6,9.1,4.9c4.2,3.4,6.3,7.7,6.3,12.8v0c0,0,0.1,1.3-0.3,3.3
				c0,0,0.6-4.3-0.8-7.5c-0.3-0.6-0.9-2.6-3.9-4.2c-2.6-1.2-0.9-2.6-3.3-5.1C-257.7-608.3-261-609.7-262.8-610.5z"/>
			<path fill="#FFFFFF" d="M-329.1-593.2c-6.7-3.9-12-10.8-14.8-15.4c-0.3-0.5-1.5-2-2.1-1.7c-0.3,0.2-0.6,0.4-1,0.7
				c-0.9,0.6-1.5-0.1-2-0.6c-0.7-0.7-1.4-0.7-1.4-0.2c0,0.7,0.6,1.3,0.1,2.2c-0.2,0.3-0.5,0.5-1,0.5c-1.6,0-2.9-2.5-4-3.6
				c-0.2-0.2-0.5-0.2-0.5,0.1c-0.1,0.5,0,1-0.2,1c-0.4,0.1-1.1-1.3-1.6-1.8c-0.3-0.3-0.6-0.5-1-0.6c-1.4-0.5-1.5-0.7-2.5-1.9
				c-0.3-0.4-1.6-1.6-1.9-1.6c-0.2,0-0.2,0.2-0.2,0.4c0,0.2,0,0.4-0.2,0.4c-0.2,0-0.5-0.2-1-0.6c-0.5-0.3-1-0.7-1.3-0.8
				c-0.3-0.1-0.4,0.1-0.5,0.5s0.3,0.4,0.3,0.4c0.4,0,0.6,0.4,0.8,0.6c0.2,0.2,0.4,0.6,1.2,0.8c0.8,0.2,1.1,0.6,1.2,1
				c1,2.2,1.7,3.8,1.7,4.4c0,0.4-0.5,0.5-1.2-1.1c-0.4-1-0.9-1.7-1.1-2.1c-0.2-0.3-0.4-0.6-0.7-0.7c-0.4-0.3-1.1-0.5-1.6-0.6
				c-0.5-0.1-0.6,0.2-0.6,0.4c0.1,0.2,0.3,0.3,0.6,0.6c1.5,1.3,2.3,2.4,3,4.2c0.5,1.3,1.4,3.3,2,4.4c5,9.3,12.8,19.4,30.9,19.4
				c7.8,0,14.7-2.1,20.3-4.6C-315.2-589-321.6-588.8-329.1-593.2z"/>
			<path fill="#FFFFFF" d="M-327.4-592.6c-3.1-1.5-6.3-3.7-9.3-6.7c5.8,6.7,19.8,14.8,32.1,7.3c3.9-2.3,6.2-5.3,7.1-6.3
				c1.3-1.4,2.4-2.8,3.5-4.1c8-9.2,16.1-9.9,19.5-9.8c0,0-10.5-1.6-19.9,9.5c0,0-1.8,2.1-3.6,4
				C-299.6-597.2-310.2-584.5-327.4-592.6z"/>
			<path fill="#FFFFFF" d="M-249.9-583.4c-1.6,2.2-2.7,3.4-2.8,5.8c-0.1,1.1,0.1,1.4,0.2,2.3c0.2,3.3-1.2,5.5-1.7,6.2
				c-0.9,1.3-1.6,2.1-2.3,3.5c-0.1,0.1-0.2,0.5-0.2,0.6c-0.3,0.8-0.4,1-0.6,1.2c-0.3,0.3-0.7,0.4-1,0.4c-0.5,0-0.6-0.4-0.4-0.9
				c0-0.1,0.1-0.2,0.2-0.3c0.3-0.4,0.6-0.6,1.1-1.3c0.2-0.3,0.6-0.8,0.8-1.3c0.7-1.3,1-1.9,1.4-2.6c0.3-0.7,0.6-1.9,0.6-2.8
				s-0.2-1.2-0.6-1.2c-0.4,0-0.9,0.4-1,0.5c-0.2,0.2-0.3,0.3-0.7,0.6c-0.3,0.2-0.6,0.4-0.9,0.7c-0.2,0.2-0.4,0.4-0.6,0.6
				c-0.2,0.2-0.4,0.5-0.6,0.8c-0.3,0.4-0.5,0.7-0.6,0.9c-0.1,0.2-0.6,1-1.1,1c-0.5,0-0.5-0.4-0.2-0.9c0.4-0.8,0.5-0.8,0.7-0.9
				c0.3-0.2,0.6-0.3,0.8-0.7c0.2-0.4,1.1-1.9,1.5-2.5c1.3-1.7,1.8-1.5,1.8-2.8c0-0.7,0-1.2-0.5-1.6c-0.6-0.5-1.1-0.5-1.5-0.5
				c-0.2,0-1.3,0.1-2.4-0.9c-1.1-0.9-1.4-2-1.4-2.1c0,0-0.1-0.6,0.7-0.6c0,0,0.5,0,0.3,0.5c-0.2,0.5-0.2,0.9,0.3,1.4
				c0.6,0.5,2.2,0.7,3.2,0.5c1.2-0.3,2.7-0.8,3.4-1c0.5-0.2,1.2-0.4,2-1.3L-249.9-583.4z"/>
			<path fill="#FFFFFF" d="M-250.3-583.7c0.9-1.3,1.7-3.1,1.7-6.4c0-0.3,0.1-3.8-2.3-6.8c-1.6-1.9-3.2-2-4.9-2
				c-1.8-0.1-3.7-0.2-6.2-2.1c-1.1-0.9-1.8-1.8-2.4-2.7c-0.2-0.3-0.5-0.7-0.8-1c0,0-0.3-0.3-0.7-0.8l0,0c-4.4-4.1-12.9-3.7-12.9-3.7
				c2.4,0,4.9,0.3,7,0.9c4.4,1.3,6.3,3.8,6.3,3.8c1,1.2,1.6,2.5,3.2,3.8c5.1,4,8.1,0.5,11.1,4.1c2.3,2.9,2.1,6.5,2.1,6.5
				c0,5-1.9,6.6-3.1,7.9L-250.3-583.7z"/>
			<path fill="#FFFFFF" d="M-262.8-610.5c2.7,0.9,6.3,2.6,9.1,4.9c4.2,3.4,6.3,7.7,6.3,12.8v0c0,0,0.1,1.3-0.3,3.3
				c0,0,0.6-4.3-0.8-7.5c-0.3-0.6-0.9-2.6-3.9-4.2c-2.6-1.2-0.9-2.6-3.3-5.1C-257.7-608.3-261-609.7-262.8-610.5z"/>
		</g>
	</g>
	<g>
		<g>
			<path fill-rule="evenodd" fill="#FFFFFF" d="M63.9-566.7H-45c-12.2,0-22-9.9-22-22c0-12.1,9.9-22,22-22H63.9c12.2,0,22,9.9,22,22
				C85.9-576.6,76-566.7,63.9-566.7L63.9-566.7z M-45-608.3c-10.8,0-19.6,8.8-19.6,19.6s8.8,19.6,19.6,19.6H63.9
				c10.8,0,19.7-8.8,19.7-19.6c0-10.8-8.8-19.6-19.7-19.6H-45z"/>
			<path fill-rule="evenodd" fill="#FFFFFF" d="M71.1-599.7h-5v14.1c0,2.3-1.1,3.5-3,3.5c-1.8,0-3-1.2-3-3.1c0-2,1.2-3.1,3.1-3.1
				c0.5,0,1.2,0.1,2,0.4v-5.2c-0.9-0.2-1.7-0.3-2.2-0.3c-4.7,0-8.1,3.5-8.1,8.2c0,4.8,3.4,8.2,8.1,8.2c3.2,0,6-1.8,7.3-4.6
				c0.7-1.5,0.7-3.1,0.7-4.9V-599.7L71.1-599.7z M47.7-577.3h5v-6.6c0-1.8,0-3.4-0.7-5c-1.3-2.8-4.1-4.6-7.3-4.6
				c-4.6,0-8.1,3.4-8.1,8.2s3.4,8.2,8.1,8.2c0.6,0,1.3-0.1,2.2-0.3v-5.2c-0.8,0.3-1.5,0.4-2,0.4c-1.9,0-3.1-1.3-3.1-3.2
				s1.2-3.1,2.9-3.1c2,0,3.1,1.2,3.1,3.5L47.7-577.3L47.7-577.3z M27.5-585.6l-2.1-7.6h-5.2l4.3,13.1c0.7,2.1,1.9,3.1,3.8,3.1
				c1.9,0,3.1-1,3.8-3.1l4.3-13.1h-5.2l-2.1,7.6c-0.3,1.2-0.6,2.2-0.8,3.2C28-583.4,27.8-584.4,27.5-585.6L27.5-585.6z M8-577.3h4.9
				v-6c0-3.6,1.5-5.1,5.2-5.1h0.2v-4.8h-0.6c-2.4,0-4,0.7-5,2.4v-2.4H8L8-577.3L8-577.3z M-0.9-597.5c0,1.6,1.3,2.9,3,2.9
				s3-1.3,3-2.9c0-1.6-1.3-2.9-3-2.9S-0.9-599.1-0.9-597.5z M-0.5-577.3h5.1v-15.9h-5.1V-577.3z M-18.5-577.3h5v-8.9
				c0-1.5,1-2.5,2.3-2.5c1.3,0,2.3,1,2.3,2.5v8.9h5v-8.4c0-5-2.5-7.8-6-7.8c-1.4,0-2.6,0.4-3.7,1.3v-7.6h-5L-18.5-577.3L-18.5-577.3
				z M-33.4-581.8v4.5h5.3c2,0,3.6,0,5-0.9c1.3-0.8,2-2.1,2-3.6c0-2.3-1.4-3.8-4.4-5l-2.2-0.9c-0.2-0.1-0.4-0.4-0.4-0.6
				c0-0.4,0.3-0.6,0.8-0.6h5.4v-4.3h-5.5c-3.6,0-5.7,1.7-5.7,4.4c0,2.1,1.3,3.7,3.9,4.8l2.3,1c0.3,0.1,0.5,0.4,0.5,0.6
				c0,0.4-0.3,0.6-0.9,0.6L-33.4-581.8L-33.4-581.8z M-41.2-577.3h5v-6.6c0-1.8,0-3.4-0.7-5c-1.3-2.8-4.1-4.6-7.3-4.6
				c-4.6,0-8.1,3.4-8.1,8.2c0,4.8,3.4,8.2,8.1,8.2c0.6,0,1.3-0.1,2.2-0.3v-5.2c-0.8,0.3-1.5,0.4-2,0.4c-1.9,0-3.1-1.3-3.1-3.2
				s1.2-3.1,2.9-3.1c2,0,3.1,1.2,3.1,3.5V-577.3z"/>
		</g>
	</g>
	<path fill="#FFFFFF" d="M-245.5-451.7c-0.6-0.2-1.1-0.5-1.4-1c-0.7-1-0.8-2-0.2-3c0.6-1,1.5-1.5,2.7-1.4c1.2,0.1,2,0.8,2.4,1.9
		c0.5,1.4-0.2,2.9-1.5,3.5c-0.1,0-0.2,0.1-0.2,0.1H-245.5L-245.5-451.7z M-242.4-454.4c0-1.2-1-2.3-2.2-2.3c-1.3,0-2.3,1-2.3,2.2
		c0,1.2,1,2.3,2.3,2.3C-243.4-452.1-242.4-453.1-242.4-454.4z"/>
	<path fill="#FFFFFF" d="M-346.3-452.9c-7.9,0-14.3-6.5-14.3-14.4c0-8,6.4-14.4,14.3-14.4c7.9,0,14.3,6.5,14.3,14.4
		C-331.9-459.3-338.4-452.9-346.3-452.9L-346.3-452.9z M-352.7-467.6c0,2,0.5,3.5,1.4,4.8c2.2,3,6.1,3.5,8.9,1.1
		c3.3-2.8,3.3-8.3,0-11.2c-2.2-1.9-5.3-2-7.6-0.2C-351.8-471.6-352.6-469.6-352.7-467.6z"/>
	<path fill="#FFFFFF" d="M-330.8-453.2v-27.7h7.6v9.6h7.5v-9.6h7.6v27.7h-7.6v-10.4h-7.6v10.4H-330.8L-330.8-453.2z"/>
	<path fill="#FFFFFF" d="M-354.9-453.2h-0.3c-3.2,0-6.3,0-9.5,0c-0.2,0-0.3-0.1-0.5-0.2c-2.7-3.1-5.4-6.3-8.1-9.4
		c-0.1-0.1-0.1-0.1-0.2-0.3v9.9h-7.6v-27.7h7.6v8.1c0,0,0.1,0,0.1,0.1c0-0.1,0.1-0.1,0.1-0.2c2.3-2.6,4.6-5.2,6.9-7.8
		c0.1-0.1,0.3-0.2,0.4-0.2c3.1,0,6.1,0,9.2,0c0.1,0,0.1,0,0.3,0c-3.6,4.4-7.3,8.8-10.9,13.2C-363.2-462.8-359.1-458-354.9-453.2
		L-354.9-453.2z"/>
	<path fill="#FFFFFF" d="M-257.2-464.1c2.6,3.6,5.2,7.3,7.8,11c-0.1,0-0.2,0-0.3,0c-2.6,0-5.2,0-7.7,0c-0.2,0-0.3-0.1-0.4-0.2
		c-1.9-2.5-3.8-5.1-5.6-7.6c-0.1-0.1-0.1-0.2-0.2-0.3v8.1h-7.6v-27.7c0.1,0,0.2,0,0.3,0c2.4,0,4.8,0,7.2,0c1.6,0,3.2,0.1,4.7,0.5
		c3.4,0.9,6.1,3.9,6.6,7.3c0.3,2.2-0.3,4.1-1.6,5.9c-0.8,1.1-1.8,2-2.8,2.8C-257-464.3-257.1-464.2-257.2-464.1z M-263.5-474.5v5.4
		c0.7,0,1.4,0,2.1-0.1c0.8-0.1,1.4-0.5,1.9-1.1c1-1.4,0.3-3.4-1.3-3.9C-261.7-474.5-262.6-474.4-263.5-474.5L-263.5-474.5z"/>
	<path fill="#FFFFFF" d="M-280.7-463.9v4.3h7.8v6.4h-15.4v-27.7h15.4v6.3h-7.8v4.3h7.8v6.4L-280.7-463.9L-280.7-463.9z"/>
	<path fill="#FFFFFF" d="M-306-480.9h7.6v20.5h8.4v7.1h-16V-480.9z"/>
	<path fill="#FFFFFF" d="M-244-454.2c0.2,0.4,0.3,0.8,0.5,1.2c-0.5,0.1-0.5,0.1-0.7-0.3c0-0.1-0.1-0.2-0.1-0.2
		c-0.2-0.4-0.5-0.6-0.9-0.6v1.1h-0.5v-2.8c0.5,0,1.1,0,1.6,0c0.3,0,0.5,0.3,0.6,0.6c0.1,0.3,0,0.6-0.3,0.8
		C-243.8-454.3-243.9-454.2-244-454.2z M-245.2-455.4v0.9c0.3,0,0.5,0,0.8,0c0.2,0,0.4-0.2,0.4-0.4c0-0.2-0.2-0.4-0.4-0.4
		C-244.6-455.4-244.9-455.4-245.2-455.4L-245.2-455.4z"/>
	<g>
		<g>
			<path fill="#FFFFFF" d="M-39.9-495.7c8.9,0,16.1,7.3,16,16.2c0,8.9-7.3,16-16.2,16c-8.8,0-16-7.3-16-16.1
				C-56-488.5-48.8-495.7-39.9-495.7z M-51-479.2c0,0.6,0,1.1,0.1,1.5c0.7,5.3,5,9.3,10.4,9.7c5,0.4,9.9-3.1,11.3-8.1
				c1.4-5-0.9-10.4-5.6-12.8c-0.9-0.4-1.7-0.2-2,0.7c-0.2,0.7,0.1,1.3,0.8,1.7c2.5,1.4,4,3.5,4.4,6.4c0.5,3.6-1.5,7.2-4.9,8.7
				c-3.3,1.5-7.4,0.6-9.7-2.1c-3.6-4.1-2.5-10.3,2.3-13c0.9-0.5,1.2-1.2,0.8-1.9c-0.4-0.7-1.2-0.9-2.1-0.4
				C-48.9-486.7-50.8-483.4-51-479.2L-51-479.2z M-38.5-484.3c0-2.2,0-4.3,0-6.5c0-0.4,0-0.8-0.3-1.1c-0.4-0.5-0.9-0.7-1.5-0.5
				c-0.6,0.2-1,0.7-1,1.5c0,4.3,0,8.7,0,13c0,1.1,0.5,1.7,1.4,1.7c0.9,0,1.4-0.6,1.4-1.6C-38.5-479.9-38.5-482.1-38.5-484.3
				L-38.5-484.3z"/>
			<path fill="#FFFFFF" d="M63-490.1c0-3.2,3.1-5.8,6.4-5.5c3.2,0.3,5.5,2.7,5.5,6c0,2.3,0,4.5,0,6.8c0,1.4-0.2,2.7-1.9,3.3
				c1.5,0.4,1.9,1.4,1.9,2.7c0,2.5,0,5.1,0,7.6c0,3-2.2,5.4-5.2,5.8c-3.1,0.4-5.8-1.4-6.6-4.3c0.3,0.1,0.1-0.5,0.4-0.3
				c0.2,0.1,0.2,0,0.2-0.1c0-0.5,0.2-1.1-0.1-1.6c0-6.6,0-13.1,0-19.7c0.1,0,0.3,0,0.2-0.2c-0.1-0.1-0.3-0.1-0.3-0.3
				c0-0.1,0.1-0.3-0.1-0.5v0.8C63.2-489.9,63.2-490.1,63-490.1L63-490.1z M66-479.6c0,2.5,0,5.1,0,7.6c0,1.7,1.2,2.9,3,2.9
				c1.7,0,2.9-1.2,2.9-2.9c0-1.2,0-2.4,0-3.7c0-1.6-0.8-2.4-2.4-2.4c-0.8,0-1.6,0-2.4,0c-0.4,0-0.5-0.1-0.5-0.5c0-0.7,0-1.4,0-2.2
				c0-0.4,0.1-0.5,0.5-0.5c0.9,0,1.7,0,2.6,0c1.4-0.1,2.2-1,2.3-2.4c0-1.2,0-2.4,0-3.7c0-0.3,0-0.6-0.1-0.9
				c-0.5-1.4-1.8-2.1-3.4-1.9c-1.3,0.2-2.3,1.3-2.3,2.8C65.9-484.7,66-482.1,66-479.6z"/>
			<path fill="#FFFFFF" d="M7.8-479.6c0,3.4,0,6.7,0,10.1c0,3.4-2.6,6-6,6c-3.4,0-5.9-2.6-5.9-6c0-6.7,0-13.5,0-20.2
				c0-3.1,2.3-5.6,5.4-5.9c3.2-0.3,5.9,1.8,6.5,4.8c0.1,0.5,0.1,1,0.1,1.6C7.8-486,7.8-482.8,7.8-479.6z M-1.2-479.6
				c0,2.5,0,5,0,7.5c0,0.5,0,0.9,0.2,1.3c0.6,1.3,1.9,2,3.4,1.7c1.4-0.3,2.2-1.4,2.2-3c0-5,0-10,0-14.9c0-1.8-1.2-3-2.9-3
				c-1.9,0-3,1.2-3,3.1C-1.2-484.5-1.2-482-1.2-479.6L-1.2-479.6z"/>
			<path fill="#FFFFFF" d="M61.2-477.3c0,4.3,0,8.6,0,12.8c0,0.6-0.2,0.7-0.7,0.7c-0.6,0-1.1,0-1.7,0c-0.5,0-0.6-0.1-0.6-0.6
				c0-3.9,0-7.7,0-11.6c0-0.6,0.3-1.4-0.1-1.8c-0.4-0.4-1.2-0.1-1.8-0.1c-1.1,0-2.2,0-3.3,0c-0.5,0-0.6,0.1-0.6,0.6
				c0,4.3,0,8.5,0,12.8c0,0.6-0.1,0.8-0.7,0.8c-0.5-0.1-1.1-0.1-1.6,0c-0.5,0-0.7-0.1-0.7-0.7c0-4.8,0-9.6,0-14.3
				c0-3.6,0-7.3,0-10.9c0-3.2,2.3-5.6,5.4-5.9c3.2-0.3,5.9,1.7,6.5,4.8c0.1,0.5,0.1,0.9,0.1,1.4C61.2-485.3,61.2-481.3,61.2-477.3
				L61.2-477.3z M52.3-484.5c0,1,0,1.9,0,2.9c0,0.3,0,0.5,0.4,0.5c1.7,0,3.4,0,5.2,0c0.2,0,0.4-0.1,0.4-0.3c0-2.1,0.1-4.1-0.1-6.2
				c-0.1-1.6-1.5-2.5-3.1-2.4c-1.5,0.1-2.6,1.3-2.7,2.8C52.2-486.4,52.3-485.4,52.3-484.5L52.3-484.5z"/>
			<path fill="#FFFFFF" d="M-18.1-477.3c0-4.1,0-8.2,0-12.4c0-2.9,1.9-5.3,4.7-5.8c2.9-0.6,5.6,0.8,6.8,3.5c0.3,0.8,0.5,1.6,0.5,2.4
				c0,4.9,0,9.7,0,14.6c0,4.4-4.2,7.2-8.3,5.7c-0.5-0.2-0.6-0.2-0.6,0.4c0,1.6,0,3.1,0,4.7c0,0.4-0.1,0.6-0.5,0.5
				c-0.6,0-1.3,0-1.9,0c-0.5,0-0.6-0.1-0.6-0.6c0-4.2,0-8.4,0-12.6C-18-477.1-18-477.2-18.1-477.3
				C-18.1-477.3-18.1-477.3-18.1-477.3L-18.1-477.3z M-9.1-482.3L-9.1-482.3c0-1.5,0-3.1,0-4.6c0-0.4,0-0.8-0.1-1.1
				c-0.4-1.4-1.8-2.2-3.4-1.9c-1.4,0.2-2.4,1.4-2.4,2.9c0,3.2,0,6.4,0,9.6c0,1.7,1.2,2.9,2.9,3c1.7,0,3-1.2,3-2.9
				C-9.1-479-9.1-480.7-9.1-482.3L-9.1-482.3z"/>
			<path fill="#FFFFFF" d="M35.4-479.7c0-3.3,0-6.6,0-9.8c0-3,1.8-5.3,4.4-5.9c3.8-1,7.4,1.6,7.5,5.5c0.1,2.4,0,4.8,0,7.3
				c0,0.3-0.1,0.5-0.5,0.5c-0.7,0-1.4,0-2.1,0c-0.4,0-0.5-0.1-0.5-0.5c0-1.5,0-2.9,0-4.4c0-1.8-1.2-3-2.9-3c-1.8,0-2.9,1.2-2.9,2.9
				c0,5,0,10.1,0,15.1c0,1.5,0.9,2.6,2.3,2.8c1.5,0.3,2.8-0.4,3.4-1.8c0.1-0.3,0.1-0.6,0.1-0.9c0-1.5,0-3,0-4.5
				c0-0.5,0.1-0.6,0.6-0.6c0.7,0,1.4,0,2,0c0.3,0,0.5,0.1,0.5,0.4c0,2.5,0.1,5,0,7.5c-0.1,3.3-2.8,5.7-6.2,5.6
				c-3.2-0.1-5.7-2.6-5.7-5.9C35.4-472.8,35.4-476.2,35.4-479.7L35.4-479.7L35.4-479.7z"/>
			<path fill="#FFFFFF" d="M33.6-488.4c0,2,0,4,0,6c0,2.9-1.4,4.9-4.1,5.9c-0.4,0.1-0.4,0.4-0.4,0.7c0,3.8,0,7.6,0,11.3
				c0,0.6-0.2,0.7-0.7,0.7c-0.6-0.1-1.1-0.1-1.7,0c-0.6,0-0.8-0.1-0.8-0.7c0-3.7,0-7.5,0-11.2c0-0.5-0.1-0.7-0.6-0.9
				c-2.3-0.9-3.7-2.6-3.7-5.1c-0.1-4.5,0-9,0-13.5c0-0.4,0.1-0.5,0.5-0.4c0.6,0,1.3,0,1.9,0c0.5,0,0.7,0.1,0.7,0.7
				c0,3.4,0,6.9,0,10.3c0,1.3,0.8,2.4,2,2.8c1.3,0.4,2.6,0,3.4-1.1c0.5-0.6,0.5-1.3,0.5-2.1c0-3.3,0-6.6,0-9.9
				c0-0.6,0.1-0.8,0.7-0.7c0.6,0.1,1.2,0,1.8,0c0.5,0,0.6,0.1,0.6,0.6C33.6-492.9,33.6-490.6,33.6-488.4L33.6-488.4z"/>
			<path fill="#FFFFFF" d="M9.7-482.1c0-4.3,0-8.7,0-13c0-0.5,0.1-0.7,0.6-0.6c0.6,0,1.3,0,1.9,0c0.5,0,0.6,0.1,0.6,0.6
				c0,3.1,0,6.3,0,9.4c0,4.5,0,9,0,13.5c0,2.1,1.8,3.5,3.7,3c1.3-0.3,2.1-1.4,2.2-2.8c0-1.5,0-2.9,0-4.4c0-0.5,0.1-0.7,0.6-0.6
				c0.7,0.1,1.3,0,2,0c0.3,0,0.5,0.1,0.5,0.4c0,2.5,0.1,5.1,0,7.6c-0.1,3.2-2.9,5.5-6.2,5.4c-3.1-0.1-5.7-2.6-5.7-5.7
				C9.7-473.5,9.7-477.8,9.7-482.1L9.7-482.1z"/>
			<path fill="#FFFFFF" d="M63-490.1c0.3,0,0.3,0.2,0.4,0.4v-0.8c0.2,0.1,0.1,0.3,0.1,0.5c0,0.2,0.3,0.2,0.3,0.3
				c0.1,0.2-0.1,0.2-0.2,0.2c-0.2,0.2-0.1,0.5-0.1,0.8c0,6.4,0,12.7,0,19.1c0,0.2-0.1,0.4,0.1,0.8v-0.9c0.3,0.5,0.1,1.1,0.1,1.6
				c0,0.1,0,0.2-0.2,0.1c-0.3-0.2-0.1,0.4-0.4,0.3c-0.1-0.5-0.2-0.9-0.2-1.4c0-6.8,0-13.6,0-20.4C62.9-489.8,62.9-490,63-490.1z"/>
			<path fill="#FFFFFF" d="M63.6-469.9v0.9c-0.2-0.3-0.1-0.5-0.1-0.8c0-6.4,0-12.7,0-19.1c0-0.3-0.1-0.5,0.1-0.8
				C63.6-483,63.6-476.4,63.6-469.9L63.6-469.9z"/>
		</g>
	</g>
	<g>
		<g>
			<path fill="#FFFFFF" d="M-354.9-373.7c0,1.7,0,3.4,0,5.1c0,0.2,0,0.3-0.2,0.3c-1.7,0-3.5,0-5.2,0c-0.2,0-0.2-0.1-0.2-0.3
				c0-1.7,0-3.4,0-5.1H-354.9L-354.9-373.7z"/>
			<path fill="#FFFFFF" d="M-385.1-358.8c0-4.7,0-9.5,0-14.2c0-0.3,0.1-0.3,0.3-0.3c6.7,0,13.4,0,20.1,0c0.2,0,0.3,0,0.3,0.3
				c0,1.5,0,3,0,4.5c0,0.3-0.1,0.3-0.3,0.3c-4.7,0-9.3,0-14,0c-0.4,0-0.3,0-0.3,0.3c0,2,0,4,0,5.9c0,0.2,0.1,0.3,0.3,0.3
				c4.1,0,8.1,0,12.2,0c0.3,0,0.3,0.1,0.3,0.3c0,1.5,0,3,0,4.5c0,0.3-0.1,0.3-0.3,0.3c-4,0-8.1,0-12.1,0c-0.4,0-0.3,0-0.3,0.3
				c0,3.9,0,7.7,0,11.6c0,0.2,0,0.3-0.3,0.3c-1.8,0-3.7,0-5.5,0c-0.2,0-0.3-0.1-0.3-0.3C-385.1-349.3-385.1-354.1-385.1-358.8
				L-385.1-358.8z"/>
			<path fill="#FFFFFF" d="M-277.1-353.5c-2.4,0-4.7,0-7.1,0c-0.3,0-0.3,0.1-0.3,0.3c0.1,0.8,0.2,1.6,0.6,2.3
				c0.7,1.5,1.9,2.3,3.5,2.6c0.9,0.1,1.7,0.1,2.5-0.2c1-0.3,1.7-1,2.1-1.9c0.1-0.1,0.1-0.2,0.3-0.2c1.8,0,3.6,0,5.4,0
				c0.2,0,0.3,0,0.2,0.2c-0.6,2-1.7,3.6-3.4,4.8c-1.6,1.1-3.3,1.7-5.2,1.8c-1.6,0.1-3.3,0-4.8-0.5c-3-0.9-4.9-2.8-5.9-5.7
				c-0.5-1.4-0.7-2.8-0.8-4.2c-0.1-1.4-0.1-2.8,0.2-4.2c0.4-1.9,1.1-3.5,2.3-5c1.2-1.5,2.8-2.4,4.6-2.8c2.1-0.5,4.1-0.5,6.2,0
				c2.4,0.5,4.2,1.9,5.3,4.1c0.9,1.6,1.4,3.4,1.6,5.2c0.1,1,0.1,2,0.1,3c0,0.2-0.1,0.3-0.3,0.3
				C-272.3-353.5-274.7-353.5-277.1-353.5L-277.1-353.5L-277.1-353.5z M-279.9-357.2C-279.9-357.2-279.9-357.2-279.9-357.2
				c1.4,0,2.8,0,4.2,0c0.2,0,0.3,0,0.2-0.2c0-0.2,0-0.3-0.1-0.5c-0.4-2.1-1.9-3.6-3.9-3.8c-1.2-0.1-2.4,0.1-3.3,1.1
				c-0.9,0.9-1.2,2-1.5,3.1c-0.1,0.3,0,0.3,0.3,0.3C-282.6-357.2-281.3-357.2-279.9-357.2L-279.9-357.2z"/>
			<path fill="#FFFFFF" d="M-315.1-366.4c2.2,0,4,0.3,5.7,1.1c2.5,1.2,4.1,3.2,5,5.8c0.7,1.9,0.8,3.8,0.6,5.8
				c-0.1,1.8-0.6,3.5-1.5,5c-1.6,2.7-4,4.3-7.2,4.8c-1.9,0.3-3.8,0.2-5.7-0.2c-2.8-0.7-4.7-2.4-6.1-4.9c-1.2-2.2-1.6-4.5-1.5-6.9
				c0.2-3.1,1.3-5.9,3.7-8c1.4-1.3,3.1-1.9,4.9-2.3C-316.5-366.3-315.7-366.4-315.1-366.4z M-309.6-354.9c0-1.4-0.2-2.7-0.7-4
				c-0.4-1-1.1-1.8-2.1-2.3c-1.2-0.5-2.4-0.6-3.7-0.3c-1.4,0.3-2.5,1.1-3.1,2.4c-1,2.4-1.1,4.9-0.3,7.3c0.4,1.3,1.2,2.3,2.5,2.8
				c0.9,0.4,1.8,0.4,2.7,0.3c2-0.1,3.4-1.1,4.1-2.9C-309.7-352.6-309.6-353.7-309.6-354.9L-309.6-354.9z"/>
			<path fill="#FFFFFF" d="M-343.9-362.7c0.3-0.4,0.6-0.9,1-1.3c1.3-1.4,2.9-2.2,4.7-2.3c1.3-0.1,2.6,0,3.9,0.4
				c2.5,0.9,3.9,2.7,4.3,5.3c0.1,0.4,0.1,0.9,0.1,1.3c0,4.9,0,9.8,0,14.7c0,0.3-0.1,0.3-0.3,0.3c-1.7,0-3.4,0-5.1,0
				c-0.3,0-0.3-0.1-0.3-0.3c0-4.4,0-8.8,0-13.2c0-0.7-0.1-1.4-0.4-2.1c-0.3-0.8-0.8-1.2-1.6-1.5c-1.2-0.3-2.4-0.3-3.6,0.1
				c-1.2,0.4-1.9,1.4-2.3,2.6c-0.2,0.7-0.3,1.3-0.3,2c0,4,0,8.1,0,12.1c0,0.3-0.1,0.3-0.3,0.3c-1.7,0-3.4,0-5.1,0
				c-0.2,0-0.3-0.1-0.3-0.3c0-7,0-14,0-21.1c0-0.2,0.1-0.3,0.3-0.3c1.6,0,3.3,0,4.9,0c0.2,0,0.3,0.1,0.3,0.3c0,0.9,0,1.7,0,2.6
				C-344-362.9-344-362.8-343.9-362.7C-344-362.7-344-362.7-343.9-362.7L-343.9-362.7z"/>
			<path fill="#FFFFFF" d="M-257.4-350.7c-0.5,0.8-0.9,1.6-1.3,2.4c-0.7,1.3-1.5,2.6-2.2,3.9c-0.1,0.2-0.2,0.3-0.4,0.3
				c-2.1,0-4.2,0-6.3,0c-0.1,0-0.1,0-0.2,0c0.1-0.2,0.2-0.3,0.3-0.5c2.2-3.4,4.4-6.7,6.7-10.1c0.2-0.2,0.2-0.4,0-0.6
				c-2.2-3.3-4.4-6.7-6.6-10c-0.1-0.1-0.1-0.2-0.2-0.2c0.1-0.1,0.1,0,0.2,0c2.1,0,4.3,0,6.4,0c0.2,0,0.3,0.1,0.4,0.2
				c1.1,1.9,2.2,3.8,3.3,5.8c0.1,0.2,0.3,0.2,0.4,0c1.1-1.9,2.2-3.8,3.3-5.8c0.1-0.1,0.1-0.2,0.3-0.2c2.1,0,4.2,0,6.3,0
				c0,0,0.1,0,0.1,0c0,0.1-0.1,0.2-0.1,0.3c-2.3,3.4-4.5,6.7-6.8,10.1c-0.1,0.2-0.1,0.3,0,0.5c2.4,3.5,4.7,7,7,10.5
				c0,0.1,0.2,0.1,0.1,0.2c0,0.1-0.2,0-0.3,0c-2.1,0-4.2,0-6.4,0c-0.2,0-0.3-0.1-0.4-0.3c-1.2-2-2.3-4-3.5-6
				C-257.2-350.6-257.3-350.6-257.4-350.7L-257.4-350.7z"/>
			<path fill="#FFFFFF" d="M-293.9-358.8c0,4.7,0,9.5,0,14.2c0,0.3,0,0.3-0.3,0.3c-1.7,0-3.4,0-5.1,0c-0.2,0-0.3-0.1-0.3-0.3
				c0-9.5,0-19,0-28.5c0-0.2,0-0.3,0.3-0.3c1.7,0,3.4,0,5.1,0c0.2,0,0.3,0.1,0.3,0.3C-293.9-368.3-293.9-363.5-293.9-358.8
				L-293.9-358.8z"/>
			<path fill="#FFFFFF" d="M-360.6-355c0-3.5,0-7,0-10.5c0-0.2,0.1-0.3,0.3-0.3c1.7,0,3.4,0,5.1,0c0.2,0,0.3,0.1,0.3,0.3
				c0,7,0,14,0,21c0,0.2,0,0.3-0.3,0.3c-1.7,0-3.4,0-5.1,0c-0.2,0-0.3-0.1-0.3-0.3C-360.6-348-360.6-351.5-360.6-355L-360.6-355
				L-360.6-355z"/>
		</g>
	</g>
	<g>
		<g>
			<path fill="#FFFFFF" d="M80.3-364.5c0.9,1.9,1.8,3.6,2.7,5.4c0.7,1.3,1.4,2.6,1.9,3.9c0.5,1.2,1.4,1.8,2.7,1.7c0.4,0,0.8,0,1.1,0
				c0.9,0.1,1.2,0.7,0.7,1.5c-2.4,3.4-5.6,5.6-9.7,6.2c-5.9,0.9-10.8-1.1-14.4-6c-0.2-0.3-0.8-0.6-0.4-1.1c0.3-0.5,0.8-0.7,1.3-0.6
				c1.7,0.3,2.5-0.5,3.2-1.9c2.7-5.3,5.6-10.4,8.4-15.6c0.3-0.5,0.5-0.9,1.1-1.1c0.7-0.3,1.1-0.9,1.2-1.7c0.1-0.7,0.4-0.7,1-0.6
				c6.4,1.6,11.2,8.3,10.7,14.8c0,0.3-0.1,0.7-0.1,1c0,0.6-0.2,1-0.9,1.1c-0.5,0-1,0.3-1.4,0.6c-0.9,0.8-1.8,0.6-2.4-0.5
				c-1.8-3.5-3.6-7-5.3-10.6c-0.3-0.7-0.7-1.3-1.6-1.3c-0.9,0-1.2,0.6-1.6,1.3c-1.5,3.2-3.1,6.3-4.7,9.5c-0.2,0.5-0.5,0.7-1,0.9
				c-1.4,0.4-2.1,1.8-1.7,3.2c0.4,1.3,1.8,2.1,3.2,1.8c1.4-0.3,2.2-1.7,1.9-3.1c-0.1-0.4-0.1-0.7,0.1-1
				C77.7-359.2,78.9-361.8,80.3-364.5L80.3-364.5z"/>
			<path fill="#FFFFFF" d="M-11.5-355c1.4-3,2.9-5.9,4.3-8.9c1.4-2.8,2.8-5.6,4.2-8.5c0.3-0.5,0.6-0.8,1.2-0.7c1.1,0,2.3,0,3.4,0
				c0.7,0,0.9,0.1,1.1,0.9c0.8,4.1,1.6,8.2,2.5,12.4c0.1-0.5,0.2-0.8,0.8-0.7c0.6,0.1,1.2,0,1.9,0c1,0,2.1-0.2,2.1,1.4
				c0,0.5,0.5,0.9,1,1.1c1.2,0.5,2.4,0.5,3.6,0c1.5-0.6,1.6-1.9,0.4-2.9c-1.2-0.9-2.7-1.3-4.1-2.1c-0.9-0.5-1.8-1-2.5-1.8
				c-2.1-2.5-1.5-7.2,2.8-8.3c2.2-0.6,4.5-0.6,6.7,0.3c1.9,0.8,3,2.2,3.3,4.3c0.1,0.7,0,1-0.8,1c-0.5-0.1-1.1,0-1.7,0
				c-0.9,0.1-1.6,0-2-1.2c-0.6-1.8-4.1-1.9-5.1-0.3c-0.4,0.6-0.2,1.1,0.3,1.6c0.6,0.6,1.4,1,2.1,1.3c1,0.5,2,0.9,3,1.5
				c2.4,1.4,3.4,3.1,3,5.4c-0.4,2.7-1.8,4.2-4.6,4.8c-2,0.5-3.9,0.4-5.9-0.1c-1.9-0.5-3.3-1.7-4.2-3.5c0.1,1,0.3,2,0.4,3.1
				c0,0.1,0,0.3,0,0.4c-1.3,0-2.6,0-3.9,0c-0.5,0-0.6-0.2-0.6-0.6c-0.1-0.8,0.1-1.9-0.5-2.4c-0.7-0.5-1.7-0.1-2.6-0.2c-1,0-2,0-3,0
				c-0.6,0-1,0.2-1.1,0.7c-0.4,2.1-1.7,2.8-3.7,2.5c-0.6-0.1-1.3,0.1-2-0.1C-11.5-354.8-11.5-354.9-11.5-355L-11.5-355z M-0.5-368.3
				c-0.1,0-0.2,0-0.3,0c-0.9,2-1.8,4-2.7,6c-0.2,0.3-0.2,0.6,0.3,0.6c1,0,2.1,0,3.1,0c0.4,0,0.5-0.2,0.4-0.5
				C0.1-364.2-0.2-366.2-0.5-368.3L-0.5-368.3z M5.5-359.3c-0.1-0.1-0.1-0.2-0.2-0.2c-0.1,0-0.2,0.1-0.2,0.2c0,0.1,0,0.3,0.2,0.2
				C5.4-359,5.5-359.2,5.5-359.3z"/>
			<path fill="#FFFFFF" d="M-51.8-361.4c0.5-2.1,0.9-3.9,1.3-5.7c0.4-1.9,0.9-3.7,1.2-5.6c0.1-0.6,0.4-0.8,1-0.8c0.9,0,1.9,0,2.8,0
				c0.6,0,0.8,0.1,0.7,0.7c-1.2,5.7-2.4,11.4-3.6,17.2c-0.1,0.4-0.3,0.6-0.7,0.6c-1.2,0-2.4-0.1-3.5,0c-0.6,0-0.7-0.4-0.9-0.8
				c-1.2-3.3-2.4-6.6-3.6-10c-0.1-0.3-0.2-0.6-0.5-0.9c-0.4,2.1-0.9,4.2-1.3,6.3c-0.3,1.6-0.7,3.2-1,4.8c-0.1,0.5-0.3,0.6-0.7,0.6
				c-1,0-1.9-0.1-2.9,0c-0.7,0-0.9-0.2-0.7-0.9c0.9-4,1.7-8.1,2.6-12.1c0.3-1.5,0.7-3,1-4.6c0.1-0.6,0.3-1,1.1-1
				c1,0.1,1.9,0.1,2.9,0c0.7,0,1,0.2,1.2,0.8c1.1,3.4,2.3,6.7,3.5,10.1C-52.2-362.2-52-361.9-51.8-361.4L-51.8-361.4z"/>
			<path fill="#FFFFFF" d="M42.9-355c1.2-5.7,2.4-11.4,3.6-17.2c0.1-0.7,0.4-1,1.1-0.9c0.9,0.1,1.9,0.1,2.8,0c0.8-0.1,1.1,0.3,1.3,1
				c1.2,3.6,2.5,7.2,3.9,11.1c0.3-1.1,0.5-1.9,0.6-2.8c0.6-2.8,1.2-5.6,1.7-8.3c0.1-0.6,0.3-1,1.1-0.9c0.9,0.1,1.7,0.1,2.6,0
				c0.9-0.1,1,0.3,0.8,1.1c-0.9,4.3-1.9,8.5-2.8,12.8c-0.3,1.3-0.6,2.6-0.8,3.9c-0.1,0.6-0.4,0.8-1,0.8c-0.9,0-1.9-0.1-2.8,0
				c-0.7,0.1-1.1-0.2-1.3-0.9c-1.2-3.4-2.4-6.8-3.7-10.2c-0.1-0.3-0.2-0.5-0.4-1c-0.7,3.2-1.3,6.1-1.9,9.1c-0.4,2-1.6,3-3.7,3
				c-0.3,0-0.7,0-1,0C43-354.7,42.9-354.9,42.9-355L42.9-355z"/>
			<path fill="#FFFFFF" d="M-42.4-354.9c-1.4,0-2.8,0-4.2,0c-0.6,0-0.8-0.1-0.7-0.7c1.2-5.7,2.5-11.4,3.7-17
				c0.1-0.4,0.1-0.7,0.6-0.7c2.8,0,5.6-0.2,8.3,0.2c3.6,0.5,5.3,2.2,5.8,5.8c0.5,3.8-0.4,7.2-3.1,10.1c-1.8,1.9-4.2,2.3-6.7,2.4
				C-39.9-354.9-41.1-355-42.4-354.9L-42.4-354.9L-42.4-354.9z M-39.8-358.7c1.4,0,3.1-0.1,4.3-1.4c1.9-2,2.3-4.5,2-7.1
				c-0.2-1.2-1-1.9-2.2-2.2c-1-0.2-1.9-0.2-2.9-0.2c-0.7-0.1-1,0.2-1.2,0.9c-0.5,2.7-1.1,5.5-1.7,8.2
				C-41.8-358.7-41.8-358.7-39.8-358.7z"/>
			<path fill="#FFFFFF" d="M-19.4-373.5c5.6,0,8.5,2.1,9.3,5.9c0.4,1.6,0.3,3.2,0.1,4.8c-0.6,4.2-3.5,7.5-7.3,8.4
				c-1.9,0.5-3.9,0.5-5.7-0.1c-3.1-1-4.8-3.2-5.2-6.4c-0.4-2.6,0-5.1,1.3-7.5C-25.1-371.9-22.1-373.5-19.4-373.5L-19.4-373.5z
				 M-14.5-364.8c0-3.1-0.8-4.4-2.6-4.9c-2-0.5-4.1,0.4-5.2,2.4c-0.9,1.7-1.4,3.5-1.3,5.4c0.1,1.5,0.6,2.8,2,3.5
				c1.5,0.7,3,0.5,4.3-0.4C-15.2-360.4-14.7-362.7-14.5-364.8L-14.5-364.8z"/>
			<path fill="#FFFFFF" d="M42.5-354.6c-1.2,0-2.4-0.1-3.6-0.1c-0.6,0-1-0.2-1-0.8c-0.1-0.8,0.1-1.8-0.5-2.2
				c-0.6-0.4-1.5-0.1-2.3-0.1c-1.1,0-2.1,0-3.2,0c-0.6,0-1,0.1-1.1,0.7c-0.4,2.2-1.7,2.8-3.9,2.6c-2.1-0.2-2.1,0-1.1-2
				c2.6-5.2,5.2-10.4,7.7-15.6c0.3-0.7,0.7-1,1.5-0.9c1.1,0.1,2.2,0.1,3.3,0c0.7,0,0.9,0.3,1,0.9c1.1,5.7,2.3,11.4,3.4,17.1
				C42.6-355,42.5-354.8,42.5-354.6L42.5-354.6z M36-368.4c-0.1,0-0.1,0-0.2,0c-1,2.2-2,4.4-3,6.8c0.9,0,1.7,0,2.4,0
				c1.8,0,1.8,0,1.6-1.8C36.5-365.1,36.2-366.7,36-368.4L36-368.4z"/>
			<path fill="#FFFFFF" d="M62.7-360.3c0-6.9,4.8-12.9,11.5-14.3c0.5-0.1,0.6,0,0.9,0.5c0.5,1.1,0.1,1.8-0.4,2.7
				c-2.6,4.7-5.1,9.4-7.7,14.1c-0.5,1-1.2,1.2-2.1,0.5c-0.2-0.1-0.4-0.4-0.6-0.4c-1.7,0-1.6-1.2-1.6-2.3
				C62.7-359.8,62.7-360,62.7-360.3L62.7-360.3z"/>
			<path fill="#FFFFFF" d="M22-354.6c-2.4,0-2.3,0-1.9-2.3c1.1-5.1,2.2-10.1,3.3-15.2c0.2-0.7,0.4-1.1,1.2-1c0.9,0.1,1.8,0.1,2.7,0
				c0.8-0.1,1,0.2,0.9,1c-1,4.7-2,9.3-3,14c-0.2,0.8-0.4,1.6-0.5,2.4c-0.1,0.9-0.5,1.2-1.3,1.1C22.9-354.7,22.5-354.6,22-354.6
				L22-354.6z"/>
			<path fill="#FFFFFF" d="M-68.9-354.9c-0.6-0.1-1.7,0.4-2.1-0.2c-0.3-0.4,0.2-1.4,0.4-2.2c1.1-5,2.2-10.1,3.2-15.1
				c0.2-0.7,0.4-1,1.2-1c0.9,0.1,1.9,0.1,2.8,0c0.8-0.1,0.9,0.2,0.7,0.9c-1.1,5-2.1,10-3.2,15c0,0.1,0,0.1,0,0.2
				C-66.2-355.7-67.2-354.9-68.9-354.9z"/>
			<path fill="#FFFFFF" d="M-10.8-347.1c0.8-1.2,1.4-2.2,2.1-3.1c0.2-0.4,0.5-0.6,0.9-0.4c0.4,0.2,0.1,0.5,0.1,0.8
				c-0.3,1.5-0.6,3-0.9,4.5c-0.1,0.4-0.2,0.8-0.7,0.7c-0.6-0.1-0.2-0.6-0.2-0.8c0.1-0.9,0.4-1.7,0.4-2.7c-0.5,0.8-1,1.4-1.4,2
				c-0.2,0.3-0.3,0.4-0.7,0.4c-0.3-0.1-0.3-0.3-0.4-0.6c-0.2-0.6-0.3-1.3-0.6-2.1c-0.3,1.3-0.5,2.3-0.7,3.3
				c-0.1,0.4-0.2,0.7-0.6,0.6c-0.7-0.1-0.3-0.5-0.2-0.8c0.2-1.3,0.5-2.5,0.7-3.8c0.1-0.5,0-0.7-0.5-0.6c-0.2,0-0.5,0-0.7,0
				c-19,0-38,0-56.9,0c-0.3,0-1,0.4-1.1-0.3c0-0.7,0.7-0.4,1.1-0.4c19.4,0,38.9,0,58.3,0c0.8,0,1.2,0.2,1.3,1.1
				C-11.3-348.9-11.1-348.1-10.8-347.1L-10.8-347.1z"/>
			<path fill="#FFFFFF" d="M40.5-348.6c-0.2,1.1-0.5,2.2-0.7,3.3c-0.1,0.4-0.2,0.7-0.7,0.6c-0.6-0.1-0.2-0.5-0.2-0.7
				c0.3-1.5,0.6-3.1,0.9-4.6c0.1-0.3,0-0.7,0.5-0.7c0.5,0,0.6,0.3,0.7,0.6c0.5,1.1,0.9,2.2,1.6,3.3c0.2-1.1,0.5-2.2,0.7-3.3
				c0.1-0.4,0.1-0.7,0.6-0.6c0.6,0.1,0.3,0.5,0.2,0.7c-0.3,1.6-0.6,3.1-0.9,4.7c-0.1,0.2,0,0.6-0.4,0.6c-0.4,0-0.6-0.2-0.7-0.5
				c-0.5-1.1-1-2.3-1.4-3.4C40.7-348.6,40.6-348.6,40.5-348.6z"/>
			<path fill="#FFFFFF" d="M3-348.1c1.5-0.7,1.9-2.6,3.8-2.7c-0.4,0.9-1.1,1.3-1.6,1.9c-0.4,0.4-0.6,0.8-0.3,1.4
				c0.4,0.9,0.7,1.8,1,2.7c-0.6,0.3-1,0.1-1.2-0.5c-0.1-0.3-0.2-0.7-0.4-1c-0.2-0.4-0.1-1.1-0.6-1c-0.5,0.1-1,0.6-1.1,1.2
				c-0.1,0.3-0.1,0.7-0.2,1c-0.1,0.4-0.4,0.4-0.6,0.3c-0.4-0.1-0.2-0.3-0.2-0.6c0.3-1.6,0.6-3.3,1-4.9c0.1-0.3,0.2-0.6,0.6-0.6
				c0.5,0.1,0.3,0.4,0.3,0.7C3.3-349.4,3.2-348.8,3-348.1L3-348.1z"/>
			<path fill="#FFFFFF" d="M54.9-344.7c-1.3,0-1.8-0.6-1.5-1.8c0.2-1.2,0.5-2.4,0.7-3.6c0.1-0.4,0.2-0.7,0.7-0.7c0.8,0,1.7,0,2.5,0
				c0.2,0,0.5-0.1,0.5,0.3c0,0.3-0.2,0.5-0.5,0.5c-0.6,0-1.1,0-1.7,0c-0.4,0-0.7,0.1-0.8,0.6c-0.2,1.5-0.4,1.2,1,1.3
				c0.2,0,0.4,0,0.6,0c0.2,0,0.4,0,0.4,0.3c0,0.2-0.1,0.4-0.4,0.4c-0.3,0-0.6,0.1-0.9,0c-1.2-0.3-1.3,0.5-1.4,1.3
				c-0.1,0.4,0.1,0.6,0.5,0.6c0.6,0,1.1,0,1.7,0c0.2,0,0.5-0.1,0.5,0.3c0,0.3-0.2,0.4-0.5,0.4C55.9-344.7,55.4-344.7,54.9-344.7
				L54.9-344.7z"/>
			<path fill="#FFFFFF" d="M32.2-344.7c0.4-1.9,0.7-3.6,1.1-5.4c0-0.2,0.1-0.5,0.2-0.5c1.1,0,2.2,0,3.3,0c0.2,0,0.2,0.3,0.1,0.4
				c0,0.3-0.2,0.3-0.5,0.3c-0.6,0-1.2,0-1.8,0c-1.1,0-0.7,0.9-0.8,1.4c-0.1,0.6,0.5,0.3,0.8,0.4c0.2,0,0.5,0,0.7,0
				c0.2,0,0.6-0.2,0.7,0.2c0,0.5-0.3,0.5-0.7,0.5c-0.2,0-0.5,0-0.7,0c-0.9,0-1.5,0.7-1.3,1.6c0.1,0.4,0.3,0.3,0.6,0.3
				c0.5,0,1,0,1.6,0c0.3,0,0.6-0.1,0.5,0.4c0,0.3-0.2,0.4-0.5,0.4C34.4-344.7,33.3-344.7,32.2-344.7L32.2-344.7z"/>
			<path fill="#FFFFFF" d="M10.5-344.7c-1.3,0-1.8-0.6-1.5-1.8c0.2-1.2,0.5-2.4,0.7-3.6c0.1-0.5,0.2-0.7,0.7-0.6c0.8,0,1.7,0,2.5,0
				c0.2,0,0.5,0,0.5,0.3c0,0.3-0.1,0.5-0.5,0.5c-0.5,0-1,0-1.6,0c-0.8,0-1.3,0.8-1.1,1.5c0.2,0.5,0.7,0.2,1,0.3
				c0.4,0.1,1.1-0.3,1.1,0.3c0,0.8-0.7,0.4-1.1,0.5c-0.4,0.1-1.1-0.3-1.3,0.4c-0.5,1.2-0.3,1.4,1,1.4c0.5,0,1.4-0.4,1.4,0.3
				c0,0.8-0.9,0.3-1.4,0.4C10.7-344.7,10.6-344.7,10.5-344.7L10.5-344.7z"/>
			<path fill="#FFFFFF" d="M27.2-344.7c-0.4,0-0.9,0-1.3-0.3c-0.2-0.2-0.7-0.2-0.4-0.7c0.2-0.4,0.5-0.4,0.8-0.1
				c0.5,0.3,1,0.4,1.6,0.2c0.4-0.1,0.7-0.4,0.8-0.9c0-0.5-0.3-0.7-0.8-0.8c-0.1,0-0.1,0-0.2-0.1c-0.8-0.2-1.5-0.4-1.6-1.4
				c-0.1-0.8,0.3-1.4,0.9-1.7c0.8-0.5,1.7-0.5,2.6,0c0.2,0.1,0.4,0.2,0.2,0.5c-0.2,0.2-0.3,0.5-0.7,0.2c-0.4-0.3-0.8-0.3-1.3-0.2
				c-0.5,0.1-0.8,0.4-0.9,0.9c-0.1,0.5,0.3,0.7,0.8,0.8c0,0,0.1,0,0.1,0c1.4,0.5,1.9,1,1.7,1.9C29.4-345.3,28.5-344.7,27.2-344.7z"
				/>
			<path fill="#FFFFFF" d="M48.1-344.7c-0.5,0-1,0-1.5-0.4c-0.2-0.1-0.6-0.2-0.3-0.6c0.2-0.2,0.4-0.4,0.7-0.1
				c0.5,0.4,1.1,0.5,1.8,0.2c0.4-0.2,0.7-0.5,0.7-0.9c0-0.5-0.3-0.6-0.7-0.8c-0.1,0-0.3-0.1-0.4-0.1c-0.8-0.2-1.4-0.5-1.5-1.4
				c0-0.8,0.4-1.5,1.2-1.8c0.8-0.3,1.7-0.3,2.5,0.2c0.1,0.1,0.3,0.2,0.1,0.4c-0.2,0.1-0.3,0.4-0.6,0.2c-0.3-0.2-0.6-0.3-1-0.3
				c-0.6,0-1.1,0.3-1.2,0.9c-0.1,0.7,0.4,0.8,0.9,0.9c1.4,0.4,1.8,0.9,1.6,1.9C50.3-345.3,49.4-344.7,48.1-344.7L48.1-344.7z"/>
			<path fill="#FFFFFF" d="M17-344.7c-0.7,0-1.2-0.1-1.6-0.4c-0.2-0.1-0.5-0.3-0.3-0.6c0.2-0.2,0.4-0.4,0.7-0.2
				c0.4,0.3,0.9,0.4,1.4,0.3c0.6,0,1-0.3,1.1-0.9c0.1-0.6-0.4-0.8-0.9-0.9c-1.7-0.5-2.2-1.5-1.2-2.7c0.6-0.8,2.2-1,3-0.4
				c0.2,0.1,0.5,0.2,0.2,0.5c-0.2,0.2-0.3,0.4-0.6,0.2c-0.4-0.3-0.8-0.3-1.3-0.2c-0.5,0.1-0.8,0.4-0.9,0.9c-0.1,0.5,0.3,0.7,0.7,0.8
				c0.2,0,0.3,0.1,0.5,0.1c0.8,0.2,1.3,0.6,1.3,1.5c0,0.9-0.5,1.4-1.2,1.7C17.6-344.7,17.2-344.7,17-344.7L17-344.7z"/>
			<path fill="#FFFFFF" d="M-3.4-346c-0.7-0.1-1.3,0-1.6,0.8c-0.1,0.4-0.5,0.5-0.8,0.3c-0.4-0.2,0-0.5,0.1-0.7
				c0.8-1.6,1.7-3.2,2.6-4.7c0.2-0.3,0.3-0.6,0.7-0.5C-2-350.7-2-350.3-2-350c0.2,1.5,0.4,2.9,0.6,4.4c0,0.3,0.3,0.7-0.3,0.8
				c-0.5,0.1-0.5-0.3-0.6-0.7C-2.2-346.3-2.9-345.9-3.4-346L-3.4-346z M-2.7-349.3c-0.6,0.9-1,1.7-1.4,2.6c1.1,0.1,1.6-0.4,1.5-1.4
				C-2.6-348.5-2.6-348.8-2.7-349.3z"/>
			<path fill="#FFFFFF" d="M6-354.7c0-0.1,0-0.3,0-0.4C6.1-354.9,6.3-354.8,6-354.7z"/>
			<path fill="#FFFFFF" d="M-11.5-355c0,0.1,0,0.2,0,0.3C-11.8-354.8-11.7-354.9-11.5-355z"/>
			<path fill="#FFFFFF" d="M5.5-359.3c-0.1,0.1-0.1,0.2-0.2,0.2c-0.2,0-0.2-0.1-0.2-0.2c0-0.1,0.1-0.2,0.2-0.2
				C5.4-359.4,5.5-359.3,5.5-359.3z"/>
		</g>
	</g>
	<g>
		<g>
			<path fill="#4E535A" d="M12.1,1.9c-3.7,0-7.4,0-11.1,0c-0.7,0-1.2-0.6-1-1.3C0.2,0.2,0.5,0.1,0.9,0C0.9,0,1,0,1.1,0
				c7.4,0,14.8,0,22.1,0c0.2,0,0.5,0,0.7,0.2c0.3,0.2,0.5,0.6,0.4,1c-0.1,0.4-0.4,0.7-0.9,0.7c-0.1,0-0.2,0-0.3,0
				C19.5,1.9,15.8,1.9,12.1,1.9z"/>
			<path fill="#4E535A" d="M12.2,15c3.7,0,7.4,0,11.1,0c0.7,0,1.2,0.6,1,1.2c-0.1,0.4-0.4,0.6-0.8,0.6c-0.1,0-0.2,0-0.3,0
				c-7.3,0-14.7,0-22.1,0c-0.1,0-0.3,0-0.4,0c-0.5-0.1-0.8-0.6-0.7-1C0.1,15.3,0.5,15,1,15c2.4,0,4.8,0,7.2,0
				C9.5,15,10.9,15,12.2,15L12.2,15z"/>
			<path fill="#4E535A" d="M14.7,7.5c2.9,0,5.8,0,8.7,0c0.7,0,1.2,0.6,0.9,1.2c-0.1,0.4-0.4,0.6-0.8,0.6c-0.1,0-0.1,0-0.2,0
				c-5.8,0-11.5,0-17.2,0c-0.5,0-0.9-0.2-1-0.7C4.9,8.1,5.3,7.5,5.9,7.5c0.3,0,0.6,0,0.9,0C9.5,7.5,12.1,7.5,14.7,7.5L14.7,7.5z"/>
		</g>
	</g>
</g>
<g id="Character_1_">
</g>
</svg>
