<?xml version="1.0" encoding="utf-8"?>
<!-- Generator: Adobe Illustrator 28.3.0, SVG Export Plug-In . SVG Version: 6.00 Build 0)  -->
<svg version="1.2" baseProfile="tiny" id="Layer_1" xmlns="http://www.w3.org/2000/svg" xmlns:xlink="http://www.w3.org/1999/xlink"
	 x="0px" y="0px" viewBox="0 0 42 42" overflow="visible" xml:space="preserve">
<g>
	<linearGradient id="SVGID_1_" gradientUnits="userSpaceOnUse" x1="11.991" y1="13.7257" x2="30.0059" y2="13.7257">
		<stop  offset="0" style="stop-color:#FF9B28"/>
		<stop  offset="1" style="stop-color:#FFC100"/>
	</linearGradient>
	<path fill="url(#SVGID_1_)" d="M15.2,16.4c0.5,0.5,1,1,1.4,1.6c2.5,3,3.6,5.6,3.7,8.4c0,0.4,0.3,0.7,0.7,0.7h0
		c0.4,0,0.7-0.3,0.7-0.7c0-1.7,0.6-3.4,1.6-5.2c1-1.8,2.3-3.5,4-5.2C29.1,14.2,30,12,30,9.3v0l0-0.1c0-0.2,0-0.4-0.1-0.6
		c-0.2-2.6-1.6-4.9-3.6-6.4c-2.1-1.5-4.6-2.1-7.1-1.6c-3.5,0.8-5.8,2.9-6.8,6.3c-1,3.3-0.2,6.4,2.3,9C14.9,16.1,15,16.3,15.2,16.4z
		 M13.4,9.2c0.1-3.6,3-6.9,6.6-7.3c0.3,0,0.6-0.1,1-0.1c3.7,0,6.8,2.5,7.4,6.2c0.5,2.6-0.2,4.9-2.1,6.8c-2,2-3.3,3.7-4.3,5.6
		c-0.3,0.5-0.5,1-0.7,1.5c-0.1,0.2-0.1,0.3-0.2,0.5c-0.1-0.2-0.2-0.3-0.2-0.5c-0.2-0.5-0.5-1-0.7-1.6c-1-1.9-2.4-3.6-4.2-5.4
		C14.2,13.4,13.4,11.5,13.4,9.2L13.4,9.2z"/>
	
		<linearGradient id="SVGID_00000175288259631405863030000016308481270857351810_" gradientUnits="userSpaceOnUse" x1="7.985135e-02" y1="35.8945" x2="25.1308" y2="35.8945">
		<stop  offset="0" style="stop-color:#FF9B28"/>
		<stop  offset="1" style="stop-color:#FFC100"/>
	</linearGradient>
	<path fill="url(#SVGID_00000175288259631405863030000016308481270857351810_)" d="M24.3,38.7c-0.9,0-1.9,0-2.8,0
		c-0.3,0-0.6,0-0.9,0h0c-4,0-7.6-0.2-11.1-0.8c-1.9-0.3-4-0.8-5.9-1.7c-0.6-0.3-1.1-0.6-1.6-1c-0.3-0.3-0.5-0.5-0.5-0.8
		c0-0.3,0.2-0.6,0.5-0.9c0.2-0.1,0.3-0.3,0.5-0.4c0.1,0,0.1-0.1,0.2-0.1c0.4-0.3,0.5-0.7,0.3-1c-0.2-0.4-0.7-0.4-1.1-0.2
		C1.6,32,1.3,32.2,1,32.5c-0.6,0.6-1,1.2-0.9,1.9c0,0.7,0.4,1.3,1,1.8c0.6,0.5,1.3,0.9,2,1.3c3.1,1.4,6.4,1.9,9.2,2.2
		c2,0.2,4.2,0.4,6.9,0.5c0.5,0,1,0,1.5,0c1,0,1.9,0,2.9-0.1c0.3,0,0.5,0,0.8,0c0.3,0,0.5-0.2,0.7-0.4c0.1-0.2,0-0.6-0.1-0.7
		C24.8,38.7,24.5,38.7,24.3,38.7z"/>
	
		<linearGradient id="SVGID_00000052803296725848501250000014754426153989151639_" gradientUnits="userSpaceOnUse" x1="7.2749" y1="32.7899" x2="22.8671" y2="32.7899">
		<stop  offset="0" style="stop-color:#FF9B28"/>
		<stop  offset="1" style="stop-color:#FFC100"/>
	</linearGradient>
	<path fill="url(#SVGID_00000052803296725848501250000014754426153989151639_)" d="M7.3,32.7L7.3,32.7c0,0.4,0.2,0.9,0.7,1.2
		c0.3,0.2,0.5,0.3,0.8,0.4c0.5,0.2,1,0.4,1.6,0.5c3.5,0.8,7.1,1,10.3,1c0.5,0,1,0,1.4,0c0.5,0,0.8-0.3,0.8-0.7
		c0-0.4-0.3-0.7-0.8-0.7c-0.7,0-1.3,0-2-0.1c-1.6,0-3.2-0.1-4.8-0.2c-2.1-0.1-3.8-0.4-5.4-0.9c-0.3-0.1-0.5-0.2-0.8-0.3
		c-0.1,0-0.2-0.1-0.3-0.1v0c0.2-0.1,0.3-0.1,0.5-0.2c0.4-0.1,0.8-0.3,1.2-0.4c2.5-0.6,5-0.8,7.3-0.9c0.5,0,0.8-0.3,0.8-0.7
		c0-0.2-0.1-0.4-0.2-0.5c-0.2-0.1-0.4-0.2-0.7-0.2l-0.1,0c-0.6,0-1.3,0.1-1.9,0.1c-1.9,0.1-3.9,0.3-5.8,0.9c-0.8,0.2-1.4,0.5-2,0.8
		C7.5,31.9,7.3,32.3,7.3,32.7z"/>
	
		<linearGradient id="SVGID_00000145768258620563299990000011159273739800975523_" gradientUnits="userSpaceOnUse" x1="23.7416" y1="37.017" x2="30.0006" y2="37.017">
		<stop  offset="0" style="stop-color:#FF9B28"/>
		<stop  offset="1" style="stop-color:#FFC100"/>
	</linearGradient>
	<path fill="url(#SVGID_00000145768258620563299990000011159273739800975523_)" d="M30,35.3c0.1-1.2-0.7-2.4-1.8-3
		c-1.2-0.5-2.5-0.3-3.4,0.6c-0.8,0.8-1.1,1.9-0.9,2.9c0.2,1.1,1,1.9,2,2.3c0.3,0.1,0.3,0.2,0.3,0.4c0,0.3,0,0.6,0,0.9
		c0,0.1,0,0.3,0,0.4v0.4c0,0.3,0,0.6,0,0.9c0,0.3,0.1,0.6,0.3,0.7c0.1,0.1,0.3,0.2,0.5,0.2c0,0,0,0,0,0c0.4,0,0.7-0.4,0.7-0.9
		c0-0.2,0-0.3,0-0.5c0-0.7,0-1.3,0-2c0-0.3,0-0.4,0.4-0.5C29.1,37.7,29.9,36.6,30,35.3z M28.6,35.2c0,0.9-0.8,1.7-1.7,1.7h0
		c-0.5,0-0.9-0.2-1.2-0.5c-0.3-0.3-0.5-0.8-0.5-1.2c0-0.9,0.7-1.7,1.7-1.7h0c0.5,0,0.9,0.2,1.2,0.5C28.4,34.3,28.6,34.7,28.6,35.2
		L28.6,35.2z"/>
	
		<linearGradient id="SVGID_00000166637576847496207040000018285510612619139456_" gradientUnits="userSpaceOnUse" x1="34.0559" y1="28.592" x2="40.2983" y2="28.592">
		<stop  offset="0" style="stop-color:#FF9B28"/>
		<stop  offset="1" style="stop-color:#FFC100"/>
	</linearGradient>
	<path fill="url(#SVGID_00000166637576847496207040000018285510612619139456_)" d="M36.2,29.7L36.2,29.7c0.2,0.1,0.3,0.2,0.3,0.4
		c0,0.5,0,1.1,0,1.6c0,0.4,0,0.7,0,1.1c0,0.4,0.2,0.6,0.5,0.8c0.1,0,0.2,0,0.3,0c0.1,0,0.2,0,0.4-0.1c0.2-0.1,0.3-0.4,0.3-0.7
		c0-1,0-1.8,0-2.6c0-0.3,0.1-0.4,0.3-0.5c1.5-0.5,2.3-2,2-3.5c-0.3-1.4-1.6-2.5-3.1-2.5h0h0c-0.1,0-0.1,0-0.2,0
		c-0.2,0-0.3,0-0.5,0.1c-1.4,0.3-2.4,1.5-2.4,2.8C34,28,34.8,29.3,36.2,29.7z M37.2,25C37.2,25,37.2,25,37.2,25
		c0.5,0,0.9,0.2,1.2,0.5c0.3,0.3,0.5,0.8,0.5,1.2c0,0.9-0.8,1.7-1.7,1.7h0c-0.5,0-0.9-0.2-1.2-0.5c-0.3-0.3-0.5-0.7-0.5-1.2
		C35.5,25.8,36.2,25.1,37.2,25z"/>
	
		<linearGradient id="SVGID_00000092458684300400709100000001357249649806866577_" gradientUnits="userSpaceOnUse" x1="2.0742" y1="28.3376" x2="8.3089" y2="28.3376">
		<stop  offset="0" style="stop-color:#FF9B28"/>
		<stop  offset="1" style="stop-color:#FFC100"/>
	</linearGradient>
	<path fill="url(#SVGID_00000092458684300400709100000001357249649806866577_)" d="M4.1,29.4L4.1,29.4c0.3,0.1,0.4,0.2,0.4,0.5
		c0,0.3,0,0.6,0,0.8c0,0.1,0,0.2,0,0.4c0,0.1,0,0.3,0,0.4c0,0.3,0,0.6,0,0.9c0,0.7,0.4,0.8,0.7,0.8h0c0.3,0,0.7-0.1,0.7-0.9l0-0.4
		c0-0.7,0-1.3,0-2c0-0.3,0.1-0.5,0.4-0.6c1.5-0.5,2.4-2.3,1.9-3.9C7.7,24,6,23,4.4,23.5c-1.3,0.3-2.3,1.5-2.3,2.8
		C2,27.8,2.8,29,4.1,29.4z M3.5,26.5c0-0.4,0.2-0.9,0.5-1.2c0.3-0.3,0.8-0.5,1.2-0.5c0,0,0,0,0,0c0.9,0,1.7,0.8,1.7,1.7
		c0,0.4-0.2,0.9-0.5,1.2c-0.3,0.3-0.8,0.5-1.2,0.5C4.2,28.2,3.5,27.5,3.5,26.5L3.5,26.5z"/>
	
		<linearGradient id="SVGID_00000154404533174917101310000016965011450255633561_" gradientUnits="userSpaceOnUse" x1="28.5598" y1="35.8392" x2="41.9205" y2="35.8392">
		<stop  offset="0" style="stop-color:#FF9B28"/>
		<stop  offset="1" style="stop-color:#FFC100"/>
	</linearGradient>
	<path fill="url(#SVGID_00000154404533174917101310000016965011450255633561_)" d="M40.3,32L40.3,32c-0.4-0.1-0.7,0-0.9,0.3
		c-0.2,0.3-0.2,0.6,0.1,0.9c0.1,0.1,0.2,0.2,0.3,0.2c0.1,0.1,0.2,0.1,0.3,0.2c0.3,0.3,0.4,0.5,0.4,0.8c0,0.2-0.1,0.5-0.4,0.7
		c-0.3,0.3-0.8,0.7-1.2,0.9l-0.3,0.1c-1.1,0.5-2.2,0.9-3.4,1.2c-1.4,0.3-2.9,0.6-4.3,0.8c-0.5,0.1-1,0.2-1.5,0.2
		c-0.4,0.1-0.7,0.2-0.8,0.6c0,0.2,0,0.4,0.2,0.6c0.1,0.2,0.4,0.2,0.6,0.2c0,0,0.1,0,0.1,0c0.7-0.1,1.3-0.2,1.9-0.2
		c1.9-0.3,4.4-0.7,6.8-1.6c1-0.4,2.1-0.9,3-1.8c0.5-0.5,0.8-1.1,0.8-1.7v0C41.9,33.5,41.1,32.3,40.3,32z"/>
	
		<linearGradient id="SVGID_00000170961984524787865790000005833377693257546900_" gradientUnits="userSpaceOnUse" x1="23.2162" y1="32.36" x2="34.7306" y2="32.36">
		<stop  offset="0" style="stop-color:#FF9B28"/>
		<stop  offset="1" style="stop-color:#FFC100"/>
	</linearGradient>
	<path fill="url(#SVGID_00000170961984524787865790000005833377693257546900_)" d="M24.6,29.8L24.6,29.8c-0.2,0-0.4,0-0.6,0
		c-0.2,0-0.6,0.2-0.7,0.4c-0.1,0.2-0.1,0.6,0.1,0.8c0.2,0.2,0.6,0.3,0.7,0.3c2.2,0.1,4.7,0.3,7.1,0.8c0.7,0.1,1.3,0.3,2,0.7
		c-0.1,0-0.1,0.1-0.2,0.1c-0.2,0.1-0.4,0.2-0.6,0.3c-0.2,0.1-0.4,0.1-0.6,0.2c-0.2,0.1-0.5,0.1-0.7,0.2c-0.4,0.1-0.5,0.4-0.4,0.8
		c0.1,0.3,0.3,0.5,0.6,0.5c0.1,0,0.1,0,0.2,0l0.1,0c0.9-0.2,1.8-0.4,2.6-1c0.4-0.3,0.6-0.7,0.6-1.1c0-0.4-0.2-0.8-0.6-1.1
		c-0.5-0.3-0.9-0.5-1.3-0.6c-1.5-0.3-3.1-0.7-4.7-0.9C27,30,25.7,29.9,24.6,29.8z"/>
	
		<linearGradient id="SVGID_00000044158559696826866720000015778000424196325282_" gradientUnits="userSpaceOnUse" x1="18.0324" y1="9.4807" x2="23.9745" y2="9.4807">
		<stop  offset="0" style="stop-color:#FF9B28"/>
		<stop  offset="1" style="stop-color:#FFC100"/>
	</linearGradient>
	<path fill="url(#SVGID_00000044158559696826866720000015778000424196325282_)" d="M20.9,12.5C20.9,12.5,21,12.5,20.9,12.5
		c1.7,0,3-1.3,3.1-2.9c0-0.8-0.3-1.5-0.8-2.1c-0.5-0.6-1.3-0.9-2-0.9c-1.7,0-3.1,1.2-3.1,2.9c0,0.8,0.3,1.5,0.8,2.1
		C19.4,12.1,20.1,12.4,20.9,12.5z M21,7.9L21,7.9c0.4,0,0.8,0.2,1.1,0.5c0.3,0.3,0.4,0.7,0.4,1.1c0,0.4-0.2,0.8-0.5,1.1
		C21.8,10.9,21.4,11,21,11c-0.4,0-0.8-0.2-1.1-0.5c-0.3-0.3-0.4-0.7-0.4-1.1l0,0C19.5,8.6,20.1,7.9,21,7.9z"/>
</g>
</svg>
