<?xml version="1.0" encoding="utf-8"?>
<!-- Generator: Adobe Illustrator 28.3.0, SVG Export Plug-In . SVG Version: 6.00 Build 0)  -->
<svg version="1.2" baseProfile="tiny" id="Layer_1" xmlns="http://www.w3.org/2000/svg" xmlns:xlink="http://www.w3.org/1999/xlink"
	 x="0px" y="0px" viewBox="0 0 42 42" overflow="visible" xml:space="preserve">
<g>
	<linearGradient id="SVGID_1_" gradientUnits="userSpaceOnUse" x1="5.4486" y1="23.6711" x2="41.0617" y2="23.6711">
		<stop  offset="0" style="stop-color:#FF9B28"/>
		<stop  offset="1" style="stop-color:#FFC100"/>
	</linearGradient>
	<path fill="url(#SVGID_1_)" d="M41.1,7.1c0-0.2,0-0.3-0.1-0.5c-0.1-0.4-0.4-0.7-0.8-0.7c-0.2,0-0.3,0-0.5,0c-11,0-21.9,0-32.9,0
		c-0.2,0-0.3,0-0.5,0C5.9,5.9,5.5,6.2,5.5,6.7c0,0.2,0,0.3,0,0.5c0,11,0,22,0,32.9c0,0.6,0.1,1.1,0.7,1.4v0h26.5
		c0.6-0.2,0.8-0.7,0.8-1.3c0-2.6,0-5.3,0-7.9c0-0.3,0.1-0.4,0.4-0.4c0.5,0,0.9,0,1.4,0c1.6,0,3.1,0,4.7,0c0.4,0,0.8-0.1,1-0.5
		c0.1-0.2,0.1-0.5,0.1-0.7C41.1,22.8,41.1,14.9,41.1,7.1z M39.1,29.6c0,0.3-0.1,0.4-0.4,0.4c-2,0-3.9,0-5.9,0
		c-0.9,0-1.3,0.3-1.3,1.3c0,2.6,0,5.3,0,7.9c0,0.3-0.1,0.4-0.4,0.4c-7.8,0-15.6,0-23.3,0c-0.4,0-0.4-0.1-0.4-0.4
		c0-5.2,0-10.3,0-15.5h0c0-5.2,0-10.3,0-15.5c0-0.3,0.1-0.4,0.4-0.4c10.3,0,20.6,0,30.9,0c0.3,0,0.4,0.1,0.4,0.4
		C39.1,15.3,39.1,22.5,39.1,29.6z"/>
	
		<linearGradient id="SVGID_00000169530489492623874180000006758737398072188846_" gradientUnits="userSpaceOnUse" x1="6.144339e-02" y1="23.6802" x2="3.8879" y2="23.6802">
		<stop  offset="0" style="stop-color:#FF9B28"/>
		<stop  offset="1" style="stop-color:#FFC100"/>
	</linearGradient>
	<path fill="url(#SVGID_00000169530489492623874180000006758737398072188846_)" d="M3.2,39.8c-0.4,0-0.4-0.2-0.4-0.5
		c0-10.4,0-20.8,0-31.2c0-0.3,0-0.5,0.4-0.5c0.5,0,0.8-0.4,0.7-0.8C3.8,6.3,3.5,6,3.1,6C2.7,6,2.4,6,2,6C1.6,6,1.3,6,0.9,6
		C0.4,6,0.1,6.3,0.1,6.8c0,0.4,0.3,0.8,0.8,0.8c0.4,0,0.4,0.2,0.4,0.4c0,10.4,0,20.9,0,31.3c0,0.3,0,0.4-0.4,0.4
		c-0.4,0-0.7,0.4-0.7,0.8c0,0.4,0.3,0.7,0.7,0.8c0.8,0.1,1.7,0.1,2.5,0c0.4,0,0.7-0.4,0.7-0.8C3.9,40.1,3.6,39.8,3.2,39.8z"/>
	
		<linearGradient id="SVGID_00000088829007439451774590000007159848777818079919_" gradientUnits="userSpaceOnUse" x1="5.6235" y1="2.3918" x2="40.759" y2="2.3918">
		<stop  offset="0" style="stop-color:#FF9B28"/>
		<stop  offset="1" style="stop-color:#FFC100"/>
	</linearGradient>
	<path fill="url(#SVGID_00000088829007439451774590000007159848777818079919_)" d="M6.4,4.3c0.4,0,0.8-0.3,0.8-0.7
		c0-0.4,0.2-0.4,0.4-0.4c5.2,0,10.4,0,15.5,0c5.2,0,10.4,0,15.5,0c0.3,0,0.4,0,0.4,0.4c0,0.5,0.4,0.8,0.8,0.7c0.4,0,0.7-0.3,0.8-0.8
		c0-0.7,0-1.4,0-2.1c0-0.5-0.3-0.8-0.8-0.8c-0.4,0-0.8,0.3-0.8,0.8c0,0.3-0.2,0.3-0.4,0.3c-10.4,0-20.7,0-31.1,0
		c-0.3,0-0.4,0-0.4-0.3c0-0.5-0.4-0.8-0.8-0.8C6,0.5,5.6,0.9,5.6,1.3c0,0.7,0,1.4,0,2.1C5.6,3.9,6,4.3,6.4,4.3z"/>
</g>
</svg>
