<?xml version="1.0" encoding="utf-8"?>
<!-- Generator: Adobe Illustrator 28.3.0, SVG Export Plug-In . SVG Version: 6.00 Build 0)  -->
<svg version="1.2" baseProfile="tiny" id="Layer_1" xmlns="http://www.w3.org/2000/svg" xmlns:xlink="http://www.w3.org/1999/xlink"
	 x="0px" y="0px" viewBox="0 0 42 42" overflow="visible" xml:space="preserve">
<g>
	<linearGradient id="SVGID_1_" gradientUnits="userSpaceOnUse" x1="-0.4807" y1="25.3594" x2="42.4839" y2="25.3594">
		<stop  offset="0" style="stop-color:#FF9B28"/>
		<stop  offset="1" style="stop-color:#FFC100"/>
	</linearGradient>
	<path fill="url(#SVGID_1_)" d="M39.8,18.3c-0.5,0-1,0-1.5-0.5c-1.5-1.5-3.6-1-4.3,1c-0.1,0.3-0.3,0.6-0.5,0.8
		c-2.9,2.7-5.8,5.5-8.7,8.2c-0.1,0.1-0.2,0.1-0.3,0.2c-0.2-0.4-0.4-0.7-0.5-1.1c1.2-0.8,2-1.9,2.5-3.2h0c0.3,0,0.5,0,0.7,0
		c1.8-0.1,3.1-2,2.3-3.7c-0.3-0.6-0.3-1.2-0.1-1.8c0-0.1,0.1-0.3,0.1-0.4c0.9-4-1.4-7.9-5.4-8.8c-2-0.5-4-0.4-6-0.1
		c-3.2,0.5-5.6,3.1-6,6.2c-0.2,1.3,0.1,2.5,0.4,3.8c0.1,0.3,0.1,0.5-0.1,0.7c-1,1.6-0.1,3.6,1.8,4c0.4,0.1,0.8,0.1,1.2,0.1
		c0.4,1.3,1.3,2.4,2.5,3.2c-0.2,0.4-0.4,0.7-0.5,1.1c-0.1-0.1-0.2-0.2-0.3-0.2c-2.9-2.7-5.8-5.4-8.6-8.1c-0.3-0.3-0.5-0.6-0.6-1
		c-0.6-1.9-2.8-2.4-4.1-1c-0.4,0.4-0.8,0.6-1.4,0.6c-1.2,0-2.2,0.8-2.3,2c-0.1,1.1,0.7,2.1,1.9,2.4c0.5,0.1,1,0.2,1.5,0.3
		c0.2,0,0.4,0.1,0.5,0.3c2.9,3.1,5.8,6.2,8.7,9.3c0.1,0.2,0.2,0.4,0.2,0.6c0,2.8,0,5.6,0,8.4c0,0.1,0,0.3,0,0.4h16.2v-0.5
		c0-2.8,0-5.5,0-8.3c0-0.3,0.1-0.6,0.3-0.8c2.5-2.7,5-5.3,7.5-8c0.9-1,1.9-1.7,3.3-1.9c0.4,0,0.9-0.3,1.2-0.7
		c0.7-0.6,0.8-1.5,0.4-2.3C41.4,18.8,40.8,18.3,39.8,18.3z M28.2,21.8c-0.3,0.5-0.8,0.7-1.5,0.6c0.1-0.9,0.1-1.8,0.2-2.7
		c0.6,0,1,0.2,1.3,0.7C28.5,20.8,28.5,21.3,28.2,21.8z M15.2,22.3c-0.9,0.1-1.7-0.4-1.7-1.3c0-0.8,0.6-1.4,1.5-1.4
		C15.1,20.6,15.2,21.4,15.2,22.3L15.2,22.3z M14.9,17.3c0,0.3,0,0.6,0,1h0c-0.3,0.1-0.6,0.1-0.9,0.2c-0.5-1.5-0.6-3.1,0-4.6
		c1-2.3,2.9-3.6,5.5-3.7c1.3,0,2.6-0.1,3.8,0.1c3.6,0.5,5.8,3.8,5,7.4c-0.1,0.3-0.1,0.5-0.2,0.8c-0.3-0.1-0.6-0.1-1-0.2
		c0.1-0.2,0.1-0.4,0.2-0.5c0.4-0.6,0.6-1.3,0.5-2.1h-1.3c0,0.1,0,0.3,0,0.4c0,0.7-0.4,1.3-1.1,1.5c-0.6,0.2-1.3,0.1-1.8-0.5
		c-0.3-0.4-0.6-0.7-0.9-1.1c-1.6-2-4.6-2.3-6.7-0.8C15.3,15.7,14.9,16.4,14.9,17.3z M16.6,22.3c-0.1-1.4-0.2-2.9-0.3-4.3
		c-0.1-1.2,0.2-1.7,1.4-2.1c1.5-0.6,3.1-0.1,4.1,1.1c0.1,0.1,0.2,0.3,0.3,0.4c0.9,1.2,2,1.8,3.6,1.5c-0.1,1.4-0.2,2.8-0.4,4.1
		c-0.4,2.1-2.5,3.6-4.6,3.4C18.5,26.3,16.7,24.5,16.6,22.3z M23.5,29c-0.8,0.6-1.6,1.3-2.4,1.9c-0.1,0.1-0.2,0-0.3,0
		c-0.8-0.6-1.6-1.2-2.4-1.9v0c0.2-0.4,0.4-0.8,0.6-1.2c0.1-0.2,0.2-0.3,0.4-0.2c1,0.3,2.1,0.3,3.1,0c0.1,0,0.3,0.1,0.3,0.2
		C23.1,28.1,23.3,28.5,23.5,29z M3.8,21.6L3.8,21.6c-0.7-0.1-1.3-0.3-1.9-0.4c-0.4-0.1-0.6-0.5-0.5-0.9c0.1-0.4,0.4-0.6,0.8-0.7
		c0.4,0,0.8,0,1.2,0c0.2,0,0.4-0.1,0.5-0.2c0.3-0.2,0.5-0.5,0.8-0.8c0.7-0.6,1.7-0.3,1.9,0.6c0,0.1,0,0.3-0.1,0.3
		c-0.8,0.7-1.6,1.3-2.5,2C4,21.6,3.9,21.6,3.8,21.6z M36.6,22.8c-2.9,3.1-5.8,6.2-8.6,9.3c-0.1,0.1-0.2,0.4-0.2,0.6c0,2.5,0,5,0,7.5
		v0.5H14.2c0-0.1,0-0.3,0-0.4c0-2.5,0-5,0-7.5c0-0.3-0.1-0.5-0.3-0.7c-2.9-3.1-5.8-6.2-8.6-9.2c-0.1-0.1-0.1-0.2-0.2-0.3
		c0.8-0.6,1.6-1.2,2.3-1.9c0.1,0.1,0.2,0.2,0.4,0.3c2.9,2.7,5.9,5.5,8.8,8.2h0l4,3.5c0.2,0.2,0.6,0.2,0.8,0l3.9-3.4
		c3-2.9,6.1-5.7,9.1-8.6c0,0,0.1-0.1,0.2-0.1c0.8,0.6,1.5,1.2,2.3,1.9C36.8,22.5,36.7,22.7,36.6,22.8z M39.9,21.3
		c-0.5,0.1-1,0.2-1.5,0.3c-0.2,0-0.4,0-0.5-0.1c-0.8-0.6-1.5-1.2-2.2-1.8c-0.3-0.2-0.3-0.4-0.2-0.7c0.2-0.4,0.6-0.7,1.1-0.8l0,0
		c0.3,0.1,0.6,0.2,0.8,0.4c0.6,0.8,1.4,1.1,2.4,1c0.5-0.1,0.9,0.3,0.9,0.7C40.7,20.8,40.4,21.2,39.9,21.3z"/>
	
		<linearGradient id="SVGID_00000080925005886425793000000005928479125995557036_" gradientUnits="userSpaceOnUse" x1="9.3703" y1="4.1735" x2="19.076" y2="4.1735">
		<stop  offset="0" style="stop-color:#FF9B28"/>
		<stop  offset="1" style="stop-color:#FFC100"/>
	</linearGradient>
	<path fill="url(#SVGID_00000080925005886425793000000005928479125995557036_)" d="M11.2,5.8c1,0.8,2,1.7,3.1,2.6
		c1.2-1,2.5-2,3.7-3.1c1.2-1,1.4-2.6,0.6-3.9c-0.8-1.3-2.5-1.7-3.9-1.1c-0.3,0.1-0.5,0.1-0.7,0c-1.4-0.7-3.1-0.2-3.9,1.1
		c-0.8,1.3-0.6,2.9,0.6,3.9C10.7,5.5,10.9,5.6,11.2,5.8z M11.3,1.9c0.6-0.7,1.7-0.8,2.4-0.2c0.2,0.2,0.4,0.4,0.7,0.6
		c0.1-0.2,0.3-0.4,0.4-0.5c0.7-0.7,1.8-0.6,2.5,0.1c0.6,0.7,0.6,1.7-0.2,2.4c-0.9,0.8-1.8,1.5-2.7,2.3v0c-1-0.8-2-1.6-2.9-2.4
		C10.7,3.6,10.7,2.6,11.3,1.9z"/>
	
		<linearGradient id="SVGID_00000029043613998923850970000014347935212201133195_" gradientUnits="userSpaceOnUse" x1="22.9095" y1="4.1749" x2="32.6191" y2="4.1749">
		<stop  offset="0" style="stop-color:#FF9B28"/>
		<stop  offset="1" style="stop-color:#FFC100"/>
	</linearGradient>
	<path fill="url(#SVGID_00000029043613998923850970000014347935212201133195_)" d="M27.8,8.3L27.8,8.3c1.2-1,2.5-2,3.7-3.1
		c1.2-1,1.4-2.7,0.6-3.9c-0.8-1.3-2.5-1.7-3.9-1.1c-0.3,0.1-0.5,0.1-0.7,0c-1.4-0.7-3.1-0.2-3.9,1.1c-0.8,1.3-0.6,2.9,0.6,3.9
		C25.3,6.3,26.5,7.3,27.8,8.3z M24.8,1.9c0.6-0.7,1.7-0.7,2.4-0.2c0.2,0.2,0.4,0.4,0.7,0.6C28,2.2,28.1,2,28.2,1.9
		c0.7-0.7,1.9-0.7,2.5,0c0.7,0.7,0.5,1.7-0.3,2.4c-0.9,0.7-1.8,1.5-2.7,2.2l0,0c-1-0.8-2-1.6-2.9-2.4C24.2,3.6,24.2,2.6,24.8,1.9z"
		/>
	
		<linearGradient id="SVGID_00000026145502458046072060000010265283887374022312_" gradientUnits="userSpaceOnUse" x1="-0.1086" y1="10.9491" x2="9.5973" y2="10.9491">
		<stop  offset="0" style="stop-color:#FF9B28"/>
		<stop  offset="1" style="stop-color:#FFC100"/>
	</linearGradient>
	<path fill="url(#SVGID_00000026145502458046072060000010265283887374022312_)" d="M1.7,12.6c1,0.8,2,1.7,3.1,2.6
		c1.2-1,2.5-2,3.7-3.1C9.6,11,9.8,9.4,9,8.1C8.2,6.9,6.5,6.4,5.1,7.1c-0.3,0.1-0.5,0.1-0.7,0C3,6.4,1.3,6.9,0.5,8.1
		c-0.8,1.3-0.6,2.9,0.6,3.9C1.3,12.2,1.5,12.4,1.7,12.6z M1.8,8.7C2.4,8,3.4,7.9,4.1,8.5c0.2,0.2,0.4,0.4,0.7,0.6
		C5,9,5.1,8.8,5.2,8.6C5.9,7.9,7.1,8,7.7,8.7c0.6,0.7,0.6,1.7-0.2,2.4c-0.9,0.8-1.8,1.5-2.7,2.3l0,0c-1-0.8-2-1.6-2.9-2.4
		C1.2,10.3,1.2,9.3,1.8,8.7z"/>
	
		<linearGradient id="SVGID_00000144335178552791029570000011633338960779568537_" gradientUnits="userSpaceOnUse" x1="32.3884" y1="10.9505" x2="42.0967" y2="10.9505">
		<stop  offset="0" style="stop-color:#FF9B28"/>
		<stop  offset="1" style="stop-color:#FFC100"/>
	</linearGradient>
	<path fill="url(#SVGID_00000144335178552791029570000011633338960779568537_)" d="M33.6,12.1c1.2,1,2.4,2,3.7,3.1l0,0
		c1.3-1,2.5-2,3.7-3.1c1.2-1,1.4-2.7,0.6-3.9c-0.8-1.2-2.5-1.7-3.9-1.1c-0.3,0.1-0.5,0.1-0.8,0c-1.4-0.7-3.1-0.2-3.9,1.1
		C32.2,9.4,32.4,11,33.6,12.1z M34.3,8.7c0.6-0.7,1.7-0.8,2.4-0.2c0.2,0.2,0.3,0.4,0.6,0.6c0.2-0.2,0.3-0.3,0.5-0.5
		c0.7-0.7,1.9-0.7,2.5,0c0.6,0.7,0.5,1.7-0.3,2.4c-0.9,0.7-1.8,1.5-2.7,2.2l0,0c-1-0.8-1.9-1.6-2.9-2.4C33.7,10.4,33.7,9.4,34.3,8.7
		z"/>
	
		<linearGradient id="SVGID_00000064349445540493110390000016557186306993336236_" gradientUnits="userSpaceOnUse" x1="18.2201" y1="23.0648" x2="23.7953" y2="23.0648">
		<stop  offset="0" style="stop-color:#FF9B28"/>
		<stop  offset="1" style="stop-color:#FFC100"/>
	</linearGradient>
	<path fill="url(#SVGID_00000064349445540493110390000016557186306993336236_)" d="M23.6,23c0.1-0.6,0.1-1.3,0.1-1.9h-5.4
		c0,0.5,0,1,0,1.4c0,1.4,1.1,2.5,2.5,2.6C22.1,25.2,23.4,24.3,23.6,23z M19.7,22.4h2.7c0,0.8-0.6,1.3-1.3,1.3
		C20.3,23.8,19.7,23.2,19.7,22.4z"/>
</g>
</svg>
