<?xml version="1.0" encoding="UTF-8"?>
<svg id="Layer_1" data-name="Layer 1" xmlns="http://www.w3.org/2000/svg" xmlns:xlink="http://www.w3.org/1999/xlink" version="1.1" viewBox="0 0 446 116.5">
  <defs>
    <style>
      .cls-1 {
        fill: url(#linear-gradient);
        stroke-width: 0px;
      }
    </style>
    <linearGradient id="linear-gradient" x1="-320.1" y1="797.8" x2="136.2" y2="797.8" gradientTransform="translate(315 856) scale(1 -1)" gradientUnits="userSpaceOnUse">
      <stop offset="0" stop-color="#ff9b28"/>
      <stop offset="1" stop-color="#ffc100"/>
    </linearGradient>
  </defs>
  <path class="cls-1" d="M446,55.2v-25.2c0-16.6-13.4-30-30-30H30C13.4,0,0,13.4,0,30v25.2h35.8c43.2,0,84.5,6.8,118.6,35.7,10.5,8.9,22.5,15.8,35.5,20.1,4.1,1.4,8.4,2.6,12.8,3.4,2.7.6,5.4,1,8.2,1.3,4,.5,8.1.7,12.2.7,11.1,0,21.8-1.7,31.9-5,13.5-4.4,25.9-11.4,36.8-20.6,34-28.9,75.3-35.7,118.6-35.7h35.8Z"/>
</svg>