<?xml version="1.0" encoding="UTF-8"?>
<svg id="Layer_1" data-name="Layer 1" xmlns="http://www.w3.org/2000/svg" version="1.1" viewBox="0 0 32.3 3.6">
  <defs>
    <style>
      .cls-1 {
        fill: #828282;
        stroke-width: 0px;
      }
    </style>
  </defs>
  <path class="cls-1" d="M13.2,3c-3.4,1-7.3.6-10.4-1.1l-1.3,1.2c-.4.3-1,.3-1.3,0-.3-.3-.2-.7,0-1L2.1.4s0,0,0,0c0,0,0,0,0,0,.4-.3,1-.4,1.4,0,3.5,2.3,8.2,2.7,12.1,1.2l3.3-.8c3.5-1.1,7.4-.7,10.5,1.1l1.3-1.2c.4-.3,1-.3,1.3,0,.3.3.2.7,0,1l-1.8,1.6s0,0,0,0c0,0,0,0,0,0-.4.3-1,.4-1.4,0-3.5-2.3-8.2-2.7-12.1-1.2l-3.4.8Z"/>
</svg>